<?xml version="1.0" encoding="utf-8"?>
<!-- Generator: Adobe Illustrator 22.0.1, SVG Export Plug-In . SVG Version: 6.00 Build 0)  -->
<svg version="1.1" xmlns="http://www.w3.org/2000/svg" xmlns:xlink="http://www.w3.org/1999/xlink" x="0px" y="0px"
	 viewBox="0 0 774 1026.1" style="enable-background:new 0 0 774 1026.1;" xml:space="preserve">
<style type="text/css">
	.st0{opacity:0.8;fill:url(#SVGID_1_);enable-background:new    ;}
	.st1{fill:#FFFFFF;}
	.st2{fill:#3D9FCE;}
	.st3{fill:url(#SVGID_2_);}
	.st4{fill:#6DF2A8;}
	.st5{filter:url(#Adobe_OpacityMaskFilter);}
	.st6{mask:url(#group-f_2_);fill:#FFFFFF;}
	.st7{filter:url(#Adobe_OpacityMaskFilter_1_);}
	.st8{mask:url(#group-i_2_);fill:#FFFFFF;}
	.st9{fill:#3C5DA8;}
	.st10{font-family:'SanFranciscoText-Medium';}
	.st11{font-size:16px;}
	.st12{letter-spacing:1;}
	.st13{fill:none;stroke:#979797;stroke-width:0.5;stroke-linecap:square;}
	.st14{fill:#4A4A4A;}
	.st15{font-family:'SanFranciscoDisplay-Medium';}
	.st16{font-size:24px;}
	.st17{fill:#C1C1C1;}
	.st18{font-family:'ArialMT';}
	.st19{font-size:8px;}
	.st20{font-size:18px;}
	.st21{font-size:13px;}
</style>
<g id="Layer_2">
</g>
<g id="Layer_1">
	
		<linearGradient id="SVGID_1_" gradientUnits="userSpaceOnUse" x1="26.2984" y1="792.3424" x2="699.3202" y2="44.9808" gradientTransform="matrix(1 0 0 -1 0 904.8488)">
		<stop  offset="0" style="stop-color:#FCEABB"/>
		<stop  offset="1" style="stop-color:#F8B500"/>
	</linearGradient>
	<rect class="st0" width="774" height="1026.1"/>
	<g transform="translate(20 14)">
		<g transform="translate(0 340)">
			<g>
				<path id="group-b_1_" class="st1" d="M209.5,209h315c5.5,0,10,4.5,10,10v220c0,5.5-4.5,10-10,10h-315c-5.5,0-10-4.5-10-10V219
					C199.5,213.5,204,209,209.5,209z"/>
			</g>
			<g transform="translate(221 127)">
				<path class="st2" d="M231,272c17.4,0,31.5-14.1,31.5-31.5S248.4,209,231,209s-31.5,14.1-31.5,31.5S213.6,272,231,272z"/>
				<path class="st1" d="M217.1,247.5c-0.1-0.3-3.2,0.1-3.2-2.9s3.1-2.4,3.1-2.6c1.1-6.4,6.7-11.7,12.8-11.7c0.1,0-0.3-1.1-0.9-2.4
					c-0.4-0.9-0.7-1.9-0.4-2.8c0.5-1.5,1.5-2.2,3-2.3c0.8,0,2.9-0.1,3.7,1.9c0.8,2-0.7,3.4-1.8,3.5c-1.9,0.3-3.1-2.1-3.1-2.1
					s0.6,1.4,1,2.1c0.3,0.6,1.3,2.1,1.3,2.1s0.9,0.1,1.3,0.2c2.8,0.6,6,2.1,7.6,3.7c2.8,2.9,3.6,7.6,3.6,7.8c0,0.2,3.5,0.4,3.1,3.2
					s-3.1,2.2-3.1,2.4c-1.5,6-7.2,10.8-13.8,10.6C224.4,258,218.5,253.6,217.1,247.5z M229.1,243.2c0.7,0,1.3-0.6,1.3-1.2
					c0-0.7-0.6-1.2-1.3-1.2s-1.3,0.6-1.3,1.2C227.9,242.6,228.4,243.2,229.1,243.2z M233.9,243.2c0.7,0,1.3-0.6,1.3-1.2
					c0-0.7-0.6-1.2-1.3-1.2s-1.3,0.6-1.3,1.2C232.7,242.6,233.2,243.2,233.9,243.2z M224.2,247.5c-0.4-0.1-0.7,0.5-0.8,0.8
					c-0.2,0.4-0.4,1-0.2,1.1c0.4,0.4,0.6-0.4,0.8-0.2c1.5,1.3,4.4,4.6,7.5,4.6c3.5,0,6.1-2.6,7.3-4.2c0.1-0.2,0.6,0.5,0.8,0.1
					s-0.2-0.9-0.6-1.3c-0.2-0.2-0.7-0.8-1.1-0.6c-0.4,0.2,0.1,0.9,0,1c-0.1,0.1-2.9,4-6.8,3.6c-3.9-0.4-6.7-3.8-6.8-3.8
					C224.3,248.4,224.5,247.6,224.2,247.5z"/>
			</g>
			<g transform="translate(58 124)">
				
					<linearGradient id="SVGID_2_" gradientUnits="userSpaceOnUse" x1="302.2498" y1="-9.5864" x2="302.2498" y2="-8.5864" gradientTransform="matrix(52.8 0 0 -46.375 -15732.8916 -181.1431)">
					<stop  offset="0" style="stop-color:#FE5196"/>
					<stop  offset="1" style="stop-color:#F77062"/>
				</linearGradient>
				<path class="st3" d="M225.9,263.4L224,262c-11.1-8.7-17.8-14-21.7-20.9c-2.8-5.1-3.6-10-2.2-14.4c1.2-3.7,3.8-6.6,7.4-8.3
					c1.9-0.9,3.9-1.3,6-1.3c5,0,9.8,2.6,12.4,6.5c2.6-4,7.3-6.5,12.4-6.5c2.1,0,4.1,0.4,6,1.3c3.6,1.7,6.2,4.6,7.4,8.3
					c1.4,4.4,0.6,9.4-2.2,14.4c-3.8,6.9-10.6,12.2-21.7,20.9L225.9,263.4z"/>
				<g transform="translate(39)">
					<g>
						<path id="group-d_2_" class="st4" d="M212,209L212,209c6.9,0,12.5,5.6,12.5,12.5v0.1c0,6.9-5.6,12.5-12.5,12.5l0,0
							c-6.9,0-12.5-5.6-12.5-12.5v-0.1C199.5,214.7,205.1,209,212,209z"/>
					</g>
					<defs>
						<filter id="Adobe_OpacityMaskFilter" filterUnits="userSpaceOnUse" x="206.2" y="218" width="12.5" height="9">
							<feColorMatrix  type="matrix" values="1 0 0 0 0  0 1 0 0 0  0 0 1 0 0  0 0 0 1 0"/>
						</filter>
					</defs>
					<mask maskUnits="userSpaceOnUse" x="206.2" y="218" width="12.5" height="9" id="group-f_2_">
						<g class="st5">
							<path id="group-d_3_" class="st1" d="M212,209L212,209c6.9,0,12.5,5.6,12.5,12.5v0.1c0,6.9-5.6,12.5-12.5,12.5l0,0
								c-6.9,0-12.5-5.6-12.5-12.5v-0.1C199.5,214.7,205.1,209,212,209z"/>
						</g>
					</mask>
					<path class="st6" d="M217.5,218.2c-0.2-0.1-0.4-0.1-0.6,0l-5.8,5.6c-0.2,0.1-0.4,0.1-0.6,0l-2.6-2.5c-0.1-0.1-0.2-0.1-0.3-0.1
						c-0.1,0-0.2,0-0.3,0.1l-1.1,1c-0.1,0.1-0.1,0.2-0.1,0.3c0,0.1,0,0.2,0.1,0.3l2.6,2.6c0.2,0.1,0.4,0.4,0.6,0.5l1.1,1.1
						c0.2,0.1,0.4,0.1,0.6,0l7.5-7.2c0.2-0.1,0.2-0.4,0-0.5L217.5,218.2z"/>
				</g>
				<g transform="translate(208)">
					<g>
						<path id="group-g_2_" class="st4" d="M212,209L212,209c6.9,0,12.5,5.6,12.5,12.5v0.1c0,6.9-5.6,12.5-12.5,12.5l0,0
							c-6.9,0-12.5-5.6-12.5-12.5v-0.1C199.5,214.7,205.1,209,212,209z"/>
					</g>
					<defs>
						<filter id="Adobe_OpacityMaskFilter_1_" filterUnits="userSpaceOnUse" x="206.2" y="218" width="12.5" height="9">
							<feColorMatrix  type="matrix" values="1 0 0 0 0  0 1 0 0 0  0 0 1 0 0  0 0 0 1 0"/>
						</filter>
					</defs>
					<mask maskUnits="userSpaceOnUse" x="206.2" y="218" width="12.5" height="9" id="group-i_2_">
						<g class="st7">
							<path id="group-g_3_" class="st1" d="M212,209L212,209c6.9,0,12.5,5.6,12.5,12.5v0.1c0,6.9-5.6,12.5-12.5,12.5l0,0
								c-6.9,0-12.5-5.6-12.5-12.5v-0.1C199.5,214.7,205.1,209,212,209z"/>
						</g>
					</mask>
					<path class="st8" d="M217.5,218.2c-0.2-0.1-0.4-0.1-0.6,0l-5.8,5.6c-0.2,0.1-0.4,0.1-0.6,0l-2.6-2.5c-0.1-0.1-0.2-0.1-0.3-0.1
						c-0.1,0-0.2,0-0.3,0.1l-1.1,1c-0.1,0.1-0.1,0.2-0.1,0.3c0,0.1,0,0.2,0.1,0.3l2.6,2.6c0.2,0.1,0.4,0.4,0.6,0.5l1.1,1.1
						c0.2,0.1,0.4,0.1,0.6,0l7.5-7.2c0.2-0.1,0.2-0.4,0-0.5L217.5,218.2z"/>
				</g>
			</g>
			<text transform="matrix(1 0 0 1 430.23 307.05)" class="st9 st10 st11 st12">Baby</text>
			<text transform="matrix(1 0 0 1 254.095 307.05)" class="st9 st10 st11 st12">Mother</text>
			<path class="st9" d="M443,422.9l6.8,6.7c0.7,0.7,1.7,0.7,2.4,0l6.8-6.7c0.7-0.7,0.7-1.7,0-2.4c-0.7-0.7-1.7-0.7-2.4,0l-6.8,6.7
				h2.4l-6.8-6.7c-0.7-0.7-1.7-0.7-2.4,0C442.3,421.2,442.3,422.2,443,422.9L443,422.9z M276,422.9l6.8,6.7c0.7,0.7,1.7,0.7,2.4,0
				l6.8-6.7c0.7-0.7,0.7-1.7,0-2.4c-0.7-0.7-1.7-0.7-2.4,0l-6.8,6.7h2.4l-6.8-6.7c-0.7-0.7-1.7-0.7-2.4,0
				C275.3,421.2,275.3,422.2,276,422.9L276,422.9z"/>
			<path class="st13" d="M367,294v130"/>
			<g transform="translate(20 16)">
				<text transform="matrix(1 0 0 1 209.5 232.05)" class="st14 st15 st16">Today</text>
				<text transform="matrix(1 0 0 1 387.791 232.05)" class="st17 st15 st16">March 14</text>
				<path class="st13" d="M199.5,253h295"/>
			</g>
		</g>
		<g>
			<path id="group-k_1_" class="st1" d="M209.5,209h315c5.5,0,10,4.5,10,10v300c0,5.5-4.5,10-10,10h-315c-5.5,0-10-4.5-10-10V219
				C199.5,213.5,204,209,209.5,209z"/>
		</g>
		<g transform="translate(20 16)">
			<text transform="matrix(1 0 0 1 209.5 232.05)" class="st14 st15 st16">Baby Due</text>
			<text transform="matrix(1 0 0 1 411.734 232.05)" class="st17 st15 st16">May 16</text>
			<path class="st13" d="M199.5,253h295 M199.5,339h295"/>
		</g>
		<path class="st9" d="M503,307.9c0.9,0.2,1.5,0.9,1.5,1.8v2.6c0,0.9-0.7,1.7-1.5,1.8l-2.1,0.4c-0.2,0.7-0.5,1.4-0.8,2l1.2,1.7
			c0.5,0.7,0.4,1.7-0.2,2.4l-1.9,1.9c-0.4,0.4-0.8,0.5-1.3,0.5c-0.4,0-0.8-0.1-1.1-0.3l-1.7-1.2c-0.7,0.3-1.3,0.6-2,0.8l-0.4,2.1
			c-0.2,0.9-0.9,1.5-1.8,1.5h-2.6c-0.9,0-1.7-0.7-1.8-1.5l-0.4-2.1c-0.7-0.2-1.3-0.5-2-0.8l-1.8,1.3c-0.3,0.2-0.7,0.3-1.1,0.3
			c-0.5,0-1-0.2-1.3-0.5l-1.9-1.9c-0.6-0.6-0.7-1.6-0.2-2.4l1.2-1.7c-0.4-0.7-0.6-1.3-0.9-2l-2.1-0.4c-0.9-0.2-1.5-0.9-1.5-1.8v-2.6
			c0-0.9,0.7-1.7,1.5-1.8l2.1-0.4c0.2-0.7,0.5-1.4,0.8-2l-1.3-1.8c-0.5-0.7-0.4-1.7,0.2-2.4l1.9-1.9c0.3-0.4,0.8-0.5,1.3-0.5
			c0.4,0,0.8,0.1,1.1,0.3l1.7,1.2c0.7-0.4,1.3-0.6,2-0.9l0.4-2.1c0.2-0.9,0.9-1.5,1.8-1.5h2.6c0.9,0,1.7,0.7,1.8,1.5l0.4,2.1
			c0.7,0.2,1.4,0.5,2.1,0.9l1.7-1.2c0.3-0.2,0.7-0.3,1.1-0.3c0.5,0,1,0.2,1.3,0.5l1.9,1.9c0.6,0.6,0.7,1.6,0.2,2.4l-1.2,1.7
			c0.3,0.7,0.6,1.3,0.8,2L503,307.9z M489.5,316c2.8,0,5-2.2,5-5s-2.2-5-5-5s-5,2.2-5,5S486.7,316,489.5,316z"/>
		<text transform="matrix(1 0 0 1 301.5 309.05)" class="st9 st10 st11">Days</text>
		<text transform="matrix(1 0 0 1 337.7266 309.05)" class="st9 st10 st11"> </text>
		<text transform="matrix(1 0 0 1 301.5 328.05)" class="st9 st10 st11">To Go</text>
		<path class="st9" d="M255.7,302.3h-3.8c-0.3-2.7-3-6.7-8.1-6.7c-5.9,0-10.6,5.3-10.9,18.3h0.1c1.2-3.3,5.1-6.6,10.8-6.6
			c6.4,0,12.9,4.7,12.9,13.2c0,8.3-5.9,13.5-13.4,13.5c-8.1,0-14-5.9-14-18.8c0-15.8,6.2-22.8,14.7-22.8
			C250.9,292.3,255.2,297.5,255.7,302.3z M233.6,320.3c0,6.4,4.6,10.3,9.8,10.3c5.1,0,9.6-3.5,9.6-9.9c0-6.6-4.8-10.1-9.6-10.1
			C238.3,310.6,233.6,313.9,233.6,320.3z M288.6,302.3h-3.8c-0.3-2.7-3-6.7-8.1-6.7c-5.9,0-10.6,5.3-10.9,18.3h0.1
			c1.2-3.3,5.1-6.6,10.8-6.6c6.4,0,12.9,4.7,12.9,13.2c0,8.3-5.9,13.5-13.4,13.5c-8.1,0-14-5.9-14-18.8c0-15.8,6.2-22.8,14.7-22.8
			C283.8,292.3,288.1,297.5,288.6,302.3z M266.5,320.3c0,6.4,4.6,10.3,9.8,10.3c5.1,0,9.6-3.5,9.6-9.9c0-6.6-4.8-10.1-9.6-10.1
			C271.2,310.6,266.5,313.9,266.5,320.3z"/>
		<g transform="translate(147 273)">
			<path class="st9" d="M212,229.9l6.8,6.7c0.7,0.7,1.7,0.7,2.4,0l6.8-6.7c0.7-0.7,0.7-1.7,0-2.4c-0.7-0.7-1.7-0.7-2.4,0l-6.8,6.7
				h2.4l-6.8-6.7c-0.7-0.7-1.7-0.7-2.4,0C211.3,228.2,211.3,229.2,212,229.9L212,229.9z"/>
			<text transform="matrix(1 0 0 1 200.018 217.05)" class="st9 st18 st19">View Info</text>
		</g>
		<text transform="matrix(1 0 0 1 232.5 388.05)" class="st14 st18 st20">Hey Mom!</text>
		<text transform="matrix(1 0 0 1 314.5107 388.05)" class="st14 st18 st20"> </text>
		<text transform="matrix(1 0 0 1 232.5 412.05)" class="st14 st18 st21">You’re in Week 15 of your pregnancy. </text>
		<text transform="matrix(1 0 0 1 232.5 431.55)" class="st14 st18 st21">I’ve compiled information for you regarding</text>
		<text transform="matrix(1 0 0 1 478.1797 431.55)" class="st14 st18 st20"> </text>
		<text transform="matrix(1 0 0 1 232.5 451.05)" class="st14 st18 st21">what you should expect this week.</text>
	</g>
</g>
</svg>
