<?xml version="1.0" encoding="utf-8"?>
<!-- Generator: Adobe Illustrator 22.0.1, SVG Export Plug-In . SVG Version: 6.00 Build 0)  -->
<svg version="1.1" id="Layer_1" xmlns="http://www.w3.org/2000/svg" xmlns:xlink="http://www.w3.org/1999/xlink" x="0px" y="0px"
	 viewBox="0 0 1347.3 1894.6" style="enable-background:new 0 0 1347.3 1894.6;" xml:space="preserve">
<style type="text/css">
	.st0{opacity:0.6;fill:#BAEAF7;enable-background:new    ;}
	.st1{opacity:0.3;fill:url(#SVGID_1_);enable-background:new    ;}
	.st2{opacity:0.3;fill:url(#SVGID_2_);enable-background:new    ;}
	.st3{opacity:0.8;fill:url(#SVGID_3_);enable-background:new    ;}
	.st4{opacity:0.1;fill:#090C30;enable-background:new    ;}
	.st5{fill:#353535;}
	.st6{opacity:0.1;fill:#E8E8E8;enable-background:new    ;}
	.st7{opacity:0.4;fill:none;stroke:url(#SVGID_4_);stroke-width:1.2287;stroke-miterlimit:10;enable-background:new    ;}
	.st8{opacity:0.2;fill:url(#SVGID_5_);enable-background:new    ;}
	.st9{opacity:0.2;fill:url(#SVGID_6_);enable-background:new    ;}
	.st10{opacity:0.2;}
	.st11{fill:url(#SVGID_7_);}
	.st12{fill:url(#SVGID_8_);}
	.st13{opacity:5.000000e-02;fill:#090C30;enable-background:new    ;}
	.st14{clip-path:url(#SVGID_10_);}
	.st15{fill:#EFEFEF;}
	.st16{fill:#FFFFFF;}
	.st17{fill:url(#SVGID_11_);}
	.st18{opacity:0.2;fill:#0D1826;enable-background:new    ;}
	.st19{fill:#F5FAFF;}
	.st20{opacity:0.1;fill:#0D1826;enable-background:new    ;}
	.st21{opacity:2.000000e-02;fill:#E2E0E0;enable-background:new    ;}
	.st22{opacity:0.4;fill:none;stroke:url(#SVGID_12_);stroke-width:1.2287;stroke-miterlimit:10;enable-background:new    ;}
	.st23{opacity:0.2;fill:url(#SVGID_13_);enable-background:new    ;}
	.st24{opacity:0.2;fill:url(#SVGID_14_);enable-background:new    ;}
	.st25{fill:url(#SVGID_15_);}
	.st26{fill:url(#SVGID_16_);}
	.st27{clip-path:url(#SVGID_18_);}
	.st28{fill:#D8D8D8;}
	.st29{fill:url(#SVGID_19_);}
	.st30{fill:url(#SVGID_20_);}
	.st31{opacity:0.2;clip-path:url(#SVGID_22_);fill:#0D1826;enable-background:new    ;}
	.st32{opacity:0.2;clip-path:url(#SVGID_24_);fill:#0D1826;enable-background:new    ;}
	.st33{opacity:0.2;clip-path:url(#SVGID_26_);fill:#0D1826;enable-background:new    ;}
	.st34{fill:#FFF6E9;}
	.st35{fill:#FBAE17;}
	.st36{fill:#009C5A;}
	.st37{fill:#EE3F38;}
	.st38{fill:#3F81C3;}
	.st39{fill:url(#SVGID_27_);}
	.st40{fill:none;stroke:#FFFFFF;stroke-width:4.4272;stroke-miterlimit:10;}
	.st41{fill:#637BAD;}
	.st42{fill:#E02D27;}
	.st43{fill:#36465C;}
	.st44{fill:#20B038;}
</style>
<g>
	<rect class="st0" width="1347.3" height="1894.6"/>
	
		<linearGradient id="SVGID_1_" gradientUnits="userSpaceOnUse" x1="-215.654" y1="-4151.2603" x2="1629.4353" y2="-5216.5229" gradientTransform="matrix(1 0 0 1 0 5612)">
		<stop  offset="0" style="stop-color:#83DBE5"/>
		<stop  offset="1" style="stop-color:#589DC4"/>
	</linearGradient>
	<rect class="st1" width="1347.3" height="1894.6"/>
	
		<linearGradient id="SVGID_2_" gradientUnits="userSpaceOnUse" x1="-215.654" y1="-4151.2603" x2="1629.4353" y2="-5216.5229" gradientTransform="matrix(1 0 0 1 0 5612)">
		<stop  offset="0" style="stop-color:#83DBE5"/>
		<stop  offset="1" style="stop-color:#589DC4"/>
	</linearGradient>
	<rect class="st2" width="1347.3" height="1894.6"/>
	
		<linearGradient id="SVGID_3_" gradientUnits="userSpaceOnUse" x1="-215.654" y1="-4151.2603" x2="1629.4353" y2="-5216.5229" gradientTransform="matrix(1 0 0 1 0 5612)">
		<stop  offset="0" style="stop-color:#83DBE5"/>
		<stop  offset="1" style="stop-color:#589DC4"/>
	</linearGradient>
	<rect class="st3" width="1347.3" height="1894.6"/>
	<g>
		<g>
			<g>
				<path class="st4" d="M566.3,1084.7l-230.7-28.3c-25.9-3.2-44.5-27-41.3-52.9l70.1-570.9c3.2-25.9,27-44.5,52.9-41.3L648,419.6
					c25.9,3.2,44.5,27,41.3,52.9l-70.1,570.9C616,1069.3,592.3,1087.9,566.3,1084.7z"/>
				<path class="st5" d="M284.2,976.6l-1.4,11.2c-3.2,25.9,15.4,49.7,41.3,52.9l230.7,28.3c25.9,3.2,49.7-15.4,52.9-41.3l1.4-11.2
					L284.2,976.6z"/>
				<g>
					<path class="st6" d="M469.5,1044.1l-56.6-7c-4.5-0.6-7.7-4.6-7.2-9.1l1.7-13.4c0.6-4.5,4.6-7.7,9.1-7.2l56.6,7
						c4.5,0.6,7.7,4.6,7.2,9.1l-1.7,13.4C478.2,1041.4,474,1044.6,469.5,1044.1z"/>
					
						<linearGradient id="SVGID_4_" gradientUnits="userSpaceOnUse" x1="-1944.2384" y1="-3033.6331" x2="-1868.3413" y2="-3033.6331" gradientTransform="matrix(1 5.162232e-03 -5.162232e-03 1 2333.7339 4069.2241)">
						<stop  offset="0" style="stop-color:#636363"/>
						<stop  offset="8.703999e-02" style="stop-color:#6F6F6F;stop-opacity:0.9544"/>
						<stop  offset="0.2464" style="stop-color:#8E8F91;stop-opacity:0.871"/>
						<stop  offset="0.4588" style="stop-color:#BFC3C6;stop-opacity:0.7598"/>
						<stop  offset="0.4965" style="stop-color:#C9CDD0;stop-opacity:0.74"/>
						<stop  offset="0.6565" style="stop-color:#A7ABAE;stop-opacity:0.8385"/>
						<stop  offset="0.8139" style="stop-color:#8C8F92;stop-opacity:0.9354"/>
						<stop  offset="0.9057" style="stop-color:#828588;stop-opacity:0.9919"/>
					</linearGradient>
					<path class="st7" d="M469.5,1044.1l-56.6-7c-4.5-0.6-7.7-4.6-7.2-9.1l1.7-13.4c0.6-4.5,4.6-7.7,9.1-7.2l56.6,7
						c4.5,0.6,7.7,4.6,7.2,9.1l-1.7,13.4C478.2,1041.4,474,1044.6,469.5,1044.1z"/>
				</g>
				<g>
					<path class="st5" d="M676.5,468.1l1.4-11.2c3.2-25.9-15.4-49.7-41.3-52.9l-230.9-28.4c-25.9-3.2-49.7,15.4-52.9,41.3l-1.4,11.2
						L676.5,468.1z"/>
					
						<linearGradient id="SVGID_5_" gradientUnits="userSpaceOnUse" x1="-1855.8143" y1="-3639.8438" x2="-1811.181" y2="-3665.6128" gradientTransform="matrix(1 5.162232e-03 -5.162232e-03 1 2333.7339 4069.2241)">
						<stop  offset="0" style="stop-color:#636363"/>
						<stop  offset="8.703999e-02" style="stop-color:#6F6F6F;stop-opacity:0.9544"/>
						<stop  offset="0.2464" style="stop-color:#8E8F91;stop-opacity:0.871"/>
						<stop  offset="0.4588" style="stop-color:#BFC3C6;stop-opacity:0.7598"/>
						<stop  offset="0.4965" style="stop-color:#C9CDD0;stop-opacity:0.74"/>
						<stop  offset="0.6397" style="stop-color:#C6CACD;stop-opacity:0.8117"/>
						<stop  offset="0.7492" style="stop-color:#BCC0C3;stop-opacity:0.8665"/>
						<stop  offset="0.8475" style="stop-color:#ACB0B3;stop-opacity:0.9157"/>
						<stop  offset="0.9388" style="stop-color:#96999C;stop-opacity:0.9613"/>
						<stop  offset="1" style="stop-color:#828588;stop-opacity:0.9919"/>
					</linearGradient>
					<path class="st8" d="M545.8,414.2l-54.2-6.7c-2.1-0.2-3.7-2.2-3.4-4.3l0,0c0.2-2.1,2.2-3.7,4.3-3.4l54.2,6.7
						c2.1,0.2,3.7,2.2,3.4,4.3l0,0C549.7,413,547.9,414.5,545.8,414.2z"/>
					
						<linearGradient id="SVGID_6_" gradientUnits="userSpaceOnUse" x1="870.9476" y1="-5808.2222" x2="889.6876" y2="-5808.2222" gradientTransform="matrix(0.9926 0.1211 -0.1211 0.9926 -956.2158 6083.8062)">
						<stop  offset="0" style="stop-color:#636363"/>
						<stop  offset="8.703999e-02" style="stop-color:#6F6F6F;stop-opacity:0.9544"/>
						<stop  offset="0.2464" style="stop-color:#8E8F91;stop-opacity:0.871"/>
						<stop  offset="0.4588" style="stop-color:#BFC3C6;stop-opacity:0.7598"/>
						<stop  offset="0.4965" style="stop-color:#C9CDD0;stop-opacity:0.74"/>
						<stop  offset="0.6397" style="stop-color:#C6CACD;stop-opacity:0.8117"/>
						<stop  offset="0.7492" style="stop-color:#BCC0C3;stop-opacity:0.8665"/>
						<stop  offset="0.8475" style="stop-color:#ACB0B3;stop-opacity:0.9157"/>
						<stop  offset="0.9388" style="stop-color:#96999C;stop-opacity:0.9613"/>
						<stop  offset="1" style="stop-color:#828588;stop-opacity:0.9919"/>
					</linearGradient>
					<circle class="st9" cx="621.2" cy="425.2" r="9.4"/>
					<g class="st10">
						
							<linearGradient id="SVGID_7_" gradientUnits="userSpaceOnUse" x1="716.8527" y1="-5814.7319" x2="726.2227" y2="-5814.7319" gradientTransform="matrix(0.9926 0.1211 -0.1211 0.9926 -956.2158 6083.8062)">
							<stop  offset="0" style="stop-color:#636363"/>
							<stop  offset="8.703999e-02" style="stop-color:#6F6F6F;stop-opacity:0.9544"/>
							<stop  offset="0.2464" style="stop-color:#8E8F91;stop-opacity:0.871"/>
							<stop  offset="0.4588" style="stop-color:#BFC3C6;stop-opacity:0.7598"/>
							<stop  offset="0.4965" style="stop-color:#C9CDD0;stop-opacity:0.74"/>
							<stop  offset="0.6397" style="stop-color:#C6CACD;stop-opacity:0.8117"/>
							<stop  offset="0.7492" style="stop-color:#BCC0C3;stop-opacity:0.8665"/>
							<stop  offset="0.8475" style="stop-color:#ACB0B3;stop-opacity:0.9157"/>
							<stop  offset="0.9388" style="stop-color:#96999C;stop-opacity:0.9613"/>
							<stop  offset="1" style="stop-color:#828588;stop-opacity:0.9919"/>
						</linearGradient>
						<circle class="st11" cx="464.3" cy="399.5" r="4.7"/>
						
							<linearGradient id="SVGID_8_" gradientUnits="userSpaceOnUse" x1="701.6732" y1="-5814.8018" x2="711.0432" y2="-5814.8018" gradientTransform="matrix(0.9926 0.1211 -0.1211 0.9926 -956.2158 6083.8062)">
							<stop  offset="0" style="stop-color:#636363"/>
							<stop  offset="8.703999e-02" style="stop-color:#6F6F6F;stop-opacity:0.9544"/>
							<stop  offset="0.2464" style="stop-color:#8E8F91;stop-opacity:0.871"/>
							<stop  offset="0.4588" style="stop-color:#BFC3C6;stop-opacity:0.7598"/>
							<stop  offset="0.4965" style="stop-color:#C9CDD0;stop-opacity:0.74"/>
							<stop  offset="0.6397" style="stop-color:#C6CACD;stop-opacity:0.8117"/>
							<stop  offset="0.7492" style="stop-color:#BCC0C3;stop-opacity:0.8665"/>
							<stop  offset="0.8475" style="stop-color:#ACB0B3;stop-opacity:0.9157"/>
							<stop  offset="0.9388" style="stop-color:#96999C;stop-opacity:0.9613"/>
							<stop  offset="1" style="stop-color:#828588;stop-opacity:0.9919"/>
						</linearGradient>
						<circle class="st12" cx="449.3" cy="397.6" r="4.7"/>
					</g>
				</g>
				<path class="st13" d="M636.5,403.8l-230.7-28.3c-0.2-0.1-0.3,0-0.5,0l212.2,26.1c25.9,3.2,44.5,27,41.3,52.9l-70.1,570.9
					c-3.2,25.7-26.7,44.2-52.4,41.4l18.6,2.3c25.9,3.2,49.7-15.4,52.9-41.3l70.1-570.9C681,430.7,662.5,407,636.5,403.8z"/>
				<g>
					<g>
						<g>
							<g>
								<g>
									<g>
										<g>
											<defs>
												
													<rect id="SVGID_9_" x="203.9" y="558.5" transform="matrix(0.1219 -0.9925 0.9925 0.1219 -295.1542 1110.7119)" width="552.5" height="327.4"/>
											</defs>
											<clipPath id="SVGID_10_">
												<use xlink:href="#SVGID_9_"  style="overflow:visible;"/>
											</clipPath>
											<g class="st14">
												
													<rect x="200.7" y="561.5" transform="matrix(0.1211 -0.9926 0.9926 0.1211 -298.2657 1113.5382)" class="st15" width="558" height="327.5"/>
												
													<rect x="318.3" y="694.1" transform="matrix(0.1211 -0.9926 0.9926 0.1211 -444.1657 1214.0863)" class="st16" width="290.4" height="327.5"/>
												
													<linearGradient id="SVGID_11_" gradientUnits="userSpaceOnUse" x1="613.3658" y1="-5666.9478" x2="940.832" y2="-5666.9478" gradientTransform="matrix(0.9926 0.1211 -0.1211 0.9926 -956.2158 6083.8057)">
													<stop  offset="0" style="stop-color:#2C3E50"/>
													<stop  offset="5.662000e-02" style="stop-color:#2F4758"/>
													<stop  offset="0.341" style="stop-color:#3B6E7E"/>
													<stop  offset="0.6026" style="stop-color:#458A99"/>
													<stop  offset="0.8306" style="stop-color:#4A9BA9"/>
													<stop  offset="1" style="stop-color:#4CA1AF"/>
												</linearGradient>
												<polygon class="st17" points="651.2,677 326.2,637.2 351.6,428.8 676.6,468.5 												"/>
												
													<rect x="502.5" y="294.9" transform="matrix(0.1211 -0.9926 0.9926 0.1211 -4.5165 912.1472)" class="st18" width="20.6" height="327.5"/>
												<path class="st19" d="M655.6,640.3l-83.8-10.2c-0.2-4.9-3.8-9.2-8.8-9.8s-9.7,2.6-10.9,7.3l-221.6-27l-0.4,2.9l221.6,27
													c0.2,4.9,3.8,9.2,8.8,9.8s9.7-2.6,10.9-7.3l83.8,10.2L655.6,640.3z"/>
												<path class="st18" d="M441.2,693.9l-55.9-6.8c-7.4-0.9-12.6-7.6-11.7-15l0,0c0.9-7.4,7.6-12.6,15-11.7l55.9,6.8
													c7.4,0.9,12.6,7.6,11.7,15l0,0C455.3,689.6,448.6,694.8,441.2,693.9z"/>
												<path class="st18" d="M589.4,712.1l-44.5-5.4c-7.4-0.9-12.6-7.6-11.7-15l0,0c0.9-7.4,7.6-12.6,15-11.7l44.5,5.4
													c7.4,0.9,12.6,7.6,11.7,15l0,0C603.5,707.7,596.7,713,589.4,712.1z"/>
												<path class="st18" d="M663.7,721.1l-37.7-4.6c-7.4-0.9-12.6-7.6-11.7-15l0,0c0.9-7.4,7.6-12.6,15-11.7l37.7,4.6
													c7.4,0.9,12.6,7.6,11.7,15l0,0C677.7,716.8,671,721.9,663.7,721.1z"/>
												<path class="st18" d="M508.3,702.1l-30.5-3.7c-7.4-0.9-12.6-7.6-11.7-15l0,0c0.9-7.4,7.6-12.6,15-11.7l30.5,3.7
													c7.4,0.9,12.6,7.6,11.7,15l0,0C522.3,697.8,515.7,703,508.3,702.1z"/>
												<g>
													<ellipse class="st18" cx="356.2" cy="744" rx="24.7" ry="24.7"/>
													<g>
														
															<rect x="501.3" y="636.7" transform="matrix(0.1211 -0.9926 0.9926 0.1211 -294.6534 1164.7404)" class="st20" width="18.2" height="224.2"/>
														
															<rect x="497.9" y="664.4" transform="matrix(0.1211 -0.9926 0.9926 0.1211 -325.2052 1185.6783)" class="st20" width="18.2" height="224.2"/>
													</g>
												</g>
												<g>
													<ellipse class="st18" cx="346.8" cy="821.5" rx="24.7" ry="24.7"/>
													<g>
														
															<rect x="491.8" y="714.2" transform="matrix(0.1211 -0.9926 0.9926 0.1211 -379.9191 1223.4746)" class="st20" width="18.2" height="224.2"/>
														
															<rect x="488.5" y="741.8" transform="matrix(0.1211 -0.9926 0.9926 0.1211 -410.3001 1244.4541)" class="st20" width="18.2" height="224.2"/>
													</g>
												</g>
												<g>
													<ellipse class="st18" cx="337.3" cy="899.1" rx="24.7" ry="24.7"/>
													<g>
														
															<rect x="482.3" y="791.7" transform="matrix(0.1211 -0.9926 0.9926 0.1211 -465.2822 1282.1791)" class="st20" width="18.2" height="224.2"/>
														
															<rect x="479" y="819.4" transform="matrix(0.1211 -0.9926 0.9926 0.1211 -495.6653 1303.1244)" class="st20" width="18.2" height="224.2"/>
													</g>
												</g>
												
													<rect x="419.9" y="822.4" transform="matrix(0.1211 -0.9926 0.9926 0.1211 -585.1496 1311.4351)" class="st18" width="56.2" height="327.5"/>
												
													<ellipse transform="matrix(0.2555 -0.9668 0.9668 0.2555 -387.5475 834.6622)" class="st18" cx="348.2" cy="669" rx="13.4" ry="13.4"/>
											</g>
										</g>
									</g>
								</g>
							</g>
						</g>
					</g>
				</g>
				<g>
					<polygon class="st21" points="367.6,986.8 284.2,976.6 351.5,428.2 597.6,458.3 					"/>
				</g>
			</g>
			<g>
				<g>
					<path class="st4" d="M952.9,1476.1l-230.7-28.3c-25.9-3.2-44.5-27-41.3-52.9L751,824c3.2-25.9,27-44.5,52.9-41.3l230.7,28.3
						c25.9,3.2,44.5,27,41.3,52.9l-70.1,570.9C1002.6,1460.7,978.7,1479.3,952.9,1476.1z"/>
					<path class="st5" d="M670.6,1367.9l-1.4,11.2c-3.2,25.9,15.4,49.7,41.3,52.9l230.7,28.3c25.9,3.2,49.7-15.4,52.9-41.3l1.4-11.2
						L670.6,1367.9z"/>
					<g>
						<path class="st6" d="M855.9,1435.4l-56.6-7c-4.5-0.6-7.7-4.6-7.2-9.1l1.7-13.4c0.6-4.5,4.6-7.7,9.1-7.2l56.6,7
							c4.5,0.6,7.7,4.6,7.2,9.1l-1.7,13.4C864.6,1432.7,860.5,1435.9,855.9,1435.4z"/>
						
							<linearGradient id="SVGID_12_" gradientUnits="userSpaceOnUse" x1="-1555.751" y1="-2644.3381" x2="-1479.8539" y2="-2644.3381" gradientTransform="matrix(1 5.162232e-03 -5.162232e-03 1 2333.7339 4069.2241)">
							<stop  offset="0" style="stop-color:#636363"/>
							<stop  offset="8.703999e-02" style="stop-color:#6F6F6F;stop-opacity:0.9544"/>
							<stop  offset="0.2464" style="stop-color:#8E8F91;stop-opacity:0.871"/>
							<stop  offset="0.4588" style="stop-color:#BFC3C6;stop-opacity:0.7598"/>
							<stop  offset="0.4965" style="stop-color:#C9CDD0;stop-opacity:0.74"/>
							<stop  offset="0.6565" style="stop-color:#A7ABAE;stop-opacity:0.8385"/>
							<stop  offset="0.8139" style="stop-color:#8C8F92;stop-opacity:0.9354"/>
							<stop  offset="0.9057" style="stop-color:#828588;stop-opacity:0.9919"/>
						</linearGradient>
						<path class="st22" d="M855.9,1435.4l-56.6-7c-4.5-0.6-7.7-4.6-7.2-9.1l1.7-13.4c0.6-4.5,4.6-7.7,9.1-7.2l56.6,7
							c4.5,0.6,7.7,4.6,7.2,9.1l-1.7,13.4C864.6,1432.7,860.5,1435.9,855.9,1435.4z"/>
					</g>
					<g>
						<path class="st5" d="M1063,859.5l1.4-11.2c3.2-25.9-15.4-49.7-41.3-52.9l-230.7-28.3c-25.9-3.2-49.7,15.4-52.9,41.3l-1.4,11.2
							L1063,859.5z"/>
						
							<linearGradient id="SVGID_13_" gradientUnits="userSpaceOnUse" x1="-1467.3596" y1="-3250.5024" x2="-1422.7263" y2="-3276.2717" gradientTransform="matrix(1 5.162232e-03 -5.162232e-03 1 2333.7339 4069.2241)">
							<stop  offset="0" style="stop-color:#636363"/>
							<stop  offset="8.703999e-02" style="stop-color:#6F6F6F;stop-opacity:0.9544"/>
							<stop  offset="0.2464" style="stop-color:#8E8F91;stop-opacity:0.871"/>
							<stop  offset="0.4588" style="stop-color:#BFC3C6;stop-opacity:0.7598"/>
							<stop  offset="0.4965" style="stop-color:#C9CDD0;stop-opacity:0.74"/>
							<stop  offset="0.6397" style="stop-color:#C6CACD;stop-opacity:0.8117"/>
							<stop  offset="0.7492" style="stop-color:#BCC0C3;stop-opacity:0.8665"/>
							<stop  offset="0.8475" style="stop-color:#ACB0B3;stop-opacity:0.9157"/>
							<stop  offset="0.9388" style="stop-color:#96999C;stop-opacity:0.9613"/>
							<stop  offset="1" style="stop-color:#828588;stop-opacity:0.9919"/>
						</linearGradient>
						<path class="st23" d="M932.2,805.6l-54.2-6.7c-2.1-0.2-3.7-2.2-3.4-4.3l0,0c0.2-2.1,2.2-3.7,4.3-3.4l54.2,6.7
							c2.1,0.2,3.7,2.2,3.4,4.3l0,0C936.2,804.3,934.3,805.8,932.2,805.6z"/>
						
							<linearGradient id="SVGID_14_" gradientUnits="userSpaceOnUse" x1="1301.9796" y1="-5466.5835" x2="1320.7195" y2="-5466.5835" gradientTransform="matrix(0.9926 0.1211 -0.1211 0.9926 -956.2158 6083.8062)">
							<stop  offset="0" style="stop-color:#636363"/>
							<stop  offset="8.703999e-02" style="stop-color:#6F6F6F;stop-opacity:0.9544"/>
							<stop  offset="0.2464" style="stop-color:#8E8F91;stop-opacity:0.871"/>
							<stop  offset="0.4588" style="stop-color:#BFC3C6;stop-opacity:0.7598"/>
							<stop  offset="0.4965" style="stop-color:#C9CDD0;stop-opacity:0.74"/>
							<stop  offset="0.6397" style="stop-color:#C6CACD;stop-opacity:0.8117"/>
							<stop  offset="0.7492" style="stop-color:#BCC0C3;stop-opacity:0.8665"/>
							<stop  offset="0.8475" style="stop-color:#ACB0B3;stop-opacity:0.9157"/>
							<stop  offset="0.9388" style="stop-color:#96999C;stop-opacity:0.9613"/>
							<stop  offset="1" style="stop-color:#828588;stop-opacity:0.9919"/>
						</linearGradient>
						<circle class="st24" cx="1007.6" cy="816.5" r="9.4"/>
						<g class="st10">
							
								<linearGradient id="SVGID_15_" gradientUnits="userSpaceOnUse" x1="1147.8844" y1="-5473.0063" x2="1157.2544" y2="-5473.0063" gradientTransform="matrix(0.9926 0.1211 -0.1211 0.9926 -956.2158 6083.8062)">
								<stop  offset="0" style="stop-color:#636363"/>
								<stop  offset="8.703999e-02" style="stop-color:#6F6F6F;stop-opacity:0.9544"/>
								<stop  offset="0.2464" style="stop-color:#8E8F91;stop-opacity:0.871"/>
								<stop  offset="0.4588" style="stop-color:#BFC3C6;stop-opacity:0.7598"/>
								<stop  offset="0.4965" style="stop-color:#C9CDD0;stop-opacity:0.74"/>
								<stop  offset="0.6397" style="stop-color:#C6CACD;stop-opacity:0.8117"/>
								<stop  offset="0.7492" style="stop-color:#BCC0C3;stop-opacity:0.8665"/>
								<stop  offset="0.8475" style="stop-color:#ACB0B3;stop-opacity:0.9157"/>
								<stop  offset="0.9388" style="stop-color:#96999C;stop-opacity:0.9613"/>
								<stop  offset="1" style="stop-color:#828588;stop-opacity:0.9919"/>
							</linearGradient>
							<circle class="st25" cx="850.8" cy="790.9" r="4.7"/>
							
								<linearGradient id="SVGID_16_" gradientUnits="userSpaceOnUse" x1="1132.7052" y1="-5472.9644" x2="1142.0752" y2="-5472.9644" gradientTransform="matrix(0.9926 0.1211 -0.1211 0.9926 -956.2158 6083.8062)">
								<stop  offset="0" style="stop-color:#636363"/>
								<stop  offset="8.703999e-02" style="stop-color:#6F6F6F;stop-opacity:0.9544"/>
								<stop  offset="0.2464" style="stop-color:#8E8F91;stop-opacity:0.871"/>
								<stop  offset="0.4588" style="stop-color:#BFC3C6;stop-opacity:0.7598"/>
								<stop  offset="0.4965" style="stop-color:#C9CDD0;stop-opacity:0.74"/>
								<stop  offset="0.6397" style="stop-color:#C6CACD;stop-opacity:0.8117"/>
								<stop  offset="0.7492" style="stop-color:#BCC0C3;stop-opacity:0.8665"/>
								<stop  offset="0.8475" style="stop-color:#ACB0B3;stop-opacity:0.9157"/>
								<stop  offset="0.9388" style="stop-color:#96999C;stop-opacity:0.9613"/>
								<stop  offset="1" style="stop-color:#828588;stop-opacity:0.9919"/>
							</linearGradient>
							<circle class="st26" cx="835.7" cy="789.1" r="4.7"/>
						</g>
					</g>
					<path class="st13" d="M1023.1,795.1l-230.7-28.3c-0.2-0.1-0.3,0-0.5,0l212.2,26.1c25.9,3.2,44.5,27,41.3,52.9l-70.2,570.8
						c-3.2,25.7-26.7,44.2-52.4,41.4l18.6,2.3c25.9,3.2,49.7-15.4,52.9-41.3l70.1-571C1067.5,822.2,1048.9,798.3,1023.1,795.1z"/>
					<g>
						<polygon class="st21" points="754.2,1378.2 670.6,1367.9 738,819.5 984.1,849.8 						"/>
					</g>
				</g>
				<g>
					<g>
						<g>
							<g>
								<g>
									<g>
										<g>
											<defs>
												
													<rect id="SVGID_17_" x="590.2" y="949.1" transform="matrix(0.1211 -0.9926 0.9926 0.1211 -342.5585 1838.6278)" width="553.7" height="327.4"/>
											</defs>
											<clipPath id="SVGID_18_">
												<use xlink:href="#SVGID_17_"  style="overflow:visible;"/>
											</clipPath>
											<g class="st27">
												
													<rect x="489.3" y="959.5" transform="matrix(0.1211 -0.9926 0.9926 0.1211 -353.7679 1846.5269)" class="st15" width="753.2" height="327"/>
												
													<rect x="872.3" y="622.1" transform="matrix(0.1211 -0.9926 0.9926 0.1211 17.4867 1590.988)" class="st16" width="69.7" height="327"/>
												<g>
													
														<rect x="872.4" y="621.1" transform="matrix(0.1211 -0.9926 0.9926 0.1211 18.5374 1590.1274)" class="st16" width="69.7" height="327"/>
													
														<rect x="900.1" y="596" transform="matrix(0.1211 -0.9926 0.9926 0.1211 46.2552 1571.157)" class="st28" width="20.6" height="327"/>
													
														<rect x="837.2" y="694.7" transform="matrix(0.1211 -0.9926 0.9926 0.1211 -34.5691 1535.0734)" class="st20" width="24.7" height="184.7"/>
												</g>
												<g>
													
														<rect x="674.8" y="883.7" transform="matrix(0.1211 -0.9926 0.9926 0.1211 -270.4207 1788.9103)" class="st16" width="400.5" height="327"/>
													
														<linearGradient id="SVGID_19_" gradientUnits="userSpaceOnUse" x1="1044.7002" y1="-5237.3281" x2="1371.7329" y2="-5237.3281" gradientTransform="matrix(0.9926 0.1211 -0.1211 0.9926 -956.2161 6083.8057)">
														<stop  offset="0" style="stop-color:#2C3E50"/>
														<stop  offset="5.662000e-02" style="stop-color:#2F4758"/>
														<stop  offset="0.341" style="stop-color:#3B6E7E"/>
														<stop  offset="0.6026" style="stop-color:#458A99"/>
														<stop  offset="0.8306" style="stop-color:#4A9BA9"/>
														<stop  offset="1" style="stop-color:#4CA1AF"/>
													</linearGradient>
													<polygon class="st29" points="1026.9,1155.5 702.3,1115.8 727.7,907.6 1052.3,947.2 													"/>
													<g>
														
															<rect x="842.7" y="761.8" transform="matrix(0.1211 -0.9926 0.9926 0.1211 -111.7218 1613.1288)" class="st18" width="24.7" height="215.7"/>
														
															<rect x="864" y="774.9" transform="matrix(0.1211 -0.9926 0.9926 0.1211 -130.517 1658.0587)" class="st20" width="14.1" height="255.6"/>
													</g>
													<g>
														<g>
															<path class="st18" d="M779,1165.3l-55.2-6.7c-7.3-0.9-12.5-7.5-11.6-14.8l0,0c0.9-7.3,7.5-12.5,14.8-11.6l55.2,6.7
																c7.3,0.9,12.5,7.5,11.6,14.8l0,0C792.9,1161,786.2,1166.1,779,1165.3z"/>
														</g>
														
															<rect x="849.8" y="1045.4" transform="matrix(0.1211 -0.9926 0.9926 0.1211 -433.471 1901.149)" class="st20" width="14.1" height="300"/>
														
															<rect x="781.2" y="1131.2" transform="matrix(0.1211 -0.9926 0.9926 0.1211 -513.899 1850.871)" class="st20" width="14.1" height="168.8"/>
													</g>
												</g>
												<g>
													
														<rect x="623.4" y="1303.4" transform="matrix(0.1211 -0.9926 0.9926 0.1211 -732.1917 2106.8201)" class="st16" width="400.5" height="327"/>
													
														<linearGradient id="SVGID_20_" gradientUnits="userSpaceOnUse" x1="1044.6185" y1="-4814.4912" x2="1371.7375" y2="-4814.4912" gradientTransform="matrix(0.9926 0.1211 -0.1211 0.9926 -956.2161 6083.8057)">
														<stop  offset="0" style="stop-color:#2C3E50"/>
														<stop  offset="5.662000e-02" style="stop-color:#2F4758"/>
														<stop  offset="0.341" style="stop-color:#3B6E7E"/>
														<stop  offset="0.6026" style="stop-color:#458A99"/>
														<stop  offset="0.8306" style="stop-color:#4A9BA9"/>
														<stop  offset="1" style="stop-color:#4CA1AF"/>
													</linearGradient>
													<polygon class="st30" points="975.7,1575.2 651,1535.6 676.5,1327.3 1001,1367 													"/>
													<g>
														
															<rect x="791.5" y="1181.5" transform="matrix(0.1211 -0.9926 0.9926 0.1211 -573.4056 1931.1398)" class="st18" width="24.7" height="215.7"/>
														
															<rect x="812.9" y="1194.8" transform="matrix(0.1211 -0.9926 0.9926 0.1211 -592.1873 1976.3749)" class="st20" width="14.1" height="255.6"/>
													</g>
													<g>
														<g>
															<path class="st18" d="M723.1,1583.5l-51.3-6.2c-6.8-0.9-11.6-7-10.8-13.7l0,0c0.9-6.8,7-11.6,13.7-10.8l51.3,6.2
																c6.8,0.9,11.6,7,10.8,13.7l0,0C735.9,1579.5,729.8,1584.3,723.1,1583.5z"/>
														</g>
														
															<rect x="798.6" y="1465.1" transform="matrix(0.1211 -0.9926 0.9926 0.1211 -895.1412 2219.1523)" class="st20" width="14.1" height="300"/>
														
															<rect x="730" y="1550.9" transform="matrix(0.1211 -0.9926 0.9926 0.1211 -975.4209 2168.877)" class="st20" width="14.1" height="168.8"/>
													</g>
												</g>
											</g>
										</g>
									</g>
								</g>
							</g>
						</g>
					</g>
					<g>
						<g>
							<g>
								<g>
									<g>
										<g>
											<defs>
												
													<rect id="SVGID_21_" x="811.5" y="902.5" transform="matrix(0.7812 -0.6243 0.6243 0.7812 -522.9056 866.9577)" width="327.4" height="553.7"/>
											</defs>
											<clipPath id="SVGID_22_">
												<use xlink:href="#SVGID_21_"  style="overflow:visible;"/>
											</clipPath>
											
												<ellipse transform="matrix(0.2555 -0.9668 0.9668 0.2555 -454.7457 1747.2067)" class="st31" cx="907.1" cy="1168.9" rx="13.3" ry="13.3"/>
										</g>
									</g>
								</g>
							</g>
						</g>
					</g>
					<g>
						<g>
							<g>
								<g>
									<g>
										<g>
											<defs>
												
													<rect id="SVGID_23_" x="891.9" y="880" transform="matrix(0.7812 -0.6243 0.6243 0.7812 -491.2497 912.2349)" width="327.4" height="553.7"/>
											</defs>
											<clipPath id="SVGID_24_">
												<use xlink:href="#SVGID_23_"  style="overflow:visible;"/>
											</clipPath>
											
												<ellipse transform="matrix(0.2555 -0.9668 0.9668 0.2555 -426.6509 1794.7854)" class="st32" cx="952" cy="1174.4" rx="13.3" ry="13.3"/>
										</g>
									</g>
								</g>
							</g>
						</g>
					</g>
					<g>
						<g>
							<g>
								<g>
									<g>
										<g>
											<defs>
												
													<rect id="SVGID_25_" x="590.2" y="949.1" transform="matrix(0.1211 -0.9926 0.9926 0.1211 -342.5585 1838.6278)" width="553.7" height="327.4"/>
											</defs>
											<clipPath id="SVGID_26_">
												<use xlink:href="#SVGID_25_"  style="overflow:visible;"/>
											</clipPath>
											<circle class="st33" cx="997" cy="1179.8" r="13.3"/>
										</g>
									</g>
								</g>
							</g>
						</g>
					</g>
				</g>
			</g>
		</g>
		<g>
			<path class="st34" d="M471.6,1154.1c-21.2,32-12.5,75.1,19.5,96.2c32,21.2,75.1,12.5,96.2-19.5c21.2-32,12.5-75.1-19.5-96.3
				C535.9,1113.4,492.8,1122.1,471.6,1154.1z"/>
			<path class="st35" d="M569.7,1131.8L569.7,1131.8L569.7,1131.8l-55.4,27.5c11.1-5.1,24.4-4.4,35.3,2.8
				c10.9,7.2,16.6,19.2,16.3,31.4c0,0.8-0.1,1.7-0.1,2.5l-3.8,61.6c11.1-5.6,20.9-13.8,28.2-24.9
				C612.4,1199.2,603.2,1154,569.7,1131.8z"/>
			<path class="st36" d="M559.8,1212.6c-11,16.5-32.9,21.2-49.5,10.8c-0.3-0.2-0.6-0.3-1-0.6c-0.3-0.3-0.6-0.4-1-0.6l-51.5-34.2
				c-1.5,25.1,9.9,50.2,32.4,65.1s50.1,15.7,72.5,4.5l0,0l3.8-61.6C565.2,1201.8,563.3,1207.5,559.8,1212.6z"/>
			<path class="st37" d="M468.9,1152.3c-7.3,11.1-11.2,23.3-11.9,35.7l0,0l51.5,34.2c-16-11.3-20.3-33.3-9.3-49.8
				c3.4-5.1,7.9-9.1,13-11.9c0.7-0.3,1.5-0.7,2.2-1l55.4-27.5C536.2,1109.6,491,1118.7,468.9,1152.3z"/>
			<path class="st38" d="M504.6,1175.9c-9.1,13.7-5.4,32.3,8.4,41.4c13.7,9.1,32.3,5.4,41.4-8.4c9.1-13.7,5.4-32.3-8.4-41.4
				C532.3,1158.4,513.7,1162.1,504.6,1175.9z"/>
		</g>
		<g>
			
				<radialGradient id="SVGID_27_" cx="-329.1056" cy="-688.0841" r="88.1653" gradientTransform="matrix(0.9906 -0.1374 0.1374 0.9906 785.3784 1941.6851)" gradientUnits="userSpaceOnUse">
				<stop  offset="0" style="stop-color:#FFD476"/>
				<stop  offset="0.2463" style="stop-color:#F1A354"/>
				<stop  offset="0.3793" style="stop-color:#F05C3C"/>
				<stop  offset="0.6995" style="stop-color:#C22F85"/>
				<stop  offset="0.9568" style="stop-color:#6666AD"/>
				<stop  offset="0.9852" style="stop-color:#5C6CB2"/>
			</radialGradient>
			<circle class="st39" cx="376.9" cy="1259.5" r="43.7"/>
			<g>
				<path class="st40" d="M404.2,1268.4c1.1,7.7-4.4,15.1-12.2,16.1l-22.7,3.2c-7.7,1.1-15.1-4.4-16.1-12.2l-3.3-24.3
					c-1.1-7.7,4.4-15.1,12.2-16.1l22.7-3.2c7.7-1.1,15.1,4.4,16.1,12.2L404.2,1268.4z"/>
				<path class="st40" d="M389.4,1257.8c0.9,6.9-3.8,13.4-10.8,14.3c-6.9,0.9-13.4-3.8-14.3-10.8c-0.9-6.9,3.8-13.5,10.8-14.3
					C383.7,1246.1,388.7,1250.9,389.4,1257.8z"/>
				<circle class="st16" cx="390.1" cy="1241.9" r="3.5"/>
			</g>
		</g>
		<g>
			<g>
				
					<ellipse transform="matrix(0.9993 -3.770987e-02 3.770987e-02 0.9993 -51.3232 18.9566)" class="st41" cx="476.9" cy="1370" rx="52.3" ry="52.3"/>
			</g>
			<path class="st16" d="M467.2,1375.9l-2.5,28l13.6,1.2l2.5-27.9l9.3,0.8l3.3-11.4l-11.4-1.1l0.8-8.5c0.1-1.2,0.9-2.7,2.7-2.5
				l6.6,0.6l1.1-11.8l-12.3-1.1c-4.2-0.4-11.1,4.3-11.5,9.9l-1.1,11.9l-7.2-0.7l-1,11.7L467.2,1375.9z"/>
		</g>
		<g>
			<g>
				<circle class="st42" cx="810.5" cy="639.4" r="71.4"/>
			</g>
			<path class="st16" d="M852.4,620c-1.8-4.4-4.2-5.5-9.4-6.4c-5-0.9-17.8-2.5-29-3.8c-11.1-1.3-23.9-2.6-29.1-2.9
				c-5.1-0.3-7.7,0.2-10.6,4.1c-2.9,3.9-4.9,10.9-6.4,23.5l0,0l0,0c-1.5,12.6-1,20,0.8,24.4s4.2,5.5,9.4,6.4c5,0.9,17.8,2.5,29,3.8
				c11.1,1.3,23.9,2.6,29.1,2.9c5.1,0.3,7.7-0.2,10.6-4.1s4.9-10.9,6.4-23.5l0,0l0,0C854.6,631.8,854.2,624.4,852.4,620
				 M800.2,654.1l3.6-31.2l22.3,18.4L800.2,654.1z"/>
		</g>
		<g>
			<g>
				<circle class="st43" cx="971.9" cy="590.1" r="52"/>
			</g>
			<path class="st16" d="M974.8,586.7l-1.8,13.4c-0.5,3.4-0.8,5.4-0.5,6.4s1,2.1,1.9,2.8c1.2,0.9,2.6,1.5,4.3,1.8
				c3,0.4,4.8,0.2,7.9-1.3l-1.2,8.8c-2.7,0.8-4.9,1.2-7,1.5c-2.1,0.2-4.3,0.1-6.7-0.2c-2.7-0.4-4.2-0.9-6.1-1.8
				c-1.9-0.9-3.6-2.2-4.9-3.6c-1.3-1.5-2.1-2.9-2.5-4.4c-0.3-1.4-0.4-3.5,0-6.2l2.8-20.5l-7.8-1l1.2-8.3c2.4-0.4,5.1-1.1,6.9-2.3
				s3.4-2.6,4.6-4.5c1.3-1.8,2.2-4.2,3-7.2l9.4,1.2l-2,14.6l14.6,2l-1.5,11L974.8,586.7z"/>
		</g>
		<g>
			<circle class="st44" cx="867.2" cy="481.9" r="46.7"/>
			<path class="st16" d="M858.3,460.4c-0.6-2-1.5-2.3-2.4-2.4c-0.7-0.1-1.5-0.2-2.2-0.3c-0.8-0.1-2.1,0-3.3,1s-4.6,3.4-5.4,9.1
				s2.7,11.9,3.2,12.7s6.3,14,17.5,20.3c9.3,5.2,11.5,4.7,13.6,4.8c2.2,0.1,7.3-1.9,8.6-4.4c1.3-2.6,1.6-5,1.4-5.4
				c-0.3-0.6-1-0.9-2-1.7c-1.1-0.7-6.4-4.4-7.5-4.9c-1-0.6-1.7-0.9-2.7,0.2c-0.9,1.1-3.5,3.4-4.3,4c-0.8,0.7-1.5,0.6-2.6-0.1
				s-4.7-2.5-8.6-7c-3.1-3.6-4.9-7.7-5.4-9s0.2-1.8,0.8-2.3s1.4-1.2,2-1.8s0.9-1.1,1.4-1.8c0.5-0.7,0.4-1.5,0.1-2
				C860.5,468.9,859,462.8,858.3,460.4"/>
		</g>
	</g>
</g>
</svg>
