<?xml version="1.0" encoding="utf-8"?>
<!-- Generator: Adobe Illustrator 20.1.0, SVG Export Plug-In . SVG Version: 6.00 Build 0)  -->
<svg version="1.1" id="Layer_1" xmlns="http://www.w3.org/2000/svg" xmlns:xlink="http://www.w3.org/1999/xlink" x="0px" y="0px"
	 viewBox="0 0 3.4 3.4" style="enable-background:new 0 0 3.4 3.4;" xml:space="preserve">
<style type="text/css">
	.st0{fill:#FAA006;}
	.st1{opacity:0.6;fill:url(#SVGID_1_);enable-background:new    ;}
	.st2{opacity:0.4;fill:#FFBE71;enable-background:new    ;}
	.st3{fill:url(#SVGID_2_);}
</style>
<title>Asset 39</title>
<g>
	<g>
		<path class="st0" d="M3.2,2.1C3.5,2.6,3,3.2,2.5,3.3C1.6,3.4,0.6,2.9,0.2,2c-0.4-1.1-0.1-1.6,0.4-1.9S1.3,1,1.8,1.3
			S2.8,1.6,3.2,2.1z"/>
		
			<linearGradient id="SVGID_1_" gradientUnits="userSpaceOnUse" x1="-132.3492" y1="284.8622" x2="-130.0693" y2="284.8622" gradientTransform="matrix(-0.5592 0.829 0.829 0.5592 -307.9909 -48.6025)">
			<stop  offset="0" style="stop-color:#FF7434"/>
			<stop  offset="1" style="stop-color:#FDB700"/>
		</linearGradient>
		<path class="st1" d="M3.2,2.1C3.5,2.6,3,3.2,2.5,3.3C1.6,3.4,0.6,2.9,0.2,2c-0.4-1.1,0-1.6,0.4-1.9s0.6,0.8,1.1,1.1
			S2.8,1.6,3.2,2.1z"/>
		<path class="st2" d="M3.2,2.9c0,0,0.2-0.2-0.1-0.1C2.6,2.8,2,2.7,1.6,2.3C1.2,2,0.3,0.8,0.7,0.1c0.1-0.2-0.9,0.2-0.6,1.5
			c0.1,0.7,0.7,1.3,1.3,1.6C2.6,3.5,3,3.1,3.2,2.9z"/>
	</g>
</g>
<linearGradient id="SVGID_2_" gradientUnits="userSpaceOnUse" x1="-1.6471" y1="1.4196" x2="-1.6471" y2="1.4196">
	<stop  offset="0" style="stop-color:#FF7434"/>
	<stop  offset="1" style="stop-color:#FDB700"/>
</linearGradient>
<path class="st3" d="M-1.6,1.4"/>
</svg>
