<?xml version="1.0" encoding="UTF-8" standalone="no"?>
<svg xmlns="http://www.w3.org/2000/svg" xmlns:xlink="http://www.w3.org/1999/xlink" viewBox="0 0 3.23 3.19">
<defs>
<style>.cls-1{fill:#faa006;}.cls-2{opacity:0.6;fill:url(#linear-gradient);}.cls-3{fill:#ffbe71;opacity:0.4;}</style>
<linearGradient id="linear-gradient" y2="1.82" gradientUnits="userSpaceOnUse" x2="2.61" gradientTransform="translate(3.81 1.61) rotate(124)" y1="1.82" x1=".33">
<stop stop-color="#ff7434" offset="0"/>
<stop stop-color="#fdb700" offset="1"/>
</linearGradient>
</defs>
<title>Asset 39</title>
<g data-name="Layer 2">
<g data-name="Layer 2">
<path class="cls-1" d="m3.11 2c0.34 0.49-0.14 1.1-0.66 1.16a2.21 2.21 0 0 1 -2.28 -1.26c-0.38-1.12-0.06-1.64 0.41-1.9s0.7 0.87 1.18 1.15 1.01 0.38 1.35 0.85z"/>
<path class="cls-2" d="m3.11 2c0.34 0.49-0.14 1.1-0.66 1.16a2.21 2.21 0 0 1 -2.28 -1.27c-0.37-1.11-0.05-1.63 0.41-1.89s0.7 0.87 1.18 1.15 1.02 0.38 1.35 0.85z"/>
<path class="cls-3" d="m3.11 2.75s0.15-0.22-0.07-0.13a2.22 2.22 0 0 1 -1.53 -0.38c-0.4-0.34-1.3-1.48-0.85-2.16 0.13-0.2-0.91 0.15-0.61 1.4a2 2 0 0 0 1.21 1.52c1.27 0.43 1.66 0 1.85-0.25z"/>
</g>
</g>
</svg>
