<?xml version="1.0" encoding="UTF-8" standalone="no"?>
<svg xmlns="http://www.w3.org/2000/svg" viewBox="0 0 15.58 10.79">
<defs>
<style>.cls-1{fill:#709ea2;}.cls-2{fill:#dce0dc;}.cls-3{fill:#f3f9f2;}.cls-4{fill:#2a2b2b;}.cls-5{fill:#474747;}.cls-6{fill:#1a1a1a;opacity:0.1;}.cls-7{fill:#b5cb3f;}.cls-8{fill:#c6d654;}.cls-9{fill:#9fbcbc;}</style>
</defs>
<title>Asset 14</title>
<g data-name="Layer 2">
<g data-name="Layer 2">
<polygon points="5.2 10.6 15.1 4.86 14.5 4.54 4.67 10.2" class="cls-1"/>
<polygon points="9.84 1.49 15.6 4.8 5.71 10.5 0 7.18" class="cls-2"/>
<polygon points="9.84 1.35 15.6 4.65 5.71 10.3 0 7.04" class="cls-3"/>
<polygon points="9.84 1.19 15.6 4.5 5.71 10.2 0 6.88" class="cls-2"/>
<polygon points="9.84 1.05 15.6 4.35 5.71 10 0 6.74" class="cls-3"/>
<polygon points="9.84 0.9 15.6 4.2 5.71 9.88 0 6.59" class="cls-2"/>
<polygon points="9.84 0.75 15.6 4.05 5.71 9.73 0 6.44" class="cls-3"/>
<polygon points="9.84 0.63 15.6 3.93 5.71 9.61 0 6.32" class="cls-2"/>
<polygon points="9.84 0.48 15.6 3.78 5.71 9.46 0 6.17" class="cls-3"/>
<polygon points="9.84 0 15.6 3.31 5.71 8.99 0 5.7" class="cls-4"/>
<polygon points="5.71 10.5 5.71 10.8 15.6 5.1 15.6 4.8" class="cls-5"/>
<polygon points="15.6 3.31 5.71 8.99 5.71 9.3 15.6 3.62" class="cls-5"/>
<polygon points="0 6 0 7.19 0 7.49 0 7.5 5.71 10.8 5.71 10.5 0.26 7.34 0.26 6.15 5.71 9.3 5.71 8.99 0 5.7" class="cls-5"/>
<polygon points="5.26 8.72 15.1 3.05 15 2.98 5.15 8.66" class="cls-6"/>
<polygon points="5.2 8.69 15.1 3 14.5 2.68 4.67 8.39" class="cls-7"/>
<polygon points="5.26 10.5 5.26 8.73 5.19 8.69 5.19 10.5" class="cls-6"/>
<polygon points="4.67 8.39 4.67 10.2 5.2 10.6 5.2 8.69" class="cls-8"/>
<line y1="8.99" x2="5.71" x1="5.71" y2="9.3" class="cls-9"/>
</g>
</g>
</svg>
