<?xml version="1.0" encoding="utf-8"?>
<!-- Generator: Adobe Illustrator 21.1.0, SVG Export Plug-In . SVG Version: 6.00 Build 0)  -->
<svg version="1.1" id="Layer_1" xmlns="http://www.w3.org/2000/svg" xmlns:xlink="http://www.w3.org/1999/xlink" x="0px" y="0px"
	 viewBox="0 0 15.6 10.8" style="enable-background:new 0 0 15.6 10.8;" xml:space="preserve">
<style type="text/css">
	.st0{fill:#709EA2;}
	.st1{fill:#DCE1E5;}
	.st2{fill:#F8FAFD;}
	.st3{fill:#2A2B2B;}
	.st4{fill:#474747;}
	.st5{opacity:0.1;fill:#1A1A1A;enable-background:new    ;}
	.st6{fill:#E98369;}
	.st7{fill:#EF8873;}
	.st8{fill:none;}
</style>
<title>Asset 14</title>
<polygon class="st0" points="5.2,10.6 15.1,4.9 14.5,4.5 4.7,10.2 "/>
<polygon class="st1" points="9.8,1.5 15.6,4.8 5.7,10.5 0,7.2 "/>
<polygon class="st2" points="9.8,1.4 15.6,4.7 5.7,10.3 0,7 "/>
<polygon class="st1" points="9.8,1.2 15.6,4.5 5.7,10.2 0,6.9 "/>
<polygon class="st2" points="9.8,1 15.6,4.3 5.7,10 0,6.7 "/>
<polygon class="st1" points="9.8,0.9 15.6,4.2 5.7,9.9 0,6.6 "/>
<polygon class="st2" points="9.8,0.8 15.6,4.1 5.7,9.7 0,6.4 "/>
<polygon class="st1" points="9.8,0.6 15.6,3.9 5.7,9.6 0,6.3 "/>
<polygon class="st2" points="9.8,0.5 15.6,3.8 5.7,9.5 0,6.2 "/>
<polygon class="st3" points="9.8,0 15.6,3.3 5.7,9 0,5.7 "/>
<polygon class="st4" points="5.7,10.5 5.7,10.8 15.6,5.1 15.6,4.8 "/>
<polygon class="st4" points="15.6,3.3 5.7,9 5.7,9.3 15.6,3.6 "/>
<polygon class="st4" points="0,6 0,7.2 0,7.5 0,7.5 5.7,10.8 5.7,10.5 0.3,7.3 0.3,6.2 5.7,9.3 5.7,9 0,5.7 "/>
<polygon class="st5" points="5.3,8.7 15.1,3 15,3 5.2,8.7 "/>
<polygon class="st6" points="5.2,8.7 15.1,3 14.5,2.7 4.7,8.4 "/>
<polygon class="st5" points="5.3,10.5 5.3,8.7 5.2,8.7 5.2,10.5 "/>
<polygon class="st7" points="4.7,8.4 4.7,10.2 5.2,10.6 5.2,8.7 "/>
<line class="st8" x1="5.7" y1="9" x2="5.7" y2="9.3"/>
</svg>
