<?xml version="1.0" encoding="UTF-8" standalone="no"?>
<svg xmlns="http://www.w3.org/2000/svg" xmlns:xlink="http://www.w3.org/1999/xlink" viewBox="0 0 8.01 11.51">
<defs>
<style>.cls-1,.cls-9{fill:#dce0dc;}.cls-2{fill:#f3f9f2;}.cls-3{fill:#d3a74f;}.cls-4,.cls-6{opacity:0.6;}.cls-10,.cls-4,.cls-6{isolation:isolate;}.cls-4{fill:url(#linear-gradient);}.cls-5{fill:#ddbc72;}.cls-6{fill:url(#b);}.cls-7{fill:#ecf2eb;}.cls-7,.cls-8{opacity:0.1;}.cls-8{fill:#99670d;}.cls-10,.cls-9{opacity:0.05;}.cls-10{fill:url(#a);}</style>
<linearGradient id="linear-gradient" y2="7.23" gradientUnits="userSpaceOnUse" x2="7.41" y1="7.23" x1=".6">
<stop stop-color="#d99a60" offset="0"/>
<stop stop-color="#d48b57" offset=".24"/>
<stop stop-color="#cd7247" offset=".71"/>
<stop stop-color="#ca6941" offset="1"/>
</linearGradient>
<linearGradient id="b" y2="3.45" xlink:href="#linear-gradient" x2="7.39" y1="3.45" x1=".58"/>
<linearGradient id="a" y2="1.09" xlink:href="#linear-gradient" x2="5.9" y1="1.09" x1="4.4"/>
</defs>
<title>Asset 36</title>
<g data-name="Layer 2">
<g data-name="Layer 2">
<path class="cls-1" d="m6.84 0.68-5.25 0.12a5.34 5.34 0 0 1 4.82 0c0.92 0.53 1.42 1.23 0.85 2.09a2.12 2.12 0 0 0 -0.85 -0.82 5.34 5.34 0 0 0 -4.82 0 2.11 2.11 0 0 0 -0.85 0.82c-0.74-0.57-0.06-1.56 0.85-2.09z"/>
<path class="cls-2" d="m0 2.32l1.27 7.6s0 1.59 2.73 1.59 2.85-1.58 2.85-1.58l1.15-7.61s-0.24 2.25-4 2.25-4-2.24-4-2.24z"/>
<path class="cls-3" d="m0.6 3.42l1 6.25s0.08 1.33 2.4 1.33 2.46-1.33 2.46-1.33l0.95-6.25s-0.16 1.58-3.41 1.58-3.4-1.58-3.4-1.58z"/>
<path class="cls-4" d="m0.6 3.42l1 6.25s0.08 1.33 2.4 1.33 2.46-1.33 2.46-1.33l0.95-6.25s-0.16 1.58-3.41 1.58-3.4-1.58-3.4-1.58z"/>
<path class="cls-5" d="m1.59 4.84a5.35 5.35 0 0 0 4.82 0c1.33-0.76 1.33-2 0-2.78a5.34 5.34 0 0 0 -4.82 0c-1.32 0.77-1.32 2.02 0 2.78z"/>
<path class="cls-6" d="m1.57 4.84a5.35 5.35 0 0 0 4.82 0c1.33-0.76 1.33-2 0-2.78a5.34 5.34 0 0 0 -4.82 0c-1.32 0.77-1.32 2.02 0 2.78z"/>
<path class="cls-7" d="m3.22 2c-0.18 0-1.64 0-2 1.08-0.05 0.17 0.23 0.26 0.35 0.12a1.63 1.63 0 0 1 1.26 -0.79c0.77 0.03 0.55-0.35 0.39-0.41z"/>
<path class="cls-8" d="m6.39 2.06a5.2 5.2 0 0 0 -3 -0.54 4.61 4.61 0 0 1 1.82 0.54c1.33 0.77 1.33 2 0 2.78a4.61 4.61 0 0 1 -1.81 0.54 5.2 5.2 0 0 0 3 -0.54c1.32-0.76 1.32-2.01-0.01-2.78z"/>
<path class="cls-7" d="m1.38 4.06a4.21 4.21 0 0 0 1 0.36l0.54 7a3 3 0 0 1 -0.71 -0.25z"/>
<path class="cls-9" d="m0 2.32l1.27 7.6s0 1.59 2.73 1.59 2.85-1.58 2.85-1.58l1.15-7.61s-0.24 2.25-4 2.25-4-2.24-4-2.24z"/>
<path class="cls-10" d="m5.9 0.68a5.23 5.23 0 0 0 -1.5 -0.32v1.14a5.23 5.23 0 0 1 1.5 0.32z"/>
<path class="cls-2" d="m6.84 0.68a6.28 6.28 0 0 0 -5.67 0c-1.56 0.9-1.56 2.37 0 3.27a6.29 6.29 0 0 0 5.67 0.05c1.56-0.95 1.56-2.42 0-3.32zm-5.24 3c-1.32-0.77-1.32-2 0-2.78a5.34 5.34 0 0 1 4.82 0c1.33 0.77 1.33 2 0 2.78a5.35 5.35 0 0 1 -4.83 0.02z"/>
</g>
</g>
</svg>
