<?xml version="1.0" encoding="utf-8"?>
<!-- Generator: Adobe Illustrator 21.1.0, SVG Export Plug-In . SVG Version: 6.00 Build 0)  -->
<svg version="1.1" id="Layer_1" xmlns="http://www.w3.org/2000/svg" xmlns:xlink="http://www.w3.org/1999/xlink" x="0px" y="0px"
	 viewBox="0 0 8 11.5" style="enable-background:new 0 0 8 11.5;" xml:space="preserve">
<style type="text/css">
	.st0{opacity:0.2;fill:#C0B5C6;}
	.st1{fill:#F8FAFD;}
	.st2{fill:#D3A74F;}
	.st3{opacity:0.6;fill:url(#SVGID_1_);enable-background:new    ;}
	.st4{fill:#DDBC72;}
	.st5{opacity:0.6;fill:url(#SVGID_2_);enable-background:new    ;}
	.st6{opacity:0.1;fill:#ECF2EB;enable-background:new    ;}
	.st7{opacity:0.1;fill:#99670D;enable-background:new    ;}
	.st8{opacity:5.000000e-02;fill:url(#SVGID_3_);}
	.st9{opacity:0.1;fill:#C0B5C6;enable-background:new    ;}
	.st10{opacity:0.3;fill:#F8FAFD;}
</style>
<title>Asset 36</title>
<g>
	<g>
		<path class="st0" d="M1.6,0.8C3.1,0,4.9,0,6.4,0.8C7.3,1.3,7.7,2.1,7.2,3C7,2.6,6.8,2.3,6.4,2.1c-1.5-0.8-3.3-0.8-4.8,0
			C1.2,2.3,1,2.5,0.8,2.9C0.1,2.3,0.7,1.3,1.6,0.8"/>
		<path class="st1" d="M0,2.3l1.3,7.6c0,0,0,1.6,2.7,1.6s2.8-1.6,2.8-1.6L8,2.3c0,0-0.2,2.2-4,2.2S0,2.3,0,2.3L0,2.3z"/>
		<path class="st2" d="M0.6,3.4l1,6.2c0,0,0.1,1.3,2.4,1.3s2.5-1.3,2.5-1.3l0.9-6.2C7.4,3.4,7.2,5,4,5S0.6,3.4,0.6,3.4z"/>
		
			<linearGradient id="SVGID_1_" gradientUnits="userSpaceOnUse" x1="0.6" y1="425.15" x2="7.41" y2="425.15" gradientTransform="matrix(1 0 0 1 0 -418)">
			<stop  offset="0" style="stop-color:#D99A60"/>
			<stop  offset="0.24" style="stop-color:#D48B57"/>
			<stop  offset="0.71" style="stop-color:#CD7247"/>
			<stop  offset="1" style="stop-color:#CA6941"/>
		</linearGradient>
		<path class="st3" d="M0.6,3.4l1,6.2c0,0,0.1,1.3,2.4,1.3s2.5-1.3,2.5-1.3l0.9-6.2C7.4,3.4,7.2,5,4,5S0.6,3.4,0.6,3.4z"/>
		<path class="st4" d="M1.6,4.8c1.5,0.8,3.3,0.8,4.8,0c1.3-0.8,1.3-2,0-2.8C4.9,1.2,3.1,1.2,1.6,2C0.3,2.8,0.3,4.1,1.6,4.8z"/>
		
			<linearGradient id="SVGID_2_" gradientUnits="userSpaceOnUse" x1="0.58" y1="421.4" x2="7.3875" y2="421.4" gradientTransform="matrix(1 0 0 1 0 -418)">
			<stop  offset="0" style="stop-color:#D99A60"/>
			<stop  offset="0.24" style="stop-color:#D48B57"/>
			<stop  offset="0.71" style="stop-color:#CD7247"/>
			<stop  offset="1" style="stop-color:#CA6941"/>
		</linearGradient>
		<path class="st5" d="M1.6,4.8c1.5,0.8,3.3,0.8,4.8,0c1.3-0.8,1.3-2,0-2.8C4.9,1.2,3.1,1.2,1.6,2C0.3,2.8,0.3,4.1,1.6,4.8z"/>
		<path class="st6" d="M3.2,2C3,2,1.6,2,1.2,3.1c0,0.2,0.2,0.3,0.4,0.1c0.3-0.5,0.7-0.7,1.3-0.8C3.6,2.4,3.4,2.1,3.2,2z"/>
		<path class="st7" d="M6.4,2.1c-0.9-0.5-2-0.7-3-0.5c0.6,0,1.2,0.2,1.8,0.5c1.3,0.8,1.3,2,0,2.8C4.7,5.1,4,5.3,3.4,5.4
			c1,0.1,2.1-0.1,3-0.5C7.7,4.1,7.7,2.8,6.4,2.1z"/>
		<path class="st6" d="M1.4,4.1c0.3,0.2,0.7,0.3,1,0.4l0.5,7c-0.2-0.1-0.5-0.1-0.7-0.2L1.4,4.1z"/>
		<linearGradient id="SVGID_3_" gradientUnits="userSpaceOnUse" x1="8.187161e-03" y1="6.8728" x2="8.0082" y2="6.8728">
			<stop  offset="0" style="stop-color:#FFFFFF"/>
			<stop  offset="1" style="stop-color:#DE8456"/>
		</linearGradient>
		<path class="st8" d="M0,2.3l1.3,7.6c0,0,0,1.6,2.7,1.6s2.8-1.6,2.8-1.6L8,2.3c0,0-0.2,2.2-4,2.2S0,2.3,0,2.3L0,2.3z"/>
		<path class="st9" d="M5.9,0.7c-0.5-0.2-1-0.3-1.5-0.3v1.1c0.5,0,1,0.1,1.5,0.3V0.7z"/>
		<path class="st10" d="M6.8,0.7C5.1-0.2,3-0.2,1.2,0.7C-0.4,1.6-0.4,3,1.2,4C2.9,4.9,5,4.9,6.8,4C8.4,3,8.4,1.6,6.8,0.7z M1.6,3.7
			c-1.3-0.8-1.3-2,0-2.8c1.5-0.8,3.3-0.8,4.8,0c1.3,0.8,1.3,2,0,2.8C4.9,4.5,3.1,4.5,1.6,3.7L1.6,3.7z"/>
	</g>
</g>
</svg>
