<svg xmlns="http://www.w3.org/2000/svg" xmlns:xlink="http://www.w3.org/1999/xlink" viewBox="0 0 14.65 18.64"><defs><style>.cls-1{fill:#fbfbfb;}.cls-2{fill:url(#linear-gradient);}.cls-3{fill:#fff;opacity:0.1;}.cls-4{fill:url(#linear-gradient-2);}.cls-5{fill:url(#linear-gradient-3);}.cls-6{fill:url(#linear-gradient-4);}.cls-7{fill:url(#linear-gradient-5);}.cls-8{fill:url(#linear-gradient-6);}.cls-9{fill:url(#linear-gradient-7);}.cls-10{fill:#4d4d4d;}</style><linearGradient id="linear-gradient" x1="4.15" y1="7.49" x2="6.77" y2="7.49" gradientTransform="matrix(0.97, 0.58, -0.05, 1, -0.89, -2.51)" gradientUnits="userSpaceOnUse"><stop offset="0" stop-color="#e03426"/><stop offset="0.2" stop-color="#e23a26"/><stop offset="0.47" stop-color="#e64a24"/><stop offset="0.77" stop-color="#ed6522"/><stop offset="1" stop-color="#f47f20"/></linearGradient><linearGradient id="linear-gradient-2" x1="-278.45" y1="166.68" x2="-275.35" y2="166.68" gradientTransform="matrix(0.87, 0.01, 0.43, 1.15, 175.55, -177.47)" gradientUnits="userSpaceOnUse"><stop offset="0" stop-color="#fce043"/><stop offset="0.17" stop-color="#fcda41"/><stop offset="0.4" stop-color="#faca3b"/><stop offset="0.65" stop-color="#f8af31"/><stop offset="0.93" stop-color="#f58a24"/><stop offset="1" stop-color="#f47f20"/></linearGradient><linearGradient id="linear-gradient-3" x1="-1067.53" y1="-332.44" x2="-1065.75" y2="-332.44" gradientTransform="matrix(-0.48, -1.15, 0.85, -0.05, -220.39, -1235.58)" xlink:href="#linear-gradient-2"/><linearGradient id="linear-gradient-4" x1="-278.45" y1="167.3" x2="-275.35" y2="167.3" xlink:href="#linear-gradient-2"/><linearGradient id="linear-gradient-5" x1="8.79" y1="7.37" x2="9.84" y2="6.45" gradientTransform="matrix(0.97, 0.58, -0.05, 1, -0.89, -2.51)" gradientUnits="userSpaceOnUse"><stop offset="0" stop-color="#46c0bc"/><stop offset="1" stop-color="#74c280"/></linearGradient><linearGradient id="linear-gradient-6" x1="10.09" y1="9.09" x2="10.94" y2="8.34" gradientTransform="matrix(0.97, 0.58, -0.05, 1, -0.89, -2.51)" gradientUnits="userSpaceOnUse"><stop offset="0" stop-color="#4a3f98"/><stop offset="0.33" stop-color="#4f4b9f"/><stop offset="0.91" stop-color="#5c6bb1"/><stop offset="1" stop-color="#5e70b4"/></linearGradient><linearGradient id="linear-gradient-7" x1="11.2" y1="7.04" x2="11.81" y2="6.5" gradientTransform="matrix(0.97, 0.58, -0.05, 1, -0.89, -2.51)" gradientUnits="userSpaceOnUse"><stop offset="0" stop-color="#a774ac"/><stop offset="0.38" stop-color="#835da3"/><stop offset="0.78" stop-color="#64489b"/><stop offset="1" stop-color="#584098"/></linearGradient></defs><title>Asset 38</title><g id="Layer_2" data-name="Layer 2"><g id="Layer_2-2" data-name="Layer 2"><path class="cls-1" d="M1.32,11a.13.13,0,0,1-.06-.11l.45-7.46a0,0,0,0,1,.07,0L12.11,9.24a.13.13,0,0,1,.06.11l-.46,7.57a0,0,0,0,1-.07,0Z"/><path class="cls-2" d="M5.28,8.89c0,.72-.64,1-1.34.55a2.55,2.55,0,0,1-1.2-2.07c0-.72.64-1,1.34-.55A2.55,2.55,0,0,1,5.28,8.89Z"/><path class="cls-3" d="M4.61,7a7,7,0,0,1-1.94-.26l0,.34S4.19,7.55,4.61,7Z"/><path class="cls-3" d="M4.73,7.26a2.61,2.61,0,0,1-2.28.19s1.36.66,2,.45S5,7.53,5,7.53Z"/><path class="cls-3" d="M2.68,7.37A3.19,3.19,0,0,0,5,7.53s-.35.84-1.12.61L2.69,7.8Z"/><path class="cls-3" d="M4.4,8.14c.53-.07.65-.38.65-.38l.2.38A1,1,0,0,1,4,8.52a7.28,7.28,0,0,1-1.3-.62l0-.21A8.28,8.28,0,0,0,4.4,8.14Z"/><path class="cls-3" d="M3,8.22s1.49.84,2,.56.46-.45.46-.45-.21.94-1,.74A4.4,4.4,0,0,1,3,8.42Z"/><path class="cls-3" d="M2.8,8.16s1.59,1,2.12.68.59-.42.59-.42-.35,1-1.2.72a5.23,5.23,0,0,1-1.53-.79Z"/><path class="cls-3" d="M5.18,9.51A4.28,4.28,0,0,1,3,8.79S4.22,9.94,5.18,9.51Z"/><path class="cls-3" d="M2.91,6.53A5.24,5.24,0,0,1,4.38,7,6.21,6.21,0,0,1,2.91,6.53Z"/><path class="cls-3" d="M3.42,7.3c-.19-.08-.42,0-.31.13a.46.46,0,0,0,.34.14C3.53,7.56,3.91,7.51,3.42,7.3Z"/><path class="cls-4" d="M4.7,11.23c-.11-.31.26-.55.84-.54s1.14.27,1.26.57h.3c-.15-.4-.87-.73-1.62-.74s-1.23.3-1.09.69Z"/><path class="cls-5" d="M5.32,10.22a1.47,1.47,0,0,1,1.18,1c.23.57.09,1-.33,1.07a1.47,1.47,0,0,1-1.18-1C4.76,10.73,4.91,10.25,5.32,10.22Z"/><path class="cls-6" d="M4.4,11.23c.15.4.87.73,1.62.74s1.23-.3,1.09-.69H6.8c.11.31-.26.55-.84.54s-1.14-.27-1.26-.57Z"/><path class="cls-7" d="M8.46,10.18c0,.39-.34.52-.71.3a1.36,1.36,0,0,1-.64-1.1c0-.39.34-.52.71-.3A1.36,1.36,0,0,1,8.46,10.18Z"/><path class="cls-8" d="M9.4,12.61c0,.31-.28.42-.58.24A1.1,1.1,0,0,1,8.3,12c0-.31.28-.42.58-.24A1.1,1.1,0,0,1,9.4,12.61Z"/><path class="cls-9" d="M10.31,11.14c0,.23-.2.31-.42.17a.8.8,0,0,1-.38-.65c0-.23.2-.31.42-.17A.8.8,0,0,1,10.31,11.14Z"/><path class="cls-10" d="M1.68,4.15a.13.13,0,0,0,.06.11l10.32,5.83a0,0,0,0,0,.07,0l0-.71a.13.13,0,0,0-.06-.11L1.78,3.41a0,0,0,0,0-.07,0Z"/><polygon class="cls-10" points="14.65 8.2 14.02 18.64 13.2 18.14 13.83 7.7 14.65 8.2"/><path class="cls-10" d="M1.2,3a.13.13,0,0,1,.06.11L.9,9.08a0,0,0,0,1-.07,0L.06,8.67A.13.13,0,0,1,0,8.57l.36-6a0,0,0,0,1,.07,0Z"/><path class="cls-10" d="M.18,2a.13.13,0,0,0,.06.11l14.22,8a0,0,0,0,0,.07,0l.12-2A.13.13,0,0,0,14.59,8L.35,0A0,0,0,0,0,.29,0Z"/></g></g></svg>