<?xml version="1.0" encoding="utf-8"?>
<!-- Generator: Adobe Illustrator 22.0.1, SVG Export Plug-In . SVG Version: 6.00 Build 0)  -->
<svg version="1.1" id="Layer_1" xmlns="http://www.w3.org/2000/svg" xmlns:xlink="http://www.w3.org/1999/xlink" x="0px" y="0px"
	 viewBox="0 0 14.65 18.64" style="enable-background:new 0 0 14.65 18.64;" xml:space="preserve">
<style type="text/css">
	.st0{fill:#FBFBFB;}
	.st1{fill:url(#SVGID_1_);}
	.st2{opacity:0.1;fill:#FFFFFF;}
	.st3{fill:url(#SVGID_2_);}
	.st4{fill:url(#SVGID_3_);}
	.st5{fill:url(#SVGID_4_);}
	.st6{fill:url(#SVGID_5_);}
	.st7{fill:url(#SVGID_6_);}
	.st8{fill:url(#SVGID_7_);}
	.st9{fill:#4D4D4D;}
</style>
<title>Asset 38</title>
<g>
	<g>
		<path class="st0" d="M1.27691,11.02723c-0.03432-0.01975-0.06045-0.06826-0.05807-0.10778l0.4502-7.46136
			c0.00239-0.03953,0.03255-0.05594,0.06703-0.03647l10.32745,5.83065c0.03448,0.01947,0.06075,0.06774,0.05837,0.10727
			l-0.4561,7.57252c-0.00238,0.03953-0.03241,0.05571-0.06673,0.03595L1.27691,11.02723z"/>
	</g>
	<g>
		<g>
			
				<linearGradient id="SVGID_1_" gradientUnits="userSpaceOnUse" x1="-6.34507" y1="214.12267" x2="-3.72455" y2="214.12267" gradientTransform="matrix(0.96974 0.57735 -0.05241 1 20.06653 -203.07339)">
				<stop  offset="0" style="stop-color:#E03426"/>
				<stop  offset="0.20344" style="stop-color:#E23A26"/>
				<stop  offset="0.46846" style="stop-color:#E64A24"/>
				<stop  offset="0.76621" style="stop-color:#ED6522"/>
				<stop  offset="1" style="stop-color:#F47F20"/>
			</linearGradient>
			<path class="st1" d="M5.23298,8.8989C5.19506,9.62254,4.59544,9.87047,3.8937,9.45268s-1.23987-1.3431-1.20195-2.06674
				s0.63754-0.97157,1.33928-0.55378S5.27091,8.17526,5.23298,8.8989z"/>
			<path class="st2" d="M4.56263,7.05463c0,0-1.37655-0.0099-1.94474-0.26406l0.02159,0.33778
				C2.63947,7.12835,4.13894,7.5632,4.56263,7.05463z"/>
			<path class="st2" d="M4.68803,7.26964c0,0-1.01416,0.68334-2.28098,0.19148c0,0,1.3605,0.66126,1.96906,0.44633
				c0.60856-0.21494,0.56216-0.36044,0.56216-0.36044L4.68803,7.26964z"/>
			<path class="st2" d="M2.62899,7.38596c0,0,1.40539,0.63473,2.30928,0.16105c0,0-0.35028,0.83582-1.12477,0.60931
				S2.64821,7.81159,2.64821,7.81159L2.62899,7.38596z"/>
			<path class="st2" d="M4.35514,8.14979C4.885,8.07485,5.00401,7.77177,5.00401,7.77177L5.2086,8.14836
				c0,0-0.33545,0.70651-1.26658,0.38239C3.25058,8.29007,2.64197,7.90786,2.64197,7.90786L2.59875,7.70085
				C2.59875,7.70085,4.01615,8.19774,4.35514,8.14979z"/>
			<path class="st2" d="M2.98304,8.23328c0,0,1.48922,0.84448,2.02889,0.56235C5.5516,8.51349,5.47175,8.35007,5.47175,8.35007
				S5.2625,9.29058,4.42443,9.09143S2.9724,8.43623,2.9724,8.43623L2.98304,8.23328z"/>
			<path class="st2" d="M2.74938,8.17681c0,0,1.58863,0.97535,2.1214,0.68228C5.4093,8.56286,5.45672,8.44359,5.45672,8.44359
				s-0.34743,0.9797-1.1976,0.72335C3.40895,8.91058,2.72763,8.37281,2.72763,8.37281L2.74938,8.17681z"/>
			<path class="st2" d="M5.13653,9.52353c0,0-1.09098,0.00419-2.17607-0.72229C2.96046,8.80124,4.17428,9.95636,5.13653,9.52353z"/>
			<path class="st2" d="M2.86415,6.54471c0,0,0.66614,0.06806,1.46639,0.43052C4.33054,6.97523,3.39584,6.82103,2.86415,6.54471z"/>
			<path class="st2" d="M3.37528,7.31381C3.18224,7.22904,2.9548,7.32884,3.0627,7.44055s0.25127,0.14502,0.3378,0.14049
				C3.48702,7.57651,3.8622,7.52765,3.37528,7.31381z"/>
		</g>
		<g>
			
				<linearGradient id="SVGID_2_" gradientUnits="userSpaceOnUse" x1="-246.8483" y1="197.41426" x2="-243.74533" y2="197.41426" gradientTransform="matrix(0.87157 0.01476 0.42838 1.15461 134.79439 -213.40891)">
				<stop  offset="0" style="stop-color:#FCE043"/>
				<stop  offset="0.17346" style="stop-color:#FCDA41"/>
				<stop  offset="0.39954" style="stop-color:#FACA3B"/>
				<stop  offset="0.65467" style="stop-color:#F8AF31"/>
				<stop  offset="0.92929" style="stop-color:#F58A24"/>
				<stop  offset="1" style="stop-color:#F47F20"/>
			</linearGradient>
			<path class="st3" d="M4.64969,11.24596c-0.11412-0.30759,0.26393-0.54897,0.84442-0.53914s1.14357,0.26716,1.25769,0.57475
				l0.30118,0.0051c-0.14682-0.39573-0.87126-0.7268-1.61808-0.73945s-1.23321,0.29791-1.08639,0.69364L4.64969,11.24596z"/>
			
				<linearGradient id="SVGID_3_" gradientUnits="userSpaceOnUse" x1="-534.39362" y1="-439.133" x2="-532.61322" y2="-439.133" gradientTransform="matrix(-0.47586 -1.15366 0.84658 -0.04903 123.58973 -625.74823)">
				<stop  offset="0" style="stop-color:#FCE043"/>
				<stop  offset="0.17346" style="stop-color:#FCDA41"/>
				<stop  offset="0.39954" style="stop-color:#FACA3B"/>
				<stop  offset="0.65467" style="stop-color:#F8AF31"/>
				<stop  offset="0.92929" style="stop-color:#F58A24"/>
				<stop  offset="1" style="stop-color:#F47F20"/>
			</linearGradient>
			<path class="st4" d="M5.27713,10.23678c0.41622-0.02411,0.94328,0.41615,1.17723,0.98334
				c0.23395,0.56719,0.0862,1.04652-0.33002,1.07063c-0.41622,0.02411-0.94328-0.41615-1.17723-0.98334
				C4.71316,10.74022,4.86091,10.26088,5.27713,10.23678z"/>
			
				<linearGradient id="SVGID_4_" gradientUnits="userSpaceOnUse" x1="-246.84819" y1="198.03549" x2="-243.74522" y2="198.03549" gradientTransform="matrix(0.87157 0.01476 0.42838 1.15461 134.79439 -213.40891)">
				<stop  offset="0" style="stop-color:#FCE043"/>
				<stop  offset="0.17346" style="stop-color:#FCDA41"/>
				<stop  offset="0.39954" style="stop-color:#FACA3B"/>
				<stop  offset="0.65467" style="stop-color:#F8AF31"/>
				<stop  offset="0.92929" style="stop-color:#F58A24"/>
				<stop  offset="1" style="stop-color:#F47F20"/>
			</linearGradient>
			<path class="st5" d="M4.34887,11.24159c0.14682,0.39573,0.87126,0.7268,1.61808,0.73945
				c0.74682,0.01265,1.23321-0.29791,1.08639-0.69364l-0.30118-0.0051c0.11412,0.3076-0.26393,0.54898-0.84441,0.53915
				s-1.14357-0.26716-1.25769-0.57476L4.34887,11.24159z"/>
		</g>
		
			<linearGradient id="SVGID_5_" gradientUnits="userSpaceOnUse" x1="-1.69597" y1="214.00656" x2="-0.6504" y2="213.0802" gradientTransform="matrix(0.96974 0.57735 -0.05241 1 20.06653 -203.07339)">
			<stop  offset="0" style="stop-color:#46C0BC"/>
			<stop  offset="1" style="stop-color:#74C280"/>
		</linearGradient>
		<path class="st6" d="M8.41482,10.19589c-0.02022,0.38574-0.33985,0.51791-0.71392,0.2952
			c-0.37407-0.22271-0.66093-0.71595-0.64071-1.1017c0.02022-0.38574,0.33985-0.51791,0.71392-0.2952
			C8.14818,9.3169,8.43504,9.81015,8.41482,10.19589z"/>
		
			<linearGradient id="SVGID_6_" gradientUnits="userSpaceOnUse" x1="-0.40083" y1="215.72768" x2="0.44919" y2="214.97458" gradientTransform="matrix(0.96974 0.57735 -0.05241 1 20.06653 -203.07339)">
			<stop  offset="0" style="stop-color:#4A3F98"/>
			<stop  offset="0.32628" style="stop-color:#4F4B9F"/>
			<stop  offset="0.91496" style="stop-color:#5C6BB1"/>
			<stop  offset="1" style="stop-color:#5E70B4"/>
		</linearGradient>
		<path class="st7" d="M9.35454,12.61952c-0.01644,0.3136-0.27629,0.42104-0.5804,0.23999
			c-0.30411-0.18106-0.53731-0.58205-0.52088-0.89565c0.01644-0.3136,0.27629-0.42104,0.5804-0.23999
			C9.13777,11.90492,9.37097,12.30592,9.35454,12.61952z"/>
		
			<linearGradient id="SVGID_7_" gradientUnits="userSpaceOnUse" x1="0.70739" y1="213.67702" x2="1.3248" y2="213.13" gradientTransform="matrix(0.96974 0.57735 -0.05241 1 20.06653 -203.07339)">
			<stop  offset="0" style="stop-color:#A774AC"/>
			<stop  offset="0.37847" style="stop-color:#835DA3"/>
			<stop  offset="0.77781" style="stop-color:#64489B"/>
			<stop  offset="1" style="stop-color:#584098"/>
		</linearGradient>
		<path class="st8" d="M10.26783,11.15487c-0.01194,0.22778-0.20068,0.30582-0.42157,0.17431
			c-0.22089-0.13151-0.39028-0.42277-0.37834-0.65055s0.20068-0.30582,0.42157-0.17431S10.27977,10.92709,10.26783,11.15487z"/>
	</g>
	<g>
		<path class="st9" d="M1.63105,4.16717C1.6289,4.20672,1.65536,4.255,1.68984,4.27447l10.32248,5.82783
			c0.03448,0.01947,0.06465,0.00306,0.06703-0.03647l0.04255-0.7063c0.00238-0.03953-0.02388-0.0878-0.05837-0.10727
			L1.73611,3.42162c-0.03448-0.01947-0.06445-0.00305-0.0666,0.0365L1.63105,4.16717z"/>
	</g>
	<polygon class="st9" points="14.59975,8.21572 13.96987,18.65553 13.15438,18.1551 13.78463,7.70924 	"/>
	<g>
		<path class="st9" d="M1.1528,3.04842c0.03394,0.02041,0.05975,0.06945,0.05737,0.10897L0.8519,9.0955
			C0.84951,9.13503,0.81947,9.15123,0.78514,9.13149L0.0121,8.68714c-0.03433-0.01973-0.06047-0.06822-0.05809-0.10775
			l0.35973-5.96106c0.00239-0.03953,0.0321-0.05517,0.06604-0.03476L1.1528,3.04842z"/>
	</g>
	<g>
		<path class="st9" d="M0.13163,2.02248c-0.00221,0.03954,0.0242,0.08782,0.05869,0.10729l14.22287,8.02991
			c0.03448,0.01947,0.06465,0.00306,0.06703-0.03647l0.11805-1.95965c0.00238-0.03953-0.02388-0.0878-0.05837-0.10727
			L0.30793,0.02124c-0.03448-0.01947-0.0645-0.00305-0.06671,0.03649L0.13163,2.02248z"/>
	</g>
</g>
</svg>
