<?xml version="1.0" encoding="utf-8"?>
<!-- Generator: Adobe Illustrator 22.0.1, SVG Export Plug-In . SVG Version: 6.00 Build 0)  -->
<svg version="1.1" id="Layer_1" xmlns="http://www.w3.org/2000/svg" xmlns:xlink="http://www.w3.org/1999/xlink" x="0px" y="0px"
	 viewBox="0 0 40.1 41.3" style="enable-background:new 0 0 40.1 41.3;" xml:space="preserve">
<style type="text/css">
	.st0{fill:#F8FAFD;}
	.st1{opacity:0.16;fill:url(#SVGID_1_);enable-background:new    ;}
	.st2{opacity:6.000000e-02;fill:url(#SVGID_2_);enable-background:new    ;}
	.st3{fill:#2A2B2B;}
	.st4{opacity:6.000000e-02;fill:url(#SVGID_3_);enable-background:new    ;}
	.st5{fill:#474747;}
	.st6{fill:#E55933;}
	.st7{opacity:0.3;}
	.st8{fill:url(#SVGID_4_);}
	.st9{opacity:0.2;fill:#C0B5C6;enable-background:new    ;}
	.st10{opacity:0.4;enable-background:new    ;}
	.st11{opacity:0.4;fill:#F8FAFD;}
	.st12{opacity:0.4;fill:#808080;enable-background:new    ;}
</style>
<title>Asset 40</title>
<g>
	<g id="Layer_2-2">
		<path class="st0" d="M22.6,40.2c-0.2,0.1-0.4,0.1-0.6,0L0,27.3v0.9c0,0.2,0.1,0.4,0.3,0.5L22,41.2c0.2,0.1,0.4,0.1,0.6,0l15-8.6
			c0.2-0.1,0.3-0.3,0.3-0.5l0-0.7L22.6,40.2z"/>
		
			<linearGradient id="SVGID_1_" gradientUnits="userSpaceOnUse" x1="0" y1="9.7125" x2="37.7667" y2="9.7125" gradientTransform="matrix(1 0 0 -1 0 44)">
			<stop  offset="0" style="stop-color:#FFFFFF"/>
			<stop  offset="8.492316e-02" style="stop-color:#E8E3EA"/>
			<stop  offset="0.3433" style="stop-color:#A594AE"/>
			<stop  offset="0.573" style="stop-color:#70547E"/>
			<stop  offset="0.7656" style="stop-color:#49275B"/>
			<stop  offset="0.9135" style="stop-color:#320A46"/>
			<stop  offset="0.999" style="stop-color:#29003E"/>
		</linearGradient>
		<path class="st1" d="M22.6,40.2c-0.2,0.1-0.4,0.1-0.6,0L0,27.3v0.9c0,0.2,0.1,0.4,0.3,0.5L22,41.2c0.2,0.1,0.4,0.1,0.6,0l15-8.6
			c0.2-0.1,0.3-0.3,0.3-0.5l0-0.8L22.6,40.2z"/>
		<path class="st0" d="M15.1,18.2L0.4,26.8c-0.3,0.2-0.5,0.6-0.3,1c0.1,0.1,0.1,0.2,0.3,0.3L22,40.6c0.2,0.1,0.5,0.1,0.7,0l14.8-8.5
			c0.3-0.2,0.5-0.6,0.3-1c-0.1-0.1-0.2-0.2-0.3-0.3L15.9,18.2C15.6,18.1,15.4,18.1,15.1,18.2z"/>
		
			<linearGradient id="SVGID_2_" gradientUnits="userSpaceOnUse" x1="14.0029" y1="393.9961" x2="22.4729" y2="434.2261" gradientTransform="matrix(1 0 0 1 0 -388)">
			<stop  offset="0" style="stop-color:#FFFFFF"/>
			<stop  offset="8.492316e-02" style="stop-color:#E8E3EA"/>
			<stop  offset="0.3433" style="stop-color:#A594AE"/>
			<stop  offset="0.573" style="stop-color:#70547E"/>
			<stop  offset="0.7656" style="stop-color:#49275B"/>
			<stop  offset="0.9135" style="stop-color:#320A46"/>
			<stop  offset="0.999" style="stop-color:#29003E"/>
		</linearGradient>
		<path class="st2" d="M15.1,18.3L0.4,26.9c-0.3,0.2-0.5,0.6-0.3,1c0.1,0.1,0.2,0.2,0.3,0.2L22,40.6c0.2,0.1,0.5,0.1,0.7,0l14.8-8.5
			c0.3-0.2,0.5-0.6,0.3-1c-0.1-0.1-0.2-0.2-0.3-0.3L15.9,18.3C15.6,18.2,15.4,18.2,15.1,18.3z"/>
		<polygon class="st3" points="18.5,18.6 35.8,28.6 34.3,29.5 16.9,19.5 		"/>
		<path class="st0" d="M18.3,0.1C18,0,17.8,0,17.6,0.1L17,0.5l21.3,11.9c0.2,0.1,0.3,0.3,0.3,0.5l-0.4,17.8l0.6-0.4
			c0.2-0.1,0.4-0.4,0.4-0.6l1-16.6c0-0.2-0.1-0.4-0.3-0.5L18.3,0.1z"/>
		
			<linearGradient id="SVGID_3_" gradientUnits="userSpaceOnUse" x1="16.9" y1="403.3625" x2="40.05" y2="403.3625" gradientTransform="matrix(1 0 0 1 0 -388)">
			<stop  offset="0" style="stop-color:#FFFFFF"/>
			<stop  offset="8.492316e-02" style="stop-color:#E8E3EA"/>
			<stop  offset="0.3433" style="stop-color:#A594AE"/>
			<stop  offset="0.573" style="stop-color:#70547E"/>
			<stop  offset="0.7656" style="stop-color:#49275B"/>
			<stop  offset="0.9135" style="stop-color:#320A46"/>
			<stop  offset="0.999" style="stop-color:#29003E"/>
		</linearGradient>
		<path class="st4" d="M18.2,0.1C18,0,17.7,0,17.5,0.1l-0.6,0.4l21.3,11.9c0.2,0.1,0.3,0.3,0.3,0.5l-0.4,17.8l0.6-0.4
			c0.2-0.1,0.4-0.4,0.4-0.6l1-16.6c0-0.2-0.1-0.4-0.3-0.5L18.2,0.1z"/>
		<path class="st5" d="M15.5,17.6l1-16.5c0-0.4,0.3-0.7,0.7-0.7c0.1,0,0.3,0,0.4,0.1l21.6,12.4c0.2,0.1,0.4,0.4,0.4,0.6l-1,16.5
			c0,0.4-0.3,0.7-0.7,0.7c-0.1,0-0.2,0-0.4-0.1L15.8,18.2C15.6,18.1,15.5,17.9,15.5,17.6z"/>
		<path class="st6" d="M16.9,17.2l-0.1-0.1l0.9-14.6L38,13.8c0,0,0,0.1,0,0.2l-0.9,14.8L16.9,17.2z"/>
		<g class="st7">
			
				<linearGradient id="SVGID_4_" gradientUnits="userSpaceOnUse" x1="16.8495" y1="403.65" x2="38.007" y2="403.65" gradientTransform="matrix(1 0 0 1 0 -388)">
				<stop  offset="0" style="stop-color:#FFFFFF"/>
				<stop  offset="1" style="stop-color:#DE8456"/>
			</linearGradient>
			<path class="st8" d="M16.9,17.2l-0.1-0.1l0.9-14.6L38,13.8c0,0,0,0.1,0,0.2l-0.9,14.8L16.9,17.2z"/>
		</g>
		<path class="st9" d="M15.4,19.3l-8.9,5.1c-0.2,0.1-0.2,0.3-0.1,0.5C6.4,25,6.5,25,6.5,25l20.1,11.7c0.1,0.1,0.2,0.1,0.4,0l8.9-5.1
			c0.2-0.1,0.2-0.3,0.1-0.5c0-0.1-0.1-0.1-0.1-0.1L15.8,19.3C15.6,19.2,15.5,19.2,15.4,19.3z"/>
	</g>
	<g class="st10">
		<path class="st11" d="M13.3,29.5l5.5,3.1c0.2,0.1,0.2,0.5,0,0.6l-3.3,1.9c-0.1,0.1-0.2,0.1-0.4,0l-5.5-3.1c-0.2-0.1-0.2-0.5,0-0.6
			l3.3-2C13,29.4,13.2,29.4,13.3,29.5z"/>
		<path class="st12" d="M9.6,31.6l3.3-2c0.1-0.1,0.2-0.1,0.4,0l5.5,3.1c0.1,0.1,0.1,0.1,0.2,0.2c0-0.1,0-0.3-0.2-0.4l-5.5-3.1
			c-0.1-0.1-0.3-0.1-0.4,0l-3.3,2c-0.1,0.1-0.2,0.2-0.2,0.4C9.4,31.7,9.5,31.6,9.6,31.6z"/>
	</g>
</g>
<g>
	<g>
		<polygon class="st3" points="13.6,23.5 12.3,24.3 9.9,22.9 9.9,23 12.3,24.4 13.6,23.6 		"/>
		<g>
			<g>
				<polygon class="st5" points="13.1,25 9.6,23 8.2,23.8 11.7,25.8 				"/>
				<polygon class="st5" points="14.6,26 13.5,25.3 12.2,26.1 13.3,26.7 				"/>
				<polygon class="st5" points="16.3,26.9 15.1,26.2 13.8,27 14.9,27.7 				"/>
				<polygon class="st5" points="17.9,27.8 16.8,27.2 15.5,28 16.6,28.6 				"/>
				<polygon class="st5" points="19.5,28.8 18.3,28.1 17,28.9 18.2,29.5 				"/>
				<polygon class="st5" points="21.2,29.7 20,29 18.6,29.8 19.9,30.5 				"/>
				<polygon class="st5" points="22.7,30.6 21.6,30 20.2,30.7 21.4,31.4 				"/>
				<polygon class="st5" points="24.4,31.6 23.2,30.9 21.8,31.7 23.1,32.4 				"/>
				<polygon class="st5" points="26,32.5 24.9,31.9 23.5,32.6 24.6,33.3 				"/>
				<g>
					<polygon class="st5" points="25.1,33.5 28.5,35.5 29.9,34.7 26.4,32.7 					"/>
					<g>
						<g>
							<polygon class="st5" points="16.5,23.3 15.4,22.6 14,23.4 15.2,24 							"/>
							<polygon class="st5" points="18.1,24.2 16.9,23.5 15.6,24.3 16.8,25 							"/>
							<polygon class="st5" points="19.8,25.1 18.6,24.5 17.2,25.2 18.4,25.9 							"/>
							<polygon class="st5" points="21.4,26.1 20.2,25.4 18.9,26.2 20.1,26.9 							"/>
							<polygon class="st5" points="23.1,27 21.9,26.3 20.5,27.1 21.7,27.8 							"/>
							<polygon class="st5" points="24.7,28 23.5,27.3 22.2,28.1 23.4,28.8 							"/>
							<polygon class="st5" points="26.4,29 25.2,28.2 23.8,29 25,29.7 							"/>
							<polygon class="st5" points="28,29.9 26.8,29.2 25.5,30 26.7,30.7 							"/>
							<polygon class="st5" points="29.7,30.9 28.5,30.2 27.1,30.9 28.4,31.7 							"/>
							<polygon class="st5" points="31.5,31.9 30.2,31.2 28.9,32 30.1,32.7 							"/>
							<polygon class="st5" points="33.1,32.9 31.9,32.1 30.6,32.9 31.8,33.6 							"/>
							<polygon class="st5" points="14.9,22.4 12.8,21.1 11.5,21.9 13.6,23.1 							"/>
						</g>
						<g>
							<polygon class="st5" points="9.1,24.6 7.9,24 6.6,24.7 7.8,25.4 							"/>
							<polygon class="st5" points="10.7,25.5 9.5,24.9 8.2,25.7 9.4,26.3 							"/>
							<polygon class="st5" points="12.3,26.5 11.1,25.8 9.8,26.6 11,27.2 							"/>
							<polygon class="st5" points="14.3,27.6 12.7,26.7 11.4,27.5 13,28.4 							"/>
							<polygon class="st5" points="14.8,27.9 13.4,28.7 18.5,31.6 19.9,30.8 							"/>
							<polygon class="st5" points="21,33 22.2,33.7 23.5,32.9 22.3,32.2 							"/>
							<polygon class="st5" points="24.2,34.9 25.4,35.5 26.7,34.8 25.6,34.1 							"/>
							<polygon class="st5" points="19,31.8 20.6,32.7 21.9,32 20.3,31.1 							"/>
							<polygon class="st5" points="26.9,36.4 25.8,35.8 26.5,35.4 27.6,36 							"/>
							<polygon class="st5" points="23.8,34.6 22.6,33.9 23.3,33.5 24.5,34.2 							"/>
						</g>
						<g>
							<polygon class="st5" points="15.6,20.9 14.4,20.2 13.1,21 14.3,21.6 							"/>
							<g>
								<polygon class="st5" points="17.2,21.8 16,21.1 14.7,21.9 15.8,22.6 								"/>
								<polygon class="st5" points="18.8,22.7 17.6,22 16.3,22.8 17.4,23.5 								"/>
								<polygon class="st5" points="20.4,23.6 19.2,23 17.9,23.7 19,24.4 								"/>
								<polygon class="st5" points="22,24.6 20.8,23.9 19.5,24.7 20.7,25.3 								"/>
								<polygon class="st5" points="23.6,25.5 22.5,24.8 21.1,25.6 22.3,26.3 								"/>
								<polygon class="st5" points="25.3,26.5 24.1,25.8 22.7,26.5 23.9,27.2 								"/>
								<polygon class="st5" points="26.9,27.4 25.7,26.7 24.4,27.5 25.6,28.2 								"/>
								<polygon class="st5" points="28.6,28.3 27.4,27.7 26,28.4 27.2,29.1 								"/>
								<polygon class="st5" points="30.2,29.3 29,28.6 27.7,29.4 28.9,30.1 								"/>
								<polygon class="st5" points="31.9,30.3 30.7,29.6 29.3,30.3 30.5,31 								"/>
								<polygon class="st5" points="32.3,30.5 31,31.3 33.4,32.7 34.8,31.9 								"/>
							</g>
						</g>
						<g>
							<polygon class="st5" points="26.6,26 25.9,26.5 27.1,27.2 27.8,26.7 							"/>
							<polygon class="st5" points="25,25.1 24.2,25.5 25.4,26.2 26.2,25.8 							"/>
							<polygon class="st5" points="23.4,24.1 22.6,24.6 23.8,25.3 24.6,24.8 							"/>
							<polygon class="st5" points="21.7,23.2 21,23.7 22.2,24.3 22.9,23.9 							"/>
							<polygon class="st5" points="20.1,22.3 19.4,22.7 20.5,23.4 21.3,23 							"/>
							<polygon class="st5" points="18.5,21.4 17.8,21.8 18.9,22.5 19.7,22 							"/>
							<polygon class="st5" points="17,20.4 16.2,20.9 17.3,21.5 18.1,21.1 							"/>
							<polygon class="st5" points="31.6,28.9 30.8,29.3 32,30 32.8,29.6 							"/>
							<polygon class="st5" points="33.3,29.8 32.5,30.3 33.7,31 34.5,30.5 							"/>
							<polygon class="st5" points="29.9,27.9 29.1,28.4 30.4,29.1 31.1,28.6 							"/>
							<polygon class="st5" points="28.3,27 27.5,27.4 28.7,28.1 29.5,27.7 							"/>
							<polygon class="st5" points="34.9,30.8 34.1,31.2 35,31.8 35.8,31.3 							"/>
							<polygon class="st5" points="14.7,20.1 15.7,20.6 16.5,20.2 15.5,19.6 							"/>
						</g>
						<g>
							<g>
								<polygon class="st3" points="14.3,21.6 13.1,21 13.1,21.1 14.3,21.8 15.6,21 15.6,20.9 								"/>
								<polygon class="st3" points="15.8,22.6 14.7,21.9 14.7,22 15.8,22.7 17.2,21.9 17.2,21.8 								"/>
								<polygon class="st3" points="17.4,23.5 16.3,22.8 16.3,22.9 17.4,23.6 18.8,22.8 18.8,22.7 								"/>
								<polygon class="st3" points="19,24.4 17.9,23.7 17.9,23.8 19.1,24.5 20.4,23.7 20.4,23.6 								"/>
								<g>
									<polyline class="st3" points="20.7,25.5 22,24.7 22,24.6 20.7,25.3 									"/>
									<polygon class="st3" points="20.7,25.3 19.5,24.7 19.5,24.8 20.7,25.5 									"/>
								</g>
								<polygon class="st3" points="22.3,26.3 21.1,25.6 21.1,25.7 22.3,26.4 23.6,25.6 23.6,25.5 								"/>
								<polygon class="st3" points="23.9,27.2 22.7,26.5 22.7,26.7 23.9,27.3 25.3,26.6 25.3,26.5 								"/>
								<g>
									<polyline class="st3" points="25.6,28.3 26.9,27.5 26.9,27.4 25.6,28.2 									"/>
									<polygon class="st3" points="25.6,28.2 24.4,27.5 24.4,27.6 25.6,28.3 									"/>
								</g>
								<g>
									<polyline class="st3" points="27.2,29.2 28.6,28.5 28.6,28.3 27.2,29.1 									"/>
									<polygon class="st3" points="27.2,29.1 26,28.4 26,28.5 27.2,29.2 									"/>
								</g>
								<polygon class="st3" points="28.9,30.1 27.7,29.4 27.7,29.5 28.9,30.2 30.2,29.4 30.2,29.3 								"/>
								<polygon class="st3" points="13.6,23.1 11.5,21.9 11.5,22 13.6,23.2 14.9,22.5 14.9,22.4 								"/>
								<polygon class="st3" points="15.2,24 14,23.4 14,23.5 15.2,24.1 16.5,23.4 16.5,23.3 								"/>
								<g>
									<polygon class="st3" points="16.8,25 16.8,25.1 18.1,24.3 18.1,24.2 									"/>
									<polygon class="st3" points="15.6,24.4 16.8,25.1 16.8,25 15.6,24.3 									"/>
								</g>
								<polygon class="st3" points="18.4,25.9 17.2,25.2 17.2,25.3 18.4,26 19.8,25.3 19.8,25.1 								"/>
								<polygon class="st3" points="20.1,26.9 20.1,26.9 18.9,26.2 18.9,26.3 20.1,27 21.4,26.2 21.4,26.1 								"/>
								<polygon class="st3" points="21.7,27.8 20.5,27.1 20.5,27.2 21.7,27.9 23.1,27.1 23.1,27 								"/>
								<polygon class="st3" points="23.4,28.8 22.2,28.1 22.2,28.2 23.4,28.9 24.7,28.1 24.7,28 								"/>
								<g>
									<polygon class="st3" points="25,29.7 25,29.8 26.4,29.1 26.4,29 									"/>
									<polygon class="st3" points="23.8,29.1 25,29.8 25,29.7 23.8,29 									"/>
								</g>
								<g>
									<polygon class="st3" points="26.7,30.7 26.7,30.8 28,30 28,29.9 									"/>
									<polygon class="st3" points="25.5,30 25.5,30.1 26.7,30.8 26.7,30.7 									"/>
								</g>
								<polygon class="st3" points="28.4,31.7 27.1,30.9 27.1,31.1 28.4,31.8 29.7,31 29.7,30.9 								"/>
								<g>
									<polygon class="st3" points="30.1,32.7 30.1,32.8 31.5,32 31.5,31.9 									"/>
									<polygon class="st3" points="28.9,32 28.9,32.1 30.1,32.8 30.1,32.7 									"/>
								</g>
								<g>
									<polygon class="st3" points="25.4,31.8 25.4,31.9 26.7,31.2 26.7,31.1 									"/>
									<polygon class="st3" points="24.2,31.2 24.2,31.3 25.4,31.9 25.4,31.8 									"/>
								</g>
								<polygon class="st3" points="22.2,30 21,29.3 21,29.4 22.2,30.1 23.5,29.3 23.5,29.2 								"/>
								<polygon class="st3" points="20.5,29 19.3,28.3 19.3,28.4 20.5,29.1 21.9,28.4 21.9,28.3 								"/>
								<polygon class="st3" points="18.6,26.4 17.2,27.1 16,26.4 16,26.6 17.2,27.2 18.6,26.5 								"/>
								<polygon class="st3" points="11.7,25.8 8.2,23.8 8.2,23.9 11.7,25.9 13.1,25.2 13.1,25 								"/>
								<g>
									<polyline class="st3" points="12.2,26.1 12.2,26.2 13.3,26.8 14.6,26.1 14.6,26 13.3,26.7 12.2,26.1 									"/>
								</g>
								<g>
									<polygon class="st3" points="14.9,27.7 14.9,27.8 16.3,27 16.3,26.9 									"/>
									<polygon class="st3" points="13.8,27.1 14.9,27.8 14.9,27.7 13.8,27 									"/>
								</g>
								<polygon class="st3" points="16.6,28.6 15.5,28 15.5,28.1 16.6,28.7 17.9,27.9 17.9,27.8 								"/>
								<polygon class="st3" points="19.9,30.5 18.6,29.8 18.6,29.9 19.9,30.6 21.2,29.8 21.2,29.7 								"/>
								<polygon class="st3" points="21.4,31.4 20.2,30.7 20.2,30.8 21.4,31.5 22.7,30.7 22.7,30.6 								"/>
								<polygon class="st3" points="23.1,32.4 21.8,31.7 21.8,31.8 23.1,32.5 24.4,31.7 24.4,31.6 								"/>
								<polygon class="st3" points="24.6,33.3 23.5,32.6 23.5,32.7 24.6,33.4 26,32.6 26,32.5 								"/>
								<polygon class="st3" points="18.2,29.5 17,28.9 17,29 18.2,29.7 19.5,28.9 19.5,28.8 								"/>
								<polygon class="st3" points="28.5,35.5 28.5,35.5 25.1,33.5 25.1,33.6 28.5,35.6 29.9,34.8 29.9,34.7 								"/>
								<polygon class="st3" points="30.2,34.6 27.4,33 27.4,33.1 30.2,34.7 31.5,33.9 31.5,33.8 								"/>
								<polygon class="st3" points="13,28.4 11.4,27.5 11.4,27.6 13,28.5 14.3,27.7 14.3,27.6 								"/>
								<polygon class="st3" points="18.5,31.6 13.4,28.7 13.4,28.8 18.5,31.7 19.9,30.9 19.9,30.8 								"/>
								<g>
									<polyline class="st3" points="20.6,32.9 19,31.9 19,31.8 20.6,32.7 21.9,32 21.9,32.1 20.6,32.9 									"/>
								</g>
								<polygon class="st3" points="22.2,33.7 21,33 21,33.1 22.2,33.8 23.5,33 23.5,32.9 								"/>
								<polygon class="st3" points="23.8,34.6 22.6,33.9 22.6,34 23.8,34.7 24.5,34.3 24.5,34.2 								"/>
								<polygon class="st3" points="25.4,35.5 24.2,34.9 24.2,35 25.4,35.7 26.7,34.9 26.7,34.8 								"/>
								<polygon class="st3" points="26.9,36.4 25.8,35.8 25.8,35.9 26.9,36.6 27.6,36.2 27.6,36 								"/>
								<polygon class="st3" points="27.1,27.2 25.9,26.5 25.9,26.6 27.1,27.3 27.8,26.8 27.8,26.7 								"/>
								<polygon class="st3" points="25.4,26.2 24.2,25.5 24.2,25.6 25.4,26.3 26.2,25.9 26.2,25.8 								"/>
								<polygon class="st3" points="23.8,25.3 23.8,25.3 22.6,24.6 22.6,24.7 23.8,25.4 24.6,24.9 24.6,24.8 								"/>
								<polygon class="st3" points="22.2,24.3 21,23.7 21,23.8 22.2,24.4 22.9,24 22.9,23.9 								"/>
								<polygon class="st3" points="20.5,23.4 20.5,23.4 19.4,22.7 19.4,22.8 20.5,23.5 21.3,23.1 21.3,23 								"/>
								<polygon class="st3" points="18.9,22.5 17.8,21.8 17.8,21.9 18.9,22.6 19.7,22.1 19.7,22 								"/>
								<polygon class="st3" points="17.3,21.5 16.2,20.9 16.2,21 17.3,21.7 18.1,21.2 18.1,21.1 								"/>
								<polygon class="st3" points="15.7,20.6 14.7,20.1 14.7,20.2 15.7,20.7 16.5,20.3 16.5,20.2 								"/>
								<polygon class="st3" points="13.9,25.2 12.7,24.5 12.7,24.6 13.9,25.3 15.3,24.6 15.3,24.5 								"/>
								<g>
									<polygon class="st3" points="28.3,32 27,32.7 27,32.9 28.3,32.1 									"/>
									<polygon class="st3" points="25.9,32.1 25.9,32.2 27,32.9 27,32.7 									"/>
								</g>
								<g>
									<polygon class="st3" points="15.6,26.2 15.6,26.3 17,25.5 17,25.4 									"/>
									<polygon class="st3" points="14.4,25.6 15.6,26.3 15.6,26.2 14.4,25.5 									"/>
								</g>
								<polygon class="st3" points="23.8,30.9 22.6,30.2 22.6,30.3 23.8,31 25.1,30.2 25.1,30.1 								"/>
								<polygon class="st3" points="20.2,27.3 18.9,28.1 17.7,27.4 17.7,27.5 18.9,28.2 18.9,28.2 18.9,28.2 18.9,28.2 18.9,28.2 
									20.2,27.4 								"/>
								<g>
									<polygon class="st5" points="25.9,32.1 27,32.7 28.3,32 27.2,31.3 									"/>
									<polygon class="st5" points="24.2,31.2 25.4,31.8 26.7,31.1 25.6,30.4 									"/>
									<polygon class="st5" points="22.6,30.2 23.8,30.9 25.1,30.1 24,29.5 									"/>
									<polygon class="st5" points="21,29.3 22.2,30 23.5,29.2 22.3,28.5 									"/>
									<polygon class="st5" points="19.3,28.3 20.5,29 21.9,28.3 20.7,27.6 									"/>
									<polygon class="st5" points="16,26.4 17.2,27.1 18.6,26.4 17.4,25.7 									"/>
									<polygon class="st5" points="14.4,25.5 15.6,26.2 17,25.4 15.7,24.7 									"/>
									<polygon class="st5" points="12.7,24.5 13.9,25.2 15.3,24.5 14.1,23.7 									"/>
									<polygon class="st5" points="9.9,22.9 12.3,24.3 13.6,23.5 11.2,22.1 									"/>
									<polygon class="st5" points="27.4,33 30.2,34.6 31.5,33.8 28.8,32.2 									"/>
									<polygon class="st5" points="17.7,27.4 18.9,28.1 20.2,27.3 19,26.6 									"/>
								</g>
								<polygon class="st3" points="31.8,33.6 30.6,32.9 30.6,33 31.8,33.7 33.1,33 33.1,32.9 								"/>
								<polygon class="st3" points="30.5,31 29.3,30.3 29.3,30.4 30.5,31.1 31.9,30.4 31.9,30.3 								"/>
								<polygon class="st3" points="33.4,32.7 31,31.3 31,31.4 33.4,32.8 34.8,32 34.8,31.9 								"/>
								<polygon class="st3" points="28.7,28.1 29.5,27.7 29.5,27.8 28.7,28.2 27.5,27.5 27.5,27.4 								"/>
								<g>
									<polygon class="st3" points="30.4,29.1 30.4,29.2 31.1,28.7 31.1,28.6 									"/>
									<polygon class="st3" points="29.1,28.4 29.1,28.5 30.4,29.2 30.4,29.1 									"/>
								</g>
								<g>
									<polyline class="st3" points="32,30.1 32.8,29.7 32.8,29.6 32,30 									"/>
									<polygon class="st3" points="32,30 30.8,29.3 30.8,29.4 32,30.1 									"/>
								</g>
								<polygon class="st3" points="33.7,31 32.5,30.3 32.5,30.4 33.7,31.1 34.5,30.6 34.5,30.5 								"/>
								<polygon class="st3" points="35,31.8 34.1,31.2 34.1,31.4 35,31.9 35.8,31.4 35.8,31.3 								"/>
							</g>
							<g>
								<polyline class="st3" points="12.3,26.6 12.3,26.5 11,27.2 9.8,26.6 9.8,26.7 11,27.3 12.3,26.6 								"/>
							</g>
						</g>
					</g>
				</g>
			</g>
			<polygon class="st3" points="10.7,25.5 9.4,26.3 8.2,25.7 8.2,25.8 9.4,26.4 10.7,25.6 			"/>
			<polygon class="st3" points="7.8,25.4 6.6,24.7 6.6,24.8 7.8,25.5 9.1,24.7 9.1,24.6 			"/>
		</g>
	</g>
</g>
</svg>
