<?xml version="1.0" encoding="utf-8"?>
<!-- Generator: Adobe Illustrator 22.0.1, SVG Export Plug-In . SVG Version: 6.00 Build 0)  -->
<svg version="1.1" id="Layer_1" xmlns="http://www.w3.org/2000/svg" xmlns:xlink="http://www.w3.org/1999/xlink" x="0px" y="0px"
	 viewBox="0 0 40.1 41.3" style="enable-background:new 0 0 40.1 41.3;" xml:space="preserve">
<style type="text/css">
	.st0{fill:#F8FAFD;}
	.st1{opacity:0.16;fill:url(#SVGID_1_);enable-background:new    ;}
	.st2{opacity:0.06;fill:url(#SVGID_2_);enable-background:new    ;}
	.st3{fill:#2A2B2B;}
	.st4{opacity:0.06;fill:url(#SVGID_3_);enable-background:new    ;}
	.st5{fill:#474747;}
	.st6{fill:#E55933;}
	.st7{opacity:0.3;}
	.st8{fill:url(#SVGID_4_);}
	.st9{opacity:0.2;fill:#C0B5C6;enable-background:new    ;}
	.st10{opacity:0.4;enable-background:new    ;}
	.st11{opacity:0.4;fill:#F8FAFD;enable-background:new    ;}
	.st12{opacity:0.4;fill:#808080;enable-background:new    ;}
</style>
<title>Asset 40</title>
<g>
	<g id="Layer_2-2">
		<path class="st0" d="M22.6,40.2c-0.2,0.1-0.4,0.1-0.6,0L0,27.3v0.9c0,0.2,0.1,0.4,0.3,0.5L22,41.2c0.2,0.1,0.4,0.1,0.6,0l15-8.6
			c0.2-0.1,0.3-0.3,0.3-0.5v-0.7L22.6,40.2z"/>
		
			<linearGradient id="SVGID_1_" gradientUnits="userSpaceOnUse" x1="0" y1="422.28751" x2="37.7667" y2="422.28751" gradientTransform="matrix(1 0 0 1 0 -388)">
			<stop  offset="0" style="stop-color:#FFFFFF"/>
			<stop  offset="0.08492" style="stop-color:#E8E3EA"/>
			<stop  offset="0.3433" style="stop-color:#A594AE"/>
			<stop  offset="0.573" style="stop-color:#70547E"/>
			<stop  offset="0.7656" style="stop-color:#49275B"/>
			<stop  offset="0.9135" style="stop-color:#320A46"/>
			<stop  offset="0.999" style="stop-color:#29003E"/>
		</linearGradient>
		<path class="st1" d="M22.6,40.2c-0.2,0.1-0.4,0.1-0.6,0L0,27.3v0.9c0,0.2,0.1,0.4,0.3,0.5L22,41.2c0.2,0.1,0.4,0.1,0.6,0l15-8.6
			c0.2-0.1,0.3-0.3,0.3-0.5v-0.8L22.6,40.2z"/>
		<path class="st0" d="M15.1,18.2L0.4,26.8c-0.3,0.2-0.5,0.6-0.3,1c0.1,0.1,0.1,0.2,0.3,0.3L22,40.6c0.2,0.1,0.5,0.1,0.7,0l14.8-8.5
			c0.3-0.2,0.5-0.6,0.3-1c-0.1-0.1-0.2-0.2-0.3-0.3L15.9,18.2C15.6,18.1,15.4,18.1,15.1,18.2z"/>
		
			<linearGradient id="SVGID_2_" gradientUnits="userSpaceOnUse" x1="14.00156" y1="-349.99637" x2="22.47156" y2="-390.22638" gradientTransform="matrix(1 0 0 -1 0 -344)">
			<stop  offset="0" style="stop-color:#FFFFFF"/>
			<stop  offset="0.08492" style="stop-color:#E8E3EA"/>
			<stop  offset="0.3433" style="stop-color:#A594AE"/>
			<stop  offset="0.573" style="stop-color:#70547E"/>
			<stop  offset="0.7656" style="stop-color:#49275B"/>
			<stop  offset="0.9135" style="stop-color:#320A46"/>
			<stop  offset="0.999" style="stop-color:#29003E"/>
		</linearGradient>
		<path class="st2" d="M15.1,18.3L0.4,26.9c-0.3,0.2-0.5,0.6-0.3,1c0.1,0.1,0.2,0.2,0.3,0.2L22,40.6c0.2,0.1,0.5,0.1,0.7,0l14.8-8.5
			c0.3-0.2,0.5-0.6,0.3-1c-0.1-0.1-0.2-0.2-0.3-0.3L15.9,18.3C15.6,18.2,15.4,18.2,15.1,18.3z"/>
		<polygon class="st3" points="18.5,18.6 35.8,28.6 34.3,29.5 16.9,19.5 		"/>
		<path class="st0" d="M18.3,0.1C18,0,17.8,0,17.6,0.1L17,0.5l21.3,11.9c0.2,0.1,0.3,0.3,0.3,0.5l-0.4,17.8l0.6-0.4
			c0.2-0.1,0.4-0.4,0.4-0.6l1-16.6c0-0.2-0.1-0.4-0.3-0.5L18.3,0.1z"/>
		
			<linearGradient id="SVGID_3_" gradientUnits="userSpaceOnUse" x1="16.9" y1="-359.36249" x2="40.05" y2="-359.36249" gradientTransform="matrix(1 0 0 -1 0 -344)">
			<stop  offset="0" style="stop-color:#FFFFFF"/>
			<stop  offset="0.08492" style="stop-color:#E8E3EA"/>
			<stop  offset="0.3433" style="stop-color:#A594AE"/>
			<stop  offset="0.573" style="stop-color:#70547E"/>
			<stop  offset="0.7656" style="stop-color:#49275B"/>
			<stop  offset="0.9135" style="stop-color:#320A46"/>
			<stop  offset="0.999" style="stop-color:#29003E"/>
		</linearGradient>
		<path class="st4" d="M18.2,0.1C18,0,17.7,0,17.5,0.1l-0.6,0.4l21.3,11.9c0.2,0.1,0.3,0.3,0.3,0.5l-0.4,17.8l0.6-0.4
			c0.2-0.1,0.4-0.4,0.4-0.6l1-16.6c0-0.2-0.1-0.4-0.3-0.5L18.2,0.1z"/>
		<path class="st5" d="M15.5,17.6l1-16.5c0-0.4,0.3-0.7,0.7-0.7c0.1,0,0.3,0,0.4,0.1l21.6,12.4c0.2,0.1,0.4,0.4,0.4,0.6l-1,16.5
			c0,0.4-0.3,0.7-0.7,0.7c-0.1,0-0.2,0-0.4-0.1L15.8,18.2C15.6,18.1,15.5,17.9,15.5,17.6z"/>
		<path class="st6" d="M16.9,17.2l-0.1-0.1l0.9-14.6L38,13.8c0,0,0,0.1,0,0.2l-0.9,14.8L16.9,17.2z"/>
		<g class="st7">
			
				<linearGradient id="SVGID_4_" gradientUnits="userSpaceOnUse" x1="16.8495" y1="-359.64999" x2="38.007" y2="-359.64999" gradientTransform="matrix(1 0 0 -1 0 -344)">
				<stop  offset="0" style="stop-color:#FFFFFF"/>
				<stop  offset="1" style="stop-color:#DE8456"/>
			</linearGradient>
			<path class="st8" d="M16.9,17.2l-0.1-0.1l0.9-14.6L38,13.8c0,0,0,0.1,0,0.2l-0.9,14.8L16.9,17.2z"/>
		</g>
		<path class="st9" d="M15.4,19.3l-8.9,5.1c-0.2,0.1-0.2,0.3-0.1,0.5C6.4,25,6.5,25,6.5,25l20.1,11.7c0.1,0.1,0.2,0.1,0.4,0l8.9-5.1
			c0.2-0.1,0.2-0.3,0.1-0.5c0-0.1-0.1-0.1-0.1-0.1L15.8,19.3C15.6,19.2,15.5,19.2,15.4,19.3z"/>
	</g>
	<g class="st10">
		<path class="st11" d="M13.3,29.5l5.5,3.1c0.2,0.1,0.2,0.5,0,0.6l-3.3,1.9c-0.1,0.1-0.2,0.1-0.4,0L9.6,32c-0.2-0.1-0.2-0.5,0-0.6
			l3.3-2C13,29.4,13.2,29.4,13.3,29.5z"/>
		<path class="st12" d="M9.6,31.6l3.3-2c0.1-0.1,0.2-0.1,0.4,0l5.5,3.1c0.1,0.1,0.1,0.1,0.2,0.2c0-0.1,0-0.3-0.2-0.4l-5.5-3.1
			c-0.1-0.1-0.3-0.1-0.4,0l-3.3,2c-0.1,0.1-0.2,0.2-0.2,0.4C9.4,31.7,9.5,31.6,9.6,31.6z"/>
	</g>
</g>
<g>
	<g>
		<polygon class="st3" points="13.63802,23.41564 12.29049,24.1917 9.8832,22.8051 9.88332,22.91405 12.2878,24.30278 
			13.63936,23.52464 		"/>
		<g>
			<g>
				<polygon class="st5" points="13.08692,24.97495 9.6226,22.97961 8.2697,23.7364 11.75678,25.74911 				"/>
				<polygon class="st5" points="14.67706,25.89692 13.5174,25.229 12.18307,26.00084 13.34152,26.66947 				"/>
				<polygon class="st5" points="16.29615,26.82946 15.11992,26.15199 13.78389,26.92481 14.95888,27.603 				"/>
				<polygon class="st5" points="17.92682,27.76867 16.82373,27.12873 15.48598,27.90254 16.5878,28.54322 				"/>
				<polygon class="st5" points="19.54517,28.7008 18.36965,28.02373 17.03018,28.79854 18.20448,29.47634 				"/>
				<polygon class="st5" points="21.24346,29.67433 19.98803,28.95584 18.64684,29.73166 19.90103,30.45088 				"/>
				<polygon class="st5" points="22.76812,30.55707 21.60159,29.88519 20.25868,30.662 21.42396,31.33461 				"/>
				<polygon class="st5" points="24.464,31.52925 23.21095,30.81214 21.86634,31.58993 23.11814,32.30775 				"/>
				<polygon class="st5" points="26.00434,32.42104 24.90683,31.78432 23.56052,32.5631 24.65677,33.20055 				"/>
				<g>
					<polygon class="st5" points="25.10862,33.45565 28.56374,35.44992 29.9177,34.66883 26.45708,32.67564 					"/>
					<g>
						<g>
							<polygon class="st5" points="16.53204,23.19231 15.38477,22.53153 14.04431,23.30692 15.19082,23.96815 							"/>
							<polygon class="st5" points="18.1584,24.12903 16.9749,23.44737 15.63337,24.22337 16.81612,24.90548 							"/>
							<polygon class="st5" points="19.80881,25.07961 18.60126,24.3841 17.25867,25.16072 18.46541,25.8567 							"/>
							<polygon class="st5" points="21.43709,26.01745 20.25167,25.33468 18.90799,26.11194 20.09263,26.79517 							"/>
							<polygon class="st5" points="23.08586,26.96707 21.87995,26.27252 20.53519,27.05039 21.74028,27.7454 							"/>
							<polygon class="st5" points="24.74404,27.92212 23.52871,27.22214 22.18286,28.00064 23.39738,28.7011 							"/>
							<polygon class="st5" points="26.41034,28.88182 25.1869,28.17718 23.83993,28.95634 25.06256,29.66146 							"/>
							<polygon class="st5" points="28.07656,29.8415 26.8532,29.13689 25.50511,29.91671 26.72766,30.62178 							"/>
							<polygon class="st5" points="29.7445,30.80217 28.51941,30.09657 27.17022,30.87702 28.39449,31.58311 							"/>
							<polygon class="st5" points="31.48052,31.81473 30.25544,31.10913 28.90624,31.88959 30.13051,32.59567 							"/>
							<polygon class="st5" points="33.15847,32.78412 31.93338,32.07852 30.58418,32.85897 31.80846,33.56506 							"/>
							<polygon class="st5" points="14.93653,22.28631 12.83214,21.07422 11.511,21.85865 13.59686,23.06124 							"/>
						</g>
						<g>
							<polygon class="st5" points="9.13336,24.55422 7.9737,23.8863 6.65362,24.66358 7.80031,25.32535 							"/>
							<polygon class="st5" points="10.72156,25.46897 9.5762,24.80929 8.24268,25.58064 9.38691,26.24099 							"/>
							<polygon class="st5" points="12.33024,26.39548 11.1644,25.72401 9.82931,26.49631 10.99396,27.16844 							"/>
							<polygon class="st5" points="14.33933,27.55266 12.77307,26.65055 11.43636,27.42376 13.00107,28.32678 							"/>
							<polygon class="st5" points="14.78216,27.80773 13.44348,28.58208 18.56732,31.51968 19.90406,30.74643 							"/>
							<polygon class="st5" points="21.03429,32.92776 22.20013,33.59923 23.53522,32.82693 22.37057,32.1548 							"/>
							<polygon class="st5" points="24.24186,34.8068 25.4077,35.47828 26.74279,34.70598 25.57813,34.03385 							"/>
							<polygon class="st5" points="19.0252,31.77058 20.59146,32.6727 21.92817,31.89949 20.36345,30.99646 							"/>
							<polygon class="st5" points="26.9738,36.37522 25.80914,35.70309 26.50096,35.30291 27.66491,35.97463 							"/>
							<polygon class="st5" points="23.8017,34.51997 22.63705,33.84784 23.32887,33.44765 24.49281,34.11937 							"/>
						</g>
						<g>
							<polygon class="st5" points="15.62118,20.80616 14.47536,20.14622 13.15527,20.92348 14.28813,21.57727 							"/>
							<g>
								<polygon class="st5" points="17.20834,21.72033 16.06404,21.06125 14.73055,21.83261 15.87371,22.49235 								"/>
								<polygon class="st5" points="18.80098,22.63762 17.6512,21.9754 16.31614,22.74767 17.46478,23.41057 								"/>
								<polygon class="st5" points="20.41556,23.56758 19.24383,22.89271 17.9072,23.6659 19.07776,24.34144 								"/>
								<polygon class="st5" points="22.03571,24.5007 20.85844,23.82265 19.52019,24.59676 20.69629,25.27551 								"/>
								<polygon class="st5" points="23.66658,25.44001 22.47857,24.75577 21.13872,25.53083 22.32554,26.21575 								"/>
								<polygon class="st5" points="25.30921,26.38611 24.10944,25.6951 22.76794,26.47107 23.96652,27.16279 								"/>
								<polygon class="st5" points="26.94839,27.33023 25.75207,26.6412 24.40895,27.41811 25.60411,28.10785 								"/>
								<polygon class="st5" points="28.59305,28.27747 27.39125,27.5853 26.04651,28.36317 27.24709,29.05605 								"/>
								<polygon class="st5" points="30.24406,29.22841 29.0359,28.53256 27.68952,29.31137 28.89649,30.00793 								"/>
								<polygon class="st5" points="31.89802,30.18102 30.68692,29.48347 29.33889,30.26324 30.54877,30.9615 								"/>
								<polygon class="st5" points="32.34088,30.43608 30.9912,31.21682 33.44879,32.63514 34.80275,31.85403 								"/>
							</g>
						</g>
						<g>
							<polygon class="st5" points="26.66578,25.9584 25.89305,26.40537 27.08821,27.09511 27.86205,26.64746 							"/>
							<polygon class="st5" points="25.0232,25.01228 24.25204,25.45833 25.45062,26.15005 26.22292,25.70331 							"/>
							<polygon class="st5" points="23.39238,24.07292 22.62282,24.51809 23.80964,25.20301 24.58034,24.75719 							"/>
							<polygon class="st5" points="21.7723,23.13975 21.00429,23.58402 22.18039,24.26277 22.94954,23.81783 							"/>
							<polygon class="st5" points="20.15777,22.20979 19.39131,22.65315 20.56186,23.3287 21.32947,22.88468 							"/>
							<polygon class="st5" points="18.56519,21.29245 17.80024,21.73493 18.94888,22.39783 19.71494,21.9547 							"/>
							<polygon class="st5" points="16.97808,20.37825 16.21465,20.81987 17.35782,21.47961 18.12236,21.03736 							"/>
							<polygon class="st5" points="31.60045,28.80078 30.82299,29.2505 32.03287,29.94876 32.8115,29.49835 							"/>
							<polygon class="st5" points="33.28201,29.75344 32.50454,30.20317 33.71442,30.90142 34.49305,30.45101 							"/>
							<polygon class="st5" points="29.94949,27.84984 29.17362,28.29863 30.38059,28.99518 31.1576,28.54571 							"/>
							<polygon class="st5" points="28.30488,26.90255 27.53061,27.35043 28.73119,28.04331 29.50663,27.59475 							"/>
							<polygon class="st5" points="34.93386,30.72084 34.1532,31.17241 35.05761,31.69437 35.82317,31.25153 							"/>
							<polygon class="st5" points="14.75206,19.99033 15.77222,20.56452 16.53522,20.12316 15.54853,19.52961 							"/>
						</g>
						<g>
							<g>
								<polygon class="st3" points="14.28811,21.57726 13.15527,20.92348 13.15529,21.03435 14.28896,21.6862 15.62117,20.91619 
									15.62117,20.80614 								"/>
								<polygon class="st3" points="15.87374,22.49236 14.73055,21.83257 14.73055,21.94353 15.87423,22.60131 17.20833,21.83074 
									17.20833,21.72032 								"/>
								<polygon class="st3" points="17.4648,23.41057 16.31612,22.74767 16.31612,22.85649 17.46657,23.51952 18.80068,22.74742 
									18.80099,22.63762 								"/>
								<polygon class="st3" points="19.07778,24.34142 17.90719,23.66689 17.90719,23.77584 19.07918,24.45037 20.41555,23.6765 
									20.41555,23.56755 								"/>
								<g>
									<polyline class="st3" points="20.69637,25.38446 22.03571,24.60965 22.03571,24.5007 20.69629,25.27551 									"/>
									<polygon class="st3" points="20.69629,25.27551 19.52019,24.59676 19.52019,24.70796 20.69637,25.38446 									"/>
								</g>
								<polygon class="st3" points="22.32552,26.21575 21.13869,25.53081 21.13869,25.64171 22.32601,26.32469 23.66659,25.54961 
									23.66659,25.43999 								"/>
								<polygon class="st3" points="23.96651,27.16277 22.76797,26.47301 22.76797,26.58196 23.96889,27.27172 25.30923,26.4937 
									25.30923,26.3861 								"/>
								<g>
									<polyline class="st3" points="25.60561,28.2168 26.94839,27.44133 26.94619,27.33238 25.60561,28.10911 									"/>
									<polygon class="st3" points="25.60526,28.11013 24.40915,27.42044 24.4094,27.52939 25.60561,28.2168 									"/>
								</g>
								<g>
									<polyline class="st3" points="27.24772,29.165 28.59305,28.38642 28.59305,28.27747 27.24772,29.05707 									"/>
									<polygon class="st3" points="27.24709,29.05605 26.04651,28.36377 26.04651,28.47272 27.24772,29.165 									"/>
								</g>
								<polygon class="st3" points="28.8973,30.00749 27.68954,29.31133 27.68954,29.42027 28.89882,30.11687 30.24404,29.33733 
									30.24404,29.22838 								"/>
								<polygon class="st3" points="13.59688,23.0612 11.511,21.86095 11.511,21.96996 13.59652,23.17015 14.93654,22.39574 
									14.93654,22.28679 								"/>
								<polygon class="st3" points="15.19082,23.96813 14.04433,23.30693 14.04433,23.41612 15.19246,24.07707 16.53206,23.30126 
									16.53206,23.19231 								"/>
								<g>
									<polygon class="st3" points="16.81612,24.90544 16.8185,25.01439 18.15798,24.2376 18.15798,24.12865 									"/>
									<polygon class="st3" points="15.63338,24.33428 16.81801,25.01439 16.81612,24.90544 15.63338,24.22338 									"/>
								</g>
								<polygon class="st3" points="18.46541,25.85668 17.25869,25.16277 17.25869,25.27172 18.46578,25.96562 19.8088,25.19066 
									19.8088,25.07958 								"/>
								<polygon class="st3" points="20.09261,26.79515 20.09261,26.79637 18.90798,26.11193 18.90798,26.22325 20.09487,26.9041 
									21.43709,26.12755 21.43709,26.0186 								"/>
								<polygon class="st3" points="21.74026,27.74541 20.53518,27.0504 20.53518,27.15837 21.73897,27.85436 23.08584,27.07311 
									23.08584,26.96703 								"/>
								<polygon class="st3" points="23.39736,28.7011 22.18288,28.00206 22.18288,28.11101 23.39834,28.81005 24.74404,28.03105 
									24.74404,27.92211 								"/>
								<g>
									<polygon class="st3" points="25.06258,29.66142 25.06399,29.77037 26.41036,28.99114 26.41036,28.88182 									"/>
									<polygon class="st3" points="23.83993,29.06725 25.0635,29.77037 25.06258,29.66142 23.83993,28.9583 									"/>
								</g>
								<g>
									<polygon class="st3" points="26.72915,30.62193 26.72915,30.7307 28.07656,29.95043 28.07656,29.84148 									"/>
									<polygon class="st3" points="25.50558,29.91619 25.50558,30.02513 26.72915,30.7307 26.72884,30.62291 									"/>
								</g>
								<polygon class="st3" points="28.39449,31.58312 27.17025,30.877 27.17025,30.98363 28.39571,31.69206 29.74257,30.90996 
									29.74453,30.80217 								"/>
								<g>
									<polygon class="st3" points="30.13173,32.59612 30.13173,32.70457 31.4786,31.92369 31.48055,31.81474 									"/>
									<polygon class="st3" points="28.90816,31.89043 28.90621,31.99938 30.13173,32.70457 30.13137,32.59715 									"/>
								</g>
								<g>
									<polygon class="st3" points="25.43777,31.76329 25.43801,31.87529 26.77474,31.09923 26.77498,30.99028 									"/>
									<polygon class="st3" points="24.26723,31.09093 24.26723,31.19988 25.43801,31.87529 25.43715,31.76329 									"/>
								</g>
								<polygon class="st3" points="22.19863,29.90117 21.0107,29.21703 21.0107,29.32591 22.19863,30.01128 23.5414,29.23522 
									23.5414,29.12627 								"/>
								<polygon class="st3" points="20.56783,28.96196 19.3597,28.26555 19.35982,28.3745 20.56783,29.07097 21.91024,28.29442 
									21.91024,28.18547 								"/>
								<polygon class="st3" points="18.62154,26.28789 17.27614,27.06609 16.07631,26.37505 16.07631,26.48601 17.27517,27.17504 
									18.62203,26.39849 								"/>
								<polygon class="st3" points="11.75679,25.74907 8.26973,23.73638 8.26973,23.84532 11.75667,25.85802 13.08693,25.08391 
									13.08693,24.97496 								"/>
								<g>
									<polyline class="st3" points="12.18307,26.00036 12.18307,26.10931 13.34233,26.77611 14.67645,26.00371 
										14.67645,25.89476 13.34233,26.66947 12.18307,26.00084 									"/>
								</g>
								<g>
									<polygon class="st3" points="14.95888,27.60295 14.95717,27.71196 16.29391,26.93938 16.29616,26.82945 									"/>
									<polygon class="st3" points="13.78615,27.03215 14.95693,27.71196 14.95888,27.60295 13.78389,26.92479 									"/>
								</g>
								<polygon class="st3" points="16.58779,28.5432 15.48598,27.90251 15.48598,28.01402 16.58761,28.65215 17.92812,27.87779 
									17.92812,27.76885 								"/>
								<polygon class="st3" points="19.90102,30.45085 18.64681,29.73168 18.64681,29.84252 19.90194,30.5598 21.24343,29.78002 
									21.24343,29.67107 								"/>
								<polygon class="st3" points="21.42397,31.33458 20.25869,30.66362 20.25869,30.77367 21.42586,31.44353 22.76809,30.66435 
									22.76809,30.55541 								"/>
								<polygon class="st3" points="23.11812,32.30772 21.86635,31.58989 21.86635,31.69951 23.11757,32.41667 24.46401,31.63854 
									24.46401,31.52922 								"/>
								<polygon class="st3" points="24.65676,33.20055 23.56051,32.5631 23.56051,32.67455 24.65682,33.31004 26.00368,32.52721 
									26.00435,32.42101 								"/>
								<polygon class="st3" points="18.20449,29.47631 17.03017,28.79851 17.03017,28.9066 18.20504,29.58525 19.54519,28.80974 
									19.54519,28.70079 								"/>
								<polygon class="st3" points="28.56374,35.45006 28.56374,35.44987 25.1086,33.45561 25.1086,33.56364 28.56392,35.55882 
									29.91768,34.77769 29.91768,34.66875 								"/>
								<polygon class="st3" points="30.20589,34.51237 27.45943,32.92979 27.45943,33.03874 30.20589,34.62303 31.53048,33.84459 
									31.53048,33.73564 								"/>
								<polygon class="st3" points="13.00106,28.32677 11.43636,27.42375 11.43636,27.53191 13.00106,28.43572 14.33931,27.66161 
									14.33931,27.55266 								"/>
								<polygon class="st3" points="18.56734,31.51964 13.4435,28.58342 13.4435,28.69237 18.56569,31.62859 19.90182,30.85393 
									19.90182,30.74498 								"/>
								<g>
									<polyline class="st3" points="20.59151,32.7816 19.02523,31.87871 19.02523,31.77056 20.59145,32.67265 21.92818,31.90093 
										21.92818,32.00987 20.59151,32.7816 									"/>
								</g>
								<polygon class="st3" points="22.20016,33.59923 21.03432,32.92772 21.03432,33.03593 22.1982,33.70818 23.53524,32.9359 
									23.53524,32.82689 								"/>
								<polygon class="st3" points="23.80172,34.51994 22.63704,33.84782 22.63704,33.95836 23.80141,34.62889 24.49282,34.22832 
									24.49282,34.11937 								"/>
								<polygon class="st3" points="25.40767,35.47826 24.24184,34.80681 24.24184,34.91374 25.40792,35.5872 26.74276,34.81554 
									26.74276,34.70653 								"/>
								<polygon class="st3" points="26.97378,36.37523 25.80916,35.70305 25.80916,35.81071 26.97347,36.48418 27.66488,36.08226 
									27.66488,35.97459 								"/>
								<polygon class="st3" points="27.08822,27.09508 25.89303,26.40697 25.89651,26.51592 27.08907,27.20403 27.86208,26.75646 
									27.86208,26.64745 								"/>
								<polygon class="st3" points="25.45064,26.15001 24.25204,25.4583 24.25204,25.56615 25.449,26.25896 26.22292,25.81139 
									26.22292,25.70244 								"/>
								<polygon class="st3" points="23.80964,25.20299 23.80964,25.20354 22.62282,24.51799 22.62282,24.62694 23.81264,25.31194 
									24.58034,24.86711 24.58034,24.75817 								"/>
								<polygon class="st3" points="22.18038,24.26274 21.00429,23.58403 21.00429,23.69103 22.18184,24.37169 22.94954,23.92485 
									22.94954,23.8178 								"/>
								<polygon class="st3" points="20.56185,23.32866 20.56185,23.32897 19.39132,22.65312 19.39132,22.76207 20.56527,23.43761 
									21.32949,22.98918 21.32949,22.88652 								"/>
								<polygon class="st3" points="18.94887,22.39781 17.80025,21.73522 17.80025,21.84416 18.95077,22.50676 19.71493,22.06145 
									19.71493,21.9547 								"/>
								<polygon class="st3" points="17.35781,21.4796 16.21468,20.8206 16.21468,20.92961 17.35818,21.58855 18.12234,21.14629 
									18.12234,21.03734 								"/>
								<polygon class="st3" points="15.77224,20.5645 14.75203,19.99028 14.75203,20.10155 15.77376,20.67302 16.53524,20.23216 
									16.53524,20.12322 								"/>
								<polygon class="st3" points="13.97146,25.16063 12.73214,24.4489 12.73214,24.55986 13.97146,25.26921 15.31832,24.49175 
									15.31832,24.3828 								"/>
								<g>
									<polygon class="st3" points="28.35189,31.90245 27.01729,32.67497 27.01729,32.78514 28.35305,32.0114 									"/>
									<polygon class="st3" points="25.88088,32.01933 25.88088,32.13206 27.01729,32.78514 27.01693,32.67601 									"/>
								</g>
								<g>
									<polygon class="st3" points="15.6335,26.11998 15.6354,26.22893 16.98037,25.45079 16.98037,25.34087 									"/>
									<polygon class="st3" points="14.4128,25.52471 15.63491,26.22893 15.6335,26.11998 14.4128,25.41692 									"/>
								</g>
								<polygon class="st3" points="23.82345,30.83751 22.64321,30.15636 22.64333,30.26531 23.82406,30.9467 25.16414,30.17119 
									25.16414,30.06224 								"/>
								<polygon class="st3" points="20.26089,27.23381 18.91768,28.01079 17.71902,27.32115 17.71902,27.43248 18.91714,28.11931 
									18.91714,28.1201 18.91781,28.11974 18.91848,28.1201 18.91848,28.11931 20.26089,27.34441 								"/>
								<g>
									<polygon class="st5" points="25.87968,32.02141 27.01659,32.67624 28.35307,31.90315 27.21717,31.24772 									"/>
									<polygon class="st5" points="24.26746,31.09285 25.43683,31.76635 26.77475,30.99243 25.60645,30.3183 									"/>
									<polygon class="st5" points="22.64336,30.15742 23.82463,30.83778 25.16402,30.063 23.98381,29.38201 									"/>
									<polygon class="st5" points="21.01071,29.21707 22.2005,29.90235 23.54139,29.12671 22.35266,28.4408 									"/>
									<polygon class="st5" points="19.35985,28.26623 20.56785,28.962 21.91023,28.1855 20.70332,27.4891 									"/>
									<polygon class="st5" points="16.07634,26.37505 17.27616,27.06611 18.62153,26.28788 17.4228,25.59619 									"/>
									<polygon class="st5" points="14.4128,25.41692 15.63348,26.11998 16.98035,25.3409 15.76076,24.63717 									"/>
									<polygon class="st5" points="12.73214,24.44893 13.96995,25.16185 15.31833,24.38188 14.08164,23.66829 									"/>
									<polygon class="st5" points="9.88339,22.80817 12.28928,24.19386 13.63922,23.413 11.23368,22.02492 									"/>
									<polygon class="st5" points="27.45942,32.9313 30.20751,34.5141 31.5305,33.73659 28.79552,32.15845 									"/>
									<polygon class="st5" points="17.71902,27.32117 18.91699,28.01117 20.26087,27.2338 19.06398,26.54318 									"/>
								</g>
								<polygon class="st3" points="31.80843,33.56505 30.58608,32.86015 30.58608,32.9691 31.80964,33.674 33.15847,32.89024 
									33.15847,32.7841 								"/>
								<polygon class="st3" points="30.5472,30.96056 29.33889,30.26323 29.33889,30.37108 30.5469,31.07042 31.89577,30.29131 
									31.89577,30.18236 								"/>
								<polygon class="st3" points="33.44936,32.63499 30.99117,31.21678 30.99117,31.3253 33.44844,32.74406 34.80275,31.96294 
									34.80275,31.85399 								"/>
								<polygon class="st3" points="28.73122,28.04412 29.50661,27.59508 29.50655,27.70403 28.73018,28.15227 27.53066,27.46153 
									27.5306,27.35259 								"/>
								<g>
									<polygon class="st3" points="30.38289,28.99437 30.38289,29.10411 31.15761,28.65648 31.15761,28.54747 									"/>
									<polygon class="st3" points="29.1736,28.29863 29.1736,28.40782 30.38289,29.10411 30.38253,28.99541 									"/>
								</g>
								<g>
									<polyline class="st3" points="32.03453,30.05771 32.80923,29.60689 32.80923,29.4999 32.03287,29.94876 									"/>
									<polygon class="st3" points="32.03287,29.94876 30.82526,29.25167 30.82526,29.36062 32.03453,30.05771 									"/>
								</g>
								<polygon class="st3" points="33.71612,30.90161 32.50454,30.20317 32.50454,30.31395 33.71444,31.01036 34.49306,30.56059 
									34.49306,30.45165 								"/>
								<polygon class="st3" points="35.05764,31.69432 34.15151,31.17162 34.15151,31.28057 35.06002,31.80333 35.82314,31.35954 
									35.82314,31.25151 								"/>
							</g>
							<g>
								<polyline class="st3" points="12.33022,26.50066 12.32857,26.39476 10.99392,27.16728 9.8293,26.49785 9.8293,26.6068 
									10.99392,27.27739 12.33024,26.5007 								"/>
							</g>
						</g>
					</g>
				</g>
			</g>
			<polygon class="st3" points="10.71999,25.46861 9.38662,26.24034 8.2427,25.58061 8.2427,25.68834 9.38839,26.3499 
				10.72255,25.57756 			"/>
			<polygon class="st3" points="7.79891,25.32451 6.65365,24.66356 6.65365,24.76976 7.79799,25.43431 9.13216,24.66026 
				9.13216,24.55278 			"/>
		</g>
	</g>
</g>
</svg>
