<svg xmlns="http://www.w3.org/2000/svg" xmlns:xlink="http://www.w3.org/1999/xlink" viewBox="0 0 40.1 41.29"><defs><style>.cls-1{fill:#2a2b2b;}.cls-11,.cls-2{fill:#dce0dc;}.cls-3{opacity:0.5;fill:url(#linear-gradient);}.cls-4{fill:#f3f9f2;}.cls-13,.cls-5{opacity:0.2;}.cls-5{fill:url(#linear-gradient-2);}.cls-6,.cls-9{opacity:0.3;}.cls-6{fill:url(#linear-gradient-3);}.cls-7{fill:#474747;}.cls-8{fill:#b5cb3f;}.cls-10{fill:url(#linear-gradient-4);}.cls-11{opacity:0.7;}.cls-12{fill:#ccc;opacity:0.4;}.cls-13{fill:gray;}</style><linearGradient id="linear-gradient" x1="0.01" y1="34.31" x2="37.8" y2="34.31" gradientUnits="userSpaceOnUse"><stop offset="0" stop-color="#fff"/><stop offset="0.22" stop-color="#ccc"/><stop offset="0.71" stop-color="#4d4d4d"/><stop offset="1"/></linearGradient><linearGradient id="linear-gradient-2" x1="13.96" y1="5.89" x2="22.43" y2="46.12" xlink:href="#linear-gradient"/><linearGradient id="linear-gradient-3" x1="16.93" y1="15.35" x2="40.1" y2="15.35" gradientUnits="userSpaceOnUse"><stop offset="0" stop-color="#fff"/><stop offset="0.09" stop-color="#f2f2f2"/><stop offset="0.26" stop-color="#cecece"/><stop offset="0.49" stop-color="#959595"/><stop offset="0.76" stop-color="#484848"/><stop offset="1"/></linearGradient><linearGradient id="linear-gradient-4" x1="16.88" y1="15.64" x2="38.03" y2="15.64" gradientUnits="userSpaceOnUse"><stop offset="0" stop-color="#fff"/><stop offset="1" stop-color="#de8456"/></linearGradient></defs><title>Asset 40</title><g id="Layer_2" data-name="Layer 2"><g id="Layer_2-2" data-name="Layer 2"><polyline class="cls-1" points="28.89 30.12 30.23 29.36 30.23 29.27 28.89 30.05"/><polygon class="cls-1" points="28.89 30.05 27.68 29.35 27.68 29.43 28.89 30.12 28.89 30.05"/><polyline class="cls-1" points="28.72 28.16 29.49 27.72 29.49 27.63 28.72 28.08"/><polygon class="cls-1" points="28.72 28.08 27.52 27.39 27.52 27.47 28.72 28.16 28.72 28.08"/><polyline class="cls-1" points="30.19 34.63 31.52 33.86 31.52 33.77 30.19 34.55"/><polygon class="cls-1" points="30.19 34.55 27.45 32.97 27.45 33.04 30.19 34.63 30.19 34.55"/><path class="cls-2" d="M22.57,40.18a.57.57,0,0,1-.57,0L0,27.33v.87a.56.56,0,0,0,.27.49L22,41.21a.57.57,0,0,0,.57,0L37.52,32.6a.57.57,0,0,0,.28-.49v-.9Z"/><path class="cls-3" d="M22.57,40.18a.57.57,0,0,1-.57,0L0,27.33v.87a.56.56,0,0,0,.27.49L22,41.21a.57.57,0,0,0,.57,0L37.52,32.6a.57.57,0,0,0,.28-.49v-.9Z"/><path class="cls-4" d="M15.13,18.22.37,26.76A.72.72,0,0,0,.37,28L21.93,40.45a.72.72,0,0,0,.72,0l14.8-8.53a.72.72,0,0,0,0-1.25L15.85,18.22A.72.72,0,0,0,15.13,18.22Z"/><path class="cls-5" d="M15.12,18.22.36,26.76A.72.72,0,0,0,.36,28L21.92,40.45a.72.72,0,0,0,.72,0l14.8-8.53a.72.72,0,0,0,0-1.25L15.84,18.22A.72.72,0,0,0,15.12,18.22Z"/><polygon class="cls-1" points="18.48 18.61 35.83 28.64 34.26 29.54 16.92 19.52 18.48 18.61"/><path class="cls-2" d="M18.27.1a.72.72,0,0,0-.72,0l-.61.37L38.25,12.39a.54.54,0,0,1,.27.47L38.09,30.7l.64-.37a.72.72,0,0,0,.36-.62l1-16.59a.54.54,0,0,0-.27-.47Z"/><path class="cls-6" d="M18.27.1a.72.72,0,0,0-.72,0l-.61.37L38.25,12.39a.54.54,0,0,1,.27.47L38.09,30.7l.64-.37a.72.72,0,0,0,.36-.62l1-16.59a.54.54,0,0,0-.27-.47Z"/><path class="cls-7" d="M15.49,17.6l1-16.5A.72.72,0,0,1,17.6.48L39.16,12.92a.72.72,0,0,1,.36.62l-1,16.5a.72.72,0,0,1-1.08.62L15.85,18.23A.72.72,0,0,1,15.49,17.6Z"/><path class="cls-8" d="M16.93,17.22a.13.13,0,0,1-.06-.11l.88-14.61a0,0,0,0,1,.07,0L38,13.84A.13.13,0,0,1,38,14l-.89,14.82a0,0,0,0,1-.07,0Z"/><g class="cls-9"><path class="cls-10" d="M16.93,17.22a.13.13,0,0,1-.06-.11l.88-14.61a0,0,0,0,1,.07,0L38,13.84A.13.13,0,0,1,38,14l-.89,14.82a0,0,0,0,1-.07,0Z"/></g><path class="cls-11" d="M15.4,19.29,6.51,24.42a.36.36,0,0,0,0,.62L26.63,36.7a.36.36,0,0,0,.36,0l8.9-5.13a.36.36,0,0,0,0-.62L15.76,19.29A.36.36,0,0,0,15.4,19.29Z"/><polygon class="cls-1" points="13.62 23.45 12.28 24.23 9.87 22.84 9.87 22.95 12.27 24.34 13.63 23.56 13.62 23.45"/><polygon class="cls-7" points="13.07 25.02 9.61 23.02 8.26 23.78 11.74 25.79 13.07 25.02"/><polygon class="cls-7" points="14.66 25.94 13.5 25.27 12.17 26.04 13.33 26.71 14.66 25.94"/><polygon class="cls-7" points="16.28 26.87 15.11 26.19 13.77 26.96 14.95 27.64 16.28 26.87"/><polygon class="cls-7" points="17.91 27.81 16.81 27.17 15.47 27.94 16.57 28.58 17.91 27.81"/><polygon class="cls-7" points="19.53 28.74 18.36 28.06 17.02 28.84 18.19 29.52 19.53 28.74"/><polygon class="cls-7" points="21.23 29.71 19.97 29 18.63 29.77 19.89 30.49 21.23 29.71"/><polygon class="cls-7" points="22.75 30.6 21.59 29.93 20.25 30.7 21.41 31.37 22.75 30.6"/><polygon class="cls-7" points="24.45 31.57 23.2 30.85 21.85 31.63 23.1 32.35 24.45 31.57"/><polygon class="cls-7" points="25.99 32.46 24.89 31.82 23.55 32.6 24.64 33.24 25.99 32.46"/><polygon class="cls-7" points="25.09 33.49 28.55 35.49 29.9 34.71 26.44 32.72 25.09 33.49"/><polygon class="cls-7" points="16.52 23.23 15.37 22.57 14.03 23.35 15.18 24.01 16.52 23.23"/><polygon class="cls-7" points="18.14 24.17 16.96 23.49 15.62 24.26 16.8 24.95 18.14 24.17"/><polygon class="cls-7" points="19.8 25.12 18.59 24.42 17.25 25.2 18.45 25.9 19.8 25.12"/><polygon class="cls-7" points="21.42 26.06 20.24 25.37 18.89 26.15 20.08 26.84 21.42 26.06"/><polygon class="cls-7" points="23.07 27.01 21.87 26.31 20.52 27.09 21.73 27.79 23.07 27.01"/><polygon class="cls-7" points="24.73 27.96 23.52 27.26 22.17 28.04 23.38 28.74 24.73 27.96"/><polygon class="cls-7" points="26.4 28.92 25.17 28.22 23.83 29 25.05 29.7 26.4 28.92"/><polygon class="cls-7" points="28.06 29.88 26.84 29.18 25.49 29.96 26.71 30.66 28.06 29.88"/><polygon class="cls-7" points="29.73 30.84 28.51 30.14 27.16 30.92 28.38 31.62 29.73 30.84"/><polygon class="cls-7" points="31.47 31.85 30.24 31.15 28.89 31.93 30.12 32.63 31.47 31.85"/><polygon class="cls-7" points="33.15 32.82 31.92 32.12 30.57 32.9 31.8 33.6 33.15 32.82"/><polygon class="cls-7" points="14.92 22.33 12.82 21.11 11.5 21.9 13.58 23.1 14.92 22.33"/><polygon class="cls-7" points="9.12 24.59 7.96 23.93 6.64 24.7 7.79 25.36 9.12 24.59"/><polygon class="cls-7" points="10.71 25.51 9.56 24.85 8.23 25.62 9.37 26.28 10.71 25.51"/><polygon class="cls-7" points="12.32 26.43 11.15 25.76 9.82 26.54 10.98 27.21 12.32 26.43"/><polygon class="cls-7" points="14.33 27.59 12.76 26.69 11.42 27.46 12.99 28.37 14.33 27.59"/><polygon class="cls-7" points="14.77 27.85 13.43 28.62 18.55 31.56 19.89 30.79 14.77 27.85"/><polygon class="cls-7" points="21.02 32.97 22.19 33.64 23.52 32.87 22.36 32.19 21.02 32.97"/><polygon class="cls-7" points="24.23 34.85 25.39 35.52 26.73 34.75 25.56 34.07 24.23 34.85"/><polygon class="cls-7" points="19.01 31.81 20.58 32.71 21.91 31.94 20.35 31.04 19.01 31.81"/><polygon class="cls-7" points="26.96 36.41 25.8 35.74 26.49 35.34 27.65 36.01 26.96 36.41"/><polygon class="cls-7" points="23.79 34.56 22.62 33.89 23.32 33.49 24.48 34.16 23.79 34.56"/><polygon class="cls-7" points="15.61 20.85 14.46 20.19 13.14 20.96 14.27 21.62 15.61 20.85"/><polygon class="cls-7" points="17.2 21.76 16.05 21.1 14.72 21.87 15.86 22.53 17.2 21.76"/><polygon class="cls-7" points="18.79 22.68 17.64 22.02 16.3 22.79 17.45 23.45 18.79 22.68"/><polygon class="cls-7" points="20.4 23.61 19.23 22.93 17.89 23.7 19.06 24.38 20.4 23.61"/><polygon class="cls-7" points="22.02 24.54 20.84 23.86 19.51 24.64 20.68 25.32 22.02 24.54"/><polygon class="cls-7" points="23.65 25.48 22.46 24.8 21.13 25.57 22.31 26.25 23.65 25.48"/><polygon class="cls-7" points="25.3 26.43 24.1 25.73 22.75 26.51 23.95 27.2 25.3 26.43"/><polygon class="cls-7" points="26.93 27.37 25.74 26.68 24.39 27.46 25.59 28.15 26.93 27.37"/><polygon class="cls-7" points="28.58 28.32 27.38 27.63 26.03 28.4 27.23 29.1 28.58 28.32"/><polygon class="cls-7" points="30.23 29.27 29.02 28.57 27.68 29.35 28.88 30.05 30.23 29.27"/><polygon class="cls-7" points="31.88 30.22 30.67 29.52 29.32 30.3 30.54 31 31.88 30.22"/><polygon class="cls-7" points="32.33 30.48 30.98 31.26 33.44 32.67 34.79 31.89 32.33 30.48"/><polygon class="cls-7" points="26.65 26 25.88 26.45 27.07 27.14 27.85 26.69 26.65 26"/><polygon class="cls-7" points="25.01 25.05 24.24 25.5 25.44 26.19 26.21 25.74 25.01 25.05"/><polygon class="cls-7" points="23.38 24.11 22.61 24.56 23.8 25.24 24.57 24.8 23.38 24.11"/><polygon class="cls-7" points="21.76 23.18 20.99 23.62 22.17 24.3 22.94 23.86 21.76 23.18"/><polygon class="cls-7" points="20.14 22.25 19.38 22.69 20.55 23.37 21.32 22.92 20.14 22.25"/><polygon class="cls-7" points="18.55 21.33 17.79 21.77 18.93 22.44 19.7 21.99 18.55 21.33"/><polygon class="cls-7" points="16.96 20.42 16.2 20.86 17.34 21.52 18.11 21.08 16.96 20.42"/><polygon class="cls-7" points="31.59 28.84 30.81 29.29 32.02 29.99 32.8 29.54 31.59 28.84"/><polygon class="cls-7" points="33.27 29.79 32.49 30.24 33.7 30.94 34.48 30.49 33.27 29.79"/><polygon class="cls-7" points="29.94 27.89 29.16 28.34 30.37 29.04 31.14 28.59 29.94 27.89"/><polygon class="cls-7" points="28.29 26.94 27.52 27.39 28.72 28.08 29.49 27.63 28.29 26.94"/><polygon class="cls-7" points="34.92 30.76 34.14 31.21 35.04 31.73 35.81 31.29 34.92 30.76"/><polygon class="cls-7" points="14.74 20.03 15.76 20.6 16.52 20.16 15.54 19.57 14.74 20.03"/><polygon class="cls-1" points="14.27 21.62 13.14 20.96 13.14 21.07 14.28 21.73 15.61 20.96 15.61 20.85 14.27 21.62"/><polygon class="cls-1" points="15.86 22.53 14.72 21.87 14.72 21.98 15.86 22.64 17.2 21.87 17.2 21.76 15.86 22.53"/><polygon class="cls-1" points="17.45 23.45 16.3 22.79 16.3 22.9 17.45 23.56 18.79 22.79 18.79 22.68 17.45 23.45"/><polygon class="cls-1" points="19.06 24.38 17.89 23.71 17.89 23.82 19.07 24.49 20.4 23.72 20.4 23.61 19.06 24.38"/><polyline class="cls-1" points="20.68 25.42 22.02 24.65 22.02 24.54 20.68 25.32"/><polygon class="cls-1" points="20.68 25.32 19.51 24.64 19.51 24.75 20.68 25.42 20.68 25.32"/><polygon class="cls-1" points="22.31 26.25 21.13 25.57 21.13 25.68 22.31 26.36 23.65 25.59 23.65 25.48 22.31 26.25"/><polygon class="cls-1" points="23.95 27.2 22.75 26.51 22.75 26.62 23.95 27.31 25.3 26.53 25.3 26.43 23.95 27.2"/><polyline class="cls-1" points="25.59 28.26 26.93 27.48 26.93 27.37 25.59 28.15"/><polygon class="cls-1" points="25.59 28.15 24.39 27.46 24.4 27.57 25.59 28.26 25.59 28.15"/><polyline class="cls-1" points="27.23 29.2 28.58 28.43 28.58 28.32 27.23 29.1"/><polygon class="cls-1" points="27.23 29.1 26.03 28.4 26.03 28.51 27.23 29.2 27.23 29.1"/><polygon class="cls-1" points="28.88 30.05 27.68 29.35 27.68 29.46 28.89 30.16 30.23 29.38 30.23 29.27 28.88 30.05"/><polygon class="cls-1" points="13.58 23.1 11.5 21.9 11.5 22.01 13.58 23.21 14.92 22.43 14.92 22.33 13.58 23.1"/><polygon class="cls-1" points="15.18 24.01 14.03 23.35 14.03 23.46 15.18 24.12 16.52 23.34 16.52 23.23 15.18 24.01"/><polygon class="cls-1" points="16.8 24.95 16.8 25.05 18.14 24.28 18.14 24.17 16.8 24.95"/><polygon class="cls-1" points="15.62 24.37 16.8 25.05 16.8 24.95 15.62 24.26 15.62 24.37"/><polygon class="cls-1" points="18.45 25.9 17.25 25.2 17.25 25.31 18.45 26 19.8 25.23 19.8 25.12 18.45 25.9"/><polygon class="cls-1" points="20.08 26.84 20.08 26.84 18.89 26.15 18.89 26.26 20.08 26.94 21.42 26.17 21.42 26.06 20.08 26.84"/><polygon class="cls-1" points="21.73 27.79 20.52 27.09 20.52 27.2 21.73 27.89 23.07 27.11 23.07 27.01 21.73 27.79"/><polygon class="cls-1" points="23.38 28.74 22.17 28.04 22.17 28.15 23.39 28.85 24.73 28.07 24.73 27.96 23.38 28.74"/><polygon class="cls-1" points="25.05 29.7 25.05 29.81 26.4 29.03 26.4 28.92 25.05 29.7"/><polygon class="cls-1" points="23.83 29.11 25.05 29.81 25.05 29.7 23.83 29 23.83 29.11"/><polygon class="cls-1" points="26.71 30.66 26.71 30.77 28.06 29.99 28.06 29.88 26.71 30.66"/><polygon class="cls-1" points="25.49 29.96 25.49 30.07 26.71 30.77 26.71 30.66 25.49 29.96"/><polygon class="cls-1" points="28.38 31.62 27.16 30.92 27.16 31.02 28.38 31.73 29.73 30.95 29.73 30.84 28.38 31.62"/><polygon class="cls-1" points="30.12 32.64 30.12 32.74 31.46 31.96 31.47 31.85 30.12 32.64"/><polygon class="cls-1" points="28.89 31.93 28.89 32.04 30.12 32.74 30.12 32.64 28.89 31.93"/><polygon class="cls-1" points="25.42 31.8 25.42 31.91 26.76 31.14 26.76 31.03 25.42 31.8"/><polygon class="cls-1" points="24.25 31.13 24.25 31.24 25.42 31.91 25.42 31.8 24.25 31.13"/><polygon class="cls-1" points="22.18 29.94 21 29.26 21 29.36 22.18 30.05 23.53 29.27 23.53 29.17 22.18 29.94"/><polygon class="cls-1" points="20.55 29 19.35 28.3 19.35 28.41 20.55 29.11 21.9 28.33 21.9 28.23 20.55 29"/><polygon class="cls-1" points="18.61 26.33 17.26 27.11 16.06 26.41 16.06 26.53 17.26 27.21 18.61 26.44 18.61 26.33"/><polygon class="cls-1" points="11.74 25.79 8.26 23.78 8.26 23.89 11.74 25.9 13.07 25.12 13.07 25.02 11.74 25.79"/><polyline class="cls-1" points="12.17 26.04 12.17 26.15 13.33 26.82 14.66 26.04 14.66 25.93 13.33 26.71 12.17 26.04"/><polygon class="cls-1" points="14.95 27.64 14.94 27.75 16.28 26.98 16.28 26.87 14.95 27.64"/><polygon class="cls-1" points="13.77 27.07 14.94 27.75 14.95 27.64 13.77 26.96 13.77 27.07"/><polygon class="cls-1" points="16.57 28.58 15.47 27.94 15.47 28.05 16.57 28.69 17.91 27.92 17.91 27.81 16.57 28.58"/><polygon class="cls-1" points="19.89 30.49 18.63 29.77 18.63 29.88 19.89 30.6 21.23 29.82 21.23 29.71 19.89 30.49"/><polygon class="cls-1" points="21.41 31.37 20.25 30.7 20.25 30.81 21.41 31.48 22.75 30.7 22.75 30.59 21.41 31.37"/><polygon class="cls-1" points="23.1 32.35 21.85 31.63 21.85 31.74 23.1 32.46 24.45 31.68 24.45 31.57 23.1 32.35"/><polygon class="cls-1" points="24.64 33.24 23.55 32.6 23.55 32.71 24.64 33.35 25.99 32.57 25.99 32.46 24.64 33.24"/><polygon class="cls-1" points="18.19 29.52 17.02 28.84 17.02 28.95 18.19 29.63 19.53 28.85 19.53 28.74 18.19 29.52"/><polygon class="cls-1" points="28.55 35.49 28.55 35.49 25.09 33.49 25.09 33.6 28.55 35.6 29.9 34.82 29.9 34.71 28.55 35.49"/><polygon class="cls-1" points="30.19 34.55 27.45 32.97 27.45 33.08 30.19 34.66 31.52 33.88 31.52 33.77 30.19 34.55"/><polygon class="cls-1" points="12.99 28.37 11.42 27.46 11.42 27.57 12.99 28.48 14.33 27.7 14.33 27.59 12.99 28.37"/><polygon class="cls-1" points="18.55 31.56 13.43 28.62 13.43 28.73 18.55 31.67 19.89 30.89 19.89 30.79 18.55 31.56"/><polyline class="cls-1" points="20.58 32.82 19.01 31.92 19.01 31.81 20.58 32.71 21.91 31.94 21.91 32.05 20.58 32.82"/><polygon class="cls-1" points="22.19 33.64 21.02 32.97 21.02 33.08 22.18 33.75 23.52 32.98 23.52 32.87 22.19 33.64"/><polygon class="cls-1" points="23.79 34.56 22.62 33.89 22.62 34 23.79 34.67 24.48 34.27 24.48 34.16 23.79 34.56"/><polygon class="cls-1" points="25.39 35.52 24.23 34.85 24.23 34.95 25.39 35.63 26.73 34.85 26.73 34.75 25.39 35.52"/><polygon class="cls-1" points="26.96 36.41 25.8 35.74 25.8 35.85 26.96 36.52 27.65 36.12 27.65 36.01 26.96 36.41"/><polygon class="cls-1" points="27.07 27.14 25.88 26.45 25.88 26.55 27.07 27.24 27.85 26.8 27.85 26.69 27.07 27.14"/><polygon class="cls-1" points="25.44 26.19 24.24 25.5 24.24 25.61 25.43 26.3 26.21 25.85 26.21 25.74 25.44 26.19"/><polygon class="cls-1" points="23.8 25.24 23.8 25.24 22.61 24.56 22.61 24.67 23.8 25.35 24.57 24.91 24.57 24.8 23.8 25.24"/><polygon class="cls-1" points="22.17 24.3 20.99 23.62 20.99 23.73 22.17 24.41 22.94 23.96 22.94 23.86 22.17 24.3"/><polygon class="cls-1" points="20.55 23.37 20.55 23.37 19.38 22.69 19.38 22.8 20.55 23.48 21.32 23.03 21.32 22.93 20.55 23.37"/><polygon class="cls-1" points="18.93 22.44 17.79 21.77 17.79 21.88 18.94 22.55 19.7 22.1 19.7 21.99 18.93 22.44"/><polygon class="cls-1" points="17.34 21.52 16.2 20.86 16.2 20.97 17.34 21.63 18.11 21.19 18.11 21.08 17.34 21.52"/><polygon class="cls-1" points="15.76 20.6 14.74 20.03 14.74 20.14 15.76 20.71 16.52 20.27 16.52 20.16 15.76 20.6"/><polygon class="cls-1" points="13.96 25.2 12.72 24.49 12.72 24.6 13.96 25.31 15.3 24.53 15.3 24.42 13.96 25.2"/><polygon class="cls-1" points="28.34 31.94 27 32.72 27 32.83 28.34 32.05 28.34 31.94"/><polygon class="cls-1" points="25.87 32.06 25.87 32.17 27 32.83 27 32.72 25.87 32.06"/><polygon class="cls-1" points="15.62 26.16 15.62 26.27 16.97 25.49 16.97 25.38 15.62 26.16"/><polygon class="cls-1" points="14.4 25.56 15.62 26.27 15.62 26.16 14.4 25.46 14.4 25.56"/><polygon class="cls-1" points="23.81 30.88 22.63 30.2 22.63 30.3 23.81 30.99 25.15 30.21 25.15 30.1 23.81 30.88"/><polygon class="cls-1" points="20.25 27.27 18.9 28.05 17.7 27.36 17.7 27.47 18.9 28.16 18.9 28.16 18.9 28.16 18.91 28.16 18.91 28.16 20.25 27.38 20.25 27.27"/><polygon class="cls-7" points="25.87 32.06 27 32.72 28.34 31.94 27.2 31.29 25.87 32.06"/><polygon class="cls-7" points="24.25 31.13 25.42 31.81 26.76 31.03 25.59 30.36 24.25 31.13"/><polygon class="cls-7" points="22.63 30.2 23.81 30.88 25.15 30.1 23.97 29.42 22.63 30.2"/><polygon class="cls-7" points="21 29.26 22.19 29.94 23.53 29.17 22.34 28.48 21 29.26"/><polygon class="cls-7" points="19.35 28.31 20.55 29 21.9 28.23 20.69 27.53 19.35 28.31"/><polygon class="cls-7" points="16.06 26.41 17.26 27.11 18.61 26.33 17.41 25.64 16.06 26.41"/><polygon class="cls-7" points="14.4 25.46 15.62 26.16 16.97 25.38 15.75 24.68 14.4 25.46"/><polygon class="cls-7" points="12.72 24.49 13.96 25.2 15.3 24.42 14.07 23.71 12.72 24.49"/><polygon class="cls-7" points="9.87 22.85 12.28 24.23 13.63 23.45 11.22 22.06 9.87 22.85"/><polygon class="cls-7" points="27.45 32.97 30.19 34.55 31.52 33.78 28.78 32.2 27.45 32.97"/><polygon class="cls-7" points="17.7 27.36 18.9 28.05 20.25 27.27 19.05 26.58 17.7 27.36"/><polygon class="cls-1" points="31.8 33.6 30.57 32.9 30.57 33.01 31.8 33.71 33.15 32.93 33.15 32.82 31.8 33.6"/><polygon class="cls-1" points="30.53 31 29.32 30.3 29.32 30.41 30.53 31.11 31.88 30.33 31.88 30.22 30.53 31"/><polygon class="cls-1" points="33.44 32.67 30.98 31.26 30.98 31.36 33.44 32.78 34.79 32 34.79 31.89 33.44 32.67"/><polygon class="cls-1" points="28.72 28.08 29.49 27.64 29.49 27.74 28.72 28.19 27.52 27.5 27.52 27.39 28.72 28.08"/><polygon class="cls-1" points="30.37 29.03 30.37 29.14 31.14 28.7 31.14 28.59 30.37 29.03"/><polygon class="cls-1" points="29.16 28.34 29.16 28.45 30.37 29.14 30.37 29.04 29.16 28.34"/><polyline class="cls-1" points="32.02 30.1 32.8 29.65 32.8 29.54 32.02 29.99"/><polygon class="cls-1" points="32.02 29.99 30.81 29.29 30.81 29.4 32.02 30.1 32.02 29.99"/><polygon class="cls-1" points="33.7 30.94 32.49 30.24 32.49 30.35 33.7 31.05 34.48 30.6 34.48 30.49 33.7 30.94"/><polygon class="cls-1" points="35.04 31.73 34.14 31.21 34.14 31.32 35.05 31.84 35.81 31.4 35.81 31.29 35.04 31.73"/><polyline class="cls-1" points="12.32 26.54 12.31 26.43 10.98 27.21 9.82 26.54 9.82 26.65 10.98 27.32 12.32 26.54"/><polygon class="cls-1" points="10.71 25.51 9.37 26.28 8.23 25.62 8.23 25.73 9.38 26.39 10.71 25.62 10.71 25.51"/><polygon class="cls-1" points="7.79 25.36 6.64 24.7 6.64 24.81 7.78 25.47 9.12 24.7 9.12 24.59 7.79 25.36"/><path class="cls-12" d="M13.28,29.54l5.46,3.15a.36.36,0,0,1,0,.62L15.4,35.23a.36.36,0,0,1-.36,0L9.59,32.11a.36.36,0,0,1,0-.62l3.33-2A.36.36,0,0,1,13.28,29.54Z"/><path class="cls-13" d="M9.57,31.64l3.33-2a.36.36,0,0,1,.36,0l5.46,3.15a.34.34,0,0,1,.16.23.35.35,0,0,0-.16-.4l-5.46-3.15a.36.36,0,0,0-.36,0l-3.33,2a.35.35,0,0,0-.16.39A.34.34,0,0,1,9.57,31.64Z"/></g></g></svg>