<?xml version="1.0" encoding="utf-8"?>
<!-- Generator: Adobe Illustrator 22.0.1, SVG Export Plug-In . SVG Version: 6.00 Build 0)  -->
<svg version="1.1" id="Layer_1" xmlns="http://www.w3.org/2000/svg" xmlns:xlink="http://www.w3.org/1999/xlink" x="0px" y="0px"
	 viewBox="0 0 1.4 3.83945" style="enable-background:new 0 0 1.4 3.83945;" xml:space="preserve">
<style type="text/css">
	.st0{fill:#EDF0F4;}
	.st1{opacity:0.1;fill:#AE9FB7;enable-background:new    ;}
	.st2{fill:#F8FAFD;}
	.st3{fill:#666666;}
	.st4{fill:#474747;}
	.st5{fill:#1A1A1A;}
</style>
<title>Asset 19</title>
<g>
	<path class="st0" d="M0.16059,0.3658v3.09109c0,0,0.11146,0.36947,0.62524,0.36947s0.61325-0.37781,0.61325-0.37781V0.3658
		c0,0-0.07952-0.35774-0.61394-0.35774S0.16059,0.3658,0.16059,0.3658z"/>
	<path class="st1" d="M0.99324,3.75137C0.9218,3.78604,0.83388,3.81239,0.72408,3.82022
		c0.02291,0.00165,0.04241,0.00612,0.06714,0.00612c0.51378,0,0.61325-0.37782,0.61325-0.37782V2.37274
		c0-0.00161,0-0.00317,0-0.00481V0.39438c0.00911-0.10394-0.04545-0.20731-0.17459-0.28186
		C1.20204,0.09644,1.16673,0.08871,1.13526,0.07634c-0.0184-0.00847-0.03869-0.01557-0.05965-0.02279
		C1.0492,0.0456,1.0248,0.03664,0.99701,0.03104c-0.05968-0.01325-0.12548-0.02254-0.2035-0.02276
		C0.79266,0.00825,0.79177,0.00804,0.79092,0.00807l-0.0004-0.00003c-0.02522,0-0.04286,0.00561-0.06577,0.00737
		c0.04871,0.00369,0.0987,0.00652,0.13968,0.01563c0.02778,0.00561,0.05219,0.01456,0.0786,0.02251
		c0.02096,0.00722,0.04125,0.01432,0.05965,0.02279C1.03415,0.08871,1.06946,0.09644,1.0973,0.11253
		C1.22644,0.18707,1.281,0.29044,1.27189,0.39438v1.97354c0,0.00165,0,0.0032,0,0.00481v1.07579
		c0,0-0.03756,0.13356-0.17727,0.24109L0.99324,3.75137z"/>
	<path class="st2" d="M1.2245,0.11253c-0.24127-0.1393-0.63608-0.1393-0.87735,0s-0.24127,0.38003,0,0.53496
		s0.63608,0.15493,0.87735,0S1.46577,0.25183,1.2245,0.11253z"/>
	<g>
		<g>
			<polyline class="st3" points="0.00542,0.96474 0.4409,1.21642 0.60073,1.12415 0.16608,0.87293 0.00542,0.96474 			"/>
			<polygon class="st4" points="0.4409,1.21643 0.00542,0.96474 0.00576,3.42779 0.44057,3.6778 			"/>
		</g>
		<polygon class="st5" points="0.44072,1.21643 0.60072,1.12443 0.60072,1.20662 0.5114,1.25786 0.5114,3.6367 0.44039,3.67779 		
			"/>
	</g>
</g>
</svg>
