<?xml version="1.0" encoding="utf-8"?>
<!-- Generator: Adobe Illustrator 22.0.1, SVG Export Plug-In . SVG Version: 6.00 Build 0)  -->
<svg version="1.1" id="Layer_1" xmlns="http://www.w3.org/2000/svg" xmlns:xlink="http://www.w3.org/1999/xlink" x="0px" y="0px"
	 viewBox="0 0 6.6 16.7" style="enable-background:new 0 0 6.6 16.7;" xml:space="preserve">
<style type="text/css">
	.st0{fill:#F8FAFD;}
	.st1{opacity:0.16;fill:url(#SVGID_1_);enable-background:new    ;}
	.st2{fill:#474747;}
	.st3{opacity:0.2;enable-background:new    ;}
	.st4{fill:#AE9FB7;}
	.st5{opacity:0.2;fill:#AE9FB7;enable-background:new    ;}
</style>
<g>
	<path class="st0" d="M6.39531,16.2279L5.6425,16.65286L5.87511,4.33738C5.87508,3.79771,5.587,3.29911,5.11948,3.02954
		l-4.8802-2.59117l0.62205-0.35794c0.19071-0.10974,0.42546-0.10948,0.61592,0.00068l4.37761,2.53197
		c0.46637,0.26907,0.7537,0.76657,0.75371,1.30499l0.00027,11.94407C6.60884,16.01366,6.52725,16.15342,6.39531,16.2279z"/>
	<linearGradient id="SVGID_1_" gradientUnits="userSpaceOnUse" x1="0.2508" y1="8.32558" x2="6.62036" y2="8.32558">
		<stop  offset="0" style="stop-color:#FFFFFF"/>
		<stop  offset="0.08492" style="stop-color:#E8E3EA"/>
		<stop  offset="0.3433" style="stop-color:#A594AE"/>
		<stop  offset="0.573" style="stop-color:#70547E"/>
		<stop  offset="0.7656" style="stop-color:#49275B"/>
		<stop  offset="0.9135" style="stop-color:#320A46"/>
		<stop  offset="0.999" style="stop-color:#29003E"/>
	</linearGradient>
	<path class="st1" d="M6.40683,16.2279l-0.75281,0.42496L5.88664,4.33738C5.8866,3.79771,5.59852,3.29911,5.131,3.02954
		L0.2508,0.43837l0.62205-0.35794c0.19071-0.10974,0.42546-0.10948,0.61592,0.00068l4.37761,2.53197
		c0.46637,0.26907,0.7537,0.76657,0.75371,1.30499l0.00027,11.94407C6.62037,16.01366,6.53877,16.15342,6.40683,16.2279z"/>
	<path class="st0" d="M0.7177,0.49157C0.33222,0.26929,0.01683,0.45149,0.01683,0.89647l0,11.90326
		c0,0.44497,0.31523,0.99118,0.70052,1.21379l4.45718,2.5753c0.38529,0.22261,0.7005,0.04068,0.70048-0.40429L5.87452,4.27424
		C5.8745,3.82927,5.55909,3.28333,5.17362,3.06105L0.7177,0.49157z"/>
	<g>
		<path class="st2" d="M0.58602,2.41858C0.55171,2.3988,0.52362,2.41501,0.5236,2.45461l-0.00603,9.36443
			c-0.00003,0.0396,0.02801,0.08821,0.0623,0.10802l4.73216,2.73418c0.03429,0.01981,0.06234,0.00362,0.06234-0.03598V5.25175
			c0-0.0396-0.02807-0.08818-0.06237-0.10797L0.58602,2.41858z"/>
	</g>
	<g class="st3">
		<path class="st4" d="M2.83538,14.66656c0.2014,0.11648,0.36604,0.02135,0.36589-0.21141
			c-0.00016-0.23276-0.16494-0.51787-0.36617-0.63358S2.4692,13.80099,2.4692,14.03298
			C2.4692,14.26496,2.63398,14.55007,2.83538,14.66656z"/>
	</g>
	<g class="st3">
		<g>
			<path class="st4" d="M3.15548,2.80413c0.08646,0.05001,0.15715,0.00917,0.15708-0.09076
				C3.3125,2.61343,3.24176,2.49103,3.15536,2.44135S2.99828,2.43252,2.99828,2.53212
				C2.99828,2.63171,3.06902,2.75412,3.15548,2.80413z"/>
		</g>
		<g>
			<g>
				<path class="st4" d="M2.4692,2.90041c0.04945,0.0286,0.08988,0.00524,0.08985-0.05191
					c-0.00004-0.05716-0.0405-0.12717-0.08992-0.15558C2.41971,2.66451,2.37928,2.68787,2.37928,2.74483
					S2.41975,2.8718,2.4692,2.90041z"/>
			</g>
			<polygon class="st4" points="3.7469,3.4178 2.67025,2.79684 2.67025,3.00769 3.7469,3.62866 			"/>
		</g>
	</g>
	<g>
		<path class="st5" d="M4.78985,2.3994l0.00048,0.11693c0.00101,0.02839,0.02162,0.05785,0.06215,0.08122L5.30405,2.8579
			C5.38173,2.90269,5.50039,2.9077,5.56775,2.86903c0.02691-0.01545,0.04108-0.03548,0.04356-0.05685L5.61117,2.68723
			c0,0-0.01205,0.04036-0.03016,0.05631C5.57613,2.7475,5.57388,2.7523,5.56775,2.75581
			C5.50039,2.79448,5.38173,2.78948,5.30405,2.74468L4.85248,2.48434L4.82031,2.45786
			C4.80057,2.44094,4.79011,2.42015,4.78985,2.3994"/>
		<path class="st0" d="M5.09839,2.34771c-0.07707-0.0445-0.19478-0.04935-0.26158-0.01078
			c-0.0668,0.03857-0.05837,0.10649,0.01872,0.15094l0.44818,0.2584c0.0771,0.04445,0.19488,0.04942,0.26173,0.01104
			c0.06685-0.03838,0.05849-0.10619-0.01858-0.15068L5.09839,2.34771z"/>
	</g>
</g>
<title>Asset 3</title>
</svg>
