<?xml version="1.0" encoding="utf-8"?>
<!-- Generator: Adobe Illustrator 21.1.0, SVG Export Plug-In . SVG Version: 6.00 Build 0)  -->
<svg version="1.1" id="Layer_1" xmlns="http://www.w3.org/2000/svg" xmlns:xlink="http://www.w3.org/1999/xlink" x="0px" y="0px"
	 viewBox="0 0 6.6 16.7" style="enable-background:new 0 0 6.6 16.7;" xml:space="preserve">
<style type="text/css">
	.st0{fill:#F8FAFD;}
	.st1{opacity:0.16;fill:url(#SVGID_1_);enable-background:new    ;}
	.st2{fill:#474747;}
	.st3{opacity:0.2;fill:#AE9FB7;}
</style>
<title>Asset 3</title>
<g id="Layer_2">
	<g id="Layer_2-2">
		<path class="st0" d="M6.4,16.2l-0.8,0.4L5.9,4.3c0-0.6-0.3-1.1-0.8-1.3L0.2,0.4l0.6-0.4C1,0,1.3,0,1.5,0.1l4.4,2.5
			c0.5,0.3,0.7,0.8,0.8,1.3v11.9C6.6,16,6.5,16.2,6.4,16.2z"/>
		
			<linearGradient id="SVGID_1_" gradientUnits="userSpaceOnUse" x1="0.2343" y1="9.6765" x2="6.6043" y2="9.6765" gradientTransform="matrix(1 0 0 -1 0 18)">
			<stop  offset="0" style="stop-color:#FFFFFF"/>
			<stop  offset="8.492316e-02" style="stop-color:#E8E3EA"/>
			<stop  offset="0.3433" style="stop-color:#A594AE"/>
			<stop  offset="0.573" style="stop-color:#70547E"/>
			<stop  offset="0.7656" style="stop-color:#49275B"/>
			<stop  offset="0.9135" style="stop-color:#320A46"/>
			<stop  offset="0.999" style="stop-color:#29003E"/>
		</linearGradient>
		<path class="st1" d="M6.4,16.2l-0.8,0.4L5.9,4.3c0-0.6-0.3-1.1-0.8-1.3L0.2,0.4l0.6-0.4C1,0,1.3,0,1.5,0.1l4.4,2.5
			c0.5,0.3,0.7,0.8,0.8,1.3v11.9C6.6,16,6.5,16.2,6.4,16.2z"/>
		<path class="st0" d="M0.7,0.5C0.3,0.3,0,0.4,0,0.9v11.9c0,0.5,0.3,0.9,0.7,1.2l4.5,2.6c0.4,0.2,0.7,0,0.7-0.4V4.3
			c0-0.5-0.3-0.9-0.7-1.2L0.7,0.5z"/>
		<path class="st2" d="M0.6,2.4L0.6,2.4l-0.1,9.4c0,0,0,0.1,0.1,0.1l4.7,2.8h0.1V5.2c0,0,0-0.1-0.1-0.1L0.6,2.4z"/>
		<path class="st3" d="M2.8,14.7c0.2,0.1,0.4,0,0.4-0.2c0-0.3-0.2-0.5-0.4-0.6c-0.2-0.1-0.4,0-0.4,0.2C2.5,14.3,2.6,14.5,2.8,14.7z"
			/>
		<path class="st3" d="M3.1,2.8c0.1,0,0.2,0,0.2-0.1c0-0.1-0.1-0.2-0.2-0.3C3.1,2.5,3,2.5,3,2.5C3,2.7,3,2.8,3.1,2.8z"/>
		<path class="st3" d="M2.5,2.9C2.5,2.9,2.5,2.9,2.5,2.9c0.1-0.1,0.1-0.2,0-0.2c0,0-0.1,0-0.1,0C2.4,2.8,2.4,2.9,2.5,2.9z"/>
		<polygon class="st3" points="3.7,3.4 2.7,2.8 2.7,3 3.7,3.6 		"/>
		<path class="st3" d="M4.8,2.4v0.1c0,0,0,0.1,0.1,0.1l0.4,0.3c0.1,0,0.2,0,0.3,0c0,0,0,0,0-0.1V2.7c0,0,0,0,0,0.1l0,0
			c-0.1,0-0.2,0-0.3,0L4.8,2.4L4.8,2.4C4.8,2.5,4.8,2.4,4.8,2.4"/>
		<path class="st0" d="M5.1,2.3c-0.1,0-0.2,0-0.3,0c-0.1,0-0.1,0.1,0,0.2l0.4,0.3c0.1,0,0.2,0,0.3,0c0.1,0,0.1-0.1,0-0.2L5.1,2.3z"
			/>
	</g>
</g>
</svg>
