<svg xmlns="http://www.w3.org/2000/svg" viewBox="0 0 1.4 3.82"><defs><style>.cls-1{fill:#dce0dc;}.cls-2,.cls-6{fill:#1a1a1a;}.cls-2{opacity:0.1;}.cls-3{fill:#f3f9f2;}.cls-4{fill:#666;}.cls-5{fill:#474747;}</style></defs><title>Asset 19</title><g id="Layer_2" data-name="Layer 2"><g id="Layer_2-2" data-name="Layer 2"><path class="cls-1" d="M.16.36V3.45a.6.6,0,0,0,.63.37.58.58,0,0,0,.61-.38V.36S1.31,0,.78,0,.16.36.16.36Z"/><path class="cls-2" d="M1,3.74a.73.73,0,0,1-.27.07H.79a.58.58,0,0,0,.61-.38V2.36h0v-2A.3.3,0,0,0,1.22.1l-.09,0L1.07,0,1,0,.79,0H.72L.86,0,.94,0,1,.07l.09,0a.3.3,0,0,1,.17.28v2h0V3.44a.51.51,0,0,1-.18.24Z"/><path class="cls-3" d="M1.22.1A1,1,0,0,0,.34.1a.29.29,0,0,0,0,.53.89.89,0,0,0,.88,0A.29.29,0,0,0,1.22.1Z"/><polyline class="cls-4" points="0 0.96 0.43 1.21 0.59 1.12 0.16 0.86 0 0.96"/><polygon class="cls-5" points="0.43 1.21 0 0.96 0 3.42 0.43 3.67 0.43 1.21"/><polygon class="cls-6" points="0.43 1.21 0.59 1.12 0.59 1.2 0.51 1.25 0.51 3.63 0.43 3.67 0.43 1.21"/></g></g></svg>