<?xml version="1.0" encoding="utf-8"?>
<!-- Generator: Adobe Illustrator 21.1.0, SVG Export Plug-In . SVG Version: 6.00 Build 0)  -->
<svg version="1.1" id="Layer_1" xmlns="http://www.w3.org/2000/svg" xmlns:xlink="http://www.w3.org/1999/xlink" x="0px" y="0px"
	 viewBox="0 0 14.3 8.7" style="enable-background:new 0 0 14.3 8.7;" xml:space="preserve">
<style type="text/css">
	.st0{opacity:0.4;fill:#AE9FB7;}
	.st1{fill:#F8FAFD;}
	.st2{opacity:0.2;fill:#AE9FB7;enable-background:new    ;}
</style>
<title>Asset 5</title>
<g id="Layer_2">
	<g id="Layer_2-2">
		<path class="st0" d="M0,4.1v0.4c0.1,1.3,0.9,2.4,2.1,2.9c3.2,1.6,6.9,1.6,10.1,0c1.2-0.5,2-1.6,2.1-2.9V4.1H0z"/>
		<path class="st1" d="M12.2,1.2C9-0.4,5.3-0.4,2.1,1.2c-2.8,1.6-2.8,4.2,0,5.8C5.3,8.6,9,8.6,12.2,7C15,5.4,15,2.8,12.2,1.2z"/>
		<path class="st2" d="M3.1,2.2C5.3,0.9,9,1,11.5,1.9c-0.1-0.1-0.3-0.2-0.5-0.3c-2.6-1.3-5.7-1.3-8.3,0c-1.8,1.1-2.2,2.7-1,3.9
			C1.3,4.2,1.9,2.8,3.1,2.2z"/>
	</g>
</g>
</svg>
