<?xml version="1.0" encoding="utf-8"?>
<!-- Generator: Adobe Illustrator 21.1.0, SVG Export Plug-In . SVG Version: 6.00 Build 0)  -->
<svg version="1.1" id="Layer_1" xmlns="http://www.w3.org/2000/svg" xmlns:xlink="http://www.w3.org/1999/xlink" x="0px" y="0px"
	 viewBox="0 0 1.3 10" style="enable-background:new 0 0 1.3 10;" xml:space="preserve">
<style type="text/css">
	.st0{fill:#474747;}
	.st1{fill:#EDF0F4;}
	.st2{opacity:5.000000e-02;fill:#184F4D;enable-background:new    ;}
	.st3{fill:#F8FAFD;}
	.st4{opacity:0.16;fill:url(#SVGID_1_);enable-background:new    ;}
	.st5{opacity:0.1;fill:#AE9FB7;enable-background:new    ;}
	.st6{opacity:0.1;fill:#ECF2EB;enable-background:new    ;}
</style>
<title>Asset 20</title>
<path class="st0" d="M0.7,10V9.3c0,0,0,0-0.1,0s-0.1,0-0.1,0V10"/>
<path class="st0" d="M0.6,10C0.7,10,0.7,10,0.6,10"/>
<path class="st0" d="M0.6,10C0.6,10,0.6,10,0.6,10"/>
<path class="st1" d="M0.3,6.2v3.3c0,0,0,0.2,0.3,0.2s0.3-0.2,0.3-0.2V6.2c0,0,0-0.2-0.3-0.2S0.3,6.2,0.3,6.2z"/>
<path class="st2" d="M0.9,9.1v0.4c0,0,0,0.1-0.1,0.1V9.2c-0.1,0-0.1,0-0.2,0c-0.1,0-0.2,0-0.3-0.1V9.1c0.1,0,0.2,0.1,0.3,0.1
	C0.7,9.1,0.8,9.1,0.9,9.1L0.9,9.1z"/>
<path class="st3" d="M0.2,3.6v5.3c0,0,0,0.3,0.5,0.3s0.5-0.3,0.5-0.3V3.6c0,0,0-0.3-0.5-0.3S0.2,3.6,0.2,3.6z"/>
<path class="st2" d="M1.1,7.6v1.3C1.1,9,1,9.1,1,9.1v-1c-0.1,0-0.3,0.1-0.4,0.1C0.2,8.1,0.2,8,0.2,8V7.6c0,0,0-0.3,0.5-0.3
	c0.1,0,0.3,0,0.4,0.1L1.1,7.6z"/>
<path class="st3" d="M0,0.6v7.1c0,0,0,0.4,0.6,0.4s0.6-0.3,0.6-0.3V0.6c0,0-0.1-0.3-0.6-0.3S0,0.6,0,0.6z"/>
<linearGradient id="SVGID_1_" gradientUnits="userSpaceOnUse" x1="-7.455701e-03" y1="7.85" x2="1.2425" y2="7.85" gradientTransform="matrix(1 0 0 -1 0 12)">
	<stop  offset="0" style="stop-color:#FFFFFF"/>
	<stop  offset="8.492316e-02" style="stop-color:#E8E3EA"/>
	<stop  offset="0.3433" style="stop-color:#A594AE"/>
	<stop  offset="0.573" style="stop-color:#70547E"/>
	<stop  offset="0.7656" style="stop-color:#49275B"/>
	<stop  offset="0.9135" style="stop-color:#320A46"/>
	<stop  offset="0.999" style="stop-color:#29003E"/>
</linearGradient>
<path class="st4" d="M0,0.6v7.1c0,0,0,0.4,0.6,0.4s0.6-0.3,0.6-0.3V0.6c0,0-0.1-0.3-0.6-0.3S0,0.6,0,0.6z"/>
<path class="st5" d="M1.1,0.5V8c0,0,0.1-0.1,0.1-0.2V0.7C1.1,0.6,1.1,0.6,1.1,0.5z"/>
<path class="st6" d="M0.4,0.2c-0.1,0-0.2,0-0.3,0.1v7.6C0.2,8,0.3,8,0.4,8l0,0V0.2z"/>
<path class="st3" d="M1.1,0.3c-0.3-0.1-0.6-0.1-0.9,0C0,0.4,0,0.6,0,0.7c0,0.1,0.1,0.1,0.2,0.2C0.5,1,0.8,1,1.1,0.9
	c0.1,0,0.2-0.2,0.2-0.3C1.2,0.4,1.1,0.4,1.1,0.3z"/>
<path class="st1" d="M0.2,0.3v0.3c0,0,0,0.3,0.5,0.3s0.5-0.3,0.5-0.3V0.3C1.1,0.3,1,0,0.6,0S0.2,0.3,0.2,0.3z"/>
<path class="st3" d="M0.9,0.1C0.7,0,0.5,0,0.3,0.1c-0.1,0-0.2,0.2-0.1,0.3c0,0,0.1,0.1,0.1,0.1c0.2,0.1,0.4,0.1,0.6,0
	c0.1,0,0.2-0.2,0.1-0.3C1,0.1,1,0.1,0.9,0.1z"/>
</svg>
