<svg xmlns="http://www.w3.org/2000/svg" xmlns:xlink="http://www.w3.org/1999/xlink" viewBox="0 0 6.59 16.69"><defs><style>.cls-1{fill:#dce0dc;}.cls-2{opacity:0.2;fill:url(#linear-gradient);}.cls-3{fill:#f3f9f2;}.cls-4{fill:#474747;}.cls-5{fill:#cecece;}</style><linearGradient id="linear-gradient" x1="0.22" y1="8.33" x2="6.59" y2="8.33" gradientUnits="userSpaceOnUse"><stop offset="0" stop-color="#fff"/><stop offset="0.13" stop-color="#fbfbfb"/><stop offset="0.26" stop-color="#efefef"/><stop offset="0.38" stop-color="#dcdcdc"/><stop offset="0.5" stop-color="silver"/><stop offset="0.63" stop-color="#9d9d9d"/><stop offset="0.75" stop-color="#727272"/><stop offset="0.87" stop-color="#3e3e3e"/><stop offset="0.99" stop-color="#050505"/><stop offset="1"/></linearGradient></defs><title>Asset 3</title><g id="Layer_2" data-name="Layer 2"><g id="Layer_2-2" data-name="Layer 2"><path class="cls-1" d="M6.38,16.23l-.75.42L5.86,4.34A1.51,1.51,0,0,0,5.1,3L.22.44.84.08a.62.62,0,0,1,.62,0L5.84,2.61a1.51,1.51,0,0,1,.75,1.3V15.86A.42.42,0,0,1,6.38,16.23Z"/><path class="cls-2" d="M6.38,16.23l-.75.42L5.86,4.34A1.51,1.51,0,0,0,5.1,3L.22.44.84.08a.62.62,0,0,1,.62,0L5.84,2.61a1.51,1.51,0,0,1,.75,1.3V15.86A.42.42,0,0,1,6.38,16.23Z"/><path class="cls-3" d="M.7.49C.32.27,0,.45,0,.9V12.8A1.56,1.56,0,0,0,.7,14l4.46,2.58c.39.22.7,0,.7-.4V4.28a1.55,1.55,0,0,0-.7-1.21Z"/><path class="cls-4" d="M.57,2.42s-.06,0-.06,0v9.36a.14.14,0,0,0,.06.11L5.3,14.66s.06,0,.06,0V5.25a.14.14,0,0,0-.06-.11Z"/><path class="cls-1" d="M2.82,14.67c.2.12.37,0,.37-.21a.81.81,0,0,0-.37-.63c-.2-.12-.37,0-.37.21A.81.81,0,0,0,2.82,14.67Z"/><path class="cls-1" d="M3.14,2.81c.09.05.16,0,.16-.09a.35.35,0,0,0-.16-.27c-.09,0-.16,0-.16.09A.35.35,0,0,0,3.14,2.81Z"/><path class="cls-1" d="M2.45,2.9s.09,0,.09-.05a.2.2,0,0,0-.09-.16s-.09,0-.09.05A.2.2,0,0,0,2.45,2.9Z"/><polygon class="cls-1" points="3.73 3.42 2.65 2.8 2.65 3.01 3.73 3.63 3.73 3.42"/><path class="cls-5" d="M4.77,2.4v.12a.11.11,0,0,0,.06.08l.45.26a.3.3,0,0,0,.26,0,.08.08,0,0,0,0-.06V2.69a.15.15,0,0,1,0,.06h0a.3.3,0,0,1-.26,0l-.45-.26,0,0a.08.08,0,0,1,0-.06"/><path class="cls-3" d="M5.08,2.35a.29.29,0,0,0-.26,0c-.07,0-.06.11,0,.15l.45.26a.29.29,0,0,0,.26,0c.07,0,.06-.11,0-.15Z"/></g></g></svg>