<?xml version="1.0" encoding="utf-8"?>
<!-- Generator: Adobe Illustrator 22.0.1, SVG Export Plug-In . SVG Version: 6.00 Build 0)  -->
<svg version="1.1" id="Layer_1" xmlns="http://www.w3.org/2000/svg" xmlns:xlink="http://www.w3.org/1999/xlink" x="0px" y="0px"
	 viewBox="0 0 1.3 10" style="enable-background:new 0 0 1.3 10;" xml:space="preserve">
<style type="text/css">
	.st0{fill:#9FBCBC;}
	.st1{fill:#474747;}
	.st2{fill:#EDF0F4;}
	.st3{opacity:0.05;fill:#184F4D;enable-background:new    ;}
	.st4{fill:#F8FAFD;}
	.st5{opacity:0.1;fill:#AE9FB7;enable-background:new    ;}
	.st6{opacity:0.16;fill:url(#SVGID_1_);enable-background:new    ;}
	.st7{opacity:0.1;fill:#ECF2EB;}
</style>
<title>Asset 20</title>
<g>
	<g>
		<path class="st0" d="M1.08883,7.4559C0.84715,7.31622,0.45184,7.31602,0.21036,7.45544s-0.24148,0.36777,0,0.50744
			s0.63679,0.13988,0.87847,0.00046S1.3305,7.59557,1.08883,7.4559z"/>
	</g>
	<g>
		<path class="st1" d="M0.58952,9.32458V9.9958c0,0,0.00361,0.03359,0.05878,0.03359c0.05518,0,0.05916-0.03359,0.05916-0.03359
			V9.32458c0,0-0.00239-0.03394-0.05897-0.03394C0.59191,9.29065,0.58952,9.32458,0.58952,9.32458z"/>
	</g>
	<g>
		<path class="st2" d="M0.36403,6.21698v3.27896c0,0,0.01761,0.16408,0.28716,0.16408s0.28901-0.16408,0.28901-0.16408V6.21698
			c0,0-0.01168-0.16578-0.28808-0.16578S0.36403,6.21698,0.36403,6.21698z"/>
	</g>
	<path class="st3" d="M0.9402,9.08033v0.14483v0.27077c0,0-0.01347,0.0548-0.0733,0.10148V9.25054
		C0.80786,9.26973,0.73986,9.28459,0.64698,9.28459c-0.12609,0-0.21547-0.02306-0.28295-0.05447V9.08527
		c0.06748,0.03144,0.15686,0.0545,0.28295,0.0545c0.09289,0,0.16088-0.01487,0.21992-0.03406L0.9402,9.08033z"/>
	<g>
		<path class="st4" d="M0.17896,3.61386V8.9581c0,0,0.02871,0.26742,0.46802,0.26742S1.11803,8.9581,1.11803,8.9581V3.61386
			c0,0-0.01904-0.2702-0.46953-0.2702S0.17896,3.61386,0.17896,3.61386z"/>
	</g>
	<path class="st5" d="M1.11802,7.63571v0.37035v0.95204c0,0-0.01078,0.07436-0.08387,0.14477V8.0794
		C0.96921,8.1108,0.85545,8.14048,0.64942,8.14048c-0.43933,0-0.47046-0.13441-0.47046-0.13441V7.63571
		c0,0,0.01901-0.27019,0.46952-0.27019c0.20749,0,0.32094,0.05761,0.38568,0.11945L1.11802,7.63571z"/>
	<g>
		<path class="st4" d="M0.02897,0.62065v7.09264c0,0,0.0381,0.35491,0.62114,0.35491s0.62515-0.35491,0.62515-0.35491V0.59319
			c0,0-0.08344-0.33114-0.62314-0.33114C0.10548,0.26205,0.02897,0.62065,0.02897,0.62065z"/>
		<linearGradient id="SVGID_1_" gradientUnits="userSpaceOnUse" x1="0.02897" y1="4.16512" x2="1.27525" y2="4.16512">
			<stop  offset="0" style="stop-color:#FFFFFF"/>
			<stop  offset="0.08492" style="stop-color:#E8E3EA"/>
			<stop  offset="0.3433" style="stop-color:#A594AE"/>
			<stop  offset="0.573" style="stop-color:#70547E"/>
			<stop  offset="0.7656" style="stop-color:#49275B"/>
			<stop  offset="0.9135" style="stop-color:#320A46"/>
			<stop  offset="0.999" style="stop-color:#29003E"/>
		</linearGradient>
		<path class="st6" d="M0.02897,0.62065v7.09264c0,0,0.0381,0.35491,0.62114,0.35491s0.62515-0.35491,0.62515-0.35491V0.59319
			c0,0-0.08344-0.33114-0.62314-0.33114C0.10548,0.26205,0.02897,0.62065,0.02897,0.62065z"/>
		<path class="st5" d="M1.18462,0.44726v7.44451c0.07701-0.07634,0.09063-0.17853,0.09063-0.17853V0.59315
			C1.27525,0.59315,1.25679,0.52299,1.18462,0.44726z"/>
		<path class="st7" d="M0.45446,0.26211C0.33367,0.2623,0.2464,0.29547,0.17967,0.34004l0.0039,7.61202
			c0.09807,0.05283,0.16638,0.08297,0.27089,0.10059l0,0V0.26211z"/>
	</g>
	<g>
		<path class="st4" d="M1.09622,0.36715C0.85177,0.22748,0.45191,0.22728,0.20765,0.3667s-0.24426,0.36777,0,0.50744
			S0.85177,1.01402,1.09622,0.8746S1.34067,0.50683,1.09622,0.36715z"/>
	</g>
	<g>
		<path class="st2" d="M0.19316,0.27773v0.29572c0,0,0.02806,0.26139,0.45748,0.26139s0.46043-0.26139,0.46043-0.26139V0.27773
			c0,0-0.05743-0.26411-0.45895-0.26411C0.25876,0.01362,0.19316,0.27773,0.19316,0.27773z"/>
		<path class="st4" d="M0.97376,0.09103c-0.17799-0.10287-0.46914-0.10302-0.647-0.00034s-0.17786,0.27087,0,0.37374
			s0.46901,0.10302,0.647,0.00034S1.15175,0.1939,0.97376,0.09103z"/>
	</g>
</g>
</svg>
