<?xml version="1.0" encoding="utf-8"?>
<!-- Generator: Adobe Illustrator 21.1.0, SVG Export Plug-In . SVG Version: 6.00 Build 0)  -->
<svg version="1.1" id="Layer_1" xmlns="http://www.w3.org/2000/svg" xmlns:xlink="http://www.w3.org/1999/xlink" x="0px" y="0px"
	 viewBox="0 0 1.4 3.8" style="enable-background:new 0 0 1.4 3.8;" xml:space="preserve">
<style type="text/css">
	.st0{fill:#EDF0F4;}
	.st1{opacity:0.1;fill:#1A1A1A;enable-background:new    ;}
	.st2{opacity:0.1;fill:#AE9FB7;enable-background:new    ;}
	.st3{fill:#F8FAFD;}
	.st4{fill:#666666;}
	.st5{fill:#474747;}
	.st6{fill:#1A1A1A;}
</style>
<title>Asset 19</title>
<g id="Layer_2">
	<g id="Layer_2-2">
		<path class="st0" d="M0.2,0.4v3.1c0.1,0.3,0.4,0.4,0.6,0.4c0.3,0,0.5-0.1,0.6-0.4V0.4c0,0-0.1-0.4-0.6-0.4S0.2,0.4,0.2,0.4z"/>
		<path class="st1" d="M0.8,0"/>
		<path class="st2" d="M1.2,0.1l-0.1,0c0.1,0.1,0.2,0.2,0.2,0.3v2l0,0v1.1c0,0.1-0.1,0.2-0.2,0.2L1,3.7c-0.1,0-0.2,0.1-0.3,0.1h0.1
			c0.3,0,0.5-0.1,0.6-0.4V2.4l0,0v-2C1.4,0.2,1.3,0.1,1.2,0.1"/>
		<path class="st3" d="M1.2,0.1C0.9,0,0.6,0,0.3,0.1C0.2,0.2,0.1,0.3,0.2,0.5c0,0.1,0.1,0.1,0.1,0.1c0.3,0.2,0.6,0.2,0.9,0
			c0.1-0.1,0.2-0.2,0.1-0.4C1.3,0.2,1.3,0.1,1.2,0.1z"/>
		<polyline class="st4" points="0,1 0.4,1.2 0.6,1.1 0.2,0.9 0,1 		"/>
		<polygon class="st5" points="0.4,1.2 0,1 0,3.4 0.4,3.7 		"/>
		<polygon class="st6" points="0.4,1.2 0.6,1.1 0.6,1.2 0.5,1.2 0.5,3.6 0.4,3.7 		"/>
	</g>
</g>
</svg>
