<svg xmlns="http://www.w3.org/2000/svg" xmlns:xlink="http://www.w3.org/1999/xlink" viewBox="0 0 1.26 10.02"><defs><style>.cls-1{fill:#9fbcbc;}.cls-2{fill:#474747;}.cls-3{fill:#dce0dc;}.cls-4,.cls-7{fill:#184f4d;}.cls-4{opacity:0.05;}.cls-5{fill:#f3f9f2;}.cls-6,.cls-7,.cls-8{opacity:0.1;}.cls-6{fill:url(#linear-gradient);}.cls-8{fill:#ecf2eb;}</style><linearGradient id="linear-gradient" y1="4.15" x2="1.25" y2="4.15" gradientUnits="userSpaceOnUse"><stop offset="0" stop-color="#fff"/><stop offset="0.22" stop-color="#ccc"/><stop offset="0.71" stop-color="#4d4d4d"/><stop offset="1"/></linearGradient></defs><title>Asset 20</title><g id="Layer_2" data-name="Layer 2"><g id="Layer_2-2" data-name="Layer 2"><path class="cls-1" d="M1.06,7.44a1,1,0,0,0-.88,0,.27.27,0,0,0,0,.51,1,1,0,0,0,.88,0A.27.27,0,0,0,1.06,7.44Z"/><path class="cls-2" d="M.57,9.31V10s0,0,.06,0,.06,0,.06,0V9.31s0,0-.06,0S.57,9.31.57,9.31Z"/><path class="cls-3" d="M.34,6.2V9.48s0,.16.29.16.29-.16.29-.16V6.2S.9,6,.63,6,.34,6.2.34,6.2Z"/><path class="cls-4" d="M.92,9.07v.42a.21.21,0,0,1-.07.1V9.24a.68.68,0,0,1-.22,0,.66.66,0,0,1-.28-.05V9.07a.66.66,0,0,0,.28.05.68.68,0,0,0,.22,0Z"/><path class="cls-5" d="M.15,3.6V8.94s0,.27.47.27.47-.27.47-.27V3.6s0-.27-.47-.27S.15,3.6.15,3.6Z"/><path class="cls-4" d="M1.09,7.62V8.94A.28.28,0,0,1,1,9.09v-1a.9.9,0,0,1-.38.06C.19,8.13.15,8,.15,8V7.62s0-.27.47-.27A.53.53,0,0,1,1,7.47Z"/><path class="cls-3" d="M0,.61V7.7s0,.35.62.35.63-.35.63-.35V.58S1.17.25.63.25,0,.61,0,.61Z"/><path class="cls-6" d="M0,.61V7.7s0,.35.62.35.63-.35.63-.35V.58S1.17.25.63.25,0,.61,0,.61Z"/><path class="cls-7" d="M1.16.43V7.88a.34.34,0,0,0,.09-.18V.58A.37.37,0,0,0,1.16.43Z"/><path class="cls-8" d="M.43.25A.48.48,0,0,0,.16.33V7.94A.8.8,0,0,0,.43,8h0Z"/><path class="cls-5" d="M1.07.35a1,1,0,0,0-.89,0,.27.27,0,0,0,0,.51,1,1,0,0,0,.89,0A.27.27,0,0,0,1.07.35Z"/><path class="cls-3" d="M.17.26v.3S.2.82.63.82s.46-.26.46-.26V.26S1,0,.63,0,.17.26.17.26Z"/><path class="cls-5" d="M.95.08A.72.72,0,0,0,.3.08.2.2,0,0,0,.3.45a.72.72,0,0,0,.65,0A.2.2,0,0,0,.95.08Z"/></g></g></svg>