<svg xmlns="http://www.w3.org/2000/svg" viewBox="0 0 14.27 8.66"><defs><style>.cls-1,.cls-3{fill:#dce0dc;}.cls-2{fill:#f3f9f2;}.cls-3{opacity:0.4;}</style></defs><title>Asset 5</title><g id="Layer_2" data-name="Layer 2"><g id="Layer_2-2" data-name="Layer 2"><path class="cls-1" d="M0,4.12v.43A3.54,3.54,0,0,0,2.08,7.46a11.22,11.22,0,0,0,10.1,0,3.54,3.54,0,0,0,2.08-2.91V4.12Z"/><path class="cls-2" d="M12.19,1.2a11.21,11.21,0,0,0-10.1,0C-.69,2.8-.69,5.43,2.09,7a11.22,11.22,0,0,0,10.1,0C15,5.43,15,2.8,12.19,1.2Z"/><path class="cls-3" d="M3.11,2.15C5.27.9,9,1,11.46,1.89a5,5,0,0,0-.46-.3,9.21,9.21,0,0,0-8.3,0C.86,2.65.51,4.26,1.65,5.53A3,3,0,0,1,3.11,2.15Z"/></g></g></svg>