<svg xmlns="http://www.w3.org/2000/svg" xmlns:xlink="http://www.w3.org/1999/xlink" viewBox="0 0 3.9 4.2"><defs><style>.cls-1,.cls-4,.cls-6{opacity:0.6;}.cls-1{fill:url(#linear-gradient);}.cls-2{fill:#faa006;}.cls-3{opacity:0.4;}.cls-4,.cls-5{fill:#ffbe71;}.cls-6{fill:url(#linear-gradient-2);}</style><linearGradient id="linear-gradient" y1="2.05" x2="3.46" y2="2.05" gradientUnits="userSpaceOnUse"><stop offset="0" stop-color="#ff7434"/><stop offset="1" stop-color="#fdb700"/></linearGradient><linearGradient id="linear-gradient-2" x1="0.43" y1="2.19" x2="3.9" y2="2.19" xlink:href="#linear-gradient"/></defs><title>Asset 9</title><g id="Layer_2" data-name="Layer 2"><g id="Layer_2-2" data-name="Layer 2"><path class="cls-1" d="M3.46.58c0-.44-.17-.72-.62-.5s-.66,1.3-1.23,1.6S-.2,2.61,0,3.28a1.24,1.24,0,0,0,2.16.36A4.86,4.86,0,0,0,3.46.58Z"/><path class="cls-2" d="M3.46.58c0-.44-.17-.72-.62-.5s-.66,1.3-1.23,1.6S-.2,2.61,0,3.28a1.24,1.24,0,0,0,2.16.36A4.86,4.86,0,0,0,3.46.58Z"/><g class="cls-3"><path class="cls-4" d="M3.46.58c0-.44-.17-.72-.62-.5s-.66,1.3-1.23,1.6S-.2,2.61,0,3.28a1.24,1.24,0,0,0,2.16.36A4.86,4.86,0,0,0,3.46.58Z"/><path class="cls-5" d="M3.46.58c0-.44-.17-.72-.62-.5s-.66,1.3-1.23,1.6S-.2,2.61,0,3.28a1.24,1.24,0,0,0,2.16.36A4.86,4.86,0,0,0,3.46.58Z"/></g><path class="cls-2" d="M3.48.23c.44.26.73,1.56-.13,3S.41,4.37.43,3.46,1.53,2.6,2.17,1.95,2.85-.14,3.48.23Z"/><path class="cls-6" d="M3.48.23c.44.26.73,1.56-.13,3S.41,4.37.43,3.46,1.53,2.6,2.17,1.95,2.85-.14,3.48.23Z"/></g></g></svg>