<svg xmlns="http://www.w3.org/2000/svg" xmlns:xlink="http://www.w3.org/1999/xlink" viewBox="0 0 2.03 4.88"><defs><style>.cls-1{fill:#faa006;}.cls-2{opacity:0.6;fill:url(#linear-gradient);}.cls-3{fill:#ffbe71;opacity:0.4;}</style><linearGradient id="linear-gradient" y1="2.44" x2="2.03" y2="2.44" gradientUnits="userSpaceOnUse"><stop offset="0" stop-color="#ff7434"/><stop offset="1" stop-color="#fdb700"/></linearGradient></defs><title>Asset 8</title><g id="Layer_2" data-name="Layer 2"><g id="Layer_2-2" data-name="Layer 2"><path class="cls-1" d="M1.78,3.43A5.45,5.45,0,0,0,1.91.73C1.79.31,1.5-.06,1.11,0S.29,1.27.44,2.12-.86,5.06.81,4.87C1.55,4.79,1.78,3.43,1.78,3.43Z"/><path class="cls-2" d="M1.78,3.43A5.45,5.45,0,0,0,1.91.73C1.79.31,1.5-.06,1.11,0S.29,1.27.44,2.12-.86,5.06.81,4.87C1.55,4.79,1.78,3.43,1.78,3.43Z"/><path class="cls-3" d="M2,2.37a8.33,8.33,0,0,1-.41,1.75.94.94,0,0,1-1,.76C.05,4.87,0,4.52,0,4.52S.07,4,.31,4,1,4.5,1.56,3.06A9.71,9.71,0,0,0,2,1.21,3.74,3.74,0,0,1,2,2.37Z"/></g></g></svg>