<svg xmlns="http://www.w3.org/2000/svg" xmlns:xlink="http://www.w3.org/1999/xlink" viewBox="0 0 2.34 4.34"><defs><style>.cls-1{fill:#faa006;}.cls-2{opacity:0.6;fill:url(#linear-gradient);}.cls-3{fill:#ffbe71;opacity:0.4;}</style><linearGradient id="linear-gradient" y1="2.17" x2="2.34" y2="2.17" gradientUnits="userSpaceOnUse"><stop offset="0" stop-color="#ff7434"/><stop offset="1" stop-color="#fdb700"/></linearGradient></defs><title>Asset 7</title><g id="Layer_2" data-name="Layer 2"><g id="Layer_2-2" data-name="Layer 2"><path class="cls-1" d="M.3.19c.66-.66,2.09.51,2,2.18S.57,4.57.15,4.25s.35-1.5.37-2.12S-.35.84.3.19Z"/><path class="cls-2" d="M.3.19c.66-.66,2.09.51,2,2.18S.57,4.57.15,4.25s.35-1.5.37-2.12S-.35.84.3.19Z"/><path class="cls-3" d="M.82,0A2.57,2.57,0,0,1,1.7,2.06,2,2,0,0,1,0,4a.35.35,0,0,0,.13.22c.42.32,2.14-.21,2.2-1.89A2.22,2.22,0,0,0,.82,0Z"/></g></g></svg>