<svg xmlns="http://www.w3.org/2000/svg" xmlns:xlink="http://www.w3.org/1999/xlink" viewBox="0 0 2.67 3.98"><defs><style>.cls-1{fill:#faa006;}.cls-2{opacity:0.6;fill:url(#linear-gradient);}.cls-3{fill:#ffbe71;opacity:0.4;}</style><linearGradient id="linear-gradient" y1="1.99" x2="2.67" y2="1.99" gradientUnits="userSpaceOnUse"><stop offset="0" stop-color="#ff7434"/><stop offset="1" stop-color="#fdb700"/></linearGradient></defs><title>Asset 10</title><g id="Layer_2" data-name="Layer 2"><g id="Layer_2-2" data-name="Layer 2"><path class="cls-1" d="M2.17,0A2.11,2.11,0,0,0,.12,1.76C-.45,3.63,1.19,4.08,1.63,4s-.05-.85.22-1.8S3.34.16,2.17,0Z"/><path class="cls-2" d="M2.17,0A2.11,2.11,0,0,0,.12,1.76C-.45,3.63,1.19,4.08,1.63,4s-.05-.85.22-1.8S3.34.16,2.17,0Z"/><path class="cls-3" d="M2.47.08C2.21-.11.68-.12.12,1.75S1.19,4.07,1.63,4s-1-1-.88-2C1,.37,2.62.19,2.47.08Z"/></g></g></svg>