<svg xmlns="http://www.w3.org/2000/svg" xmlns:xlink="http://www.w3.org/1999/xlink" viewBox="0 0 2.47 4.05"><defs><style>.cls-1{fill:#faa006;}.cls-2{opacity:0.6;fill:url(#linear-gradient);}.cls-3{fill:#ffbe71;opacity:0.4;}</style><linearGradient id="linear-gradient" y1="2.02" x2="2.46" y2="2.02" gradientUnits="userSpaceOnUse"><stop offset="0" stop-color="#ff7434"/><stop offset="1" stop-color="#fdb700"/></linearGradient></defs><title>Asset 6</title><g id="Layer_2" data-name="Layer 2"><g id="Layer_2-2" data-name="Layer 2"><path class="cls-1" d="M.44.44A.86.86,0,0,1,1.87.33a2.38,2.38,0,0,1,.22,2.81c-.77,1-1.43,1-1.91.74S.54,2.74.5,2.15.2,1,.44.44Z"/><path class="cls-2" d="M.43.44A.86.86,0,0,1,1.86.33a2.38,2.38,0,0,1,.22,2.81c-.77,1-1.43,1-1.91.74S.53,2.74.5,2.15.2,1,.43.44Z"/><path class="cls-3" d="M1.09,0S.8,0,1,.14a2.39,2.39,0,0,1,.58,1.6C1.52,2.3,1,3.79.16,3.79c-.25,0,.68.72,1.62-.3a2.09,2.09,0,0,0,.63-2C2,.12,1.46,0,1.09,0Z"/></g></g></svg>