<svg xmlns="http://www.w3.org/2000/svg" xmlns:xlink="http://www.w3.org/1999/xlink" viewBox="0 0 4.42 3.66"><defs><style>.cls-1{fill:#faa006;}.cls-2{fill:#ffbe71;opacity:0.4;}.cls-3{opacity:0.6;}.cls-4{fill:url(#linear-gradient);}</style><linearGradient id="linear-gradient" x1="0.01" y1="1.83" x2="4.42" y2="1.83" gradientUnits="userSpaceOnUse"><stop offset="0" stop-color="#ff7434"/><stop offset="1" stop-color="#fdb700"/></linearGradient></defs><title>Asset 11</title><g id="Layer_2" data-name="Layer 2"><g id="Layer_2-2" data-name="Layer 2"><path class="cls-1" d="M3.94,2.52c.88-.88.58-3.8-1.12-1.88C1.73,1.86,1.58,1,.32,1.91S1.42,5,3.94,2.52Z"/><path class="cls-2" d="M1.59,3C.63,2.59.21,1.88,0,2.35s.35.95.68,1.11A2.54,2.54,0,0,0,3.32,3,2.24,2.24,0,0,0,4.41.85c0-.29-.11.54-.34.9C3.51,2.6,2.21,3.34,1.59,3Z"/><g class="cls-3"><path class="cls-4" d="M3.94,2.52c.88-.88.58-3.8-1.12-1.88C1.73,1.86,1.58,1,.32,1.91S1.42,5,3.94,2.52Z"/></g></g></g></svg>