<?xml version="1.0" encoding="utf-8"?>
<!-- Generator: Adobe Illustrator 22.0.1, SVG Export Plug-In . SVG Version: 6.00 Build 0)  -->
<svg version="1.1" id="Layer_1" xmlns="http://www.w3.org/2000/svg" xmlns:xlink="http://www.w3.org/1999/xlink" x="0px" y="0px"
	 viewBox="0 0 14.98 18.65" style="enable-background:new 0 0 14.98 18.65;" xml:space="preserve">
<style type="text/css">
	.st0{fill:#F2F2F2;}
	.st1{fill:#FBFBFB;}
	.st2{fill:#EBEBEB;}
	.st3{fill:#F9F9F9;}
	.st4{fill:#E6E6E6;}
	.st5{fill:#FFFFFF;}
	.st6{fill:#DAD9DA;}
	.st7{fill:#97569B;}
	.st8{fill:url(#SVGID_1_);}
	.st9{fill:url(#SVGID_2_);}
	.st10{fill:url(#SVGID_3_);}
	.st11{fill:url(#SVGID_4_);}
	.st12{fill:url(#SVGID_5_);}
</style>
<title>Asset 34</title>
<g>
	<g>
		<g>
			<path class="st0" d="M0.07785,10.45407c-0.03432-0.01975-0.06045-0.06826-0.05807-0.10778L0.64139,0.04416
				c0.00239-0.03953,0.03255-0.05594,0.06703-0.03647l14.23197,8.03505C14.97487,8.0622,15.00114,8.11048,14.99876,8.15
				l-0.62971,10.45481c-0.00238,0.03953-0.03241,0.05571-0.06673,0.03596L0.07785,10.45407z"/>
		</g>
		<polygon class="st1" points="3.56745,1.65484 2.93757,12.09466 2.4372,11.8067 3.06745,1.36084 		"/>
		<g>
			<g>
				<path class="st2" d="M0.70958,0.00592C0.67525-0.01382,0.64521,0.00238,0.64283,0.04191L0.02119,10.34403
					c-0.00239,0.03953,0.02375,0.08802,0.05808,0.10775l2.31266,1.32942c0.03433,0.01974,0.06437,0.00354,0.06676-0.03599
					L3.08033,1.44309c0.00239-0.03953-0.02375-0.08802-0.05808-0.10775L0.70958,0.00592z"/>
			</g>
			<polygon class="st3" points="0.4456,3.28487 2.87467,4.68123 2.91252,4.10372 0.47502,2.70253 			"/>
			<polygon class="st3" points="0.37501,4.34719 2.80409,5.74355 2.84193,5.16604 0.40443,3.76485 			"/>
			<polygon class="st3" points="0.32524,5.40951 2.75432,6.80587 2.79216,6.22836 0.35466,4.82718 			"/>
			<polygon class="st3" points="0.25465,6.47183 2.68373,7.8682 2.72157,7.29068 0.28407,5.8895 			"/>
			<polygon class="st3" points="0.189,7.53416 2.61807,8.93052 2.65592,8.353 0.21842,6.95182 			"/>
		</g>
		<g>
			<g>
				<path class="st4" d="M11.27807,5.97503c-0.03448-0.01947-0.06465-0.00306-0.06703,0.03647l-0.62733,10.41473
					c-0.00238,0.03953,0.02375,0.08803,0.05807,0.10778l3.66053,2.10676c0.03432,0.01975,0.06435,0.00357,0.06673-0.03595
					l0.62971-10.45483c0.00238-0.03953-0.02389-0.0878-0.05837-0.10727L11.27807,5.97503z"/>
			</g>
			<g>
				<g>
					<polygon class="st5" points="12.52951,9.53679 12.50998,9.88738 13.32218,10.34594 13.34134,10.0028 					"/>
					<polygon class="st5" points="13.5758,10.13793 13.55627,10.48851 14.36846,10.94707 14.38763,10.60393 					"/>
				</g>
				<g>
					<polygon class="st5" points="12.47363,10.35203 12.4541,10.70261 13.2663,11.16117 13.28546,10.81803 					"/>
					<polygon class="st5" points="13.52151,10.95316 13.50198,11.30375 14.31418,11.7623 14.33334,11.41916 					"/>
				</g>
				<polygon class="st5" points="12.43476,11.16726 12.41523,11.51785 13.22743,11.97641 13.24659,11.63327 				"/>
			</g>
		</g>
		<g>
			<path class="st6" d="M0.53212,2.00892c-0.00221,0.03954,0.0242,0.08782,0.05869,0.10729l14.22287,8.02991
				c0.03448,0.01947,0.06465,0.00306,0.06703-0.03647l0.11805-1.95965c0.00238-0.03953-0.02388-0.0878-0.05837-0.10727
				L0.70843,0.00769c-0.03448-0.01947-0.0645-0.00305-0.06671,0.03649L0.53212,2.00892z"/>
		</g>
		<g>
			<polyline class="st5" points="8.7226,8.83316 5.29627,6.89871 4.93982,13.28406 8.34381,15.20581 8.72258,8.81153 			"/>
			<polygon class="st7" points="5.23944,7.65644 8.66793,9.59203 8.7226,8.6612 5.29411,6.72561 			"/>
		</g>
	</g>
	<g>
		
			<linearGradient id="SVGID_1_" gradientUnits="userSpaceOnUse" x1="-244.55328" y1="196.82584" x2="-242.75723" y2="196.82584" gradientTransform="matrix(0.87157 0.01476 0.42838 1.15461 134.79439 -213.40891)">
			<stop  offset="0" style="stop-color:#FCE043"/>
			<stop  offset="0.17346" style="stop-color:#FCDA41"/>
			<stop  offset="0.39954" style="stop-color:#FACA3B"/>
			<stop  offset="0.65467" style="stop-color:#F8AF31"/>
			<stop  offset="0.92929" style="stop-color:#F58A24"/>
			<stop  offset="1" style="stop-color:#F47F20"/>
		</linearGradient>
		<path class="st8" d="M6.21506,10.4474c-0.06605-0.17804,0.15277-0.31776,0.48877-0.31206s0.66192,0.15464,0.72797,0.33267
			l0.17433,0.00295c-0.08498-0.22906-0.50431-0.42069-0.93658-0.42801c-0.43227-0.00732-0.71381,0.17244-0.62882,0.40149
			L6.21506,10.4474z"/>
		
			<linearGradient id="SVGID_2_" gradientUnits="userSpaceOnUse" x1="-533.39136" y1="-437.45422" x2="-532.36084" y2="-437.45422" gradientTransform="matrix(-0.47586 -1.15366 0.84658 -0.04903 123.58973 -625.74823)">
			<stop  offset="0" style="stop-color:#FCE043"/>
			<stop  offset="0.17346" style="stop-color:#FCDA41"/>
			<stop  offset="0.39954" style="stop-color:#FACA3B"/>
			<stop  offset="0.65467" style="stop-color:#F8AF31"/>
			<stop  offset="0.92929" style="stop-color:#F58A24"/>
			<stop  offset="1" style="stop-color:#F47F20"/>
		</linearGradient>
		<path class="st9" d="M6.57824,9.86326c0.24091-0.01395,0.54599,0.24088,0.68141,0.56917
			c0.13542,0.3283,0.04989,0.60575-0.19102,0.6197c-0.24091,0.01395-0.54599-0.24088-0.68141-0.56917
			C6.2518,10.15466,6.33732,9.87722,6.57824,9.86326z"/>
		
			<linearGradient id="SVGID_3_" gradientUnits="userSpaceOnUse" x1="-244.55322" y1="197.18542" x2="-242.75716" y2="197.18542" gradientTransform="matrix(0.87157 0.01476 0.42838 1.15461 134.79439 -213.40891)">
			<stop  offset="0" style="stop-color:#FCE043"/>
			<stop  offset="0.17346" style="stop-color:#FCDA41"/>
			<stop  offset="0.39954" style="stop-color:#FACA3B"/>
			<stop  offset="0.65467" style="stop-color:#F8AF31"/>
			<stop  offset="0.92929" style="stop-color:#F58A24"/>
			<stop  offset="1" style="stop-color:#F47F20"/>
		</linearGradient>
		<path class="st10" d="M6.04094,10.44487c0.08498,0.22906,0.50431,0.42069,0.93658,0.42801
			c0.43227,0.00732,0.71381-0.17244,0.62882-0.40149l-0.17433-0.00295c0.06606,0.17804-0.15277,0.31776-0.48876,0.31207
			c-0.336-0.00569-0.66192-0.15464-0.72798-0.33268L6.04094,10.44487z"/>
	</g>
	
		<linearGradient id="SVGID_4_" gradientUnits="userSpaceOnUse" x1="-1.31233" y1="215.15445" x2="-0.97745" y2="214.85774" gradientTransform="matrix(0.96974 0.57735 -0.05241 1 20.06653 -203.07339)">
		<stop  offset="0" style="stop-color:#46C0BC"/>
		<stop  offset="1" style="stop-color:#74C280"/>
	</linearGradient>
	<path class="st11" d="M7.90522,11.40084c-0.00647,0.12355-0.10885,0.16588-0.22866,0.09455
		c-0.11981-0.07133-0.21169-0.22931-0.20521-0.35286s0.10885-0.16588,0.22866-0.09455S7.91169,11.2773,7.90522,11.40084z"/>
	
		<linearGradient id="SVGID_5_" gradientUnits="userSpaceOnUse" x1="-3.03032" y1="214.32727" x2="-2.59336" y2="213.94012" gradientTransform="matrix(0.96974 0.57735 -0.05241 1 20.06653 -203.07339)">
		<stop  offset="0" style="stop-color:#4A3F98"/>
		<stop  offset="0.32628" style="stop-color:#4F4B9F"/>
		<stop  offset="0.91496" style="stop-color:#5C6BB1"/>
		<stop  offset="1" style="stop-color:#5E70B4"/>
	</linearGradient>
	<path class="st12" d="M6.40056,9.6054C6.39211,9.76661,6.25853,9.82185,6.1022,9.72877S5.82599,9.42956,5.83444,9.26836
		c0.00845-0.16121,0.14203-0.21644,0.29836-0.12337S6.40901,9.4442,6.40056,9.6054z"/>
	<polygon class="st4" points="5.66702,11.94289 7.68944,13.08468 7.72169,12.53559 5.69927,11.39381 	"/>
	<polygon class="st4" points="5.6208,12.70257 7.64322,13.84435 7.67547,13.29527 5.65305,12.15349 	"/>
</g>
</svg>
