<?xml version="1.0" encoding="UTF-8" standalone="no"?>
<svg xmlns="http://www.w3.org/2000/svg" xmlns:xlink="http://www.w3.org/1999/xlink" viewBox="0 0 14.98 18.65">
<defs>
<style>.cls-1{fill:#f2f2f2;}.cls-2{fill:#fbfbfb;}.cls-3{fill:#ebebeb;}.cls-4{fill:#f9f9f9;}.cls-5{fill:#e6e6e6;}.cls-6{fill:#fff;}.cls-7{fill:#dad9da;}.cls-8{fill:#97569b;}.cls-9{fill:url(#linear-gradient);}.cls-10{fill:url(#d);}.cls-11{fill:url(#c);}.cls-12{fill:url(#b);}.cls-13{fill:url(#a);}</style>
<linearGradient id="linear-gradient" y2="169" gradientUnits="userSpaceOnUse" x2="-264" gradientTransform="matrix(.87 .01 .43 1.15 166 -181)" y1="169" x1="-266">
<stop stop-color="#fce043" offset="0"/>
<stop stop-color="#fcda41" offset=".17"/>
<stop stop-color="#faca3b" offset=".4"/>
<stop stop-color="#f8af31" offset=".65"/>
<stop stop-color="#f58a24" offset=".93"/>
<stop stop-color="#f47f20" offset="1"/>
</linearGradient>
<linearGradient id="d" y2="-291" xlink:href="#linear-gradient" x2="-1.06e3" gradientTransform="matrix(-.48 -1.15 .85 -.05 -249 -1.22e3)" y1="-291" x1="-1.06e3"/>
<linearGradient id="c" y2="169" xlink:href="#linear-gradient" x2="-264" y1="169" x1="-266"/>
<linearGradient id="b" y2="4.41" gradientUnits="userSpaceOnUse" x2="8.37" gradientTransform="matrix(.97 .58 -.05 1 -.04 1.99)" y1="4.7" x1="8.03">
<stop stop-color="#46c0bc" offset="0"/>
<stop stop-color="#74c280" offset="1"/>
</linearGradient>
<linearGradient id="a" y2="3.49" gradientUnits="userSpaceOnUse" x2="6.75" gradientTransform="matrix(.97 .58 -.05 1 -.04 1.99)" y1="3.87" x1="6.31">
<stop stop-color="#4a3f98" offset="0"/>
<stop stop-color="#4f4b9f" offset=".33"/>
<stop stop-color="#5c6bb1" offset=".91"/>
<stop stop-color="#5e70b4" offset="1"/>
</linearGradient>
</defs>
<title>Asset 34</title>
<g data-name="Layer 2">
<g data-name="Layer 2">
<path class="cls-1" d="m0.06 10.5a0.13 0.13 0 0 1 -0.06 -0.1l0.62-10.4a0 0 0 0 1 0.07 0l14.2 8a0.13 0.13 0 0 1 0.06 0.11l-0.63 10.4a0 0 0 0 1 -0.07 0z"/>
<polygon points="3.55 1.66 2.92 12.1 2.42 11.8 3.05 1.36" class="cls-2"/>
<path class="cls-3" d="m0.69 0a0 0 0 0 0 -0.07 0l-0.62 10.4a0.13 0.13 0 0 0 0.06 0.11l2.31 1.33a0 0 0 0 0 0.07 0l0.62-10.3a0.13 0.13 0 0 0 -0.06 -0.16z"/>
<polygon points="0.43 3.29 2.85 4.68 2.89 4.11 0.46 2.71" class="cls-4"/>
<polygon points="0.35 4.35 2.78 5.75 2.82 5.17 0.39 3.77" class="cls-4"/>
<polygon points="0.31 5.41 2.73 6.81 2.77 6.23 0.34 4.83" class="cls-4"/>
<polygon points="0.23 6.47 2.66 7.87 2.7 7.29 0.26 5.89" class="cls-4"/>
<polygon points="0.17 7.54 2.6 8.93 2.64 8.36 0.2 6.95" class="cls-4"/>
<path class="cls-5" d="m11.3 6a0 0 0 0 0 -0.07 0l-0.63 10.4a0.13 0.13 0 0 0 0.06 0.11l3.66 2.11a0 0 0 0 0 0.07 0l0.5-10.4a0.13 0.13 0 0 0 -0.1 -0.2z"/>
<polygon points="12.5 9.54 12.5 9.89 13.3 10.4 13.3 10" class="cls-6"/>
<polygon points="13.6 10.1 13.5 10.5 14.4 11 14.4 10.6" class="cls-6"/>
<polygon points="12.4 10.4 12.4 10.7 13.2 11.2 13.3 10.8" class="cls-6"/>
<polygon points="13.5 11 13.5 11.3 14.3 11.8 14.3 11.4" class="cls-6"/>
<polygon points="12.4 11.2 12.4 11.5 13.2 12 13.2 11.6" class="cls-6"/>
<path class="cls-7" d="m0.51 2a0.13 0.13 0 0 0 0.06 0.11l14.2 8a0 0 0 0 0 0.07 0l0.12-2a0.13 0.13 0 0 0 -0.1 -0.1l-14.2-8a0 0 0 0 0 -0.08 0z"/>
<polyline points="8.7 8.84 5.28 6.9 4.92 13.3 8.32 15.2 8.7 8.81" class="cls-6"/>
<polygon points="5.22 7.66 8.65 9.6 8.7 8.66 5.27 6.73" class="cls-8"/>
<path class="cls-9" d="m6.2 10.4c-0.07-0.18 0.15-0.32 0.49-0.31s0.66 0.15 0.73 0.33h0.17c-0.08-0.23-0.5-0.42-0.94-0.43s-0.71 0.17-0.63 0.4z"/>
<path class="cls-10" d="m6.56 9.87a0.85 0.85 0 0 1 0.68 0.57c0.14 0.33 0 0.61-0.19 0.62a0.85 0.85 0 0 1 -0.68 -0.57c-0.14-0.2-0.05-0.52 0.19-0.53z"/>
<path class="cls-11" d="m6 10.4c0.08 0.23 0.5 0.42 0.94 0.43s0.71-0.17 0.63-0.4h-0.16c0.07 0.18-0.15 0.32-0.49 0.31s-0.66-0.15-0.73-0.33z"/>
<path class="cls-12" d="m7.89 11.4c0 0.12-0.11 0.17-0.23 0.09a0.44 0.44 0 0 1 -0.21 -0.35c0-0.12 0.11-0.17 0.23-0.09a0.44 0.44 0 0 1 0.21 0.3z"/>
<path class="cls-13" d="m6.38 9.61c0 0.16-0.14 0.22-0.3 0.12a0.57 0.57 0 0 1 -0.27 -0.46c0-0.16 0.14-0.22 0.3-0.12a0.57 0.57 0 0 1 0.27 0.46z"/>
<polygon points="5.65 12 7.67 13.1 7.7 12.5 5.68 11.4" class="cls-5"/>
<polygon points="5.6 12.7 7.62 13.8 7.66 13.3 5.63 12.2" class="cls-5"/>
</g>
</g>
</svg>
