<?xml version="1.0" standalone="yes"?>

<svg version="1.1" viewBox="0.0 0.0 960.0 540.0" fill="none" stroke="none" stroke-linecap="square" stroke-miterlimit="10" xmlns="http://www.w3.org/2000/svg" xmlns:xlink="http://www.w3.org/1999/xlink"><clipPath id="g196dbe6e28_0_2582.0"><path d="m0 0l960.0 0l0 540.0l-960.0 0l0 -540.0z" clip-rule="nonzero"></path></clipPath><g clip-path="url(#g196dbe6e28_0_2582.0)"><path fill="#f44336" d="m0 0l960.0 0l0 540.0l-960.0 0z" fill-rule="evenodd"></path><path fill="#000000" fill-opacity="0.0731" d="m24.000008 -1.0957898l0 542.1928l863.97003 0l-145.04541 -541.32214z" fill-rule="evenodd"></path><path fill="#ffffff" d="m7.3490814E-6 -1.0957898l0 542.1928l863.97003 0l-145.04541 -541.32214z" fill-rule="evenodd"></path><path fill="#000000" fill-opacity="0.0" d="m60.934383 72.068245l626.6457 0l0 42.99212l-626.6457 0z" fill-rule="evenodd"></path><path fill="#595959" d="m93.68438 98.780365l-7.015625 0l-5.890625 -8.703125l-2.8125 3.140625l0 5.5625l-5.859375 0l0 -22.4375l5.859375 0l0 9.734375l8.421875 -9.734375l6.78125 0l-8.328125 9.25l8.84375 13.1875zm2.389923 -22.4375l17.703125 0l0 4.671875l-11.84375 0l0 4.203125l10.6875 0l0 4.640625l-10.6875 0.03125l0 4.21875l12.15625 0l0 4.671875l-18.015625 0l0 -22.4375zm41.475044 0l-8.09375 15.265625l0 7.171875l-5.8593826 0l0 -7.015625l-8.25 -15.421875l5.859375 0l5.3125 9.640625l5.1718826 -9.640625l5.859375 0zm18.97644 0q4.28125 0 6.65625 2.078125q2.375 2.0625 2.375 5.796875q0 3.96875 -2.375 6.171875q-2.375 2.1875 -6.65625 2.1875l-4.0 0l0 6.203125l-5.859375 0l0 -22.4375l9.859375 0zm-0.28125 11.5625q1.78125 0 2.75 -0.890625q0.984375 -0.90625 0.984375 -2.609375q0 -1.625 -0.984375 -2.5q-0.96875 -0.890625 -2.75 -0.890625l-3.71875 0l0 6.890625l3.71875 0zm12.181915 -11.5625l17.703125 0l0 4.671875l-11.84375 0l0 4.203125l10.6875 0l0 4.640625l-10.6875 0.03125l0 4.21875l12.15625 0l0 4.671875l-18.015625 0l0 -22.4375zm35.068787 22.4375l-3.25 -6.203125l-0.140625 0l-4.21875 0l0 6.203125l-5.859375 0l0 -22.4375l10.078125 0q4.453125 0 6.890625 2.078125q2.453125 2.0625 2.453125 5.796875q0 2.53125 -1.03125 4.375q-1.015625 1.828125 -2.96875 2.859375l4.671875 7.328125l-6.625 0zm-7.609375 -10.875l4.25 0q1.796875 0 2.765625 -0.890625q0.984375 -0.90625 0.984375 -2.609375q0 -1.625 -0.984375 -2.5q-0.96875 -0.890625 -2.765625 -0.890625l-4.25 0l0 6.890625zm17.30867 -11.5625l16.765625 0l-0.03125 4.671875l-10.875 0l0 5.0l10.046875 0l0 4.671875l-10.046875 0l0 8.09375l-5.859375 0l0 -22.4375zm30.111542 -0.34375q3.421875 0 6.1875 1.5q2.78125 1.5 4.359375 4.125q1.578125 2.625 1.578125 5.890625q0 3.296875 -1.578125 5.953125q-1.578125 2.65625 -4.359375 4.203125q-2.765625 1.53125 -6.1875 1.53125q-3.421875 0 -6.1875 -1.515625q-2.765625 -1.53125 -4.359375 -4.203125q-1.578125 -2.671875 -1.578125 -5.96875q0 -3.265625 1.578125 -5.890625q1.59375 -2.625 4.359375 -4.125q2.765625 -1.5 6.1875 -1.5zm0.0625 4.953125q-1.65625 0 -3.078125 0.875q-1.421875 0.859375 -2.265625 2.375q-0.828125 1.515625 -0.828125 3.34375q0 1.859375 0.84375 3.375q0.859375 1.515625 2.265625 2.40625q1.40625 0.875 3.0625 0.875q1.671875 0 3.0625 -0.875q1.390625 -0.890625 2.1875 -2.40625q0.796875 -1.515625 0.796875 -3.375q0 -1.828125 -0.796875 -3.34375q-0.796875 -1.515625 -2.1875 -2.375q-1.390625 -0.875 -3.0625 -0.875zm28.446793 17.828125l-3.25 -6.203125l-0.140625 0l-4.21875 0l0 6.203125l-5.859375 0l0 -22.4375l10.078125 0q4.453125 0 6.890625 2.078125q2.453125 2.0625 2.453125 5.796875q0 2.53125 -1.03125 4.375q-1.015625 1.828125 -2.96875 2.859375l4.671875 7.328125l-6.625 0zm-7.609375 -10.875l4.25 0q1.796875 0 2.765625 -0.890625q0.984375 -0.90625 0.984375 -2.609375q0 -1.625 -0.984375 -2.5q-0.96875 -0.890625 -2.765625 -0.890625l-4.25 0l0 6.890625zm17.308685 -11.5625l6.375 0l6.5 13.125l6.453125 -13.125l6.375 0l0 22.4375l-5.1875 0l-0.03125 -14.203125l-5.734375 11.96875l-3.765625 0l-5.765625 -11.96875l0 14.203125l-5.21875 0l0 -22.4375zm46.53244 22.4375l-1.53125 -3.96875l-9.703125 0l-1.5625 3.96875l-6.015625 0l9.625 -22.4375l6.015625 0l9.40625 22.4375l-6.234375 0zm-9.46875 -8.453125l6.203125 0l-3.078125 -8.0l-3.125 8.0zm33.048553 -13.984375l5.4375 0l0 22.4375l-5.109375 0l-10.1875 -13.40625l0 13.40625l-5.46875 0l0 -22.4375l5.15625 0l10.203125 13.515625l-0.03125 -13.515625zm26.05832 7.625q-1.09375 -1.375 -2.609375 -2.1875q-1.5 -0.828125 -2.96875 -0.828125q-1.6875 0 -3.078125 0.859375q-1.390625 0.84375 -2.203125 2.328125q-0.796875 1.484375 -0.796875 3.3125q0 1.828125 0.796875 3.3125q0.8125 1.484375 2.203125 2.34375q1.390625 0.84375 3.078125 0.84375q1.375 0 2.875 -0.703125q1.515625 -0.703125 2.703125 -1.921875l3.421875 3.671875q-1.828125 1.921875 -4.34375 3.0625q-2.515625 1.140625 -4.96875 1.140625q-3.328125 0 -6.015625 -1.53125q-2.6875 -1.546875 -4.234375 -4.203125q-1.53125 -2.65625 -1.53125 -5.953125q0 -3.265625 1.5625 -5.890625q1.578125 -2.625 4.3125 -4.125q2.734375 -1.5 6.125 -1.5q2.5 0 4.921875 1.046875q2.4375 1.03125 4.140625 2.828125l-3.390625 4.09375zm5.909668 -7.625l17.703125 0l0 4.671875l-11.84375 0l0 4.203125l10.6875 0l0 4.640625l-10.6875 0.03125l0 4.21875l12.15625 0l0 4.671875l-18.015625 0l0 -22.4375zm28.70404 0l5.859375 0l0 22.4375l-5.859375 0l0 -22.4375zm25.536133 0l5.4375 0l0 22.4375l-5.109375 0l-10.1875 -13.40625l0 13.40625l-5.46875 0l0 -22.4375l5.15625 0l10.203125 13.515625l-0.03125 -13.515625zm19.495789 0q3.515625 0 6.21875 1.421875q2.703125 1.40625 4.203125 3.953125q1.515625 2.53125 1.515625 5.828125q0 3.296875 -1.53125 5.859375q-1.515625 2.5625 -4.28125 3.96875q-2.765625 1.40625 -6.359375 1.40625l-9.4375 0l0 -22.4375l9.671875 0zm0.15625 17.703125q1.703125 0 3.0 -0.796875q1.3125 -0.8125 2.046875 -2.28125q0.75 -1.46875 0.75 -3.359375q0 -1.921875 -0.796875 -3.390625q-0.78125 -1.46875 -2.15625 -2.28125q-1.375 -0.8125 -3.125 -0.8125l-3.6875 0l0 12.921875l3.96875 0zm14.683929 -17.703125l5.859375 0l0 22.4375l-5.859375 0l0 -22.4375zm26.442413 7.625q-1.09375 -1.375 -2.609375 -2.1875q-1.5 -0.828125 -2.96875 -0.828125q-1.6875 0 -3.078125 0.859375q-1.390625 0.84375 -2.203125 2.328125q-0.796875 1.484375 -0.796875 3.3125q0 1.828125 0.796875 3.3125q0.8125 1.484375 2.203125 2.34375q1.390625 0.84375 3.078125 0.84375q1.375 0 2.875 -0.703125q1.515625 -0.703125 2.703125 -1.921875l3.421875 3.671875q-1.828125 1.921875 -4.34375 3.0625q-2.515625 1.140625 -4.96875 1.140625q-3.328125 0 -6.015625 -1.53125q-2.6875 -1.546875 -4.234375 -4.203125q-1.53125 -2.65625 -1.53125 -5.953125q0 -3.265625 1.5625 -5.890625q1.578125 -2.625 4.3125 -4.125q2.734375 -1.5 6.125 -1.5q2.5 0 4.921875 1.046875q2.4375 1.03125 4.140625 2.828125l-3.390625 4.09375zm22.394043 14.8125l-1.53125 -3.96875l-9.703125 0l-1.5625 3.96875l-6.015625 0l9.625 -22.4375l6.015625 0l9.40625 22.4375l-6.234375 0zm-9.46875 -8.453125l6.203125 0l-3.078125 -8.0l-3.125 8.0zm15.767273 -13.984375l19.234375 0l0 4.84375l-6.71875 0l0 17.59375l-5.859375 0l0 -17.59375l-6.65625 0l0 -4.84375zm32.288696 -0.34375q3.421875 0 6.1875 1.5q2.78125 1.5 4.359375 4.125q1.578125 2.625 1.578125 5.890625q0 3.296875 -1.578125 5.953125q-1.578125 2.65625 -4.359375 4.203125q-2.765625 1.53125 -6.1875 1.53125q-3.421875 0 -6.1875 -1.515625q-2.765625 -1.53125 -4.359375 -4.203125q-1.578125 -2.671875 -1.578125 -5.96875q0 -3.265625 1.578125 -5.890625q1.59375 -2.625 4.359375 -4.125q2.765625 -1.5 6.1875 -1.5zm0.0625 4.953125q-1.65625 0 -3.078125 0.875q-1.421875 0.859375 -2.265625 2.375q-0.828125 1.515625 -0.828125 3.34375q0 1.859375 0.84375 3.375q0.859375 1.515625 2.265625 2.40625q1.40625 0.875 3.0625 0.875q1.671875 0 3.0625 -0.875q1.390625 -0.890625 2.1875 -2.40625q0.796875 -1.515625 0.796875 -3.375q0 -1.828125 -0.796875 -3.34375q-0.796875 -1.515625 -2.1875 -2.375q-1.390625 -0.875 -3.0625 -0.875zm28.446838 17.828125l-3.25 -6.203125l-0.140625 0l-4.21875 0l0 6.203125l-5.859375 0l0 -22.4375l10.078125 0q4.453125 0 6.890625 2.078125q2.453125 2.0625 2.453125 5.796875q0 2.53125 -1.03125 4.375q-1.015625 1.828125 -2.96875 2.859375l4.671875 7.328125l-6.625 0zm-7.609375 -10.875l4.25 0q1.796875 0 2.765625 -0.890625q0.984375 -0.90625 0.984375 -2.609375q0 -1.625 -0.984375 -2.5q-0.96875 -0.890625 -2.765625 -0.890625l-4.25 0l0 6.890625zm32.76178 -4.8125q-1.78125 -1.046875 -3.8125 -1.71875q-2.03125 -0.671875 -3.40625 -0.671875q-1.09375 0 -1.71875 0.40625q-0.625 0.390625 -0.625 1.15625q0 0.734375 0.546875 1.234375q0.546875 0.5 1.34375 0.8125q0.796875 0.296875 2.359375 0.765625q2.34375 0.671875 3.859375 1.34375q1.53125 0.671875 2.609375 2.078125q1.09375 1.390625 1.09375 3.625q0 2.234375 -1.1875 3.828125q-1.1875 1.578125 -3.25 2.390625q-2.0625 0.796875 -4.59375 0.796875q-2.78125 0 -5.546875 -0.96875q-2.765625 -0.984375 -4.78125 -2.6875l2.265625 -4.578125q1.703125 1.5 4.015625 2.46875q2.328125 0.953125 4.109375 0.953125q1.3125 0 2.0625 -0.46875q0.765625 -0.484375 0.765625 -1.421875q0 -0.765625 -0.5625 -1.265625q-0.5625 -0.515625 -1.421875 -0.8125q-0.84375 -0.3125 -2.375 -0.734375q-2.296875 -0.640625 -3.8125 -1.296875q-1.5 -0.65625 -2.578125 -1.984375q-1.0625 -1.328125 -1.0625 -3.53125q0 -2.078125 1.09375 -3.640625q1.109375 -1.578125 3.140625 -2.421875q2.03125 -0.84375 4.71875 -0.84375q2.4375 0 4.796875 0.6875q2.375 0.6875 4.171875 1.828125l-2.21875 4.671875z" fill-rule="nonzero"></path><path fill="#f44336" d="m60.934383 184.03708l0 0c0 -9.051285 7.3375053 -16.388779 16.388783 -16.388779l187.15944 0c4.346588 0 8.515137 1.7266693 11.588623 4.8001556c3.0734863 3.0734863 4.800171 7.24205 4.800171 11.588623l0 65.55315c0 9.051285 -7.3375244 16.388779 -16.388794 16.388779l-187.15944 0c-9.051277 0 -16.388783 -7.337494 -16.388783 -16.388779z" fill-rule="evenodd"></path><path stroke="#ffffff" stroke-width="4.0" stroke-linejoin="round" stroke-linecap="butt" d="m60.934383 184.03708l0 0c0 -9.051285 7.3375053 -16.388779 16.388783 -16.388779l187.15944 0c4.346588 0 8.515137 1.7266693 11.588623 4.8001556c3.0734863 3.0734863 4.800171 7.24205 4.800171 11.588623l0 65.55315c0 9.051285 -7.3375244 16.388779 -16.388794 16.388779l-187.15944 0c-9.051277 0 -16.388783 -7.337494 -16.388783 -16.388779z" fill-rule="evenodd"></path><path fill="#f44336" d="m294.0866 184.47276l0 0c0 -9.05127 7.3375244 -16.388779 16.388794 -16.388779l187.15945 0c4.3465576 0 8.515106 1.7266693 11.588593 4.800171c3.0734863 3.0734863 4.800171 7.242035 4.800171 11.588608l0 65.55316c0 9.051254 -7.337494 16.388779 -16.388763 16.388779l-187.15945 0c-9.05127 0 -16.388794 -7.3375244 -16.388794 -16.388779z" fill-rule="evenodd"></path><path fill="#f44336" d="m525.2966 184.03708l0 0c0 -9.051285 7.3375244 -16.388779 16.388794 -16.388779l187.15942 0c4.3466187 0 8.515137 1.7266693 11.588623 4.8001556c3.0734863 3.0734863 4.800171 7.24205 4.800171 11.588623l0 65.55315c0 9.051285 -7.3374634 16.388779 -16.388794 16.388779l-187.15942 0c-9.05127 0 -16.388794 -7.337494 -16.388794 -16.388779z" fill-rule="evenodd"></path><path fill="#000000" fill-opacity="0.0" d="m62.87664 168.34383l219.93701 0l0 299.4331l-219.93701 0z" fill-rule="evenodd"></path><path fill="#ffffff" d="m143.714 198.78758q0 1.875 -1.0625 3.203125q-1.046875 1.3125 -3.015625 1.828125l4.6875 7.125l-4.15625 0l-3.859375 -6.828125l-2.421875 0l0 6.828125l-3.1875 0l0 -17.515625l6.46875 0q3.109375 0 4.84375 1.484375q1.703125 1.421875 1.703125 3.875zm-6.84375 3.1875q1.765625 0 2.65625 -0.796875q0.890625 -0.796875 0.890625 -2.09375q0 -1.3125 -0.8125 -2.109375q-0.8125 -0.796875 -2.4375 -0.796875l-3.28125 0l0 5.796875l2.984375 0zm16.15094 -4.5q1.3125 0 2.46875 0.421875q1.171875 0.40625 2.015625 1.28125q1.859375 1.890625 1.859375 5.234375q0 3.296875 -1.859375 5.1875q-1.6875 1.71875 -4.484375 1.71875q-2.8125 0 -4.546875 -1.71875q-1.859375 -1.875 -1.859375 -5.1875q0 -3.375 1.859375 -5.234375q1.703125 -1.703125 4.546875 -1.703125zm3.15625 6.90625q0 -2.078125 -0.8125 -3.109375q-0.8125 -1.046875 -2.265625 -1.046875q-1.4375 0 -2.359375 1.046875q-0.90625 1.03125 -0.90625 3.109375q0 2.078125 0.8125 3.125q0.828125 1.03125 2.265625 1.03125q1.421875 0 2.34375 -1.03125q0.921875 -1.046875 0.921875 -3.125zm6.774887 -11.953125l3.1875 0l0 18.515625l-3.1875 0l0 -18.515625zm8.10347 0l3.1875 0l0 18.515625l-3.1875 0l0 -18.515625zm8.369095 5.359375l3.1875 0l0 13.15625l-3.1875 0l0 -13.15625zm-0.375 -4.203125q0 -0.859375 0.5 -1.359375q0.515625 -0.5 1.46875 -0.5q0.921875 0 1.4375 0.5q0.53125 0.5 0.53125 1.359375q0 0.859375 -0.53125 1.359375q-0.515625 0.5 -1.4375 0.5q-0.953125 0 -1.46875 -0.5q-0.5 -0.5 -0.5 -1.359375zm11.9776 6.5q1.296875 -2.609375 4.15625 -2.609375q2.4375 0 3.65625 1.59375q1.234375 1.59375 1.234375 4.203125l0 7.671875l-3.1875 0l0 -7.671875q0 -1.453125 -0.703125 -2.1875q-0.703125 -0.75 -1.96875 -0.75q-1.265625 0 -2.171875 1.140625q-0.90625 1.125 -0.953125 3.390625l0 6.078125l-3.1875 0l0 -13.125l2.78125 0l0.34375 2.265625zm14.606781 5.484375q-1.59375 -1.34375 -1.59375 -3.375q0 -2.125 1.671875 -3.453125q1.625 -1.265625 3.71875 -1.265625q2.09375 0 3.5 0.78125q0.15625 -1.546875 1.328125 -2.484375q1.125 -0.953125 2.671875 -0.953125l-0.171875 3.0625q-2.3125 0 -2.40625 1.53125q1.0 1.25 1.0 2.546875q0 1.296875 -0.453125 2.171875q-0.453125 0.875 -1.25 1.46875q-1.609375 1.296875 -3.9375 1.296875q-1.3125 0 -2.40625 -0.40625q-1.078125 0.328125 -1.078125 1.296875q0 1.21875 2.0625 1.21875l4.390625 0q4.484375 0 4.484375 3.125q0 1.046875 -0.53125 2.0625q-0.515625 1.015625 -1.515625 1.796875q-2.21875 1.734375 -5.5625 1.734375q-3.25 0 -5.265625 -1.328125q-1.890625 -1.265625 -1.890625 -3.109375q0 -1.203125 0.734375 -1.921875q0.75 -0.71875 1.96875 -0.90625q-1.59375 -0.96875 -1.59375 -2.40625q0 -0.9375 0.59375 -1.578125q0.59375 -0.640625 1.53125 -0.90625zm2.4375 5.671875q-2.546875 0.109375 -2.546875 1.921875q0 0.90625 1.0625 1.453125q1.078125 0.5625 2.53125 0.5625q1.46875 0 2.28125 -0.25q0.828125 -0.234375 1.390625 -0.640625q1.21875 -0.8125 1.21875 -1.9375q0 -0.484375 -0.34375 -0.796875q-0.328125 -0.3125 -0.984375 -0.3125l-4.609375 0zm4.125 -9.078125q0 -1.09375 -0.609375 -1.78125q-0.609375 -0.703125 -1.859375 -0.703125q-1.234375 0 -1.875 0.703125q-0.640625 0.6875 -0.640625 1.78125q0 1.09375 0.640625 1.796875q0.640625 0.6875 1.890625 0.6875q1.234375 0 1.84375 -0.6875q0.609375 -0.703125 0.609375 -1.796875z" fill-rule="nonzero"></path><path fill="#ffffff" d="m94.54674 230.78758q0 1.875 -1.0625 3.203125q-1.046875 1.3125 -3.015625 1.828125l4.6875 7.125l-4.15625 0l-3.859375 -6.828125l-2.421875 0l0 6.828125l-3.1875 0l0 -17.515625l6.46875 0q3.109375 0 4.84375 1.484375q1.703125 1.421875 1.703125 3.875zm-6.84375 3.1875q1.765625 0 2.65625 -0.796875q0.890625 -0.796875 0.890625 -2.09375q0 -1.3125 -0.8125 -2.109375q-0.8125 -0.796875 -2.4375 -0.796875l-3.28125 0l0 5.796875l2.984375 0zm20.135315 -2.59375q0.6875 0.875 1.015625 2.015625q0.34375 1.125 0.34375 2.078125q0 0.9375 -0.109375 1.6875l-8.484375 0q0.0625 1.59375 0.78125 2.59375q0.734375 1.0 2.21875 1.0q1.96875 0 2.359375 -1.734375l3.203125 0q-0.328125 1.984375 -1.8125 3.109375q-1.53125 1.1875 -3.75 1.1875q-2.59375 0 -4.34375 -1.890625q-1.8125 -1.96875 -1.8125 -5.046875q0 -3.15625 1.8125 -5.078125q1.734375 -1.828125 4.34375 -1.828125q2.734375 0 4.234375 1.90625zm-4.203125 0.625q-1.34375 0 -2.109375 0.875q-0.75 0.875 -0.890625 2.265625l5.59375 0q0 -2.140625 -1.359375 -2.875q-0.5 -0.265625 -1.234375 -0.265625zm16.580887 10.609375q-1.78125 0.703125 -2.8125 0.703125q-1.015625 0 -1.796875 -0.25q-0.765625 -0.234375 -1.359375 -0.71875q-1.234375 -1.109375 -1.234375 -3.046875l0 -7.34375l-1.84375 0l0 -2.140625l1.84375 0l0 -3.453125l3.1875 0l0 3.453125l3.5625 0l0 2.140625l-3.5625 0l0 7.234375q0 1.609375 1.53125 1.609375q0.78125 0 2.03125 -0.421875l0.453125 2.234375zm12.279175 -11.234375q0.6875 0.875 1.015625 2.015625q0.34375 1.125 0.34375 2.078125q0 0.9375 -0.109375 1.6875l-8.484375 0q0.0625 1.59375 0.78125 2.59375q0.734375 1.0 2.21875 1.0q1.96875 0 2.359375 -1.734375l3.203125 0q-0.328125 1.984375 -1.8125 3.109375q-1.53125 1.1875 -3.75 1.1875q-2.59375 0 -4.34375 -1.890625q-1.8125 -1.96875 -1.8125 -5.046875q0 -3.15625 1.8125 -5.078125q1.734375 -1.828125 4.34375 -1.828125q2.734375 0 4.234375 1.90625zm-4.203125 0.625q-1.34375 0 -2.109375 0.875q-0.75 0.875 -0.890625 2.265625l5.59375 0q0 -2.140625 -1.359375 -2.875q-0.5 -0.265625 -1.234375 -0.265625zm12.315262 0.078125q1.296875 -2.609375 4.15625 -2.609375q2.4375 0 3.65625 1.59375q1.234375 1.59375 1.234375 4.203125l0 7.671875l-3.1875 0l0 -7.671875q0 -1.453125 -0.703125 -2.1875q-0.703125 -0.75 -1.96875 -0.75q-1.265625 0 -2.171875 1.140625q-0.90625 1.125 -0.953125 3.390625l0 6.078125l-3.1875 0l0 -13.125l2.78125 0l0.34375 2.265625zm20.872406 10.53125q-1.78125 0.703125 -2.8125 0.703125q-1.015625 0 -1.796875 -0.25q-0.765625 -0.234375 -1.359375 -0.71875q-1.234375 -1.109375 -1.234375 -3.046875l0 -7.34375l-1.84375 0l0 -2.140625l1.84375 0l0 -3.453125l3.1875 0l0 3.453125l3.5625 0l0 2.140625l-3.5625 0l0 7.234375q0 1.609375 1.53125 1.609375q0.78125 0 2.03125 -0.421875l0.453125 2.234375zm3.4041748 -12.828125l3.1875 0l0 13.15625l-3.1875 0l0 -13.15625zm-0.375 -4.203125q0 -0.859375 0.5 -1.359375q0.515625 -0.5 1.46875 -0.5q0.921875 0 1.4375 0.5q0.53125 0.5 0.53125 1.359375q0 0.859375 -0.53125 1.359375q-0.515625 0.5 -1.4375 0.5q-0.953125 0 -1.46875 -0.5q-0.5 -0.5 -0.5 -1.359375zm14.00885 3.890625q1.3125 0 2.46875 0.421875q1.171875 0.40625 2.015625 1.28125q1.859375 1.890625 1.859375 5.234375q0 3.296875 -1.859375 5.1875q-1.6875 1.71875 -4.484375 1.71875q-2.8125 0 -4.546875 -1.71875q-1.859375 -1.875 -1.859375 -5.1875q0 -3.375 1.859375 -5.234375q1.703125 -1.703125 4.546875 -1.703125zm3.15625 6.90625q0 -2.078125 -0.8125 -3.109375q-0.8125 -1.046875 -2.265625 -1.046875q-1.4375 0 -2.359375 1.046875q-0.90625 1.03125 -0.90625 3.109375q0 2.078125 0.8125 3.125q0.828125 1.03125 2.265625 1.03125q1.421875 0 2.34375 -1.03125q0.921875 -1.046875 0.921875 -3.125zm9.899887 -4.296875q1.296875 -2.609375 4.15625 -2.609375q2.4375 0 3.65625 1.59375q1.234375 1.59375 1.234375 4.203125l0 7.671875l-3.1875 0l0 -7.671875q0 -1.453125 -0.703125 -2.1875q-0.703125 -0.75 -1.96875 -0.75q-1.265625 0 -2.171875 1.140625q-0.90625 1.125 -0.953125 3.390625l0 6.078125l-3.1875 0l0 -13.125l2.78125 0l0.34375 2.265625zm33.241425 -1.296875q0 1.875 -1.0625 3.203125q-1.046875 1.3125 -3.015625 1.828125l4.6875 7.125l-4.15625 0l-3.859375 -6.828125l-2.421875 0l0 6.828125l-3.1875 0l0 -17.515625l6.46875 0q3.109375 0 4.84375 1.484375q1.703125 1.421875 1.703125 3.875zm-6.84375 3.1875q1.765625 0 2.65625 -0.796875q0.890625 -0.796875 0.890625 -2.09375q0 -1.3125 -0.8125 -2.109375q-0.8125 -0.796875 -2.4375 -0.796875l-3.28125 0l0 5.796875l2.984375 0zm15.30719 1.296875q1.5625 0 3.625 0.515625l0 -1.296875q0 -1.375 -0.5625 -2.03125q-0.546875 -0.671875 -1.8125 -0.671875q-1.25 0 -1.921875 0.5q-0.671875 0.5 -0.671875 1.421875l-3.484375 0q0 -2.234375 1.578125 -3.234375q1.578125 -1.0 4.40625 -1.0q4.0625 0 5.25 2.828125q0.40625 0.96875 0.40625 2.296875l0 8.34375l-2.78125 0l-0.25 -1.75q-1.265625 2.125 -3.890625 2.125q-2.53125 0 -3.9375 -1.234375q-1.296875 -1.1875 -1.296875 -3.015625q0 -1.828125 1.421875 -2.8125q1.4375 -0.984375 3.921875 -0.984375zm3.625 2.546875q-1.59375 -0.4375 -2.96875 -0.4375q-2.59375 0 -2.59375 1.734375q0 0.71875 0.59375 1.25q0.59375 0.53125 1.890625 0.53125q1.3125 0 2.15625 -0.875q0.859375 -0.890625 0.921875 -2.203125zm15.020325 4.796875q-1.78125 0.703125 -2.8125 0.703125q-1.015625 0 -1.796875 -0.25q-0.765625 -0.234375 -1.359375 -0.71875q-1.234375 -1.109375 -1.234375 -3.046875l0 -7.34375l-1.84375 0l0 -2.140625l1.84375 0l0 -3.453125l3.1875 0l0 3.453125l3.5625 0l0 2.140625l-3.5625 0l0 7.234375q0 1.609375 1.53125 1.609375q0.78125 0 2.03125 -0.421875l0.453125 2.234375zm12.279175 -11.234375q0.6875 0.875 1.015625 2.015625q0.34375 1.125 0.34375 2.078125q0 0.9375 -0.109375 1.6875l-8.484375 0q0.0625 1.59375 0.78125 2.59375q0.734375 1.0 2.21875 1.0q1.96875 0 2.359375 -1.734375l3.203125 0q-0.328125 1.984375 -1.8125 3.109375q-1.53125 1.1875 -3.75 1.1875q-2.59375 0 -4.34375 -1.890625q-1.8125 -1.96875 -1.8125 -5.046875q0 -3.15625 1.8125 -5.078125q1.734375 -1.828125 4.34375 -1.828125q2.734375 0 4.234375 1.90625zm-4.203125 0.625q-1.34375 0 -2.109375 0.875q-0.75 0.875 -0.890625 2.265625l5.59375 0q0 -2.140625 -1.359375 -2.875q-0.5 -0.265625 -1.234375 -0.265625z" fill-rule="nonzero"></path><path fill="#595959" d="m128.63965 313.01697q-0.515625 -2.71875 -3.84375 -2.71875q-1.625 0 -2.546875 0.65625q-0.90625 0.65625 -0.90625 1.59375q0 0.921875 0.59375 1.453125q0.59375 0.53125 1.84375 0.96875l4.5 1.765625q2.3125 0.890625 3.5625 2.25q1.25 1.359375 1.25 3.421875q0 2.8125 -2.125 4.46875q-2.109375 1.640625 -6.015625 1.640625q-3.453125 0 -5.59375 -1.703125q-2.40625 -1.859375 -2.53125 -5.25l3.75 0q0 2.5625 2.65625 3.234375q0.796875 0.21875 2.109375 0.21875q1.3125 0 2.421875 -0.65625q1.125 -0.65625 1.125 -1.75q0 -1.109375 -0.609375 -1.703125q-0.609375 -0.59375 -1.984375 -1.09375l-4.125 -1.640625q-2.390625 -0.921875 -3.671875 -2.171875q-1.28125 -1.25 -1.28125 -3.453125q0 -2.59375 2.015625 -4.09375q2.046875 -1.578125 5.546875 -1.578125q3.5 0 5.40625 1.625q1.90625 1.609375 2.1875 4.515625l-3.734375 0zm13.275421 -5.71875l0 8.671875l9.0625 0l0 -8.671875l3.765625 0l0 20.765625l-3.765625 0l0 -8.796875l-9.0625 0l0 8.796875l-3.78125 0l0 -20.765625l3.78125 0zm26.779541 -0.421875q2.09375 0 3.8125 0.6875q1.734375 0.6875 2.984375 2.03125q2.625 2.828125 2.625 8.0625q0 5.28125 -2.625 8.171875q-2.5 2.6875 -6.828125 2.6875q-4.28125 0 -6.78125 -2.75q-2.625 -2.859375 -2.625 -8.109375q0 -5.3125 2.625 -8.125q2.46875 -2.65625 6.8125 -2.65625zm5.515625 10.84375q0 -3.578125 -1.5 -5.515625q-1.484375 -1.9375 -4.015625 -1.9375q-2.515625 0 -4.03125 1.9375q-1.5 1.9375 -1.5 5.515625q0 3.5625 1.5 5.46875q1.515625 1.90625 4.03125 1.90625q2.53125 0 4.015625 -1.90625q1.5 -1.90625 1.5 -5.46875zm10.262299 -10.421875l4.578125 15.78125l4.453125 -14.40625l2.5625 0l4.703125 14.46875l4.859375 -15.84375l4.25 0l-7.125 20.765625l-3.96875 0l-3.90625 -11.71875l-3.875 11.71875l-3.96875 0l-6.78125 -20.765625l4.21875 0zm39.94333 5.71875q-0.515625 -2.71875 -3.84375 -2.71875q-1.625 0 -2.546875 0.65625q-0.90625 0.65625 -0.90625 1.59375q0 0.921875 0.59375 1.453125q0.59375 0.53125 1.84375 0.96875l4.5 1.765625q2.3125 0.890625 3.5625 2.25q1.25 1.359375 1.25 3.421875q0 2.8125 -2.125 4.46875q-2.109375 1.640625 -6.015625 1.640625q-3.453125 0 -5.59375 -1.703125q-2.40625 -1.859375 -2.53125 -5.25l3.75 0q0 2.5625 2.65625 3.234375q0.796875 0.21875 2.109375 0.21875q1.3125 0 2.421875 -0.65625q1.125 -0.65625 1.125 -1.75q0 -1.109375 -0.609375 -1.703125q-0.609375 -0.59375 -1.984375 -1.09375l-4.125 -1.640625q-2.390625 -0.921875 -3.671875 -2.171875q-1.28125 -1.25 -1.28125 -3.453125q0 -2.59375 2.015625 -4.09375q2.046875 -1.578125 5.546875 -1.578125q3.5 0 5.40625 1.625q1.90625 1.609375 2.1875 4.515625l-3.734375 0z" fill-rule="nonzero"></path><path fill="#666666" d="m149.66045 351.95947l0 10.859375q0 2.375 1.1875 3.4375q1.1875 1.046875 3.125 1.046875q1.953125 0 3.140625 -1.046875q1.1875 -1.0625 1.1875 -3.4375l0 -10.859375l2.125 0l0 10.859375q0 3.1875 -1.75 4.8125q-1.75 1.609375 -4.71875 1.609375q-2.953125 0 -4.703125 -1.609375q-1.734375 -1.625 -1.734375 -4.8125l0 -10.859375l2.140625 0zm14.995621 7.234375q0 -1.59375 1.359375 -2.53125q1.375 -0.953125 3.6875 -0.953125q2.328125 0 3.640625 0.984375q1.3125 0.96875 1.359375 2.453125l-2.078125 0q-0.234375 -1.765625 -2.96875 -1.765625q-1.328125 0 -2.046875 0.59375q-0.703125 0.59375 -0.703125 1.296875q0 0.6875 0.53125 1.15625q0.546875 0.46875 1.734375 0.828125l2.59375 0.859375q1.640625 0.515625 2.515625 1.3125q0.890625 0.796875 0.890625 2.1875q0 1.390625 -1.4375 2.515625q-1.4375 1.109375 -4.0 1.109375q-2.5625 0 -4.0 -1.140625q-1.421875 -1.15625 -1.5 -2.96875l2.046875 0q0.046875 1.21875 0.984375 1.828125q0.9375 0.609375 2.328125 0.609375q1.40625 0 2.328125 -0.59375q0.921875 -0.59375 0.921875 -1.421875q0 -0.828125 -0.546875 -1.25q-0.53125 -0.4375 -1.75 -0.765625l-2.515625 -0.828125q-3.375 -1.0 -3.375 -3.515625zm19.161758 8.3125q2.671875 0 3.046875 -2.34375l2.1875 0q-0.296875 1.9375 -1.71875 3.015625q-1.421875 1.0625 -3.515625 1.0625q-2.59375 0 -4.21875 -1.84375q-1.625 -1.859375 -1.625 -4.9375q0 -3.078125 1.625 -4.90625q1.640625 -1.84375 4.359375 -1.84375q2.71875 0 4.046875 2.109375q1.34375 2.109375 0.9375 5.125l-8.828125 0q0 2.0 0.96875 3.28125q0.96875 1.28125 2.734375 1.28125zm1.5625 -9.765625q-0.625 -0.328125 -1.515625 -0.328125q-1.640625 0 -2.609375 1.125q-0.953125 1.125 -1.109375 2.796875l6.875 0q0 -2.703125 -1.640625 -3.59375zm12.962296 0.109375q-3.046875 0 -3.15625 4.796875l0 6.296875l-2.125 0l0 -12.9375l2.125 0l0 2.484375q0.984375 -2.703125 3.4375 -2.703125q0.78125 0 1.484375 0.25l-0.109375 2.078125q-0.8125 -0.265625 -1.65625 -0.265625z" fill-rule="nonzero"></path><path fill="#666666" d="m98.25875 383.95947l10.453125 0l0 1.84375l-8.328125 0l0 5.6875l7.828125 0l0 1.8125l-7.828125 0l0 5.78125l8.328125 0l0 1.859375l-10.453125 0l0 -16.984375zm17.058884 6.5625q1.265625 -2.8125 4.34375 -2.8125q2.296875 0 3.578125 1.515625q1.28125 1.515625 1.28125 4.125l0 7.59375l-2.109375 0l0 -7.59375q0 -1.859375 -0.875 -2.796875q-0.875 -0.953125 -2.5 -0.953125q-1.609375 0 -2.609375 1.328125q-1.0 1.328125 -1.0625 3.671875l0 6.34375l-2.125 0l0 -12.90625l1.828125 0l0.25 2.484375zm14.558037 10.015625q-1.625 -0.78125 -1.625 -2.40625q0 -0.828125 0.640625 -1.453125q0.640625 -0.640625 1.578125 -0.859375q-1.453125 -1.296875 -1.453125 -3.40625q0 -2.109375 1.5 -3.40625q1.5 -1.296875 3.546875 -1.296875q2.046875 0 3.484375 0.96875q0.1875 -1.421875 1.140625 -2.28125q0.96875 -0.875 2.53125 -0.875l-0.1875 2.109375q-2.375 0 -2.484375 2.0q0.9375 1.15625 0.9375 2.78125q0 2.078125 -1.5 3.421875q-1.5 1.328125 -3.734375 1.328125q-1.53125 0 -2.734375 -0.625q-0.53125 0.109375 -0.96875 0.5q-0.421875 0.390625 -0.421875 1.078125q0 1.421875 2.375 1.421875l5.015625 0q1.8125 0 2.859375 0.78125q1.0625 0.765625 1.0625 2.140625q0 2.046875 -2.078125 3.578125q-2.0625 1.546875 -5.21875 1.546875q-3.15625 0 -4.96875 -1.171875q-1.8125076 -1.171875 -1.8125076 -2.953125q0 -1.171875 0.6875076 -1.90625q0.703125 -0.71875 1.828125 -1.015625zm-0.40625 2.84375q0 1.015625 1.125 1.75q1.125 0.75 3.40625 0.75q2.28125 0 3.796875 -0.984375q1.53125 -0.984375 1.53125 -2.3125q0 -0.609375 -0.453125 -1.0625q-0.4375 -0.4375 -1.359375 -0.4375l-5.203125 0q-1.390625 0.046875 -2.125 0.65625q-0.71875 0.609375 -0.71875 1.640625zm7.9375 -10.984375q0 -1.390625 -0.84375 -2.265625q-0.828125 -0.875 -2.296875 -0.875q-1.46875 0 -2.3125 0.875q-0.828125 0.875 -0.828125 2.28125q0 1.40625 0.84375 2.3125q0.84375 0.90625 2.3125 0.90625q1.453125 0 2.28125 -0.921875q0.84375 -0.921875 0.84375 -2.3125zm14.982605 0.171875q0 -1.75 -0.734375 -2.5q-0.71875 -0.765625 -2.109375 -0.765625q-1.390625 0 -2.25 0.5625q-0.84375 0.546875 -0.84375 1.734375l-2.34375 0q0 -2.96875 3.171875 -3.671875q0.984375 -0.21875 2.109375 -0.21875q2.40625 0 3.75 1.21875q1.359375 1.21875 1.359375 3.703125l0 8.3125l-1.84375 0l-0.21875 -2.15625q-1.1875 2.453125 -4.28125 2.453125q-2.078125 0 -3.34375 -1.15625q-1.25 -1.171875 -1.25 -2.890625q0 -1.734375 1.390625 -2.703125q1.390625 -0.96875 3.46875 -0.96875q2.078125 0 3.96875 0.703125l0 -1.65625zm0 3.0q-1.921875 -0.53125 -3.359375 -0.53125q-1.421875 0 -2.3125 0.515625q-0.890625 0.5 -0.890625 1.609375q0 2.4375 2.75 2.4375q1.578125 0 2.6875 -1.125q1.125 -1.125 1.125 -2.90625zm7.4743195 4.96875q-1.625 -0.78125 -1.625 -2.40625q0 -0.828125 0.640625 -1.453125q0.640625 -0.640625 1.578125 -0.859375q-1.453125 -1.296875 -1.453125 -3.40625q0 -2.109375 1.5 -3.40625q1.5 -1.296875 3.546875 -1.296875q2.046875 0 3.484375 0.96875q0.1875 -1.421875 1.140625 -2.28125q0.96875 -0.875 2.53125 -0.875l-0.1875 2.109375q-2.375 0 -2.484375 2.0q0.9375 1.15625 0.9375 2.78125q0 2.078125 -1.5 3.421875q-1.5 1.328125 -3.734375 1.328125q-1.53125 0 -2.734375 -0.625q-0.53125 0.109375 -0.96875 0.5q-0.421875 0.390625 -0.421875 1.078125q0 1.421875 2.375 1.421875l5.015625 0q1.8125 0 2.859375 0.78125q1.0625 0.765625 1.0625 2.140625q0 2.046875 -2.078125 3.578125q-2.0625 1.546875 -5.21875 1.546875q-3.15625 0 -4.96875 -1.171875q-1.8125 -1.171875 -1.8125 -2.953125q0 -1.171875 0.6875 -1.90625q0.703125 -0.71875 1.828125 -1.015625zm-0.40625 2.84375q0 1.015625 1.125 1.75q1.125 0.75 3.40625 0.75q2.28125 0 3.796875 -0.984375q1.53125 -0.984375 1.53125 -2.3125q0 -0.609375 -0.453125 -1.0625q-0.4375 -0.4375 -1.359375 -0.4375l-5.203125 0q-1.390625 0.046875 -2.125 0.65625q-0.71875 0.609375 -0.71875 1.640625zm7.9375 -10.984375q0 -1.390625 -0.84375 -2.265625q-0.828125 -0.875 -2.296875 -0.875q-1.46875 0 -2.3125 0.875q-0.828125 0.875 -0.828125 2.28125q0 1.40625 0.84375 2.3125q0.84375 0.90625 2.3125 0.90625q1.453125 0 2.28125 -0.921875q0.84375 -0.921875 0.84375 -2.3125zm11.451355 7.109375q2.671875 0 3.046875 -2.34375l2.1875 0q-0.296875 1.9375 -1.71875 3.015625q-1.421875 1.0625 -3.515625 1.0625q-2.59375 0 -4.21875 -1.84375q-1.625 -1.859375 -1.625 -4.9375q0 -3.078125 1.625 -4.90625q1.640625 -1.84375 4.359375 -1.84375q2.71875 0 4.046875 2.109375q1.34375 2.109375 0.9375 5.125l-8.828125 0q0 2.0 0.96875 3.28125q0.96875 1.28125 2.734375 1.28125zm1.5625 -9.765625q-0.625 -0.328125 -1.515625 -0.328125q-1.640625 0 -2.609375 1.125q-0.953125 1.125 -1.109375 2.796875l6.875 0q0 -2.703125 -1.640625 -3.59375zm9.759171 0.78125q1.265625 -2.8125 4.34375 -2.8125q1.671875 0 2.796875 0.828125q1.140625 0.828125 1.65625 2.28125q1.21875 -3.109375 4.515625 -3.109375q2.3125 0 3.578125 1.515625q1.28125 1.515625 1.28125 4.125l0 7.59375l-2.109375 0l0 -7.59375q0 -1.859375 -0.875 -2.796875q-0.875 -0.953125 -2.53125 -0.953125q-1.640625 0 -2.546875 1.359375q-0.90625 1.34375 -0.90625 3.71875l0 6.265625l-2.109375 0l0 -7.59375q0 -1.859375 -0.875 -2.796875q-0.875 -0.953125 -2.5 -0.953125q-1.609375 0 -2.609375 1.328125q-1.0 1.328125 -1.0625 3.671875l0 6.34375l-2.125 0l0 -12.90625l1.828125 0l0.25 2.484375zm27.329758 8.984375q2.671875 0 3.046875 -2.34375l2.1875 0q-0.296875 1.9375 -1.71875 3.015625q-1.421875 1.0625 -3.515625 1.0625q-2.59375 0 -4.21875 -1.84375q-1.625 -1.859375 -1.625 -4.9375q0 -3.078125 1.625 -4.90625q1.640625 -1.84375 4.359375 -1.84375q2.71875 0 4.046875 2.109375q1.34375 2.109375 0.9375 5.125l-8.828125 0q0 2.0 0.96875 3.28125q0.96875 1.28125 2.734375 1.28125zm1.5625 -9.765625q-0.625 -0.328125 -1.515625 -0.328125q-1.640625 0 -2.609375 1.125q-0.953125 1.125 -1.109375 2.796875l6.875 0q0 -2.703125 -1.640625 -3.59375zm9.759171 0.78125q1.265625 -2.8125 4.34375 -2.8125q2.296875 0 3.578125 1.515625q1.28125 1.515625 1.28125 4.125l0 7.59375l-2.109375 0l0 -7.59375q0 -1.859375 -0.875 -2.796875q-0.875 -0.953125 -2.5 -0.953125q-1.609375 0 -2.609375 1.328125q-1.0 1.328125 -1.0625 3.671875l0 6.34375l-2.125 0l0 -12.90625l1.828125 0l0.25 2.484375zm20.77678 10.046875q-2.328125 1.078125 -4.25 0.453125q-1.375 -0.421875 -1.9375 -1.8125q-0.296875 -0.671875 -0.296875 -1.609375l0 -7.9375l-2.078125 0l0 -1.625l2.078125 0l0 -3.59375l2.109375 0l0 3.59375l4.046875 0l0 1.625l-4.046875 0l0 7.90625q0 1.96875 1.828125 1.96875q1.0 0 2.25 -0.484375l0.296875 1.515625z" fill-rule="nonzero"></path><path fill="#666666" d="m123.33432 424.56885q0 -1.75 -0.734375 -2.5q-0.71875 -0.765625 -2.109375 -0.765625q-1.390625 0 -2.25 0.5625q-0.84375 0.546875 -0.84375 1.734375l-2.34375 0q0 -2.96875 3.171875 -3.671875q0.984375 -0.21875 2.109375 -0.21875q2.40625 0 3.75 1.21875q1.359375 1.21875 1.359375 3.703125l0 8.3125l-1.84375 0l-0.21875 -2.15625q-1.1875 2.453125 -4.28125 2.453125q-2.078125 0 -3.34375 -1.15625q-1.25 -1.171875 -1.25 -2.890625q0 -1.734375 1.390625 -2.703125q1.390625 -0.96875 3.46875 -0.96875q2.078125 0 3.96875 0.703125l0 -1.65625zm0 3.0q-1.921875 -0.53125 -3.359375 -0.53125q-1.421875 0 -2.3125 0.515625q-0.890625 0.5 -0.890625 1.609375q0 2.4375 2.75 2.4375q1.578125 0 2.6875 -1.125q1.125 -1.125 1.125 -2.90625zm8.989944 -5.046875q1.265625 -2.8125 4.34375 -2.8125q2.296875 0 3.578125 1.515625q1.28125 1.515625 1.28125 4.125l0 7.59375l-2.109375 0l0 -7.59375q0 -1.859375 -0.875 -2.796875q-0.875 -0.953125 -2.5 -0.953125q-1.609375 0 -2.609375 1.328125q-1.0 1.328125 -1.0625 3.671875l0 6.34375l-2.125 0l0 -12.90625l1.828125 0l0.25 2.484375zm22.46428 -0.5625l0 -7.40625l2.109375 0l0 18.390625l-1.71875 0l-0.28125 -2.15625q-0.609375 1.21875 -1.640625 1.84375q-1.03125 0.609375 -2.25 0.609375q-2.453125 0 -4.109375 -1.890625q-1.65625 -1.890625 -1.65625 -4.921875q0 -3.046875 1.625 -4.875q1.640625 -1.84375 4.125 -1.84375q2.5 0 3.796875 2.25zm-3.671875 -0.359375q-1.5625 0 -2.625 1.328125q-1.0625 1.328125 -1.0625 3.546875q0 2.203125 1.078125 3.546875q1.078125 1.328125 2.578125 1.328125q1.515625 0 2.578125 -1.015625q1.078125 -1.015625 1.125 -2.703125l0 -2.109375q0 -1.8125 -1.046875 -2.859375q-1.046875 -1.0625 -2.625 -1.0625zm17.412292 -5.640625l4.859375 14.28125l4.875 -14.28125l2.25 0l-6.03125 16.984375l-2.203125 0l-6.0 -16.984375l2.25 0zm22.99179 8.609375q0 -1.75 -0.734375 -2.5q-0.71875 -0.765625 -2.109375 -0.765625q-1.390625 0 -2.25 0.5625q-0.84375 0.546875 -0.84375 1.734375l-2.34375 0q0 -2.96875 3.171875 -3.671875q0.984375 -0.21875 2.109375 -0.21875q2.40625 0 3.75 1.21875q1.359375 1.21875 1.359375 3.703125l0 8.3125l-1.84375 0l-0.21875 -2.15625q-1.1875 2.453125 -4.28125 2.453125q-2.078125 0 -3.34375 -1.15625q-1.25 -1.171875 -1.25 -2.890625q0 -1.734375 1.390625 -2.703125q1.390625 -0.96875 3.46875 -0.96875q2.078125 0 3.96875 0.703125l0 -1.65625zm0 3.0q-1.921875 -0.53125 -3.359375 -0.53125q-1.421875 0 -2.3125 0.515625q-0.890625 0.5 -0.890625 1.609375q0 2.4375 2.75 2.4375q1.578125 0 2.6875 -1.125q1.125 -1.125 1.125 -2.90625zm6.9430847 -13.015625l2.125 0l0 18.390625l-2.125 0l0 -18.390625zm16.22934 15.828125q-1.328125 2.8125 -4.296875 2.8125q-2.1875 0 -3.53125 -1.21875q-1.328125 -1.21875 -1.328125 -3.75l0 -8.21875l2.140625 0l0 8.046875q0 3.265625 3.015625 3.265625q1.765625 0 2.859375 -1.34375q1.09375 -1.34375 1.140625 -3.453125l0 -6.515625l2.140625 0l0 12.9375l-2.140625 0l0 -2.5625zm11.8411255 1.125q2.671875 0 3.046875 -2.34375l2.1875 0q-0.296875 1.9375 -1.71875 3.015625q-1.421875 1.0625 -3.515625 1.0625q-2.59375 0 -4.21875 -1.84375q-1.625 -1.859375 -1.625 -4.9375q0 -3.078125 1.625 -4.90625q1.640625 -1.84375 4.359375 -1.84375q2.71875 0 4.046875 2.109375q1.34375 2.109375 0.9375 5.125l-8.828125 0q0 2.0 0.96875 3.28125q0.96875 1.28125 2.734375 1.28125zm1.5625 -9.765625q-0.625 -0.328125 -1.515625 -0.328125q-1.640625 0 -2.609375 1.125q-0.953125 1.125 -1.109375 2.796875l6.875 0q0 -2.703125 -1.640625 -3.59375z" fill-rule="nonzero"></path><path fill="#666666" d="m110.76244 447.95947q2.8125 0 4.28125 1.421875q1.46875 1.421875 1.46875 3.828125q0 2.390625 -1.46875 3.78125q-1.46875 1.390625 -4.28125 1.390625l-3.34375 0l0 6.5625l-2.140625 0l0 -16.984375l5.484375 0zm0 8.59375q1.75 0 2.65625 -0.890625q0.90625 -0.890625 0.90625 -2.4375q0 -1.5625 -0.90625 -2.484375q-0.90625 -0.9375 -2.65625 -0.9375l-3.34375 0l0 6.75l3.34375 0zm14.595627 -2.703125q-3.046875 0 -3.15625 4.796875l0 6.296875l-2.125 0l0 -12.9375l2.125 0l0 2.484375q0.984375 -2.703125 3.4375 -2.703125q0.78125 0 1.484375 0.25l-0.109375 2.078125q-0.8125 -0.265625 -1.65625 -0.265625zm9.546623 -2.140625q2.703125 0 4.359375 1.765625q1.65625 1.75 1.65625 5.015625q0 3.234375 -1.65625 5.0q-1.65625 1.75 -4.359375 1.75q-2.703125 0 -4.375 -1.75q-1.65625 -1.765625 -1.65625 -5.0q0 -3.265625 1.65625 -5.015625q1.671875 -1.765625 4.375 -1.765625zm3.859375 6.765625q0 -2.3125 -0.984375 -3.609375q-0.96875 -1.3125 -2.84375 -1.3125q-1.875 0 -2.875 1.3125q-1.0 1.296875 -1.0 3.609375q0 2.3125 0.9375 3.625q0.953125 1.3125 2.828125 1.3125q1.890625 0 2.90625 -1.3125q1.03125 -1.3125 1.03125 -3.625zm8.038635 -4.46875q1.28125 -2.296875 3.796875 -2.296875q2.53125 0 4.21875 1.875q1.6875 1.859375 1.6875 4.90625q0 3.046875 -1.703125 4.90625q-1.703125 1.84375 -4.1875 1.84375q-2.484375 0 -3.671875 -1.859375l0 7.90625l-2.125 0l0 -19.25l1.75 0l0.234375 1.96875zm3.703125 9.34375q1.515625 0 2.65625 -1.296875q1.15625 -1.296875 1.15625 -3.546875q0 -2.25 -1.09375 -3.578125q-1.09375 -1.328125 -2.671875 -1.328125q-1.5625 0 -2.5625 0.984375q-1.0 0.984375 -1.046875 2.671875l0 2.453125q0 1.703125 1.015625 2.671875q1.03125 0.96875 2.546875 0.96875zm14.7868805 -11.640625q2.703125 0 4.359375 1.765625q1.65625 1.75 1.65625 5.015625q0 3.234375 -1.65625 5.0q-1.65625 1.75 -4.359375 1.75q-2.703125 0 -4.375 -1.75q-1.65625 -1.765625 -1.65625 -5.0q0 -3.265625 1.65625 -5.015625q1.671875 -1.765625 4.375 -1.765625zm3.859375 6.765625q0 -2.3125 -0.984375 -3.609375q-0.96875 -1.3125 -2.84375 -1.3125q-1.875 0 -2.875 1.3125q-1.0 1.296875 -1.0 3.609375q0 2.3125 0.9375 3.625q0.953125 1.3125 2.828125 1.3125q1.890625 0 2.90625 -1.3125q1.03125 -1.3125 1.03125 -3.625zm5.3667603 -3.28125q0 -1.59375 1.359375 -2.53125q1.375 -0.953125 3.6875 -0.953125q2.328125 0 3.640625 0.984375q1.3125 0.96875 1.359375 2.453125l-2.078125 0q-0.234375 -1.765625 -2.96875 -1.765625q-1.328125 0 -2.046875 0.59375q-0.703125 0.59375 -0.703125 1.296875q0 0.6875 0.53125 1.15625q0.546875 0.46875 1.734375 0.828125l2.59375 0.859375q1.640625 0.515625 2.515625 1.3125q0.890625 0.796875 0.890625 2.1875q0 1.390625 -1.4375 2.515625q-1.4375 1.109375 -4.0 1.109375q-2.5625 0 -4.0 -1.140625q-1.421875 -1.15625 -1.5 -2.96875l2.046875 0q0.046875 1.21875 0.984375 1.828125q0.9375 0.609375 2.328125 0.609375q1.40625 0 2.328125 -0.59375q0.921875 -0.59375 0.921875 -1.421875q0 -0.828125 -0.546875 -1.25q-0.53125 -0.4375 -1.75 -0.765625l-2.515625 -0.828125q-3.375 -1.0 -3.375 -3.515625zm14.833633 -3.1875l2.140625 0l0 12.9375l-2.140625 0l0 -12.9375zm1.046875 -3.015625q-0.640625 0 -1.015625 -0.359375q-0.359375 -0.375 -0.359375 -0.984375q0 -0.609375 0.359375 -0.96875q0.375 -0.359375 1.015625 -0.359375q0.65625 0 1.046875 0.359375q0.390625 0.359375 0.390625 0.96875q0 0.609375 -0.390625 0.984375q-0.390625 0.359375 -1.046875 0.359375zm13.548309 15.578125q-2.328125 1.078125 -4.25 0.453125q-1.375 -0.421875 -1.9375 -1.8125q-0.296875 -0.671875 -0.296875 -1.609375l0 -7.9375l-2.078125 0l0 -1.625l2.078125 0l0 -3.59375l2.109375 0l0 3.59375l4.046875 0l0 1.625l-4.046875 0l0 7.90625q0 1.96875 1.828125 1.96875q1.0 0 2.25 -0.484375l0.296875 1.515625zm3.3977203 -12.5625l2.140625 0l0 12.9375l-2.140625 0l0 -12.9375zm1.046875 -3.015625q-0.640625 0 -1.015625 -0.359375q-0.359375 -0.375 -0.359375 -0.984375q0 -0.609375 0.359375 -0.96875q0.375 -0.359375 1.015625 -0.359375q0.65625 0 1.046875 0.359375q0.390625 0.359375 0.390625 0.96875q0 0.609375 -0.390625 0.984375q-0.390625 0.359375 -1.046875 0.359375zm11.438934 2.71875q2.703125 0 4.359375 1.765625q1.65625 1.75 1.65625 5.015625q0 3.234375 -1.65625 5.0q-1.65625 1.75 -4.359375 1.75q-2.703125 0 -4.375 -1.75q-1.65625 -1.765625 -1.65625 -5.0q0 -3.265625 1.65625 -5.015625q1.671875 -1.765625 4.375 -1.765625zm3.859375 6.765625q0 -2.3125 -0.984375 -3.609375q-0.96875 -1.3125 -2.84375 -1.3125q-1.875 0 -2.875 1.3125q-1.0 1.296875 -1.0 3.609375q0 2.3125 0.9375 3.625q0.953125 1.3125 2.828125 1.3125q1.890625 0 2.90625 -1.3125q1.03125 -1.3125 1.03125 -3.625zm8.101135 -3.953125q1.265625 -2.8125 4.34375 -2.8125q2.296875 0 3.578125 1.515625q1.28125 1.515625 1.28125 4.125l0 7.59375l-2.109375 0l0 -7.59375q0 -1.859375 -0.875 -2.796875q-0.875 -0.953125 -2.5 -0.953125q-1.609375 0 -2.609375 1.328125q-1.0 1.328125 -1.0625 3.671875l0 6.34375l-2.125 0l0 -12.90625l1.828125 0l0.25 2.484375z" fill-rule="nonzero"></path><path fill="#000000" fill-opacity="0.0" d="m294.0866 168.34383l219.93701 0l0 237.38582l-219.93701 0z" fill-rule="evenodd"></path><path fill="#ffffff" d="m331.13812 193.4282l4.796875 10.421875l4.8125 -10.421875l4.40625 0l0 17.515625l-3.21875 0l0 -13.3125l-4.96875 11.390625l-2.078125 0l-5.125 -11.765625l0 13.6875l-3.1875 0l0 -17.515625l4.5625 0zm23.891235 4.046875q1.3125 0 2.46875 0.421875q1.171875 0.40625 2.015625 1.28125q1.859375 1.890625 1.859375 5.234375q0 3.296875 -1.859375 5.1875q-1.6875 1.71875 -4.484375 1.71875q-2.8125 0 -4.546875 -1.71875q-1.859375 -1.875 -1.859375 -5.1875q0 -3.375 1.859375 -5.234375q1.703125 -1.703125 4.546875 -1.703125zm3.15625 6.90625q0 -2.078125 -0.8125 -3.109375q-0.8125 -1.046875 -2.265625 -1.046875q-1.4375 0 -2.359375 1.046875q-0.90625 1.03125 -0.90625 3.109375q0 2.078125 0.8125 3.125q0.828125 1.03125 2.265625 1.03125q1.421875 0 2.34375 -1.03125q0.921875 -1.046875 0.921875 -3.125zm11.337372 -10.953125l4.796875 10.421875l4.8125 -10.421875l4.40625 0l0 17.515625l-3.21875 0l0 -13.3125l-4.96875 11.390625l-2.078125 0l-5.125 -11.765625l0 13.6875l-3.1875 0l0 -17.515625l4.5625 0zm36.21335 14.734375q-1.125 3.15625 -4.34375 3.15625q-3.296875 0 -5.421875 -2.484375q-2.21875 -2.5625 -2.21875 -6.5625q0 -4.203125 2.375 -6.75q2.296875 -2.453125 5.921875 -2.453125q2.453125 0 4.109375 1.078125q1.671875 1.0625 2.609375 3.34375l-3.265625 0.765625q-1.4375 -2.296875 -3.625 -2.296875q-2.0 0 -3.3125 1.703125q-1.375 1.71875 -1.375 4.609375q0 2.734375 1.234375 4.4375q1.21875 1.671875 3.25 1.671875q1.71875 0 2.828125 -1.109375q1.140625 -1.140625 1.140625 -3.109375l0 -0.109375l-3.953125 -0.078125l0 -2.046875l7.0 0l0 9.015625l-2.59375 0l-0.359375 -2.78125zm10.499359 -7.75q1.1875 -2.828125 3.5625 -2.828125q0.453125 0 1.15625 0.1875l-0.046875 3.1875q-0.765625 -0.171875 -1.484375 -0.171875q-3.1875 0 -3.1875 4.40625l0 5.75l-3.1875 0l0 -13.15625l3.1875 0l0 2.625zm13.057709 -2.9375q1.3125 0 2.46875 0.421875q1.171875 0.40625 2.015625 1.28125q1.859375 1.890625 1.859375 5.234375q0 3.296875 -1.859375 5.1875q-1.6875 1.71875 -4.484375 1.71875q-2.8125 0 -4.546875 -1.71875q-1.859375 -1.875 -1.859375 -5.1875q0 -3.375 1.859375 -5.234375q1.703125 -1.703125 4.546875 -1.703125zm3.15625 6.90625q0 -2.078125 -0.8125 -3.109375q-0.8125 -1.046875 -2.265625 -1.046875q-1.4375 0 -2.359375 1.046875q-0.90625 1.03125 -0.90625 3.109375q0 2.078125 0.8125 3.125q0.828125 1.03125 2.265625 1.03125q1.421875 0 2.34375 -1.03125q0.921875 -1.046875 0.921875 -3.125zm7.931122 -6.5625l2.640625 9.375l2.515625 -8.640625l2.890625 0l2.515625 8.671875l2.671875 -9.40625l3.1875 0l-4.328125 13.125l-3.125 0l-2.4375 -7.859375l-2.375 7.859375l-3.15625 0l-4.34375 -13.125l3.34375 0zm26.439758 12.796875q-1.78125 0.703125 -2.8125 0.703125q-1.015625 0 -1.796875 -0.25q-0.765625 -0.234375 -1.359375 -0.71875q-1.234375 -1.109375 -1.234375 -3.046875l0 -7.34375l-1.84375 0l0 -2.140625l1.84375 0l0 -3.453125l3.1875 0l0 3.453125l3.5625 0l0 2.140625l-3.5625 0l0 7.234375q0 1.609375 1.53125 1.609375q0.78125 0 2.03125 -0.421875l0.453125 2.234375zm6.32605 -10.65625q1.34375 -2.484375 3.9375 -2.484375q2.59375 0 3.8125 1.59375q1.234375 1.59375 1.234375 4.203125l0 7.671875l-3.1875 0l0 -7.671875q0 -1.453125 -0.703125 -2.1875q-0.703125 -0.75 -1.96875 -0.75q-1.265625 0 -2.171875 1.140625q-0.90625 1.125 -0.953125 3.390625l0 6.078125l-3.1875 0l0 -18.515625l3.1875 0l0 7.53125z" fill-rule="nonzero"></path><path fill="#ffffff" d="m390.89102 230.78758q0 1.875 -1.0625 3.203125q-1.046875 1.3125 -3.015625 1.828125l4.6875 7.125l-4.15625 0l-3.859375 -6.828125l-2.421875 0l0 6.828125l-3.1875 0l0 -17.515625l6.46875 0q3.109375 0 4.84375 1.484375q1.703125 1.421875 1.703125 3.875zm-6.84375 3.1875q1.765625 0 2.65625 -0.796875q0.890625 -0.796875 0.890625 -2.09375q0 -1.3125 -0.8125 -2.109375q-0.8125 -0.796875 -2.4375 -0.796875l-3.28125 0l0 5.796875l2.984375 0zm15.30719 1.296875q1.5625 0 3.625 0.515625l0 -1.296875q0 -1.375 -0.5625 -2.03125q-0.546875 -0.671875 -1.8125 -0.671875q-1.25 0 -1.921875 0.5q-0.671875 0.5 -0.671875 1.421875l-3.484375 0q0 -2.234375 1.578125 -3.234375q1.578125 -1.0 4.40625 -1.0q4.0625 0 5.25 2.828125q0.40625 0.96875 0.40625 2.296875l0 8.34375l-2.78125 0l-0.25 -1.75q-1.265625 2.125 -3.890625 2.125q-2.53125 0 -3.9375 -1.234375q-1.296875 -1.1875 -1.296875 -3.015625q0 -1.828125 1.421875 -2.8125q1.4375 -0.984375 3.921875 -0.984375zm3.625 2.546875q-1.59375 -0.4375 -2.96875 -0.4375q-2.59375 0 -2.59375 1.734375q0 0.71875 0.59375 1.25q0.59375 0.53125 1.890625 0.53125q1.3125 0 2.15625 -0.875q0.859375 -0.890625 0.921875 -2.203125zm15.020325 4.796875q-1.78125 0.703125 -2.8125 0.703125q-1.015625 0 -1.796875 -0.25q-0.765625 -0.234375 -1.359375 -0.71875q-1.234375 -1.109375 -1.234375 -3.046875l0 -7.34375l-1.84375 0l0 -2.140625l1.84375 0l0 -3.453125l3.1875 0l0 3.453125l3.5625 0l0 2.140625l-3.5625 0l0 7.234375q0 1.609375 1.53125 1.609375q0.78125 0 2.03125 -0.421875l0.453125 2.234375zm12.279175 -11.234375q0.6875 0.875 1.015625 2.015625q0.34375 1.125 0.34375 2.078125q0 0.9375 -0.109375 1.6875l-8.484375 0q0.0625 1.59375 0.78125 2.59375q0.734375 1.0 2.21875 1.0q1.96875 0 2.359375 -1.734375l3.203125 0q-0.328125 1.984375 -1.8125 3.109375q-1.53125 1.1875 -3.75 1.1875q-2.59375 0 -4.34375 -1.890625q-1.8125 -1.96875 -1.8125 -5.046875q0 -3.15625 1.8125 -5.078125q1.734375 -1.828125 4.34375 -1.828125q2.734375 0 4.234375 1.90625zm-4.203125 0.625q-1.34375 0 -2.109375 0.875q-0.75 0.875 -0.890625 2.265625l5.59375 0q0 -2.140625 -1.359375 -2.875q-0.5 -0.265625 -1.234375 -0.265625z" fill-rule="nonzero"></path><path fill="#595959" d="m359.8496 313.01697q-0.515625 -2.71875 -3.84375 -2.71875q-1.625 0 -2.546875 0.65625q-0.90625 0.65625 -0.90625 1.59375q0 0.921875 0.59375 1.453125q0.59375 0.53125 1.84375 0.96875l4.5 1.765625q2.3125 0.890625 3.5625 2.25q1.25 1.359375 1.25 3.421875q0 2.8125 -2.125 4.46875q-2.109375 1.640625 -6.015625 1.640625q-3.453125 0 -5.59375 -1.703125q-2.40625 -1.859375 -2.53125 -5.25l3.75 0q0 2.5625 2.65625 3.234375q0.796875 0.21875 2.109375 0.21875q1.3125 0 2.421875 -0.65625q1.125 -0.65625 1.125 -1.75q0 -1.109375 -0.609375 -1.703125q-0.609375 -0.59375 -1.984375 -1.09375l-4.125 -1.640625q-2.390625 -0.921875 -3.671875 -2.171875q-1.28125 -1.25 -1.28125 -3.453125q0 -2.59375 2.015625 -4.09375q2.046875 -1.578125 5.546875 -1.578125q3.5 0 5.40625 1.625q1.90625 1.609375 2.1875 4.515625l-3.734375 0zm13.275421 -5.71875l0 8.671875l9.0625 0l0 -8.671875l3.765625 0l0 20.765625l-3.765625 0l0 -8.796875l-9.0625 0l0 8.796875l-3.78125 0l0 -20.765625l3.78125 0zm26.779541 -0.421875q2.09375 0 3.8125 0.6875q1.734375 0.6875 2.984375 2.03125q2.625 2.828125 2.625 8.0625q0 5.28125 -2.625 8.171875q-2.5 2.6875 -6.828125 2.6875q-4.28125 0 -6.78125 -2.75q-2.625 -2.859375 -2.625 -8.109375q0 -5.3125 2.625 -8.125q2.46875 -2.65625 6.8125 -2.65625zm5.515625 10.84375q0 -3.578125 -1.5 -5.515625q-1.484375 -1.9375 -4.015625 -1.9375q-2.515625 0 -4.03125 1.9375q-1.5 1.9375 -1.5 5.515625q0 3.5625 1.5 5.46875q1.515625 1.90625 4.03125 1.90625q2.53125 0 4.015625 -1.90625q1.5 -1.90625 1.5 -5.46875zm10.262299 -10.421875l4.578125 15.78125l4.453125 -14.40625l2.5625 0l4.703125 14.46875l4.859375 -15.84375l4.25 0l-7.125 20.765625l-3.96875 0l-3.90625 -11.71875l-3.875 11.71875l-3.96875 0l-6.78125 -20.765625l4.21875 0zm39.94333 5.71875q-0.515625 -2.71875 -3.84375 -2.71875q-1.625 0 -2.546875 0.65625q-0.90625 0.65625 -0.90625 1.59375q0 0.921875 0.59375 1.453125q0.59375 0.53125 1.84375 0.96875l4.5 1.765625q2.3125 0.890625 3.5625 2.25q1.25 1.359375 1.25 3.421875q0 2.8125 -2.125 4.46875q-2.109375 1.640625 -6.015625 1.640625q-3.453125 0 -5.59375 -1.703125q-2.40625 -1.859375 -2.53125 -5.25l3.75 0q0 2.5625 2.65625 3.234375q0.796875 0.21875 2.109375 0.21875q1.3125 0 2.421875 -0.65625q1.125 -0.65625 1.125 -1.75q0 -1.109375 -0.609375 -1.703125q-0.609375 -0.59375 -1.984375 -1.09375l-4.125 -1.640625q-2.390625 -0.921875 -3.671875 -2.171875q-1.28125 -1.25 -1.28125 -3.453125q0 -2.59375 2.015625 -4.09375q2.046875 -1.578125 5.546875 -1.578125q3.5 0 5.40625 1.625q1.90625 1.609375 2.1875 4.515625l-3.734375 0z" fill-rule="nonzero"></path><path fill="#666666" d="m359.1816 351.95947l2.125 0l0 16.984375l-2.125 0l0 -16.984375zm9.51059 6.5625q1.265625 -2.8125 4.34375 -2.8125q2.296875 0 3.578125 1.515625q1.28125 1.515625 1.28125 4.125l0 7.59375l-2.109375 0l0 -7.59375q0 -1.859375 -0.875 -2.796875q-0.875 -0.953125 -2.5 -0.953125q-1.609375 0 -2.609375 1.328125q-1.0 1.328125 -1.0625 3.671875l0 6.34375l-2.125 0l0 -12.90625l1.828125 0l0.25 2.484375zm20.776794 10.046875q-2.328125 1.078125 -4.25 0.453125q-1.375 -0.421875 -1.9375 -1.8125q-0.296875 -0.671875 -0.296875 -1.609375l0 -7.9375l-2.078125 0l0 -1.625l2.078125 0l0 -3.59375l2.109375 0l0 3.59375l4.046875 0l0 1.625l-4.046875 0l0 7.90625q0 1.96875 1.828125 1.96875q1.0 0 2.25 -0.484375l0.296875 1.515625zm7.72583 -1.0625q2.671875 0 3.046875 -2.34375l2.1875 0q-0.296875 1.9375 -1.71875 3.015625q-1.421875 1.0625 -3.515625 1.0625q-2.59375 0 -4.21875 -1.84375q-1.625 -1.859375 -1.625 -4.9375q0 -3.078125 1.625 -4.90625q1.640625 -1.84375 4.359375 -1.84375q2.71875 0 4.046875 2.109375q1.34375 2.109375 0.9375 5.125l-8.828125 0q0 2.0 0.96875 3.28125q0.96875 1.28125 2.734375 1.28125zm1.5625 -9.765625q-0.625 -0.328125 -1.515625 -0.328125q-1.640625 0 -2.609375 1.125q-0.953125 1.125 -1.109375 2.796875l6.875 0q0 -2.703125 -1.640625 -3.59375zm12.962311 0.109375q-3.046875 0 -3.15625 4.796875l0 6.296875l-2.125 0l0 -12.9375l2.125 0l0 2.484375q0.984375 -2.703125 3.4375 -2.703125q0.78125 0 1.484375 0.25l-0.109375 2.078125q-0.8125 -0.265625 -1.65625 -0.265625zm9.3591 9.65625q2.671875 0 3.046875 -2.34375l2.1875 0q-0.296875 1.9375 -1.71875 3.015625q-1.421875 1.0625 -3.515625 1.0625q-2.59375 0 -4.21875 -1.84375q-1.625 -1.859375 -1.625 -4.9375q0 -3.078125 1.625 -4.90625q1.640625 -1.84375 4.359375 -1.84375q2.71875 0 4.046875 2.109375q1.34375 2.109375 0.9375 5.125l-8.828125 0q0 2.0 0.96875 3.28125q0.96875 1.28125 2.734375 1.28125zm1.5625 -9.765625q-0.625 -0.328125 -1.515625 -0.328125q-1.640625 0 -2.609375 1.125q-0.953125 1.125 -1.109375 2.796875l6.875 0q0 -2.703125 -1.640625 -3.59375zm7.024811 1.453125q0 -1.59375 1.359375 -2.53125q1.375 -0.953125 3.6875 -0.953125q2.328125 0 3.640625 0.984375q1.3125 0.96875 1.359375 2.453125l-2.078125 0q-0.234375 -1.765625 -2.96875 -1.765625q-1.328125 0 -2.046875 0.59375q-0.703125 0.59375 -0.703125 1.296875q0 0.6875 0.53125 1.15625q0.546875 0.46875 1.734375 0.828125l2.59375 0.859375q1.640625 0.515625 2.515625 1.3125q0.890625 0.796875 0.890625 2.1875q0 1.390625 -1.4375 2.515625q-1.4375 1.109375 -4.0 1.109375q-2.5625 0 -4.0 -1.140625q-1.421875 -1.15625 -1.5 -2.96875l2.046875 0q0.046875 1.21875 0.984375 1.828125q0.9375 0.609375 2.328125 0.609375q1.40625 0 2.328125 -0.59375q0.921875 -0.59375 0.921875 -1.421875q0 -0.828125 -0.546875 -1.25q-0.53125 -0.4375 -1.75 -0.765625l-2.515625 -0.828125q-3.375 -1.0 -3.375 -3.515625zm21.458618 9.375q-2.328125 1.078125 -4.25 0.453125q-1.375 -0.421875 -1.9375 -1.8125q-0.296875 -0.671875 -0.296875 -1.609375l0 -7.9375l-2.078125 0l0 -1.625l2.078125 0l0 -3.59375l2.109375 0l0 3.59375l4.046875 0l0 1.625l-4.046875 0l0 7.90625q0 1.96875 1.828125 1.96875q1.0 0 2.25 -0.484375l0.296875 1.515625z" fill-rule="nonzero"></path><path fill="#000000" fill-opacity="0.0" d="m525.2966 168.34383l219.93701 0l0 310.77167l-219.93701 0z" fill-rule="evenodd"></path><path fill="#ffffff" d="m557.04913 193.4282l7.71875 12.40625l0 -12.40625l3.1875 0l0 17.515625l-3.234375 0l-7.96875 -12.859375l0 12.859375l-3.1875 0l0 -17.515625l3.484375 0zm24.831177 5.953125q0.6875 0.875 1.015625 2.015625q0.34375 1.125 0.34375 2.078125q0 0.9375 -0.109375 1.6875l-8.484375 0q0.0625 1.59375 0.78125 2.59375q0.734375 1.0 2.21875 1.0q1.96875 0 2.359375 -1.734375l3.203125 0q-0.328125 1.984375 -1.8125 3.109375q-1.53125 1.1875 -3.75 1.1875q-2.59375 0 -4.34375 -1.890625q-1.8125 -1.96875 -1.8125 -5.046875q0 -3.15625 1.8125 -5.078125q1.734375 -1.828125 4.34375 -1.828125q2.734375 0 4.234375 1.90625zm-4.203125 0.625q-1.34375 0 -2.109375 0.875q-0.75 0.875 -0.890625 2.265625l5.59375 0q0 -2.140625 -1.359375 -2.875q-0.5 -0.265625 -1.234375 -0.265625zm16.580933 10.609375q-1.78125 0.703125 -2.8125 0.703125q-1.015625 0 -1.796875 -0.25q-0.765625 -0.234375 -1.359375 -0.71875q-1.234375 -1.109375 -1.234375 -3.046875l0 -7.34375l-1.84375 0l0 -2.140625l1.84375 0l0 -3.453125l3.1875 0l0 3.453125l3.5625 0l0 2.140625l-3.5625 0l0 7.234375q0 1.609375 1.53125 1.609375q0.78125 0 2.03125 -0.421875l0.453125 2.234375zm15.976257 -17.1875q2.96875 0 4.625 1.4375q1.671875 1.4375 1.671875 4.125q0 2.6875 -1.671875 4.140625q-1.65625 1.4375 -4.625 1.4375l-2.96875 0l0 6.375l-3.203125 0l0 -17.515625l6.171875 0zm0 8.359375q1.484375 0 2.234375 -0.78125q0.765625 -0.78125 0.765625 -2.0q0 -1.234375 -0.765625 -2.03125q-0.75 -0.796875 -2.234375 -0.796875l-2.96875 0l0 5.609375l2.96875 0zm12.580994 -1.375q1.1875 -2.828125 3.5625 -2.828125q0.453125 0 1.15625 0.1875l-0.046875 3.1875q-0.765625 -0.171875 -1.484375 -0.171875q-3.1875 0 -3.1875 4.40625l0 5.75l-3.1875 0l0 -13.15625l3.1875 0l0 2.625zm13.057739 -2.9375q1.3125 0 2.46875 0.421875q1.171875 0.40625 2.015625 1.28125q1.859375 1.890625 1.859375 5.234375q0 3.296875 -1.859375 5.1875q-1.6875 1.71875 -4.484375 1.71875q-2.8125 0 -4.546875 -1.71875q-1.859375 -1.875 -1.859375 -5.1875q0 -3.375 1.859375 -5.234375q1.703125 -1.703125 4.546875 -1.703125zm3.15625 6.90625q0 -2.078125 -0.8125 -3.109375q-0.8125 -1.046875 -2.265625 -1.046875q-1.4375 0 -2.359375 1.046875q-0.90625 1.03125 -0.90625 3.109375q0 2.078125 0.8125 3.125q0.828125 1.03125 2.265625 1.03125q1.421875 0 2.34375 -1.03125q0.921875 -1.046875 0.921875 -3.125zm18.431091 -4.078125q1.265625 -2.828125 4.453125 -2.828125q2.359375 0 3.65625 1.59375q1.234375 1.5 1.234375 4.203125l0 7.671875l-3.21875 0l0 -7.671875q0 -1.453125 -0.703125 -2.1875q-0.6875 -0.75 -1.96875 -0.75q-1.265625 0 -2.078125 1.109375q-0.8125 1.109375 -0.859375 3.34375l0 6.15625l-3.1875 0l0 -7.671875q0 -1.453125 -0.703125 -2.1875q-0.703125 -0.75 -1.96875 -0.75q-1.265625 0 -2.171875 1.140625q-0.90625 1.125 -0.953125 3.390625l0 6.078125l-3.1875 0l0 -13.125l2.78125 0l0.34375 2.265625q1.296875 -2.609375 4.15625 -2.609375q1.65625 0 2.75 0.75q1.09375 0.75 1.625 2.078125zm18.796692 -2.828125q1.3125 0 2.46875 0.421875q1.171875 0.40625 2.015625 1.28125q1.859375 1.890625 1.859375 5.234375q0 3.296875 -1.859375 5.1875q-1.6875 1.71875 -4.484375 1.71875q-2.8125 0 -4.546875 -1.71875q-1.859375 -1.875 -1.859375 -5.1875q0 -3.375 1.859375 -5.234375q1.703125 -1.703125 4.546875 -1.703125zm3.15625 6.90625q0 -2.078125 -0.8125 -3.109375q-0.8125 -1.046875 -2.265625 -1.046875q-1.4375 0 -2.359375 1.046875q-0.90625 1.03125 -0.90625 3.109375q0 2.078125 0.8125 3.125q0.828125 1.03125 2.265625 1.03125q1.421875 0 2.34375 -1.03125q0.921875 -1.046875 0.921875 -3.125zm14.165527 6.234375q-1.78125 0.703125 -2.8125 0.703125q-1.015625 0 -1.796875 -0.25q-0.765625 -0.234375 -1.359375 -0.71875q-1.234375 -1.109375 -1.234375 -3.046875l0 -7.34375l-1.84375 0l0 -2.140625l1.84375 0l0 -3.453125l3.1875 0l0 3.453125l3.5625 0l0 2.140625l-3.5625 0l0 7.234375q0 1.609375 1.53125 1.609375q0.78125 0 2.03125 -0.421875l0.453125 2.234375zm12.279175 -11.234375q0.6875 0.875 1.015625 2.015625q0.34375 1.125 0.34375 2.078125q0 0.9375 -0.109375 1.6875l-8.484375 0q0.0625 1.59375 0.78125 2.59375q0.734375 1.0 2.21875 1.0q1.96875 0 2.359375 -1.734375l3.203125 0q-0.328125 1.984375 -1.8125 3.109375q-1.53125 1.1875 -3.75 1.1875q-2.59375 0 -4.34375 -1.890625q-1.8125 -1.96875 -1.8125 -5.046875q0 -3.15625 1.8125 -5.078125q1.734375 -1.828125 4.34375 -1.828125q2.734375 0 4.234375 1.90625zm-4.203125 0.625q-1.34375 0 -2.109375 0.875q-0.75 0.875 -0.890625 2.265625l5.59375 0q0 -2.140625 -1.359375 -2.875q-0.5 -0.265625 -1.234375 -0.265625zm12.377747 0.40625q1.1875 -2.828125 3.5625 -2.828125q0.453125 0 1.15625 0.1875l-0.046875 3.1875q-0.765625 -0.171875 -1.484375 -0.171875q-3.1875 0 -3.1875 4.40625l0 5.75l-3.1875 0l0 -13.15625l3.1875 0l0 2.625z" fill-rule="nonzero"></path><path fill="#ffffff" d="m611.2646 230.25633q-0.4375 -2.296875 -3.234375 -2.296875q-1.390625 0 -2.15625 0.5625q-0.765625 0.546875 -0.765625 1.328125q0 0.78125 0.5 1.234375q0.5 0.4375 1.546875 0.8125l3.8125 1.484375q1.9375 0.765625 2.984375 1.921875q1.0625 1.140625 1.0625 2.859375q0 2.375 -1.78125 3.765625q-1.78125 1.390625 -5.078125 1.390625q-2.90625 0 -4.71875 -1.421875q-2.03125 -1.578125 -2.140625 -4.4375l3.15625 0q0 2.15625 2.25 2.734375q0.671875 0.1875 1.78125 0.1875q1.109375 0 2.046875 -0.546875q0.953125 -0.5625 0.953125 -1.484375q0 -0.9375 -0.515625 -1.4375q-0.515625 -0.5 -1.671875 -0.9375l-3.484375 -1.375q-2.03125 -0.78125 -3.109375 -1.828125q-1.078125 -1.0625 -1.078125 -2.921875q0 -2.1875 1.703125 -3.453125q1.734375 -1.328125 4.6875 -1.328125q2.953125 0 4.5625 1.375q1.609375 1.359375 1.84375 3.8125l-3.15625 0zm12.787903 -0.78125q1.25 0 2.234375 0.421875q0.984375 0.40625 1.65625 1.078125q1.359375 1.296875 1.59375 3.28125l-3.203125 0.078125q-0.21875 -0.875 -0.8125 -1.4375q-0.578125 -0.5625 -1.328125 -0.5625q-0.75 0 -1.296875 0.234375q-0.53125 0.21875 -0.9375 0.703125q-0.921875 1.140625 -0.921875 3.140625q0 2.0 0.859375 3.015625q0.859375 1.0 2.09375 1.0q1.234375 0 1.78125 -0.578125q0.5625 -0.578125 0.5625 -1.578125l3.203125 0q0 2.15625 -1.421875 3.59375q-1.46875 1.453125 -4.078125 1.453125q-2.59375 0 -4.359375 -1.890625q-1.859375 -2.015625 -1.859375 -5.046875q0 -3.1875 1.859375 -5.09375q1.765625 -1.8125 4.375 -1.8125zm14.299622 0q1.3125 0 2.46875 0.421875q1.171875 0.40625 2.015625 1.28125q1.859375 1.890625 1.859375 5.234375q0 3.296875 -1.859375 5.1875q-1.6875 1.71875 -4.484375 1.71875q-2.8125 0 -4.546875 -1.71875q-1.859375 -1.875 -1.859375 -5.1875q0 -3.375 1.859375 -5.234375q1.703125 -1.703125 4.546875 -1.703125zm3.15625 6.90625q0 -2.078125 -0.8125 -3.109375q-0.8125 -1.046875 -2.265625 -1.046875q-1.4375 0 -2.359375 1.046875q-0.90625 1.03125 -0.90625 3.109375q0 2.078125 0.8125 3.125q0.828125 1.03125 2.265625 1.03125q1.421875 0 2.34375 -1.03125q0.921875 -1.046875 0.921875 -3.125zm9.962402 -3.96875q1.1875 -2.828125 3.5625 -2.828125q0.453125 0 1.15625 0.1875l-0.046875 3.1875q-0.765625 -0.171875 -1.484375 -0.171875q-3.1875 0 -3.1875 4.40625l0 5.75l-3.1875 0l0 -13.15625l3.1875 0l0 2.625zm17.042053 -1.03125q0.6875 0.875 1.015625 2.015625q0.34375 1.125 0.34375 2.078125q0 0.9375 -0.109375 1.6875l-8.484375 0q0.0625 1.59375 0.78125 2.59375q0.734375 1.0 2.21875 1.0q1.96875 0 2.359375 -1.734375l3.203125 0q-0.328125 1.984375 -1.8125 3.109375q-1.53125 1.1875 -3.75 1.1875q-2.59375 0 -4.34375 -1.890625q-1.8125 -1.96875 -1.8125 -5.046875q0 -3.15625 1.8125 -5.078125q1.734375 -1.828125 4.34375 -1.828125q2.734375 0 4.234375 1.90625zm-4.203125 0.625q-1.34375 0 -2.109375 0.875q-0.75 0.875 -0.890625 2.265625l5.59375 0q0 -2.140625 -1.359375 -2.875q-0.5 -0.265625 -1.234375 -0.265625z" fill-rule="nonzero"></path><path fill="#595959" d="m609.0978 307.29822l3.78125 0l0 20.765625l-3.78125 0l0 -20.765625zm20.649902 5.71875q-0.515625 -2.71875 -3.84375 -2.71875q-1.625 0 -2.546875 0.65625q-0.90625 0.65625 -0.90625 1.59375q0 0.921875 0.59375 1.453125q0.59375 0.53125 1.84375 0.96875l4.5 1.765625q2.3125 0.890625 3.5625 2.25q1.25 1.359375 1.25 3.421875q0 2.8125 -2.125 4.46875q-2.109375 1.640625 -6.015625 1.640625q-3.453125 0 -5.59375 -1.703125q-2.40625 -1.859375 -2.53125 -5.25l3.75 0q0 2.5625 2.65625 3.234375q0.796875 0.21875 2.109375 0.21875q1.3125 0 2.421875 -0.65625q1.125 -0.65625 1.125 -1.75q0 -1.109375 -0.609375 -1.703125q-0.609375 -0.59375 -1.984375 -1.09375l-4.125 -1.640625q-2.390625 -0.921875 -3.671875 -2.171875q-1.28125 -1.25 -1.28125 -3.453125q0 -2.59375 2.015625 -4.09375q2.046875 -1.578125 5.546875 -1.578125q3.5 0 5.40625 1.625q1.90625 1.609375 2.1875 4.515625l-3.734375 0zm22.40271 -5.71875l4.734375 0l6.8125 20.765625l-4.0 0l-1.4375 -4.484375l-7.71875 0l-1.46875 4.484375l-4.0 0l7.078125 -20.765625zm-0.640625 13.4375l5.8125 0l-2.875 -8.921875l-2.9375 8.921875z" fill-rule="nonzero"></path><path fill="#666666" d="m592.0901 367.08447l7.5625 0l0 1.859375l-9.6875 0l0 -16.984375l2.125 0l0 15.125zm14.803223 0.421875q2.671875 0 3.046875 -2.34375l2.1875 0q-0.296875 1.9375 -1.71875 3.015625q-1.421875 1.0625 -3.515625 1.0625q-2.59375 0 -4.21875 -1.84375q-1.625 -1.859375 -1.625 -4.9375q0 -3.078125 1.625 -4.90625q1.640625 -1.84375 4.359375 -1.84375q2.71875 0 4.046875 2.109375q1.34375 2.109375 0.9375 5.125l-8.828125 0q0 2.0 0.96875 3.28125q0.96875 1.28125 2.734375 1.28125zm1.5625 -9.765625q-0.625 -0.328125 -1.515625 -0.328125q-1.640625 0 -2.609375 1.125q-0.953125 1.125 -1.109375 2.796875l6.875 0q0 -2.703125 -1.640625 -3.59375zm15.696655 2.828125q0 -1.75 -0.734375 -2.5q-0.71875 -0.765625 -2.109375 -0.765625q-1.390625 0 -2.25 0.5625q-0.84375 0.546875 -0.84375 1.734375l-2.34375 0q0 -2.96875 3.171875 -3.671875q0.984375 -0.21875 2.109375 -0.21875q2.40625 0 3.75 1.21875q1.359375 1.21875 1.359375 3.703125l0 8.3125l-1.84375 0l-0.21875 -2.15625q-1.1875 2.453125 -4.28125 2.453125q-2.078125 0 -3.34375 -1.15625q-1.25 -1.171875 -1.25 -2.890625q0 -1.734375 1.390625 -2.703125q1.390625 -0.96875 3.46875 -0.96875q2.078125 0 3.96875 0.703125l0 -1.65625zm0 3.0q-1.921875 -0.53125 -3.359375 -0.53125q-1.421875 0 -2.3125 0.515625q-0.890625 0.5 -0.890625 1.609375q0 2.4375 2.75 2.4375q1.578125 0 2.6875 -1.125q1.125 -1.125 1.125 -2.90625zm15.380554 -5.609375l0 -7.40625l2.109375 0l0 18.390625l-1.71875 0l-0.28125 -2.15625q-0.609375 1.21875 -1.640625 1.84375q-1.03125 0.609375 -2.25 0.609375q-2.453125 0 -4.109375 -1.890625q-1.65625 -1.890625 -1.65625 -4.921875q0 -3.046875 1.625 -4.875q1.640625 -1.84375 4.125 -1.84375q2.5 0 3.796875 2.25zm-3.671875 -0.359375q-1.5625 0 -2.625 1.328125q-1.0625 1.328125 -1.0625 3.546875q0 2.203125 1.078125 3.546875q1.078125 1.328125 2.578125 1.328125q1.515625 0 2.578125 -1.015625q1.078125 -1.015625 1.125 -2.703125l0 -2.109375q0 -1.8125 -1.046875 -2.859375q-1.046875 -1.0625 -2.625 -1.0625zm11.193115 -1.59375l2.140625 0l0 12.9375l-2.140625 0l0 -12.9375zm1.046875 -3.015625q-0.640625 0 -1.015625 -0.359375q-0.359375 -0.375 -0.359375 -0.984375q0 -0.609375 0.359375 -0.96875q0.375 -0.359375 1.015625 -0.359375q0.65625 0 1.046875 0.359375q0.390625 0.359375 0.390625 0.96875q0 0.609375 -0.390625 0.984375q-0.390625 0.359375 -1.046875 0.359375zm8.845215 5.53125q1.265625 -2.8125 4.34375 -2.8125q2.296875 0 3.578125 1.515625q1.28125 1.515625 1.28125 4.125l0 7.59375l-2.109375 0l0 -7.59375q0 -1.859375 -0.875 -2.796875q-0.875 -0.953125 -2.5 -0.953125q-1.609375 0 -2.609375 1.328125q-1.0 1.328125 -1.0625 3.671875l0 6.34375l-2.125 0l0 -12.90625l1.828125 0l0.25 2.484375zm14.558044 10.015625q-1.625 -0.78125 -1.625 -2.40625q0 -0.828125 0.640625 -1.453125q0.640625 -0.640625 1.578125 -0.859375q-1.453125 -1.296875 -1.453125 -3.40625q0 -2.109375 1.5 -3.40625q1.5 -1.296875 3.546875 -1.296875q2.046875 0 3.484375 0.96875q0.1875 -1.421875 1.140625 -2.28125q0.96875 -0.875 2.53125 -0.875l-0.1875 2.109375q-2.375 0 -2.484375 2.0q0.9375 1.15625 0.9375 2.78125q0 2.078125 -1.5 3.421875q-1.5 1.328125 -3.734375 1.328125q-1.53125 0 -2.734375 -0.625q-0.53125 0.109375 -0.96875 0.5q-0.421875 0.390625 -0.421875 1.078125q0 1.421875 2.375 1.421875l5.015625 0q1.8125 0 2.859375 0.78125q1.0625 0.765625 1.0625 2.140625q0 2.046875 -2.078125 3.578125q-2.0625 1.546875 -5.21875 1.546875q-3.15625 0 -4.96875 -1.171875q-1.8125 -1.171875 -1.8125 -2.953125q0 -1.171875 0.6875 -1.90625q0.703125 -0.71875 1.828125 -1.015625zm-0.40625 2.84375q0 1.015625 1.125 1.75q1.125 0.75 3.40625 0.75q2.28125 0 3.796875 -0.984375q1.53125 -0.984375 1.53125 -2.3125q0 -0.609375 -0.453125 -1.0625q-0.4375 -0.4375 -1.359375 -0.4375l-5.203125 0q-1.390625 0.046875 -2.125 0.65625q-0.71875 0.609375 -0.71875 1.640625zm7.9375 -10.984375q0 -1.390625 -0.84375 -2.265625q-0.828125 -0.875 -2.296875 -0.875q-1.46875 0 -2.3125 0.875q-0.828125 0.875 -0.828125 2.28125q0 1.40625 0.84375 2.3125q0.84375 0.90625 2.3125 0.90625q1.453125 0 2.28125 -0.921875q0.84375 -0.921875 0.84375 -2.3125z" fill-rule="nonzero"></path><path fill="#666666" d="m582.63464 383.95947l2.125 0l0 16.984375l-2.125 0l0 -16.984375zm9.51062 6.5625q1.265625 -2.8125 4.34375 -2.8125q2.296875 0 3.578125 1.515625q1.28125 1.515625 1.28125 4.125l0 7.59375l-2.109375 0l0 -7.59375q0 -1.859375 -0.875 -2.796875q-0.875 -0.953125 -2.5 -0.953125q-1.609375 0 -2.609375 1.328125q-1.0 1.328125 -1.0625 3.671875l0 6.34375l-2.125 0l0 -12.90625l1.828125 0l0.25 2.484375zm22.464233 -0.5625l0 -7.40625l2.109375 0l0 18.390625l-1.71875 0l-0.28125 -2.15625q-0.609375 1.21875 -1.640625 1.84375q-1.03125 0.609375 -2.25 0.609375q-2.453125 0 -4.109375 -1.890625q-1.65625 -1.890625 -1.65625 -4.921875q0 -3.046875 1.625 -4.875q1.640625 -1.84375 4.125 -1.84375q2.5 0 3.796875 2.25zm-3.671875 -0.359375q-1.5625 0 -2.625 1.328125q-1.0625 1.328125 -1.0625 3.546875q0 2.203125 1.078125 3.546875q1.078125 1.328125 2.578125 1.328125q1.515625 0 2.578125 -1.015625q1.078125 -1.015625 1.125 -2.703125l0 -2.109375q0 -1.8125 -1.046875 -2.859375q-1.046875 -1.0625 -2.625 -1.0625zm11.193176 -1.59375l2.140625 0l0 12.9375l-2.140625 0l0 -12.9375zm1.046875 -3.015625q-0.640625 0 -1.015625 -0.359375q-0.359375 -0.375 -0.359375 -0.984375q0 -0.609375 0.359375 -0.96875q0.375 -0.359375 1.015625 -0.359375q0.65625 0 1.046875 0.359375q0.390625 0.359375 0.390625 0.96875q0 0.609375 -0.390625 0.984375q-0.390625 0.359375 -1.046875 0.359375zm11.095154 2.71875q2.28125 0 3.625 1.1875q1.359375 1.171875 1.765625 2.921875l-2.15625 0.1875q-0.359375 -1.140625 -1.140625 -1.765625q-0.78125 -0.640625 -1.734375 -0.640625q-1.71875 0 -2.796875 1.296875q-1.0625 1.296875 -1.0625 3.53125q0 2.21875 1.03125 3.578125q1.046875 1.34375 2.59375 1.34375q1.5625 0 2.328125 -0.71875q0.78125 -0.71875 0.78125 -2.03125l2.1875 0q0 2.078125 -1.453125 3.359375q-1.4375 1.28125 -3.765625 1.28125q-2.453125 0 -4.171875 -1.859375q-1.71875 -1.859375 -1.71875 -4.953125q0 -3.09375 1.703125 -4.90625q1.703125 -1.8125 3.984375 -1.8125zm17.415405 4.859375q0 -1.75 -0.734375 -2.5q-0.71875 -0.765625 -2.109375 -0.765625q-1.390625 0 -2.25 0.5625q-0.84375 0.546875 -0.84375 1.734375l-2.34375 0q0 -2.96875 3.171875 -3.671875q0.984375 -0.21875 2.109375 -0.21875q2.40625 0 3.75 1.21875q1.359375 1.21875 1.359375 3.703125l0 8.3125l-1.84375 0l-0.21875 -2.15625q-1.1875 2.453125 -4.28125 2.453125q-2.078125 0 -3.34375 -1.15625q-1.25 -1.171875 -1.25 -2.890625q0 -1.734375 1.390625 -2.703125q1.390625 -0.96875 3.46875 -0.96875q2.078125 0 3.96875 0.703125l0 -1.65625zm0 3.0q-1.921875 -0.53125 -3.359375 -0.53125q-1.421875 0 -2.3125 0.515625q-0.890625 0.5 -0.890625 1.609375q0 2.4375 2.75 2.4375q1.578125 0 2.6875 -1.125q1.125 -1.125 1.125 -2.90625zm13.693115 5.0q-2.328125 1.078125 -4.25 0.453125q-1.375 -0.421875 -1.9375 -1.8125q-0.296875 -0.671875 -0.296875 -1.609375l0 -7.9375l-2.078125 0l0 -1.625l2.078125 0l0 -3.59375l2.109375 0l0 3.59375l4.046875 0l0 1.625l-4.046875 0l0 7.90625q0 1.96875 1.828125 1.96875q1.0 0 2.25 -0.484375l0.296875 1.515625zm7.91333 -12.859375q2.703125 0 4.359375 1.765625q1.65625 1.75 1.65625 5.015625q0 3.234375 -1.65625 5.0q-1.65625 1.75 -4.359375 1.75q-2.703125 0 -4.375 -1.75q-1.65625 -1.765625 -1.65625 -5.0q0 -3.265625 1.65625 -5.015625q1.671875 -1.765625 4.375 -1.765625zm3.859375 6.765625q0 -2.3125 -0.984375 -3.609375q-0.96875 -1.3125 -2.84375 -1.3125q-1.875 0 -2.875 1.3125q-1.0 1.296875 -1.0 3.609375q0 2.3125 0.9375 3.625q0.953125 1.3125 2.828125 1.3125q1.890625 0 2.90625 -1.3125q1.03125 -1.3125 1.03125 -3.625zm11.30426 -4.625q-3.046875 0 -3.15625 4.796875l0 6.296875l-2.125 0l0 -12.9375l2.125 0l0 2.484375q0.984375 -2.703125 3.4375 -2.703125q0.78125 0 1.484375 0.25l-0.109375 2.078125q-0.8125 -0.265625 -1.65625 -0.265625z" fill-rule="nonzero"></path><path fill="#000000" fill-opacity="0.0" d="m286.0866 287.03674l2.015747 201.82678" fill-rule="evenodd"></path><path stroke="#666666" stroke-width="1.0" stroke-linejoin="round" stroke-linecap="butt" stroke-dasharray="1.0,3.0" d="m286.0866 287.03674l2.015747 201.82678" fill-rule="evenodd"></path><path fill="#000000" fill-opacity="0.0" d="m518.65094 287.03674l2.015747 201.82678" fill-rule="evenodd"></path><path stroke="#666666" stroke-width="1.0" stroke-linejoin="round" stroke-linecap="butt" stroke-dasharray="1.0,3.0" d="m518.65094 287.03674l2.015747 201.82678" fill-rule="evenodd"></path></g></svg>

