<?xml version="1.0" encoding="utf-8"?>
<!-- Generator: Adobe Illustrator 20.1.0, SVG Export Plug-In . SVG Version: 6.00 Build 0)  -->
<svg version="1.1" id="Layer_1" xmlns="http://www.w3.org/2000/svg" xmlns:xlink="http://www.w3.org/1999/xlink" x="0px" y="0px"
	 viewBox="0 0 709 488" style="enable-background:new 0 0 709 488;" xml:space="preserve">
<style type="text/css">
	.st0{opacity:0.4;fill:url(#SVGID_1_);enable-background:new    ;}
	.st1{clip-path:url(#SVGID_3_);}
	.st2{opacity:0.8;fill:url(#SVGID_4_);enable-background:new    ;}
	.st3{opacity:0.5;fill:url(#SVGID_5_);enable-background:new    ;}
	.st4{opacity:0.8;fill:url(#SVGID_6_);enable-background:new    ;}
	.st5{opacity:0.5;fill:url(#SVGID_7_);enable-background:new    ;}
	.st6{fill:url(#SVGID_8_);}
	.st7{fill:url(#SVGID_9_);}
	.st8{fill:url(#SVGID_10_);}
	.st9{fill:url(#SVGID_11_);}
	.st10{fill:url(#SVGID_12_);}
	.st11{fill:url(#SVGID_13_);}
	.st12{opacity:0.3;fill:#D6EDEC;enable-background:new    ;}
	.st13{fill:url(#SVGID_14_);}
	.st14{opacity:0.3;}
	.st15{fill:url(#SVGID_15_);}
	.st16{fill:url(#SVGID_16_);}
	.st17{opacity:0.8;}
	.st18{fill:url(#SVGID_17_);}
	.st19{fill:url(#SVGID_18_);}
	.st20{fill:#545652;}
	.st21{fill:#3C3D3B;}
	.st22{fill:#424441;}
	.st23{opacity:0.8;fill:url(#SVGID_19_);enable-background:new    ;}
	.st24{opacity:0.5;fill:url(#SVGID_20_);enable-background:new    ;}
	.st25{opacity:5.000000e-02;fill:#161514;enable-background:new    ;}
	.st26{fill:url(#SVGID_21_);}
	.st27{fill:#3E86DD;}
	.st28{fill:#3875CE;}
	.st29{fill:url(#SVGID_22_);}
	.st30{fill:url(#SVGID_23_);}
	.st31{fill:url(#SVGID_24_);}
	.st32{opacity:0.7;fill:url(#SVGID_25_);enable-background:new    ;}
	.st33{opacity:0.2;fill:url(#SVGID_26_);enable-background:new    ;}
	.st34{opacity:0.7;fill:url(#SVGID_27_);enable-background:new    ;}
	.st35{fill:url(#SVGID_28_);}
	.st36{fill:url(#SVGID_29_);}
	.st37{fill:url(#SVGID_30_);}
	.st38{fill:url(#SVGID_31_);}
	.st39{fill:url(#SVGID_32_);}
	.st40{fill:#936024;}
	.st41{fill:url(#SVGID_33_);}
	.st42{fill:#020202;}
	.st43{fill:url(#SVGID_34_);}
	.st44{fill:url(#SVGID_35_);}
	.st45{opacity:0.8;fill:#DD9F22;enable-background:new    ;}
	.st46{opacity:0.5;fill:url(#SVGID_36_);enable-background:new    ;}
	.st47{fill:url(#SVGID_37_);}
	.st48{fill:#979E92;}
	.st49{fill:#AEB2AB;}
	.st50{fill:#CECEC4;}
	.st51{fill:url(#SVGID_38_);}
	.st52{fill:url(#SVGID_39_);}
	.st53{fill:url(#SVGID_40_);}
	.st54{fill:url(#SVGID_41_);}
	.st55{fill:#EA754B;}
	.st56{fill:url(#SVGID_42_);}
	.st57{fill:url(#SVGID_43_);}
	.st58{fill:#EF6F3C;}
	.st59{fill:url(#SVGID_44_);}
	.st60{fill:url(#SVGID_45_);}
	.st61{fill:url(#SVGID_46_);}
	.st62{fill:url(#SVGID_47_);}
	.st63{fill:#5F6D6C;}
	.st64{fill:url(#SVGID_48_);}
	.st65{opacity:0.3;fill:#C5EAE7;enable-background:new    ;}
	.st66{opacity:0.1;fill:#8E340C;enable-background:new    ;}
	.st67{fill:#D89E4A;}
	.st68{opacity:0.8;fill:url(#SVGID_49_);enable-background:new    ;}
	.st69{fill:url(#SVGID_50_);}
	.st70{fill:url(#SVGID_51_);}
	.st71{fill:url(#SVGID_52_);}
	.st72{opacity:0.6;fill:#8917C6;enable-background:new    ;}
	.st73{opacity:0.7;fill:url(#SVGID_53_);enable-background:new    ;}
	.st74{fill:#DA9D63;}
	.st75{opacity:0.2;fill:url(#SVGID_54_);enable-background:new    ;}
</style>
<title>Asset 1</title>
<g>
	
		<linearGradient id="SVGID_1_" gradientUnits="userSpaceOnUse" x1="354.5" y1="352.2043" x2="354.5" y2="-135.7957" gradientTransform="matrix(1 0 0 1 0 135.7957)">
		<stop  offset="0" style="stop-color:#48CCBF"/>
		<stop  offset="0.12" style="stop-color:#45C0B6"/>
		<stop  offset="0.34" style="stop-color:#3FA0A0"/>
		<stop  offset="0.64" style="stop-color:#346D7B"/>
		<stop  offset="0.99" style="stop-color:#252649"/>
		<stop  offset="1" style="stop-color:#242447"/>
	</linearGradient>
	<rect class="st0" width="709" height="488"/>
	<g>
		<g>
			<g>
				<g>
					<defs>
						<rect id="SVGID_2_" x="483.7" y="204.3" width="45.1" height="83.6"/>
					</defs>
					<clipPath id="SVGID_3_">
						<use xlink:href="#SVGID_2_"  style="overflow:visible;"/>
					</clipPath>
					<g class="st1">
						
							<linearGradient id="SVGID_4_" gradientUnits="userSpaceOnUse" x1="454" y1="-174.1957" x2="557.6" y2="-174.1957" gradientTransform="matrix(1 0 0 1 0 479.7957)">
							<stop  offset="0" style="stop-color:#8D685B"/>
							<stop  offset="1" style="stop-color:#7E6647"/>
						</linearGradient>
						<path class="st2" d="M516.1,218.5v9.6h14.3c4.8,0,9.2,2.7,11.3,7l15.9,39.3l-11.2,36.9l1.2,10l-8.8,4.8l-6.1-6.3l3.8-5.4
							l-0.9-5.5l5.2-32.7l-7.8-17.1l-2.7,53.4l-6.6,80.2h-14.1v-80h-7.5v79.6H488l-6.6-79.6l-2.7-53.7l-7.9,17.2l5.2,32.7l-0.9,5.5
							l3.8,5.5l-6.1,6.3l-8.8-4.8l1.2-10l-11.2-37l15.9-39.3c2.1-4.3,6.5-7,11.3-7h14.4v-9.6"/>
						
							<linearGradient id="SVGID_5_" gradientUnits="userSpaceOnUse" x1="505.8" y1="-2595.0957" x2="505.8" y2="-2769.2957" gradientTransform="matrix(1 0 0 1 0 2987.7957)">
							<stop  offset="0" style="stop-color:#8D685B"/>
							<stop  offset="1" style="stop-color:#7E6647"/>
						</linearGradient>
						<path class="st3" d="M516.1,218.5v9.6h14.3c4.8,0,9.2,2.7,11.3,7l15.9,39.3l-11.2,36.9l1.2,10l-8.8,4.8l-6.1-6.3l3.8-5.4
							l-0.9-5.5l5.2-32.7l-7.8-17.1l-2.7,53.4l-6.6,80.2h-14.1v-80h-7.5v79.6H488l-6.6-79.6l-2.7-53.7l-7.9,17.2l5.2,32.7l-0.9,5.5
							l3.8,5.5l-6.1,6.3l-8.8-4.8l1.2-10l-11.2-37l15.9-39.3c2.1-4.3,6.5-7,11.3-7h14.4v-9.6"/>
					</g>
				</g>
			</g>
			<g>
				
					<linearGradient id="SVGID_6_" gradientUnits="userSpaceOnUse" x1="426.2419" y1="-192.1457" x2="442.3419" y2="-192.1457" gradientTransform="matrix(1 0 0 1 0 479.7957)">
					<stop  offset="0" style="stop-color:#8D685B"/>
					<stop  offset="1" style="stop-color:#7E6647"/>
				</linearGradient>
				<path class="st4" d="M426.3,288l4.8-8.9l9.9,1.1l1.4,8.6l-6.2,2.3l-2.4,5.1"/>
				
					<linearGradient id="SVGID_7_" gradientUnits="userSpaceOnUse" x1="3745.3735" y1="-206.6537" x2="3745.3735" y2="-223.8325" gradientTransform="matrix(-0.82 -0.57 0.57 -0.82 3629.4976 2243.9639)">
					<stop  offset="0" style="stop-color:#8D685B"/>
					<stop  offset="1" style="stop-color:#7E6647"/>
				</linearGradient>
				<path class="st5" d="M426.3,288l4.8-8.9l9.9,1.1l1.4,8.6l-6.2,2.3l-2.4,5.1L426.3,288z"/>
			</g>
			
				<linearGradient id="SVGID_8_" gradientUnits="userSpaceOnUse" x1="2901.6719" y1="-171.5957" x2="2901.6719" y2="-91.3957" gradientTransform="matrix(-1 0 0 1 3424.6719 479.7957)">
				<stop  offset="0" style="stop-color:#16222A"/>
				<stop  offset="1" style="stop-color:#3A6073"/>
			</linearGradient>
			<polygon class="st6" points="511.2,347.5 511.2,308.2 532,308.2 527.9,349 534.8,388.4 520.7,388.4 			"/>
			
				<linearGradient id="SVGID_9_" gradientUnits="userSpaceOnUse" x1="2937.4219" y1="-171.5957" x2="2937.4219" y2="-91.3957" gradientTransform="matrix(-1 0 0 1 3424.6719 479.7957)">
				<stop  offset="0" style="stop-color:#16222A"/>
				<stop  offset="1" style="stop-color:#3A6073"/>
			</linearGradient>
			<polygon class="st7" points="471.7,343.1 482.1,308.2 502.8,308.2 488,344.3 486.8,388.4 472.7,388.4 			"/>
			
				<linearGradient id="SVGID_10_" gradientUnits="userSpaceOnUse" x1="2902.51" y1="-224.9457" x2="2878.24" y2="-224.9457" gradientTransform="matrix(-1 0 0 1 3424.6719 479.7957)">
				<stop  offset="0" style="stop-color:#16222A"/>
				<stop  offset="1" style="stop-color:#3A6073"/>
			</linearGradient>
			<path class="st8" d="M522.2,227.7h4c12.9,0.2,14.1,9.9,16.6,22.4l3.7,29.1l-14.4,2.8L522.2,227.7z"/>
			
				<linearGradient id="SVGID_11_" gradientUnits="userSpaceOnUse" x1="3235.9277" y1="51.6043" x2="3235.9277" y2="-13.255" gradientTransform="matrix(-0.99 -0.12 -0.12 1.03 3670.386 627.2599)">
				<stop  offset="0" style="stop-color:#16222A"/>
				<stop  offset="1" style="stop-color:#3A6073"/>
			</linearGradient>
			<path class="st9" d="M469.8,269.1l1.8-20.7c1.2-10,3.6-20.1,12-20.8l7.6,0.9l-6,53.1H485l0.1,0.1l-43.8,8.5l-2.5-11.2
				L469.8,269.1z"/>
			
				<linearGradient id="SVGID_12_" gradientUnits="userSpaceOnUse" x1="2917.3718" y1="4462.3838" x2="2917.3718" y2="4479.2031" gradientTransform="matrix(-1 0 0 -1 3424.6719 4765.6499)">
				<stop  offset="0" style="stop-color:#16222A"/>
				<stop  offset="1" style="stop-color:#3A6073"/>
			</linearGradient>
			<polygon class="st10" points="532.2,303.2 532.8,286.5 481.8,286.5 482.4,303.3 			"/>
			
				<linearGradient id="SVGID_13_" gradientUnits="userSpaceOnUse" x1="480.4" y1="-220.5457" x2="530.9" y2="-220.5457" gradientTransform="matrix(1 0 0 1 0 479.7957)">
				<stop  offset="0" style="stop-color:#83A4D4"/>
				<stop  offset="0.99" style="stop-color:#B6FBFF"/>
			</linearGradient>
			<path class="st11" d="M505.5,237.7c-2.7-0.4-11.5-2.4-11.5-10.5h-10c0,0,1.8,12.9-3.6,31.5l1.1,32.6l24.1-3l24.3,2.8l1-32.4
				c-5.5-18.6-3.6-31.5-3.6-31.5h-10c0,8.1-8.8,10.1-11.5,10.5L505.5,237.7L505.5,237.7z"/>
			<path class="st12" d="M505.6,288.3l24.2,3.1l1-32.7c-5.5-18.6-3.6-31.2-3.6-31.2h-10c0,8.1-8.8,10-11.5,10.5h-0.2
				C505.4,237.9,505.8,288.3,505.6,288.3z"/>
			
				<linearGradient id="SVGID_14_" gradientUnits="userSpaceOnUse" x1="476" y1="-164.9957" x2="534.3" y2="-164.9957" gradientTransform="matrix(1 0 0 1 0 479.7957)">
				<stop  offset="0" style="stop-color:#83A4D4"/>
				<stop  offset="0.99" style="stop-color:#B6FBFF"/>
			</linearGradient>
			<polygon class="st13" points="476,327.2 506.9,327.2 534.3,327.2 532.3,302.4 507.2,302.4 507.1,302.4 482.1,302.4 			"/>
			<g class="st14">
				
					<linearGradient id="SVGID_15_" gradientUnits="userSpaceOnUse" x1="2905.7219" y1="4438.4233" x2="2905.7219" y2="4463.0234" gradientTransform="matrix(-1 0 0 -1 3424.6719 4765.6499)">
					<stop  offset="0" style="stop-color:#48CCBF"/>
					<stop  offset="0.12" style="stop-color:#45C0B6"/>
					<stop  offset="0.34" style="stop-color:#3FA0A0"/>
					<stop  offset="0.64" style="stop-color:#346D7B"/>
					<stop  offset="0.99" style="stop-color:#252649"/>
					<stop  offset="1" style="stop-color:#242447"/>
				</linearGradient>
				<polygon class="st15" points="532.3,302.6 534.3,327.1 505.5,327.2 503.6,302.8 				"/>
				
					<linearGradient id="SVGID_16_" gradientUnits="userSpaceOnUse" x1="2951.4797" y1="4428.3975" x2="2951.4797" y2="4452.9365" gradientTransform="matrix(-1 -9.424522e-03 9.424522e-03 -1 3398.8794 4783.29)">
					<stop  offset="0" style="stop-color:#48CCBF"/>
					<stop  offset="0.12" style="stop-color:#45C0B6"/>
					<stop  offset="0.34" style="stop-color:#3FA0A0"/>
					<stop  offset="0.64" style="stop-color:#346D7B"/>
					<stop  offset="0.99" style="stop-color:#252649"/>
					<stop  offset="1" style="stop-color:#242447"/>
				</linearGradient>
				<polygon class="st16" points="482,302.6 474.9,327 498.1,327 503.6,302.8 				"/>
			</g>
			<g class="st17">
				
					<linearGradient id="SVGID_17_" gradientUnits="userSpaceOnUse" x1="2560.1733" y1="4552.4741" x2="2543.0559" y2="4552.4741" gradientTransform="matrix(-1.08 0.18 -0.16 -0.99 4017.5332 4392.043)">
					<stop  offset="0" style="stop-color:#83A4D4"/>
					<stop  offset="0.99" style="stop-color:#B6FBFF"/>
				</linearGradient>
				<polygon class="st18" points="518.6,359.3 528.8,352.2 528.7,341.6 513.8,335.2 510.2,344.6 512.7,354.9 				"/>
				<polygon class="st12" points="514.2,335.1 510.6,344.3 512.9,354.4 518.9,358.6 				"/>
			</g>
			<g class="st17">
				
					<linearGradient id="SVGID_18_" gradientUnits="userSpaceOnUse" x1="2832.6472" y1="4443.7329" x2="2815.4004" y2="4443.7329" gradientTransform="matrix(-1.09 2.000000e-02 -2.000000e-02 -1 3653.7468 4733.0737)">
					<stop  offset="0" style="stop-color:#83A4D4"/>
					<stop  offset="0.99" style="stop-color:#B6FBFF"/>
				</linearGradient>
				<polygon class="st19" points="477,358.3 488.2,352.7 489.5,342.1 476.9,333.7 470.7,342.4 471.7,353.1 				"/>
				<polygon class="st12" points="476.9,333.7 470.7,342.4 471.5,353.1 477,358.3 				"/>
			</g>
			<path class="st20" d="M522.6,362.3l-8.9-2.8l8.2,32.7l13.8-0.1c-0.5-5.8-4.8-32.4-4.8-32.4L522.6,362.3z"/>
			<polygon class="st21" points="513.7,359.6 521.3,392.1 528.4,392.1 522.6,362.2 			"/>
			<path class="st21" d="M469.8,361c0,0,2.7,27.6,2.8,32.6l13.8,0.1l1.9-32.7l-8.9,2.8L469.8,361z"/>
			<polygon class="st20" points="479.5,363.9 479.9,395.7 487.6,395.7 488.4,361.1 			"/>
			<path class="st22" d="M538.3,396.3c0-8.8-6.3-9.2-9-9.2c-2.3,0-10.4,0-10.4,9.2H538.3z"/>
			<path class="st22" d="M487.7,396.3c0-9.2-8.5-8.8-10.8-8.8c-2.7,0-8.1-0.1-8.1,8.7L487.7,396.3z"/>
			
				<linearGradient id="SVGID_19_" gradientUnits="userSpaceOnUse" x1="502.6819" y1="-167.0957" x2="518.7819" y2="-167.0957" gradientTransform="matrix(1 0 0 1 0 479.7957)">
				<stop  offset="0" style="stop-color:#8D685B"/>
				<stop  offset="1" style="stop-color:#7E6647"/>
			</linearGradient>
			<path class="st23" d="M518.8,312.2l-4.7,9l-9.9-1.1l-1.4-8.6l6.2-2.3l2.3-5"/>
			
				<linearGradient id="SVGID_20_" gradientUnits="userSpaceOnUse" x1="3697.9812" y1="-1784.1121" x2="3697.9812" y2="-1801.2433" gradientTransform="matrix(-0.82 -0.57 -0.57 0.82 2524.4241 3886.3462)">
				<stop  offset="0" style="stop-color:#8D685B"/>
				<stop  offset="1" style="stop-color:#7E6647"/>
			</linearGradient>
			<path class="st24" d="M518.8,312.2l-4.7,9l-9.9-1.1l-1.4-8.6l6.2-2.3l2.3-5L518.8,312.2z"/>
			<path class="st25" d="M516.6,225.9c0,0-6.9,4-20.5,0.4v-4.9h20.5V225.9z"/>
			
				<linearGradient id="SVGID_21_" gradientUnits="userSpaceOnUse" x1="2915.6719" y1="-185.5457" x2="2878.2319" y2="-185.5457" gradientTransform="matrix(-1 0 0 1 3424.6719 479.7957)">
				<stop  offset="0" style="stop-color:#16222A"/>
				<stop  offset="1" style="stop-color:#3A6073"/>
			</linearGradient>
			<polygon class="st26" points="530.9,275.2 546.4,279.1 517.8,313.3 509,306.5 			"/>
			<polygon class="st27" points="499,249.9 503,255.5 498,255.5 495,256.4 			"/>
			<polygon class="st28" points="511.9,249.9 507.9,255.5 512.9,255.5 515.9,256.4 			"/>
			
				<linearGradient id="SVGID_22_" gradientUnits="userSpaceOnUse" x1="505.5" y1="4510.2031" x2="505.5" y2="4515.7832" gradientTransform="matrix(1 0 0 -1 0 4765.6499)">
				<stop  offset="0" style="stop-color:#0077E9"/>
				<stop  offset="1" style="stop-color:#6146FF"/>
			</linearGradient>
			<polygon class="st29" points="512.9,255.5 511.9,249.9 511.9,249.9 511.9,249.9 505.4,249.9 499,249.9 499,249.9 499,249.9 
				498.1,255.5 			"/>
			
				<linearGradient id="SVGID_23_" gradientUnits="userSpaceOnUse" x1="498.1" y1="4504.1997" x2="512.9" y2="4504.1997" gradientTransform="matrix(1 0 0 -1 0 4765.6499)">
				<stop  offset="0" style="stop-color:#0077E9"/>
				<stop  offset="1" style="stop-color:#6146FF"/>
			</linearGradient>
			<polygon class="st30" points="505.4,267.6 498.1,255.3 512.9,255.3 			"/>
			<polygon class="st28" points="498.1,255.3 495,256.4 505.4,267.6 			"/>
			<polygon class="st28" points="512.8,255.3 515.9,256.4 505.4,267.6 			"/>
			
				<linearGradient id="SVGID_24_" gradientUnits="userSpaceOnUse" x1="1283.7788" y1="-1299.9231" x2="1283.7788" y2="-1344.1132" gradientTransform="matrix(0.88 -0.48 0.48 0.88 -87.8817 1974.6272)">
				<stop  offset="0" style="stop-color:#0077E9"/>
				<stop  offset="1" style="stop-color:#6146FF"/>
			</linearGradient>
			<polygon class="st31" points="414.4,213.3 395.4,208.3 392.3,199.1 394.1,181.3 400.9,170.3 411,176 423.8,190.3 425.3,202 			
				"/>
			
				<linearGradient id="SVGID_25_" gradientUnits="userSpaceOnUse" x1="1289.1786" y1="-1347.0027" x2="1278.2242" y2="-1321.4562" gradientTransform="matrix(0.88 -0.48 0.48 0.88 -87.8817 1974.6272)">
				<stop  offset="0" style="stop-color:#0077A3"/>
				<stop  offset="1" style="stop-color:#A046FF"/>
			</linearGradient>
			<polygon class="st32" points="392.3,199.1 394.1,181.3 400.9,170.3 411,176 			"/>
			
				<linearGradient id="SVGID_26_" gradientUnits="userSpaceOnUse" x1="602.0574" y1="-527.2872" x2="634.2275" y2="-527.2872" gradientTransform="matrix(0.9952 -9.810399e-02 9.810399e-02 0.9952 -156.0767 772.4895)">
				<stop  offset="0" style="stop-color:#EFD8CE"/>
				<stop  offset="1" style="stop-color:#A046FF"/>
			</linearGradient>
			<polygon class="st33" points="392.4,199.2 411,176.1 423.8,190.5 			"/>
			
				<linearGradient id="SVGID_27_" gradientUnits="userSpaceOnUse" x1="1301.9824" y1="-1305.5856" x2="1272.5923" y2="-1318.1956" gradientTransform="matrix(0.88 -0.48 0.48 0.88 -87.8817 1974.6272)">
				<stop  offset="0" style="stop-color:#0077A3"/>
				<stop  offset="1" style="stop-color:#A046FF"/>
			</linearGradient>
			<polygon class="st34" points="423.8,190.5 414.4,213.3 395.6,208.1 392.5,199 			"/>
			
				<linearGradient id="SVGID_28_" gradientUnits="userSpaceOnUse" x1="912.907" y1="-701.5198" x2="912.907" y2="-910.7753" gradientTransform="matrix(0.9635 -0.2676 0.2676 0.9635 -227.975 1316.4294)">
				<stop  offset="0" style="stop-color:#83A4D4"/>
				<stop  offset="0.99" style="stop-color:#B6FBFF"/>
			</linearGradient>
			<polygon class="st35" points="427.1,199 416.7,206.2 407.9,194.6 406.3,209 393.7,208.3 404.9,216.1 411.1,214.3 461.8,396.8 
				466,395.6 415.4,213.1 421.6,211.5 			"/>
			
				<linearGradient id="SVGID_29_" gradientUnits="userSpaceOnUse" x1="427.8219" y1="-189.4957" x2="442.6219" y2="-189.4957" gradientTransform="matrix(1 0 0 1 0 479.7957)">
				<stop  offset="0" style="stop-color:#8D685B"/>
				<stop  offset="1" style="stop-color:#7E6647"/>
			</linearGradient>
			<path class="st36" d="M442.6,291.7l-8.9,4.5l-5.9-6.5l4-5.3C431.2,284.4,442.6,291.7,442.6,291.7z"/>
			
				<linearGradient id="SVGID_30_" gradientUnits="userSpaceOnUse" x1="5633.3081" y1="2048.5986" x2="5666.6406" y2="1990.8768" gradientTransform="matrix(-1 0 0 -1 6154.9819 2192.72)">
				<stop  offset="0" style="stop-color:#16222A"/>
				<stop  offset="1" style="stop-color:#3A6073"/>
			</linearGradient>
			<path class="st37" d="M440.9,172.6c0-5.3,28.8-2.6,64.3-2.6s64.3-2.6,64.3,2.6S540.7,189,505.2,189S440.9,177.8,440.9,172.6z"/>
			
				<linearGradient id="SVGID_31_" gradientUnits="userSpaceOnUse" x1="3148.7717" y1="-302.2957" x2="3148.7717" y2="-274.9161" gradientTransform="matrix(-1 0 0 1 3620.3718 479.7957)">
				<stop  offset="0" style="stop-color:#8D685B"/>
				<stop  offset="0.32" style="stop-color:#886755"/>
				<stop  offset="0.47" style="stop-color:#876754"/>
				<stop  offset="1" style="stop-color:#7E6647"/>
			</linearGradient>
			<path class="st38" d="M484,204.9c0,0-14.7,1.3-17.4-11.3s-7.4-16.1-7.4-16.1s15.2,1.3,18.2,13.9S484,204.9,484,204.9z"/>
			
				<linearGradient id="SVGID_32_" gradientUnits="userSpaceOnUse" x1="-2660.0898" y1="-302.0957" x2="-2660.0898" y2="-274.7161" gradientTransform="matrix(1 0 0 1 3200.49 479.7957)">
				<stop  offset="0" style="stop-color:#8D685B"/>
				<stop  offset="0.32" style="stop-color:#886755"/>
				<stop  offset="0.47" style="stop-color:#876754"/>
				<stop  offset="1" style="stop-color:#7E6647"/>
			</linearGradient>
			<path class="st39" d="M528,205.1c0,0,14.7,1.3,17.4-11.3s7.4-16.1,7.4-16.1s-15.2,1.3-18.3,13.9S528,205.1,528,205.1z"/>
			<path class="st40" d="M537.2,186.5c0,17.1-13.9,37.2-30.9,37.2c-17.1,0-31-20.1-31-37.2s13.8-31,30.9-31
				C523.3,155.6,537.1,169.4,537.2,186.5L537.2,186.5L537.2,186.5z"/>
			
				<linearGradient id="SVGID_33_" gradientUnits="userSpaceOnUse" x1="506.25" y1="-256.0957" x2="506.25" y2="-324.2957" gradientTransform="matrix(1 0 0 1 0 479.7957)">
				<stop  offset="0" style="stop-color:#8D685B"/>
				<stop  offset="0.32" style="stop-color:#886755"/>
				<stop  offset="0.47" style="stop-color:#876754"/>
				<stop  offset="1" style="stop-color:#7E6647"/>
			</linearGradient>
			<path class="st41" d="M537.2,186.5c0,17.1-13.9,37.2-30.9,37.2c-17.1,0-31-20.1-31-37.2s13.8-31,30.9-31
				C523.3,155.6,537.1,169.4,537.2,186.5L537.2,186.5L537.2,186.5z"/>
			<circle class="st42" cx="478.5" cy="176.3" r="5.8"/>
			<circle class="st42" cx="482.7" cy="181" r="3.5"/>
			<circle class="st42" cx="476.3" cy="189.9" r="3.5"/>
			<circle class="st42" cx="476.2" cy="183.5" r="5"/>
			<circle class="st42" cx="535.9" cy="181.6" r="4.1"/>
			<circle class="st42" cx="535.7" cy="186" r="2.9"/>
			<circle class="st42" cx="487" cy="174.9" r="4.6"/>
			<circle class="st42" cx="493.4" cy="173.9" r="4.6"/>
			
				<linearGradient id="SVGID_34_" gradientUnits="userSpaceOnUse" x1="493.2945" y1="-373.6022" x2="531.452" y2="-307.5092" gradientTransform="matrix(1 0 0 1 0 479.7957)">
				<stop  offset="0.31" style="stop-color:#16222A"/>
				<stop  offset="1" style="stop-color:#3A6073"/>
			</linearGradient>
			<path class="st43" d="M471,161.5c0,0,0-21.4,14.2-27.7c11.4-5,7.3-29.7,22.6-35.9s23.8-11.4,34.7-0.4c0,0,3.6,6.2-7.3,9.5
				s-9.2,7.6-7,12.4s8,16.4,4.8,23s8.9,11,9.5,21.9S471,161.5,471,161.5z"/>
			
				<linearGradient id="SVGID_35_" gradientUnits="userSpaceOnUse" x1="489.334" y1="-278.3823" x2="522.6236" y2="-336.0389" gradientTransform="matrix(1 0 0 1 0 479.7957)">
				<stop  offset="0" style="stop-color:#16222A"/>
				<stop  offset="1" style="stop-color:#3A6073"/>
			</linearGradient>
			<path class="st44" d="M570.6,173.3c0,5.3-29.5,12.2-65.5,5.2c-34.9-6.8-64.2-0.6-64.2-5.8s28.8-16.4,64.3-16.4
				S570.6,168.1,570.6,173.3z"/>
		</g>
		<g>
			<path class="st45" d="M281.9,209.3v10h14.9c5,0,9.6,2.9,11.8,7.3l16.6,41l-11.6,38.6l1.2,10.5l-9.2,5l-6.4-6.5l4-5.6l-1-5.8
				l5.4-34.2l-8.2-17.9l-2.8,55.8l-6.9,83.9H275v-83.6h-7.8V391h-14.7l-6.9-83.2l-2.8-56.1l-8.3,18l5.4,34.1l-1,5.7l4,5.6l-6.4,6.5
				l-9.2-5l1.2-10.5L217,267.8l16.6-41c2.2-4.5,6.8-7.4,11.8-7.3h15v-10"/>
			
				<linearGradient id="SVGID_36_" gradientUnits="userSpaceOnUse" x1="271.1" y1="-2596.3958" x2="271.1" y2="-2778.4956" gradientTransform="matrix(1 0 0 1 0 2987.7957)">
				<stop  offset="0" style="stop-color:#D99A60"/>
				<stop  offset="0.24" style="stop-color:#D48B57"/>
				<stop  offset="0.71" style="stop-color:#CD7247"/>
				<stop  offset="1" style="stop-color:#CA6941"/>
			</linearGradient>
			<path class="st46" d="M281.9,209.3v10h14.9c5,0,9.6,2.9,11.8,7.3l16.6,41l-11.6,38.6l1.2,10.5l-9.2,5l-6.4-6.5l4-5.6l-1-5.8
				l5.4-34.2l-8.2-17.9l-2.8,55.8l-6.9,83.9H275v-83.6h-7.8V391h-14.7l-6.9-83.2l-2.8-56.1l-8.3,18l5.4,34.1l-1,5.7l4,5.6l-6.4,6.5
				l-9.2-5l1.2-10.5L217,267.8l16.6-41c2.2-4.5,6.8-7.4,11.8-7.3h15v-10"/>
			
				<linearGradient id="SVGID_37_" gradientUnits="userSpaceOnUse" x1="271.15" y1="4374.3501" x2="271.15" y2="4484.25" gradientTransform="matrix(1 0 0 -1 0 4765.6499)">
				<stop  offset="0" style="stop-color:#442072"/>
				<stop  offset="0.36" style="stop-color:#3B2166"/>
				<stop  offset="1" style="stop-color:#242447"/>
			</linearGradient>
			<polygon class="st47" points="244.3,281.4 245.6,307.8 252.6,391 267.3,391 267.3,307.8 275.1,307.8 275.1,391.3 289.9,391.3 
				296.8,307.5 298,281.4 			"/>
			<path class="st48" d="M249.4,359.8c0,0,2.7,28.8,2.9,34.1l14.4,0.1l2-34.1l-9.3,3L249.4,359.8z"/>
			<polygon class="st49" points="259.5,362.9 259.9,396.1 267.3,396.1 268.8,359.9 			"/>
			<path class="st50" d="M269.8,396.8c0-9.6-7.8-9.6-10.2-9.6c-2.8,0-10.7,0.4-10.7,9.6H269.8z"/>
			
				<linearGradient id="SVGID_38_" gradientUnits="userSpaceOnUse" x1="271.2" y1="4470.5332" x2="271.2" y2="4484.8335" gradientTransform="matrix(1 0 0 -1 0 4765.6499)">
				<stop  offset="0" style="stop-color:#442072"/>
				<stop  offset="2.000000e-02" style="stop-color:#42206F"/>
				<stop  offset="0.15" style="stop-color:#34225D"/>
				<stop  offset="0.31" style="stop-color:#2B2350"/>
				<stop  offset="0.53" style="stop-color:#262449"/>
				<stop  offset="1" style="stop-color:#242447"/>
			</linearGradient>
			<polygon class="st51" points="297.6,295.1 298.3,280.8 244.1,280.8 244.7,295 			"/>
			
				<linearGradient id="SVGID_39_" gradientUnits="userSpaceOnUse" x1="234.6" y1="4460.1499" x2="234.6" y2="4546.25" gradientTransform="matrix(1 0 0 -1 0 4765.6499)">
				<stop  offset="0" style="stop-color:#442072"/>
				<stop  offset="2.000000e-02" style="stop-color:#42206F"/>
				<stop  offset="0.15" style="stop-color:#34225D"/>
				<stop  offset="0.31" style="stop-color:#2B2350"/>
				<stop  offset="0.53" style="stop-color:#262449"/>
				<stop  offset="1" style="stop-color:#242447"/>
			</linearGradient>
			<path class="st52" d="M242.8,251.7l-8.3,18l5.2,32.6l-11.3,3.2L217,267.9l16.6-41c2.2-4.5,5.1-7.5,13.2-7.5l5.4,18.2L242.8,251.7
				z"/>
			
				<linearGradient id="SVGID_40_" gradientUnits="userSpaceOnUse" x1="307.75" y1="4460.25" x2="307.75" y2="4546.25" gradientTransform="matrix(1 0 0 -1 0 4765.6499)">
				<stop  offset="0" style="stop-color:#442072"/>
				<stop  offset="2.000000e-02" style="stop-color:#42206F"/>
				<stop  offset="0.15" style="stop-color:#34225D"/>
				<stop  offset="0.31" style="stop-color:#2B2350"/>
				<stop  offset="0.53" style="stop-color:#262449"/>
				<stop  offset="1" style="stop-color:#242447"/>
			</linearGradient>
			<path class="st53" d="M299.6,251.7l8.2,17.9l-5.2,32.6l11.3,3.2l11.4-37.5l-16.6-41c-2.2-4.5-5.1-7.5-13.2-7.5l-5.3,18.2
				L299.6,251.7z"/>
			
				<linearGradient id="SVGID_41_" gradientUnits="userSpaceOnUse" x1="271.45" y1="4480.4336" x2="271.45" y2="4547.4336" gradientTransform="matrix(1 0 0 -1 0 4765.6499)">
				<stop  offset="0" style="stop-color:#48CCBF"/>
				<stop  offset="0.12" style="stop-color:#45C0B6"/>
				<stop  offset="0.34" style="stop-color:#3FA0A0"/>
				<stop  offset="0.64" style="stop-color:#346D7B"/>
				<stop  offset="0.99" style="stop-color:#252649"/>
				<stop  offset="1" style="stop-color:#242447"/>
			</linearGradient>
			<path class="st54" d="M271.3,229.2h-0.1c-3.1-0.4-13.1-2.4-13.1-11h-11.4c0,0,2.1,13.4-4.1,32.9l1.2,33.9l27.7-3l27.6,3.1
				l1.2-34.1c-6.2-19.5-4.1-32.9-4.1-32.9h-11.4c0,8.5-10,10.5-13.1,11L271.3,229.2L271.3,229.2z"/>
			<path class="st12" d="M271.4,282.1l27.6,3.1l1.2-34.3c-6.2-19.5-4.1-32.6-4.1-32.6h-11.4c0,8.5-10,10.5-13.1,11h-0.2
				C271.3,229.2,271.7,282.1,271.4,282.1z"/>
			<polygon class="st55" points="265,245.4 269.1,251.3 263.9,251.3 260.8,252.2 			"/>
			<polygon class="st55" points="278.4,245.4 274.2,251.3 279.5,251.3 282.6,252.2 			"/>
			
				<linearGradient id="SVGID_42_" gradientUnits="userSpaceOnUse" x1="271.75" y1="4514.4497" x2="271.75" y2="4520.29" gradientTransform="matrix(1 0 0 -1 0 4765.6499)">
				<stop  offset="0" style="stop-color:#F23719"/>
				<stop  offset="1" style="stop-color:#EF5C1B"/>
			</linearGradient>
			<polygon class="st56" points="279.5,251.2 278.4,245.4 278.4,245.4 278.4,245.4 271.7,245.4 265,245.4 265,245.4 265,245.4 
				264,251.2 			"/>
			
				<linearGradient id="SVGID_43_" gradientUnits="userSpaceOnUse" x1="264.0219" y1="4508.1499" x2="279.4919" y2="4508.1499" gradientTransform="matrix(1 0 0 -1 0 4765.6499)">
				<stop  offset="0" style="stop-color:#F23719"/>
				<stop  offset="1" style="stop-color:#EF5C1B"/>
			</linearGradient>
			<polygon class="st57" points="271.7,263.9 264,251.1 279.5,251.1 			"/>
			<polygon class="st58" points="264,251.1 260.8,252.2 271.7,263.9 			"/>
			<polygon class="st58" points="279.4,251.1 282.6,252.2 271.7,263.9 			"/>
			
				<linearGradient id="SVGID_44_" gradientUnits="userSpaceOnUse" x1="271.25" y1="4444.6499" x2="271.25" y2="4470.5498" gradientTransform="matrix(1 0 0 -1 0 4765.6499)">
				<stop  offset="0" style="stop-color:#48CCBF"/>
				<stop  offset="0.37" style="stop-color:#4ACDC0"/>
				<stop  offset="0.57" style="stop-color:#52D0C4"/>
				<stop  offset="0.74" style="stop-color:#60D6CA"/>
				<stop  offset="0.88" style="stop-color:#74DED3"/>
				<stop  offset="1" style="stop-color:#8BE8DD"/>
			</linearGradient>
			<polygon class="st59" points="297.4,295.1 271.3,295.1 271.1,295.1 245,295.1 242.9,321 271.5,321 299.6,321 			"/>
			<g class="st14">
				
					<linearGradient id="SVGID_45_" gradientUnits="userSpaceOnUse" x1="257.1" y1="4444.6499" x2="257.1" y2="4470.5498" gradientTransform="matrix(1 0 0 -1 0 4765.6499)">
					<stop  offset="0" style="stop-color:#48CCBF"/>
					<stop  offset="0.12" style="stop-color:#45C0B6"/>
					<stop  offset="0.34" style="stop-color:#3FA0A0"/>
					<stop  offset="0.64" style="stop-color:#346D7B"/>
					<stop  offset="0.99" style="stop-color:#252649"/>
					<stop  offset="1" style="stop-color:#242447"/>
				</linearGradient>
				<polygon class="st60" points="271.3,295.1 267.2,321 242.9,321 245,295.1 				"/>
				
					<linearGradient id="SVGID_46_" gradientUnits="userSpaceOnUse" x1="285.55" y1="4444.6499" x2="285.55" y2="4470.5498" gradientTransform="matrix(1 0 0 -1 0 4765.6499)">
					<stop  offset="0" style="stop-color:#48CCBF"/>
					<stop  offset="0.12" style="stop-color:#45C0B6"/>
					<stop  offset="0.34" style="stop-color:#3FA0A0"/>
					<stop  offset="0.64" style="stop-color:#346D7B"/>
					<stop  offset="0.99" style="stop-color:#252649"/>
					<stop  offset="1" style="stop-color:#242447"/>
				</linearGradient>
				<polygon class="st61" points="271.3,295.1 275.4,321 299.8,321 297.6,295.1 				"/>
			</g>
			<g class="st17">
				
					<linearGradient id="SVGID_47_" gradientUnits="userSpaceOnUse" x1="268.6" y1="4423" x2="246.55" y2="4423" gradientTransform="matrix(1 0 0 -1 0 4765.6499)">
					<stop  offset="0" style="stop-color:#48CCBF"/>
					<stop  offset="0.12" style="stop-color:#45C0B6"/>
					<stop  offset="0.34" style="stop-color:#3FA0A0"/>
					<stop  offset="0.64" style="stop-color:#346D7B"/>
					<stop  offset="0.99" style="stop-color:#252649"/>
					<stop  offset="1" style="stop-color:#242447"/>
				</linearGradient>
				<polygon class="st62" points="267.7,349.3 268.6,338.8 256.7,330.2 246.5,339 248.4,349.3 257.8,355.1 				"/>
				<polygon class="st12" points="257.8,355.2 267.7,349.3 268.6,338.8 256.7,330.2 				"/>
			</g>
			<g class="st17">
				<polygon class="st63" points="285.8,330.2 274,338.8 274.8,349.3 284.8,355.2 				"/>
				
					<linearGradient id="SVGID_48_" gradientUnits="userSpaceOnUse" x1="296.0419" y1="4423" x2="273.9919" y2="4423" gradientTransform="matrix(1 0 0 -1 0 4765.6499)">
					<stop  offset="0" style="stop-color:#48CCBF"/>
					<stop  offset="0.12" style="stop-color:#45C0B6"/>
					<stop  offset="0.34" style="stop-color:#3FA0A0"/>
					<stop  offset="0.64" style="stop-color:#346D7B"/>
					<stop  offset="0.99" style="stop-color:#252649"/>
					<stop  offset="1" style="stop-color:#242447"/>
				</linearGradient>
				<polygon class="st64" points="274.8,349.3 274,338.8 285.8,330.2 296,339 294.1,349.3 284.7,355.1 				"/>
				<polygon class="st65" points="284.7,355.1 294.1,349.3 296,339 285.8,330.2 				"/>
			</g>
			<path class="st49" d="M283.1,362.9l-9.3-3l2,34.1l14.4-0.1c0.1-5.2,2.9-34.1,2.9-34.1L283.1,362.9z"/>
			<polygon class="st48" points="273.8,359.9 275.2,396.1 282.6,396.1 283.1,362.9 			"/>
			<path class="st50" d="M293.7,396.8c0-9.2-7.9-9.6-10.8-9.6c-2.4,0-10.2,0-10.2,9.6H293.7z"/>
			<path class="st66" d="M281.9,216c0,0-7.2,4.2-21.4,0.4v-5.1h21.4V216z"/>
			<path class="st67" d="M303.7,176.9c0,17.9-14.5,38.9-32.3,38.9S239,194.8,239,177c0-17.9,14.4-32.4,32.3-32.4
				S303.7,159,303.7,176.9L303.7,176.9z"/>
			
				<linearGradient id="SVGID_49_" gradientUnits="userSpaceOnUse" x1="272.1998" y1="-265.138" x2="272.1998" y2="-336.3381" gradientTransform="matrix(1 -6.981316e-04 6.981316e-04 1 -0.6375 481.1281)">
				<stop  offset="0" style="stop-color:#D99A60"/>
				<stop  offset="0.24" style="stop-color:#D48B57"/>
				<stop  offset="0.71" style="stop-color:#CD7247"/>
				<stop  offset="1" style="stop-color:#CA6941"/>
			</linearGradient>
			<path class="st68" d="M303.7,176.9c0,17.9-14.5,38.9-32.3,38.9S239,194.8,239,177c0-17.9,14.4-32.4,32.3-32.4
				S303.7,159,303.7,176.9L303.7,176.9z"/>
			
				<linearGradient id="SVGID_50_" gradientUnits="userSpaceOnUse" x1="270.9" y1="4556.1499" x2="270.9" y2="4626.75" gradientTransform="matrix(1 0 0 -1 0 4765.6499)">
				<stop  offset="0" style="stop-color:#442072"/>
				<stop  offset="2.000000e-02" style="stop-color:#42206F"/>
				<stop  offset="0.15" style="stop-color:#34225D"/>
				<stop  offset="0.31" style="stop-color:#2B2350"/>
				<stop  offset="0.53" style="stop-color:#262449"/>
				<stop  offset="1" style="stop-color:#242447"/>
			</linearGradient>
			<path class="st69" d="M309.9,165.6c0,7.1-3.3,27.7-5.2,34.2c-1.6,5.2-11.1,8.6-15.7,9.7v-16.2c20.9-6.5,4.6-34.3,0-27.8
				c-2.9,7.8-12.2,11.3-18.1,10.9c-6,0.4-15.2-3.1-18.1-10.9c-4.6-6.5-20.9,21.3,0,27.8v16.2c-4.5-1.1-14.1-4.5-15.7-9.7
				c-2-6.5-5.2-27.1-5.2-34.2c0,0,13.3-26.7,38.7-26.7C296.2,138.9,309.9,165.6,309.9,165.6z"/>
			
				<linearGradient id="SVGID_51_" gradientUnits="userSpaceOnUse" x1="306.1919" y1="4607.8706" x2="329.6419" y2="4607.8706" gradientTransform="matrix(1 0 0 -1 0 4765.6499)">
				<stop  offset="0" style="stop-color:#F23719"/>
				<stop  offset="1" style="stop-color:#EF5C1B"/>
			</linearGradient>
			<path class="st70" d="M310.3,168.6C310.3,168.5,310.3,168.5,310.3,168.6c2.9-0.2,5.7-1.2,7.9-3.1c0.3-0.3,0.1-0.7-0.3-0.7
				c-1.6,0.3-3.3,0.4-4.9,0.3c8.7-0.4,15.1-6.8,16.2-8.8c0.3-0.4,0-0.7-0.3-0.6c-8.8,2.7-10.5,2.9-10.5,2.9
				c7-2.2,10.6-10.2,11.1-13.5c0.1-0.3-0.4-0.5-0.6-0.3c-6.7,9.5-18.1,15.1-21.8,16.9c-0.7,0.4-1.1,1.1-1.2,1.8l0.3,4.6v0.7
				c-0.3,2.1-0.5,2.4,0.7,1.7C308.6,169.7,310.3,168.5,310.3,168.6"/>
			
				<linearGradient id="SVGID_52_" gradientUnits="userSpaceOnUse" x1="2839.95" y1="4606.9707" x2="2863.4099" y2="4606.9707" gradientTransform="matrix(-1 0 0 -1 3075.6218 4765.6499)">
				<stop  offset="0" style="stop-color:#F23719"/>
				<stop  offset="1" style="stop-color:#EF5C1B"/>
			</linearGradient>
			<path class="st71" d="M231.6,169.5C231.6,169.4,231.6,169.4,231.6,169.5c-2.9-0.2-5.7-1.2-7.9-3.1c-0.3-0.3-0.1-0.7,0.3-0.7
				c1.6,0.3,3.3,0.4,4.9,0.3c-8.7-0.4-15.1-6.8-16.2-8.8c-0.3-0.4,0-0.7,0.3-0.6c8.8,2.7,10.6,2.9,10.6,2.9
				c-7-2.2-10.6-10.2-11.1-13.5c-0.1-0.3,0.4-0.5,0.6-0.3c6.7,9.5,18.1,15.1,21.8,16.9c0.7,0.4,1.1,1.1,1.2,1.8l-0.3,4.6v0.7
				c0.3,2.1,0.5,2.4-0.7,1.7C233.3,170.6,231.7,169.4,231.6,169.5"/>
			<path class="st72" d="M234.1,264.7c2.1,7.4,6.9,11.1,3.6,18.3s-2.6,13-7.7,17.2c-5.2,4.2-8.5,1.1-14-7.5s-14.8-6-19-15.6
				s-1.4-16.8-5.3-24.2c-3.9-7.4-15.7-12.7-15.5-18.2c0.1-5.4,1.3-10.6-4.3-18.3c-5.7-7.7-4.6-12.9-5.6-22.6s-11.2-14.6-12-25.3
				l-0.7-10.8c0,0,3.3,13,12.7,15s-8-14.3-12.7-34.3s-10-25.7-10-25.7s10.2,15,16.3,17.7c6.1,2.7,17.1,9.3,17.1,16.3
				c0,0-1.3-12.7-6.3-18.5c0,0,11.7,10.9,15,11.9s11.3,12.8,11.3,20.1s6.6,8.6,8.3,16.9s3,24.6,4.4,20c1.3-4.7,1.3-9.9,0.3-14.4
				c0,0,4.2,7.7,5.9,20.1s-1.4,13.6,3.1,19.7c7,7,12,8,13,22C232,244.5,232.1,257.5,234.1,264.7z"/>
			
				<linearGradient id="SVGID_53_" gradientUnits="userSpaceOnUse" x1="146.9341" y1="71.6043" x2="241.9279" y2="71.6043" gradientTransform="matrix(1 0 0 1 0 135.7957)">
				<stop  offset="0" style="stop-color:#F23719"/>
				<stop  offset="1" style="stop-color:#EF5C1B"/>
			</linearGradient>
			<path class="st73" d="M237.6,264.7c0,7.7,6.9,11.1,3.6,18.3s-2.6,13-7.7,17.2c-5.2,4.2-8.5,1.1-14-7.5s-14.8-6-19-15.6
				s-1.4-16.8-5.3-24.2c-3.9-7.4-15.7-12.7-15.5-18.2c0.1-5.4,1.3-10.6-4.3-18.3c-5.7-7.7-4.6-12.9-5.6-22.6s-11.2-14.6-12-25.3
				l-0.7-10.8c0,0,3.3,13,12.7,15s-8-14.3-12.7-34.3s-10-25.7-10-25.7s10.2,15,16.3,17.7c6.1,2.7,17.1,9.3,17.1,16.3
				c0,0-1.3-12.7-6.3-18.5c0,0,11.7,10.9,15,11.9s11.3,12.8,11.3,20.1s6.6,8.6,8.3,16.9s3,24.6,4.4,20c1.3-4.7,1.3-9.9,0.3-14.4
				c0,0,4.2,7.7,5.9,20.1s-1.4,13.6,3.1,19.7c8,7,13,8,14,22C234.7,255.1,237.6,264.7,237.6,264.7z"/>
			<path class="st48" d="M246.6,292.3c-1.4,0.5-2.4,1.7-2.8,3.1l-9.9,3.8l-4.2-10.9c0.2-4.9,1.4-9.6,3.5-14l-57-117.3l46.2,120.8
				l0,0L176.2,157L212,282.5c4.5,1.9,8.5,4.6,11.9,8.1l4.2,11l-9.9,3.8c-1.2-0.8-2.7-1-4.1-0.5c-2.3,0.9-3.4,3.4-2.5,5.7
				c0.9,2.3,3.4,3.4,5.7,2.5c1.6-0.6,2.7-2,2.8-3.7l9.6-3.7l6,15.5l-0.6,8.3l6.3-2.4l0,0l6.3-2.4l-6-5.8l-6-15.5l9.6-3.7
				c1.2,1.1,3,1.5,4.6,0.9c2.3-0.9,3.4-3.4,2.6-5.7l0,0c-0.7-2.3-3.2-3.5-5.4-2.7C246.8,292.2,246.7,292.3,246.6,292.3z"/>
			<path class="st49" d="M176.2,156.9L176.2,156.9l57.2,117.4c-2.1,4.4-3.3,9.1-3.5,14l4.2,11l9.9-3.8c0.4-1.4,1.4-2.6,2.8-3.1
				c2.3-0.9,4.8,0.3,5.7,2.6c0.9,2.3-0.3,4.8-2.6,5.7c-1.6,0.6-3.4,0.3-4.6-0.9l-9.6,3.7l6,15.5l6,5.8l-6.3,2.4l0,0L176.2,156.9z"/>
			<path class="st74" d="M240.2,303.7l-1,5.7l4,5.6l-6.3,6.5l-9.2-5l1.2-10.5L240.2,303.7z"/>
			
				<linearGradient id="SVGID_54_" gradientUnits="userSpaceOnUse" x1="146.8641" y1="75.8043" x2="241.8579" y2="75.8043" gradientTransform="matrix(1 0 0 1 0 135.7957)">
				<stop  offset="0" style="stop-color:#F23719"/>
				<stop  offset="1" style="stop-color:#EF5C1B"/>
			</linearGradient>
			<path class="st75" d="M234.9,249.9c0,0,2.6,11.3,2.6,19s6.9,11.1,3.6,18.3s-2.6,13-7.7,17.2s-8.5,1.1-14-7.5s-14.8-6-19-15.6
				s-1.4-16.8-5.3-24.2c-3.9-7.4-15.7-12.7-15.5-18.2c0.1-5.4,1.3-10.6-4.3-18.3c-5.7-7.7-4.6-12.9-5.6-22.6s-11.2-14.6-12-25.3
				l-0.7-10.8c0,0,3.3,13,12.7,15c9.3,2-8-14.3-12.7-34.3s-10-25.7-10-25.7s10.2,15,16.3,17.7s17.1,9.3,17.1,16.3
				s-1.3-12.7-6.3-18.5c0,0,11.7,10.9,15,11.9s11.3,12.8,11.3,20.1s6.6,8.6,8.3,16.9c1.7,8.3,3,24.6,4.4,20
				c1.3-4.7,1.3-9.9,0.3-14.4c0,0,4.2,7.7,5.9,20.1s-1.4,13.6,3.1,19.7C229.6,235,233.4,235.9,234.9,249.9z"/>
		</g>
	</g>
</g>
</svg>
