<?xml version="1.0" encoding="utf-8"?>
<!-- Generator: Adobe Illustrator 22.0.1, SVG Export Plug-In . SVG Version: 6.00 Build 0)  -->
<svg version="1.1" id="Layer_1" xmlns="http://www.w3.org/2000/svg" xmlns:xlink="http://www.w3.org/1999/xlink" x="0px" y="0px"
	 viewBox="0 0 494 488" style="enable-background:new 0 0 494 488;" xml:space="preserve">
<style type="text/css">
	.st0{opacity:0.4;fill:url(#SVGID_1_);enable-background:new    ;}
	.st1{clip-path:url(#SVGID_3_);}
	.st2{opacity:0.8;fill:url(#SVGID_4_);enable-background:new    ;}
	.st3{opacity:0.5;fill:url(#SVGID_5_);enable-background:new    ;}
	.st4{opacity:0.8;fill:url(#SVGID_6_);enable-background:new    ;}
	.st5{opacity:0.5;fill:url(#SVGID_7_);enable-background:new    ;}
	.st6{fill:url(#SVGID_8_);}
	.st7{fill:url(#SVGID_9_);}
	.st8{fill:url(#SVGID_10_);}
	.st9{fill:url(#SVGID_11_);}
	.st10{fill:url(#SVGID_12_);}
	.st11{fill:url(#SVGID_13_);}
	.st12{opacity:0.3;fill:#D6EDEC;enable-background:new    ;}
	.st13{fill:url(#SVGID_14_);}
	.st14{opacity:0.3;}
	.st15{fill:url(#SVGID_15_);}
	.st16{fill:url(#SVGID_16_);}
	.st17{opacity:0.8;}
	.st18{fill:url(#SVGID_17_);}
	.st19{fill:url(#SVGID_18_);}
	.st20{fill:#545652;}
	.st21{fill:#3C3D3B;}
	.st22{fill:#424441;}
	.st23{opacity:0.8;fill:url(#SVGID_19_);enable-background:new    ;}
	.st24{opacity:0.5;fill:url(#SVGID_20_);enable-background:new    ;}
	.st25{opacity:0.05;fill:#161514;enable-background:new    ;}
	.st26{fill:url(#SVGID_21_);}
	.st27{fill:#3E86DD;}
	.st28{fill:#3875CE;}
	.st29{fill:url(#SVGID_22_);}
	.st30{fill:url(#SVGID_23_);}
	.st31{fill:url(#SVGID_24_);}
	.st32{opacity:0.7;fill:url(#SVGID_25_);enable-background:new    ;}
	.st33{opacity:0.2;fill:url(#SVGID_26_);enable-background:new    ;}
	.st34{opacity:0.7;fill:url(#SVGID_27_);enable-background:new    ;}
	.st35{fill:url(#SVGID_28_);}
	.st36{fill:url(#SVGID_29_);}
	.st37{fill:url(#SVGID_30_);}
	.st38{fill:url(#SVGID_31_);}
	.st39{fill:url(#SVGID_32_);}
	.st40{fill:#936024;}
	.st41{fill:url(#SVGID_33_);}
	.st42{fill:#020202;}
	.st43{fill:url(#SVGID_34_);}
	.st44{fill:url(#SVGID_35_);}
	.st45{opacity:0.8;fill:#DD9F22;enable-background:new    ;}
	.st46{opacity:0.5;fill:url(#SVGID_36_);enable-background:new    ;}
	.st47{fill:url(#SVGID_37_);}
	.st48{fill:#979E92;}
	.st49{fill:#AEB2AB;}
	.st50{fill:#CECEC4;}
	.st51{fill:url(#SVGID_38_);}
	.st52{fill:url(#SVGID_39_);}
	.st53{fill:url(#SVGID_40_);}
	.st54{fill:url(#SVGID_41_);}
	.st55{fill:#EA754B;}
	.st56{fill:url(#SVGID_42_);}
	.st57{fill:url(#SVGID_43_);}
	.st58{fill:#EF6F3C;}
	.st59{fill:url(#SVGID_44_);}
	.st60{fill:url(#SVGID_45_);}
	.st61{fill:url(#SVGID_46_);}
	.st62{fill:url(#SVGID_47_);}
	.st63{fill:#5F6D6C;}
	.st64{fill:url(#SVGID_48_);}
	.st65{opacity:0.3;fill:#C5EAE7;enable-background:new    ;}
	.st66{opacity:0.1;fill:#8E340C;enable-background:new    ;}
	.st67{fill:#D89E4A;}
	.st68{opacity:0.8;fill:url(#SVGID_49_);enable-background:new    ;}
	.st69{fill:url(#SVGID_50_);}
	.st70{fill:url(#SVGID_51_);}
	.st71{fill:url(#SVGID_52_);}
	.st72{opacity:0.6;fill:#8917C6;enable-background:new    ;}
	.st73{opacity:0.7;fill:url(#SVGID_53_);enable-background:new    ;}
	.st74{fill:#DA9D63;}
	.st75{opacity:0.2;fill:url(#SVGID_54_);enable-background:new    ;}
</style>
<title>Asset 1</title>
<g>
	
		<linearGradient id="SVGID_1_" gradientUnits="userSpaceOnUse" x1="247" y1="-111.79572" x2="247" y2="-599.79572" gradientTransform="matrix(1 0 0 1 0 599.79572)">
		<stop  offset="0" style="stop-color:#48CCBF"/>
		<stop  offset="0.12" style="stop-color:#45C0B6"/>
		<stop  offset="0.34" style="stop-color:#3FA0A0"/>
		<stop  offset="0.64" style="stop-color:#346D7B"/>
		<stop  offset="0.99" style="stop-color:#252649"/>
		<stop  offset="1" style="stop-color:#242447"/>
	</linearGradient>
	<rect class="st0" width="494" height="488"/>
	<g>
		<g>
			<g>
				<g>
					<g>
						<g>
							<defs>
								<rect id="SVGID_2_" x="290" y="227.2365" width="45.09998" height="83.59999"/>
							</defs>
							<clipPath id="SVGID_3_">
								<use xlink:href="#SVGID_2_"  style="overflow:visible;"/>
							</clipPath>
							<g class="st1">
								
									<linearGradient id="SVGID_4_" gradientUnits="userSpaceOnUse" x1="596.79993" y1="-678.19574" x2="700.40002" y2="-678.19574" gradientTransform="matrix(-1 0 0 -1 961.59991 -468.65924)">
									<stop  offset="0" style="stop-color:#8D685B"/>
									<stop  offset="1" style="stop-color:#7E6647"/>
								</linearGradient>
								<path class="st2" d="M302.69995,296.63647v-9.60001h-14.29999c-4.79999,0-9.20001-2.69998-11.29999-7l-15.90002-39.29997
									l11.20001-36.89999l-1.20001-10l8.79999-4.79999l6.09998,6.29999l-3.79999,5.39999l0.90002,5.5l-5.20001,32.70001
									l7.79999,17.09999l2.70001-53.39998l6.59998-80.19999h14.09998v80.00001h7.5v-79.60001h14.1001l6.59998,79.60001
									l2.70001,53.7l7.90002-17.2l-5.20001-32.70001l0.89996-5.5l-3.79999-5.5L346,188.93654l8.79999,4.79999l-1.20001,10
									l11.20001,37l-15.90002,39.3c-2.09998,4.29999-6.5,7-11.29999,7h-14.39996v9.60001"/>
								
									<linearGradient id="SVGID_5_" gradientUnits="userSpaceOnUse" x1="648.59998" y1="-3099.0957" x2="648.59998" y2="-3273.29565" gradientTransform="matrix(-1 0 0 -1 961.59991 -2976.65918)">
									<stop  offset="0" style="stop-color:#8D685B"/>
									<stop  offset="1" style="stop-color:#7E6647"/>
								</linearGradient>
								<path class="st3" d="M302.69995,296.63647v-9.60001h-14.29999c-4.79999,0-9.20001-2.69998-11.29999-7l-15.90002-39.29997
									l11.20001-36.89999l-1.20001-10l8.79999-4.79999l6.09998,6.29999l-3.79999,5.39999l0.90002,5.5l-5.20001,32.70001
									l7.79999,17.09999l2.70001-53.39998l6.59998-80.19999h14.09998v80.00001h7.5v-79.60001h14.1001l6.59998,79.60001
									l2.70001,53.7l7.90002-17.2l-5.20001-32.70001l0.89996-5.5l-3.79999-5.5L346,188.93654l8.79999,4.79999l-1.20001,10
									l11.20001,37l-15.90002,39.3c-2.09998,4.29999-6.5,7-11.29999,7h-14.39996v9.60001"/>
							</g>
						</g>
					</g>
				</g>
			</g>
			<g>
				
					<linearGradient id="SVGID_6_" gradientUnits="userSpaceOnUse" x1="569.04187" y1="-696.14569" x2="585.14185" y2="-696.14569" gradientTransform="matrix(-1 0 0 -1 961.59991 -468.65924)">
					<stop  offset="0" style="stop-color:#8D685B"/>
					<stop  offset="1" style="stop-color:#7E6647"/>
				</linearGradient>
				<path class="st4" d="M392.5,227.13649l-4.79999,8.89999l-9.90002-1.10001l-1.39996-8.60001l6.20001-2.29999L385,218.93648"/>
				
					<linearGradient id="SVGID_7_" gradientUnits="userSpaceOnUse" x1="4884.0542" y1="-219.16708" x2="4884.0542" y2="-236.34586" gradientTransform="matrix(0.82 0.57 -0.57 0.82 -3751.54858 -2367.61426)">
					<stop  offset="0" style="stop-color:#8D685B"/>
					<stop  offset="1" style="stop-color:#7E6647"/>
				</linearGradient>
				<path class="st5" d="M392.5,227.13649l-4.79999,8.89999l-9.90002-1.10001l-1.39996-8.60001l6.20001-2.29999L385,218.93648
					L392.5,227.13649z"/>
			</g>
			
				<linearGradient id="SVGID_8_" gradientUnits="userSpaceOnUse" x1="3885.57178" y1="-675.5957" x2="3885.57178" y2="-595.39575" gradientTransform="matrix(1 0 0 -1 -3589.77197 -468.65924)">
				<stop  offset="0" style="stop-color:#16222A"/>
				<stop  offset="1" style="stop-color:#3A6073"/>
			</linearGradient>
			<polygon class="st6" points="307.59998,167.63649 307.59998,206.93648 286.79999,206.93648 290.89996,166.13649 284,126.73649 
				298.09998,126.73649 			"/>
			
				<linearGradient id="SVGID_9_" gradientUnits="userSpaceOnUse" x1="3921.32178" y1="-675.5957" x2="3921.32178" y2="-595.39575" gradientTransform="matrix(1 0 0 -1 -3589.77197 -468.65924)">
				<stop  offset="0" style="stop-color:#16222A"/>
				<stop  offset="1" style="stop-color:#3A6073"/>
			</linearGradient>
			<polygon class="st7" points="347.09998,172.03648 336.69995,206.93648 316,206.93648 330.79999,170.8365 332,126.73649 
				346.09998,126.73649 			"/>
			
				<linearGradient id="SVGID_10_" gradientUnits="userSpaceOnUse" x1="3886.40991" y1="-728.94574" x2="3862.13989" y2="-728.94574" gradientTransform="matrix(1 0 0 -1 -3589.77197 -468.65924)">
				<stop  offset="0" style="stop-color:#16222A"/>
				<stop  offset="1" style="stop-color:#3A6073"/>
			</linearGradient>
			<path class="st8" d="M296.59998,287.43649h-4C279.69995,287.23648,278.5,277.5365,276,265.0365l-3.70001-29.09999
				l14.40002-2.79999L296.59998,287.43649z"/>
			
				<linearGradient id="SVGID_11_" gradientUnits="userSpaceOnUse" x1="4264.76562" y1="-386.46625" x2="4264.76562" y2="-451.32556" gradientTransform="matrix(0.99 0.12 0.12 -1.03 -3817.56738 -686.79663)">
				<stop  offset="0" style="stop-color:#16222A"/>
				<stop  offset="1" style="stop-color:#3A6073"/>
			</linearGradient>
			<path class="st9" d="M349,246.03648l-1.79999,20.7c-1.20001,10-3.60004,20.10001-12,20.79999l-7.60004-0.89999l6-53.09999
				h0.20001l-0.10004-0.10001l43.79999-8.5l2.5,11.20001L349,246.03648z"/>
			
				<linearGradient id="SVGID_12_" gradientUnits="userSpaceOnUse" x1="3901.27197" y1="4761.63379" x2="3901.27197" y2="4778.45312" gradientTransform="matrix(1 0 0 1 -3589.77197 -4549.76318)">
				<stop  offset="0" style="stop-color:#16222A"/>
				<stop  offset="1" style="stop-color:#3A6073"/>
			</linearGradient>
			<polygon class="st10" points="286.59998,211.93648 286,228.63649 337,228.63649 336.39996,211.8365 			"/>
			
				<linearGradient id="SVGID_13_" gradientUnits="userSpaceOnUse" x1="623.19995" y1="-724.54572" x2="673.69995" y2="-724.54572" gradientTransform="matrix(-1 0 0 -1 961.59991 -468.65924)">
				<stop  offset="0" style="stop-color:#83A4D4"/>
				<stop  offset="0.99" style="stop-color:#B6FBFF"/>
			</linearGradient>
			<path class="st11" d="M313.29999,277.43649c2.70001,0.39999,11.5,2.39999,11.5,10.5h10c0,0-1.79999-12.89999,3.59998-31.50003
				l-1.09998-32.59999l-24.10004,3l-24.29999-2.79999l-1,32.39998c5.5,18.60001,3.59998,31.5,3.59998,31.5h10
				c0-8.10001,8.79999-10.10001,11.5-10.5L313.29999,277.43649L313.29999,277.43649z"/>
			<path class="st12" d="M313.19995,226.8365L289,223.7365l-1,32.7c5.5,18.60001,3.59998,31.20001,3.59998,31.20001h10
				c0-8.10001,8.79999-10,11.5-10.5h0.20001C313.39996,277.23648,313,226.8365,313.19995,226.8365z"/>
			
				<linearGradient id="SVGID_14_" gradientUnits="userSpaceOnUse" x1="618.79993" y1="-668.99573" x2="677.09998" y2="-668.99573" gradientTransform="matrix(-1 0 0 -1 961.59991 -468.65924)">
				<stop  offset="0" style="stop-color:#83A4D4"/>
				<stop  offset="0.99" style="stop-color:#B6FBFF"/>
			</linearGradient>
			<polygon class="st13" points="342.79999,187.93648 311.89996,187.93648 284.5,187.93648 286.5,212.7365 311.59998,212.7365 
				311.69995,212.7365 336.69995,212.7365 			"/>
			<g class="st14">
				
					<linearGradient id="SVGID_15_" gradientUnits="userSpaceOnUse" x1="3889.62183" y1="4737.67334" x2="3889.62183" y2="4762.27344" gradientTransform="matrix(1 0 0 1 -3589.77197 -4549.76318)">
					<stop  offset="0" style="stop-color:#48CCBF"/>
					<stop  offset="0.12" style="stop-color:#45C0B6"/>
					<stop  offset="0.34" style="stop-color:#3FA0A0"/>
					<stop  offset="0.64" style="stop-color:#346D7B"/>
					<stop  offset="0.99" style="stop-color:#252649"/>
					<stop  offset="1" style="stop-color:#242447"/>
				</linearGradient>
				<polygon class="st15" points="286.5,212.53648 284.5,188.03648 313.29999,187.93648 315.19995,212.3365 				"/>
				
					<linearGradient id="SVGID_16_" gradientUnits="userSpaceOnUse" x1="3939.1272" y1="4723.64844" x2="3939.1272" y2="4748.1875" gradientTransform="matrix(1 0.00942 -0.00942 1 -3564.94434 -4572.71289)">
					<stop  offset="0" style="stop-color:#48CCBF"/>
					<stop  offset="0.12" style="stop-color:#45C0B6"/>
					<stop  offset="0.34" style="stop-color:#3FA0A0"/>
					<stop  offset="0.64" style="stop-color:#346D7B"/>
					<stop  offset="0.99" style="stop-color:#252649"/>
					<stop  offset="1" style="stop-color:#242447"/>
				</linearGradient>
				<polygon class="st16" points="336.79999,212.53648 343.89996,188.13649 320.69995,188.13649 315.19995,212.3365 				"/>
			</g>
			<g class="st17">
				
					<linearGradient id="SVGID_17_" gradientUnits="userSpaceOnUse" x1="3444.18311" y1="4914.08252" x2="3427.06567" y2="4914.08252" gradientTransform="matrix(1.08 -0.18 0.16 0.99 -4211.32129 -4075.77734)">
					<stop  offset="0" style="stop-color:#83A4D4"/>
					<stop  offset="0.99" style="stop-color:#B6FBFF"/>
				</linearGradient>
				<polygon class="st18" points="300.19995,155.8365 290,162.93648 290.09998,173.53648 305,179.93648 308.59998,170.53648 
					306.09998,160.2365 				"/>
				<polygon class="st12" points="304.59998,180.03648 308.19995,170.8365 305.89996,160.7365 299.89996,156.53648 				"/>
			</g>
			<g class="st17">
				
					<linearGradient id="SVGID_18_" gradientUnits="userSpaceOnUse" x1="3774.3147" y1="4750.54883" x2="3757.06787" y2="4750.54883" gradientTransform="matrix(1.09 -0.02 0.02 1 -3867.50073 -4505.91992)">
					<stop  offset="0" style="stop-color:#83A4D4"/>
					<stop  offset="0.99" style="stop-color:#B6FBFF"/>
				</linearGradient>
				<polygon class="st19" points="341.79999,156.8365 330.59998,162.43648 329.29999,173.03648 341.89996,181.43648 
					348.09998,172.7365 347.09998,162.03648 				"/>
				<polygon class="st12" points="341.89996,181.43648 348.09998,172.7365 347.29999,162.03648 341.79999,156.8365 				"/>
			</g>
			<path class="st20" d="M296.20001,152.8365l8.89996,2.79999l-8.20001-32.70002l-13.79999,0.10001
				c0.5,5.8,4.79999,32.4,4.79999,32.4L296.20001,152.8365z"/>
			<polygon class="st21" points="305.09998,155.53648 297.5,123.03648 290.39996,123.03648 296.20001,152.93648 			"/>
			<path class="st21" d="M349,154.13649c0,0-2.70001-27.60001-2.79999-32.60001l-13.79999-0.10001L330.5,154.13649l8.90002-2.79999
				L349,154.13649z"/>
			<polygon class="st20" points="339.29999,151.2365 338.89996,119.43647 331.19995,119.43647 330.39996,154.03648 			"/>
			<path class="st22" d="M280.5,118.83649c0,8.79999,6.29999,9.20002,9,9.20002c2.29999,0,10.39996,0,10.39996-9.20002H280.5z"/>
			<path class="st22" d="M331.09998,118.83649c0,9.20002,8.5,8.79999,10.79999,8.79999c2.70001,0,8.09998,0.10001,8.09998-8.70001
				L331.09998,118.83649z"/>
			
				<linearGradient id="SVGID_19_" gradientUnits="userSpaceOnUse" x1="645.48181" y1="-671.0957" x2="661.58185" y2="-671.0957" gradientTransform="matrix(-1 0 0 -1 961.59991 -468.65924)">
				<stop  offset="0" style="stop-color:#8D685B"/>
				<stop  offset="1" style="stop-color:#7E6647"/>
			</linearGradient>
			<path class="st23" d="M300,202.93648l4.70001-9l9.89996,1.10001L316,203.63649l-6.20001,2.29999l-2.29999,5"/>
			
				<linearGradient id="SVGID_20_" gradientUnits="userSpaceOnUse" x1="4836.66162" y1="-1976.34875" x2="4836.66162" y2="-1993.47998" gradientTransform="matrix(0.82 0.57 0.57 -0.82 -2529.76733 -4177.89209)">
				<stop  offset="0" style="stop-color:#8D685B"/>
				<stop  offset="1" style="stop-color:#7E6647"/>
			</linearGradient>
			<path class="st24" d="M300,202.93648l4.70001-9l9.89996,1.10001L316,203.63649l-6.20001,2.29999l-2.29999,5L300,202.93648z"/>
			<path class="st25" d="M302.19995,289.23648c0,0,6.90002-4,20.5-0.39999v4.89999h-20.5V289.23648z"/>
			
				<linearGradient id="SVGID_21_" gradientUnits="userSpaceOnUse" x1="3899.57178" y1="-689.54572" x2="3862.13184" y2="-689.54572" gradientTransform="matrix(1 0 0 -1 -3589.77197 -468.65924)">
				<stop  offset="0" style="stop-color:#16222A"/>
				<stop  offset="1" style="stop-color:#3A6073"/>
			</linearGradient>
			<polygon class="st26" points="287.89996,239.93648 272.39996,236.03648 301,201.8365 309.79999,208.63649 			"/>
			<polygon class="st27" points="319.79999,265.23648 315.79999,259.63647 320.79999,259.63647 323.79999,258.73648 			"/>
			<polygon class="st28" points="306.89996,265.23648 310.89996,259.63647 305.89996,259.63647 302.89996,258.73648 			"/>
			
				<linearGradient id="SVGID_22_" gradientUnits="userSpaceOnUse" x1="648.29993" y1="4809.45312" x2="648.29993" y2="4815.0332" gradientTransform="matrix(-1 0 0 1 961.59991 -4549.76318)">
				<stop  offset="0" style="stop-color:#0077E9"/>
				<stop  offset="1" style="stop-color:#6146FF"/>
			</linearGradient>
			<polygon class="st29" points="305.89996,259.63647 306.89996,265.23648 306.89996,265.23648 306.89996,265.23648 
				313.39996,265.23648 319.79999,265.23648 319.79999,265.23648 319.79999,265.23648 320.69995,259.63647 			"/>
			
				<linearGradient id="SVGID_23_" gradientUnits="userSpaceOnUse" x1="640.89996" y1="4803.44971" x2="655.69995" y2="4803.44971" gradientTransform="matrix(-1 0 0 1 961.59991 -4549.76318)">
				<stop  offset="0" style="stop-color:#0077E9"/>
				<stop  offset="1" style="stop-color:#6146FF"/>
			</linearGradient>
			<polygon class="st30" points="313.39996,247.53648 320.69995,259.83649 305.89996,259.83649 			"/>
			<polygon class="st28" points="320.69995,259.83649 323.79999,258.73648 313.39996,247.53648 			"/>
			<polygon class="st28" points="306,259.83649 302.89996,258.73648 313.39996,247.53648 			"/>
			
				<linearGradient id="SVGID_24_" gradientUnits="userSpaceOnUse" x1="1670.67175" y1="-1954.93945" x2="1670.67175" y2="-1999.12952" gradientTransform="matrix(-0.88 0.48 -0.48 -0.88 932.73962 -2221.61377)">
				<stop  offset="0" style="stop-color:#0077E9"/>
				<stop  offset="1" style="stop-color:#6146FF"/>
			</linearGradient>
			<polygon class="st31" points="404.39996,301.83649 423.39996,306.83649 426.5,316.03647 424.69995,333.83649 
				417.89996,344.83649 407.79999,339.13647 395,324.83649 393.5,313.13647 			"/>
			
				<linearGradient id="SVGID_25_" gradientUnits="userSpaceOnUse" x1="1676.07153" y1="-2002.01904" x2="1665.11719" y2="-1976.47253" gradientTransform="matrix(-0.88 0.48 -0.48 -0.88 932.73962 -2221.61377)">
				<stop  offset="0" style="stop-color:#0077A3"/>
				<stop  offset="1" style="stop-color:#A046FF"/>
			</linearGradient>
			<polygon class="st32" points="426.5,316.03647 424.69995,333.83649 417.89996,344.83649 407.79999,339.13647 			"/>
			
				<linearGradient id="SVGID_26_" gradientUnits="userSpaceOnUse" x1="786.29504" y1="-1070.59607" x2="818.46515" y2="-1070.59607" gradientTransform="matrix(-0.9952 0.0981 -0.0981 -0.9952 1104.9292 -816.12854)">
				<stop  offset="0" style="stop-color:#EFD8CE"/>
				<stop  offset="1" style="stop-color:#A046FF"/>
			</linearGradient>
			<polygon class="st33" points="426.39996,315.93649 407.79999,339.03647 395,324.63647 			"/>
			
				<linearGradient id="SVGID_27_" gradientUnits="userSpaceOnUse" x1="1688.87537" y1="-1960.60193" x2="1659.48523" y2="-1973.21191" gradientTransform="matrix(-0.88 0.48 -0.48 -0.88 932.73962 -2221.61377)">
				<stop  offset="0" style="stop-color:#0077A3"/>
				<stop  offset="1" style="stop-color:#A046FF"/>
			</linearGradient>
			<polygon class="st34" points="395,324.63647 404.39996,301.83649 423.19995,307.03647 426.29999,316.13647 			"/>
			
				<linearGradient id="SVGID_28_" gradientUnits="userSpaceOnUse" x1="1178.51465" y1="-1303.42871" x2="1178.51465" y2="-1512.68408" gradientTransform="matrix(-0.9635 0.2676 -0.2676 -0.9635 1141.61707 -1452.30872)">
				<stop  offset="0" style="stop-color:#83A4D4"/>
				<stop  offset="0.99" style="stop-color:#B6FBFF"/>
			</linearGradient>
			<polygon class="st35" points="391.69995,316.13647 402.09998,308.93649 410.89996,320.53647 412.5,306.13647 
				425.09998,306.83649 413.89996,299.03647 407.69995,300.83649 357,118.33649 352.79999,119.53648 403.39996,302.03647 
				397.19995,303.63647 			"/>
			
				<linearGradient id="SVGID_29_" gradientUnits="userSpaceOnUse" x1="570.62183" y1="-693.49573" x2="585.42188" y2="-693.49573" gradientTransform="matrix(-1 0 0 -1 961.59991 -468.65924)">
				<stop  offset="0" style="stop-color:#8D685B"/>
				<stop  offset="1" style="stop-color:#7E6647"/>
			</linearGradient>
			<path class="st36" d="M376.19995,223.43648l8.90002-4.5l5.89996,6.5l-4,5.29999
				C387.59998,230.7365,376.19995,223.43648,376.19995,223.43648z"/>
			
				<linearGradient id="SVGID_30_" gradientUnits="userSpaceOnUse" x1="6617.20801" y1="2347.84863" x2="6650.54053" y2="2290.12695" gradientTransform="matrix(1 0 0 1 -6320.08203 -1976.8335)">
				<stop  offset="0" style="stop-color:#16222A"/>
				<stop  offset="1" style="stop-color:#3A6073"/>
			</linearGradient>
			<path class="st37" d="M377.89996,342.53647c0,5.30002-28.79999,2.60001-64.29999,2.60001c-35.50006,0-64.3,2.60001-64.3-2.60001
				s28.8-16.39999,64.3-16.39999S377.89996,337.33649,377.89996,342.53647z"/>
			
				<linearGradient id="SVGID_31_" gradientUnits="userSpaceOnUse" x1="4132.67188" y1="-806.29572" x2="4132.67188" y2="-778.91608" gradientTransform="matrix(1 0 0 -1 -3785.47192 -468.65924)">
				<stop  offset="0" style="stop-color:#8D685B"/>
				<stop  offset="0.32" style="stop-color:#886755"/>
				<stop  offset="0.47" style="stop-color:#876754"/>
				<stop  offset="1" style="stop-color:#7E6647"/>
			</linearGradient>
			<path class="st38" d="M334.79999,310.23648c0,0,14.70001-1.29999,17.39996,11.30002
				c2.70001,12.60001,7.40002,16.10001,7.40002,16.10001s-15.20001-1.30002-18.20001-13.89999
				C338.39996,311.13651,334.79999,310.23648,334.79999,310.23648z"/>
			
				<linearGradient id="SVGID_32_" gradientUnits="userSpaceOnUse" x1="-2517.29004" y1="-806.0957" x2="-2517.29004" y2="-778.71613" gradientTransform="matrix(-1 0 0 -1 -2238.89014 -468.65924)">
				<stop  offset="0" style="stop-color:#8D685B"/>
				<stop  offset="0.32" style="stop-color:#886755"/>
				<stop  offset="0.47" style="stop-color:#876754"/>
				<stop  offset="1" style="stop-color:#7E6647"/>
			</linearGradient>
			<path class="st39" d="M290.79999,310.03647c0,0-14.70001-1.29999-17.40002,11.30002s-7.40002,16.10001-7.40002,16.10001
				s15.20001-1.30002,18.29999-13.89999C287.3999,310.93649,290.79999,310.03647,290.79999,310.03647z"/>
			<path class="st40" d="M281.59998,328.63647c0-17.10001,13.90002-37.19998,30.89996-37.19998c17.10004,0,31,20.10001,31,37.19998
				c0,17.10001-13.79999,31-30.89996,31C295.5,359.53647,281.70001,345.73648,281.59998,328.63647L281.59998,328.63647
				L281.59998,328.63647z"/>
			
				<linearGradient id="SVGID_33_" gradientUnits="userSpaceOnUse" x1="649.04999" y1="-760.0957" x2="649.04999" y2="-828.29572" gradientTransform="matrix(-1 0 0 -1 961.59991 -468.65924)">
				<stop  offset="0" style="stop-color:#8D685B"/>
				<stop  offset="0.32" style="stop-color:#886755"/>
				<stop  offset="0.47" style="stop-color:#876754"/>
				<stop  offset="1" style="stop-color:#7E6647"/>
			</linearGradient>
			<path class="st41" d="M281.59998,328.63647c0-17.10001,13.90002-37.19998,30.89996-37.19998c17.10004,0,31,20.10001,31,37.19998
				c0,17.10001-13.79999,31-30.89996,31C295.5,359.53647,281.70001,345.73648,281.59998,328.63647L281.59998,328.63647
				L281.59998,328.63647z"/>
			<circle class="st42" cx="340.29999" cy="338.83649" r="5.8"/>
			<circle class="st42" cx="336.09998" cy="334.13647" r="3.5"/>
			<circle class="st42" cx="342.5" cy="325.23648" r="3.5"/>
			<circle class="st42" cx="342.59998" cy="331.63647" r="5"/>
			<circle class="st42" cx="282.89996" cy="333.53647" r="4.09999"/>
			<circle class="st42" cx="283.09998" cy="329.13647" r="2.90001"/>
			<circle class="st42" cx="331.79999" cy="340.23648" r="4.60001"/>
			<circle class="st42" cx="325.39996" cy="341.23648" r="4.60001"/>
			
				<linearGradient id="SVGID_34_" gradientUnits="userSpaceOnUse" x1="636.09442" y1="-877.60217" x2="674.25189" y2="-811.50928" gradientTransform="matrix(-1 0 0 -1 961.59991 -468.65924)">
				<stop  offset="0.31" style="stop-color:#16222A"/>
				<stop  offset="1" style="stop-color:#3A6073"/>
			</linearGradient>
			<path class="st43" d="M347.79999,353.63647c0,0,0,21.39999-14.20001,27.70001c-11.40002,5-7.29999,29.69998-22.60004,35.89999
				c-15.29999,6.20001-23.79999,11.39999-34.69995,0.39999c0,0-3.59998-6.19998,7.29999-9.5
				c10.89996-3.29999,9.20001-7.59998,7-12.39999c-2.20001-4.79999-8-16.39999-4.79999-23c3.20001-6.59998-8.90002-11-9.5-21.89999
				S347.79999,353.63647,347.79999,353.63647z"/>
			
				<linearGradient id="SVGID_35_" gradientUnits="userSpaceOnUse" x1="632.13391" y1="-782.38226" x2="665.42358" y2="-840.03894" gradientTransform="matrix(-1 0 0 -1 961.59991 -468.65924)">
				<stop  offset="0" style="stop-color:#16222A"/>
				<stop  offset="1" style="stop-color:#3A6073"/>
			</linearGradient>
			<path class="st44" d="M248.2,341.83649c0-5.30002,29.50002-12.20001,65.50002-5.20001
				c34.89996,6.80002,64.20001,0.60001,64.20001,5.80002c0,5.19998-28.79999,16.39999-64.29999,16.39999
				S248.2,347.03647,248.2,341.83649z"/>
		</g>
		<g>
			<path class="st45" d="M203.8,160.55002v10H218.7c5,0,9.60001,2.89999,11.79999,7.29999l16.60001,41l-11.60001,38.60001
				l1.20001,10.5l-9.20001,5l-6.39999-6.5l4-5.60001l-1-5.79999l5.39999-34.20001l-8.20001-17.89999L218.49998,258.75
				l-6.89999,83.89999h-14.69998v-83.60001h-7.79999V342.25h-14.7l-6.89999-83.20001l-2.8-56.10001l-8.3,18l5.39999,34.10001
				l-1,5.70001l4,5.60001l-6.39999,6.5l-9.2-5l1.2-10.5l-11.50002-38.30002l16.60001-41c2.2-4.5,6.8-7.39999,11.8-7.29999h15v-10"/>
			
				<linearGradient id="SVGID_36_" gradientUnits="userSpaceOnUse" x1="193" y1="-3109.14575" x2="193" y2="-3291.24561" gradientTransform="matrix(1 0 0 1 0 3451.79565)">
				<stop  offset="0" style="stop-color:#D99A60"/>
				<stop  offset="0.24" style="stop-color:#D48B57"/>
				<stop  offset="0.71" style="stop-color:#CD7247"/>
				<stop  offset="1" style="stop-color:#CA6941"/>
			</linearGradient>
			<path class="st46" d="M203.8,160.55002v10H218.7c5,0,9.60001,2.89999,11.79999,7.29999l16.60001,41l-11.60001,38.60001
				l1.20001,10.5l-9.20001,5l-6.39999-6.5l4-5.60001l-1-5.79999l5.39999-34.20001l-8.20001-17.89999L218.49998,258.75
				l-6.89999,83.89999h-14.69998v-83.60001h-7.79999V342.25h-14.7l-6.89999-83.20001l-2.8-56.10001l-8.3,18l5.39999,34.10001
				l-1,5.70001l4,5.60001l-6.39999,6.5l-9.2-5l1.2-10.5l-11.50002-38.30002l16.60001-41c2.2-4.5,6.8-7.39999,11.8-7.29999h15v-10"/>
			
				<linearGradient id="SVGID_37_" gradientUnits="userSpaceOnUse" x1="193.05002" y1="4682.3501" x2="193.05002" y2="4792.25" gradientTransform="matrix(1 0 0 -1 0 5024.8999)">
				<stop  offset="0" style="stop-color:#442072"/>
				<stop  offset="0.36" style="stop-color:#3B2166"/>
				<stop  offset="1" style="stop-color:#242447"/>
			</linearGradient>
			<polygon class="st47" points="166.20001,232.64999 167.50002,259.04999 174.50002,342.25 189.2,342.25 189.2,259.04999 
				197.00002,259.04999 197.00002,342.54999 211.8,342.54999 218.7,258.75 219.90001,232.64999 			"/>
			<path class="st48" d="M171.3,311.04999c0,0,2.7,28.79999,2.89999,34.10001l14.39999,0.10001l2-34.10001l-9.3,3L171.3,311.04999z"
				/>
			<polygon class="st49" points="181.40001,314.14999 181.8,347.35001 189.2,347.35001 190.7,311.14999 			"/>
			<path class="st50" d="M191.7,348.04999c0-9.60001-7.8-9.60001-10.2-9.60001c-2.8,0-10.7,0.39999-10.7,9.60001H191.7z"/>
			
				<linearGradient id="SVGID_38_" gradientUnits="userSpaceOnUse" x1="193.10001" y1="4778.5332" x2="193.10001" y2="4792.83301" gradientTransform="matrix(1 0 0 -1 0 5024.8999)">
				<stop  offset="0" style="stop-color:#442072"/>
				<stop  offset="0.02" style="stop-color:#42206F"/>
				<stop  offset="0.15" style="stop-color:#34225D"/>
				<stop  offset="0.31" style="stop-color:#2B2350"/>
				<stop  offset="0.53" style="stop-color:#262449"/>
				<stop  offset="1" style="stop-color:#242447"/>
			</linearGradient>
			<polygon class="st51" points="219.50002,246.35001 220.2,232.04999 166.00002,232.04999 166.60001,246.25 			"/>
			
				<linearGradient id="SVGID_39_" gradientUnits="userSpaceOnUse" x1="156.50002" y1="4768.1499" x2="156.50002" y2="4854.25" gradientTransform="matrix(1 0 0 -1 0 5024.8999)">
				<stop  offset="0" style="stop-color:#442072"/>
				<stop  offset="0.02" style="stop-color:#42206F"/>
				<stop  offset="0.15" style="stop-color:#34225D"/>
				<stop  offset="0.31" style="stop-color:#2B2350"/>
				<stop  offset="0.53" style="stop-color:#262449"/>
				<stop  offset="1" style="stop-color:#242447"/>
			</linearGradient>
			<path class="st52" d="M164.70001,202.95001l-8.3,18l5.2,32.60001l-11.3,3.20001l-11.39999-37.60004l16.60001-41
				c2.2-4.5,5.10001-7.5,13.2-7.5l5.39999,18.20001L164.70001,202.95001z"/>
			
				<linearGradient id="SVGID_40_" gradientUnits="userSpaceOnUse" x1="229.64999" y1="4768.25" x2="229.64999" y2="4854.25" gradientTransform="matrix(1 0 0 -1 0 5024.8999)">
				<stop  offset="0" style="stop-color:#442072"/>
				<stop  offset="0.02" style="stop-color:#42206F"/>
				<stop  offset="0.15" style="stop-color:#34225D"/>
				<stop  offset="0.31" style="stop-color:#2B2350"/>
				<stop  offset="0.53" style="stop-color:#262449"/>
				<stop  offset="1" style="stop-color:#242447"/>
			</linearGradient>
			<path class="st53" d="M221.50002,202.95001l8.20001,17.89999l-5.20001,32.60001L235.8,256.65002l11.39999-37.5l-16.60001-41
				c-2.20001-4.5-5.10001-7.5-13.20001-7.5l-5.29999,18.20001L221.50002,202.95001z"/>
			
				<linearGradient id="SVGID_41_" gradientUnits="userSpaceOnUse" x1="193.34999" y1="4788.43359" x2="193.34999" y2="4855.43359" gradientTransform="matrix(1 0 0 -1 0 5024.8999)">
				<stop  offset="0" style="stop-color:#48CCBF"/>
				<stop  offset="0.12" style="stop-color:#45C0B6"/>
				<stop  offset="0.34" style="stop-color:#3FA0A0"/>
				<stop  offset="0.64" style="stop-color:#346D7B"/>
				<stop  offset="0.99" style="stop-color:#252649"/>
				<stop  offset="1" style="stop-color:#242447"/>
			</linearGradient>
			<path class="st54" d="M193.2,180.45001h-0.10001c-3.10001-0.39999-13.10001-2.39999-13.10001-11h-11.39999
				c0,0,2.10001,13.39999-4.10001,32.89999l1.2,33.89999l27.7-3l27.60001,3.10001L222.2,202.25
				c-6.20001-19.5-4.10001-32.89999-4.10001-32.89999H206.7c0,8.5-10,10.5-13.10001,11L193.2,180.45001L193.2,180.45001z"/>
			<path class="st12" d="M193.3,233.35001l27.60001,3.10001l1.20001-34.29999c-6.20001-19.5-4.10001-32.60001-4.10001-32.60001
				h-11.39999c0,8.5-10,10.5-13.10001,11H193.3C193.2,180.45001,193.60002,233.35001,193.3,233.35001z"/>
			<polygon class="st55" points="186.90001,196.64999 191.00002,202.55002 185.8,202.55002 182.70001,203.45001 			"/>
			<polygon class="st55" points="200.3,196.64999 196.10002,202.55002 201.40001,202.55002 204.50002,203.45001 			"/>
			
				<linearGradient id="SVGID_42_" gradientUnits="userSpaceOnUse" x1="193.65001" y1="4822.44971" x2="193.65001" y2="4828.29004" gradientTransform="matrix(1 0 0 -1 0 5024.8999)">
				<stop  offset="0" style="stop-color:#F23719"/>
				<stop  offset="1" style="stop-color:#EF5C1B"/>
			</linearGradient>
			<polygon class="st56" points="201.40001,202.45001 200.3,196.64999 200.3,196.64999 200.3,196.64999 193.60002,196.64999 
				186.90001,196.64999 186.90001,196.64999 186.90001,196.64999 185.90001,202.45001 			"/>
			
				<linearGradient id="SVGID_43_" gradientUnits="userSpaceOnUse" x1="185.92191" y1="4816.1499" x2="201.39192" y2="4816.1499" gradientTransform="matrix(1 0 0 -1 0 5024.8999)">
				<stop  offset="0" style="stop-color:#F23719"/>
				<stop  offset="1" style="stop-color:#EF5C1B"/>
			</linearGradient>
			<polygon class="st57" points="193.60002,215.14999 185.90001,202.35001 201.40001,202.35001 			"/>
			<polygon class="st58" points="185.90001,202.35001 182.70001,203.45001 193.60002,215.14999 			"/>
			<polygon class="st58" points="201.3,202.35001 204.50002,203.45001 193.60002,215.14999 			"/>
			
				<linearGradient id="SVGID_44_" gradientUnits="userSpaceOnUse" x1="193.15001" y1="4752.6499" x2="193.15001" y2="4778.5498" gradientTransform="matrix(1 0 0 -1 0 5024.8999)">
				<stop  offset="0" style="stop-color:#48CCBF"/>
				<stop  offset="0.37" style="stop-color:#4ACDC0"/>
				<stop  offset="0.57" style="stop-color:#52D0C4"/>
				<stop  offset="0.74" style="stop-color:#60D6CA"/>
				<stop  offset="0.88" style="stop-color:#74DED3"/>
				<stop  offset="1" style="stop-color:#8BE8DD"/>
			</linearGradient>
			<polygon class="st59" points="219.3,246.35001 193.2,246.35001 193.00002,246.35001 166.90001,246.35001 164.8,272.25 
				193.40001,272.25 221.50002,272.25 			"/>
			<g class="st14">
				
					<linearGradient id="SVGID_45_" gradientUnits="userSpaceOnUse" x1="179" y1="4752.6499" x2="179" y2="4778.5498" gradientTransform="matrix(1 0 0 -1 0 5024.8999)">
					<stop  offset="0" style="stop-color:#48CCBF"/>
					<stop  offset="0.12" style="stop-color:#45C0B6"/>
					<stop  offset="0.34" style="stop-color:#3FA0A0"/>
					<stop  offset="0.64" style="stop-color:#346D7B"/>
					<stop  offset="0.99" style="stop-color:#252649"/>
					<stop  offset="1" style="stop-color:#242447"/>
				</linearGradient>
				<polygon class="st60" points="193.2,246.35001 189.10002,272.25 164.8,272.25 166.90001,246.35001 				"/>
				
					<linearGradient id="SVGID_46_" gradientUnits="userSpaceOnUse" x1="207.45" y1="4752.6499" x2="207.45" y2="4778.5498" gradientTransform="matrix(1 0 0 -1 0 5024.8999)">
					<stop  offset="0" style="stop-color:#48CCBF"/>
					<stop  offset="0.12" style="stop-color:#45C0B6"/>
					<stop  offset="0.34" style="stop-color:#3FA0A0"/>
					<stop  offset="0.64" style="stop-color:#346D7B"/>
					<stop  offset="0.99" style="stop-color:#252649"/>
					<stop  offset="1" style="stop-color:#242447"/>
				</linearGradient>
				<polygon class="st61" points="193.2,246.35001 197.3,272.25 221.7,272.25 219.50002,246.35001 				"/>
			</g>
			<g class="st17">
				
					<linearGradient id="SVGID_47_" gradientUnits="userSpaceOnUse" x1="190.50002" y1="4731" x2="168.45001" y2="4731" gradientTransform="matrix(1 0 0 -1 0 5024.8999)">
					<stop  offset="0" style="stop-color:#48CCBF"/>
					<stop  offset="0.12" style="stop-color:#45C0B6"/>
					<stop  offset="0.34" style="stop-color:#3FA0A0"/>
					<stop  offset="0.64" style="stop-color:#346D7B"/>
					<stop  offset="0.99" style="stop-color:#252649"/>
					<stop  offset="1" style="stop-color:#242447"/>
				</linearGradient>
				<polygon class="st62" points="189.60002,300.54999 190.50002,290.04999 178.60001,281.45001 168.40001,290.25 170.3,300.54999 
					179.70001,306.35001 				"/>
				<polygon class="st12" points="179.70001,306.45001 189.60002,300.54999 190.50002,290.04999 178.60001,281.45001 				"/>
			</g>
			<g class="st17">
				<polygon class="st63" points="207.7,281.45001 195.90001,290.04999 196.7,300.54999 206.7,306.45001 				"/>
				
					<linearGradient id="SVGID_48_" gradientUnits="userSpaceOnUse" x1="217.94191" y1="4731" x2="195.89192" y2="4731" gradientTransform="matrix(1 0 0 -1 0 5024.8999)">
					<stop  offset="0" style="stop-color:#48CCBF"/>
					<stop  offset="0.12" style="stop-color:#45C0B6"/>
					<stop  offset="0.34" style="stop-color:#3FA0A0"/>
					<stop  offset="0.64" style="stop-color:#346D7B"/>
					<stop  offset="0.99" style="stop-color:#252649"/>
					<stop  offset="1" style="stop-color:#242447"/>
				</linearGradient>
				<polygon class="st64" points="196.7,300.54999 195.90001,290.04999 207.7,281.45001 217.90001,290.25 216.00002,300.54999 
					206.60002,306.35001 				"/>
				<polygon class="st65" points="206.60002,306.35001 216.00002,300.54999 217.90001,290.25 207.7,281.45001 				"/>
			</g>
			<path class="st49" d="M205.00002,314.14999l-9.29999-3l2,34.10001l14.39999-0.10001
				c0.10001-5.20001,2.89999-34.10001,2.89999-34.10001L205.00002,314.14999z"/>
			<polygon class="st48" points="195.7,311.14999 197.10002,347.35001 204.50002,347.35001 205.00002,314.14999 			"/>
			<path class="st50" d="M215.60002,348.04999c0-9.20001-7.89999-9.60001-10.79999-9.60001c-2.39999,0-10.20001,0-10.20001,9.60001
				H215.60002z"/>
			<path class="st66" d="M203.8,167.25c0,0-7.20001,4.20001-21.39999,0.39999v-5.10001H203.8V167.25z"/>
			<path class="st67" d="M225.60002,128.14999c0,17.89999-14.5,38.89999-32.29999,38.89999s-32.40002-20.99997-32.40002-38.79999
				c0-17.89999,14.39999-32.39999,32.29999-32.39999S225.60002,110.25001,225.60002,128.14999L225.60002,128.14999z"/>
			
				<linearGradient id="SVGID_49_" gradientUnits="userSpaceOnUse" x1="194.3866" y1="-778.33563" x2="194.3866" y2="-849.53571" gradientTransform="matrix(1 -0.0007 0.0007 1 -0.56607 945.52136)">
				<stop  offset="0" style="stop-color:#D99A60"/>
				<stop  offset="0.24" style="stop-color:#D48B57"/>
				<stop  offset="0.71" style="stop-color:#CD7247"/>
				<stop  offset="1" style="stop-color:#CA6941"/>
			</linearGradient>
			<path class="st68" d="M225.60002,128.14999c0,17.89999-14.5,38.89999-32.29999,38.89999s-32.40002-20.99997-32.40002-38.79999
				c0-17.89999,14.39999-32.39999,32.29999-32.39999S225.60002,110.25001,225.60002,128.14999L225.60002,128.14999z"/>
			
				<linearGradient id="SVGID_50_" gradientUnits="userSpaceOnUse" x1="192.79999" y1="4864.1499" x2="192.79999" y2="4934.75" gradientTransform="matrix(1 0 0 -1 0 5024.8999)">
				<stop  offset="0" style="stop-color:#442072"/>
				<stop  offset="0.02" style="stop-color:#42206F"/>
				<stop  offset="0.15" style="stop-color:#34225D"/>
				<stop  offset="0.31" style="stop-color:#2B2350"/>
				<stop  offset="0.53" style="stop-color:#262449"/>
				<stop  offset="1" style="stop-color:#242447"/>
			</linearGradient>
			<path class="st69" d="M231.8,116.85001c0,7.10001-3.29999,27.7-5.20001,34.2c-1.60001,5.19998-11.10001,8.60001-15.70001,9.69998
				v-16.19998c20.89999-6.5,4.60001-34.30001,0-27.80001c-2.89999,7.8-12.20001,11.30001-18.10001,10.89999
				c-6,0.39999-15.2-3.10001-18.10001-10.89999c-4.60001-6.5-20.89999,21.30001,0,27.80001V160.75
				c-4.5-1.10001-14.10001-4.5-15.7-9.69998c-2-6.5-5.2-27.10001-5.2-34.2c0,0,13.3-26.7,38.70001-26.7
				C218.10002,90.15,231.8,116.85001,231.8,116.85001z"/>
			
				<linearGradient id="SVGID_51_" gradientUnits="userSpaceOnUse" x1="228.0919" y1="4915.87061" x2="251.54192" y2="4915.87061" gradientTransform="matrix(1 0 0 -1 0 5024.8999)">
				<stop  offset="0" style="stop-color:#F23719"/>
				<stop  offset="1" style="stop-color:#EF5C1B"/>
			</linearGradient>
			<path class="st70" d="M232.2,119.85001C232.2,119.75001,232.2,119.75001,232.2,119.85001
				c2.89999-0.2,5.70001-1.2,7.89999-3.10001c0.29999-0.3,0.10001-0.7-0.29999-0.7c-1.60001,0.3-3.29999,0.39999-4.89999,0.3
				c8.70001-0.39999,15.10001-6.8,16.20001-8.8c0.29999-0.39999,0-0.7-0.29999-0.60001c-8.79999,2.7-10.5,2.89999-10.5,2.89999
				c7-2.2,10.60001-10.2,11.10001-13.5c0.10001-0.3-0.39999-0.5-0.60001-0.3c-6.70001,9.5-18.10001,15.10001-21.79999,16.89999
				c-0.70001,0.39999-1.10001,1.10001-1.20001,1.8l0.29999,4.60001v0.7c-0.29999,2.10001-0.5,2.39999,0.70001,1.7
				C230.50002,120.95,232.2,119.75001,232.2,119.85001"/>
			
				<linearGradient id="SVGID_52_" gradientUnits="userSpaceOnUse" x1="4044.75" y1="4914.9707" x2="4068.20996" y2="4914.9707" gradientTransform="matrix(-1 0 0 -1 4202.32178 5024.8999)">
				<stop  offset="0" style="stop-color:#F23719"/>
				<stop  offset="1" style="stop-color:#EF5C1B"/>
			</linearGradient>
			<path class="st71" d="M153.50002,120.75001C153.50002,120.65,153.50002,120.65,153.50002,120.75001
				c-2.89999-0.2-5.7-1.2-7.89999-3.10001c-0.3-0.3-0.10001-0.7,0.3-0.7c1.60001,0.3,3.3,0.39999,4.89999,0.3
				c-8.7-0.39999-15.10001-6.8-16.2-8.8c-0.3-0.39999,0-0.7,0.3-0.60001c8.8,2.7,10.60001,2.89999,10.60001,2.89999
				c-7-2.2-10.60001-10.2-11.10001-13.5c-0.10001-0.3,0.39999-0.5,0.60001-0.3c6.7,9.5,18.10001,15.10001,21.8,16.89999
				c0.7,0.39999,1.10001,1.10001,1.2,1.8l-0.3,4.60001v0.7c0.3,2.10001,0.5,2.39999-0.7,1.7
				C155.20001,121.85001,153.60001,120.65,153.50002,120.75001"/>
			<path class="st72" d="M156.00002,215.95001c2.10001,7.39999,6.89999,11.10001,3.60001,18.29999s-2.60001,13-7.7,17.20001
				c-5.2,4.20001-8.5,1.10001-14-7.5s-14.8-6-19-15.60001s-1.39999-16.79999-5.3-24.19998
				c-3.89999-7.39999-15.7-12.70001-15.5-18.20001c0.10001-5.39999,1.3-10.60001-4.3-18.29999
				c-5.7-7.70001-4.60001-12.89999-5.60001-22.60001s-11.2-14.60001-12-25.30001l-0.7-10.8c0,0,3.3,13,12.7,15s-8-14.3-12.7-34.3
				s-10-25.7-10-25.7s10.2,15,16.3,17.7s17.10001,9.3,17.10001,16.3c0,0-1.3-12.7-6.3-18.5c0,0,11.7,10.89999,15,11.89999
				s11.3,12.8,11.3,20.10001s6.60001,8.60001,8.3,16.9s3,24.60001,4.39999,20c1.3-4.70001,1.3-9.89999,0.3-14.39999
				c0,0,4.2,7.69998,5.89999,20.10001c1.7,12.39999-1.39999,13.60001,3.10001,19.69998c7,7,12,8,13,22
				C153.90001,195.75,154.00002,208.75,156.00002,215.95001z"/>
			
				<linearGradient id="SVGID_53_" gradientUnits="userSpaceOnUse" x1="68.83411" y1="-441.16687" x2="163.82793" y2="-441.16687" gradientTransform="matrix(1 0 0 1 0 599.79572)">
				<stop  offset="0" style="stop-color:#F23719"/>
				<stop  offset="1" style="stop-color:#EF5C1B"/>
			</linearGradient>
			<path class="st73" d="M159.50002,215.95001c0,7.70001,6.89999,11.10001,3.60001,18.29999s-2.60001,13-7.7,17.20001
				c-5.2,4.20001-8.5,1.10001-14-7.5s-14.8-6-19-15.60001s-1.39999-16.79999-5.3-24.19998
				c-3.89999-7.39999-15.7-12.70001-15.5-18.20001c0.10001-5.39999,1.3-10.60001-4.3-18.29999
				c-5.7-7.70001-4.60001-12.89999-5.60001-22.60001s-11.2-14.60001-12-25.30001l-0.7-10.8c0,0,3.3,13,12.7,15s-8-14.3-12.7-34.3
				s-10-25.7-10-25.7s10.2,15,16.3,17.7s17.10001,9.3,17.10001,16.3c0,0-1.3-12.7-6.3-18.5c0,0,11.7,10.89999,15,11.89999
				s11.3,12.8,11.3,20.10001s6.60001,8.60001,8.3,16.9s3,24.60001,4.39999,20c1.3-4.70001,1.3-9.89999,0.3-14.39999
				c0,0,4.2,7.69998,5.89999,20.10001c1.7,12.39999-1.39999,13.60001,3.10001,19.69998c8,7,13,8,14,22
				C156.60001,206.35001,159.50002,215.95001,159.50002,215.95001z"/>
			<path class="st48" d="M168.50002,243.54999c-1.39999,0.5-2.39999,1.70001-2.8,3.10001l-9.89999,3.79999l-4.2-10.89999
				c0.2-4.89999,1.39999-9.60001,3.5-14l-57-117.3l46.2,120.8l0,0L98.10001,108.25001l35.8,125.49999
				c4.5,1.89999,8.5,4.60001,11.89999,8.10001l4.2,11l-9.89999,3.79999c-1.2-0.79999-2.7-1-4.10001-0.5
				c-2.3,0.89999-3.39999,3.39999-2.5,5.70001c0.89999,2.29999,3.39999,3.39999,5.7,2.5c1.60001-0.60001,2.7-2,2.8-3.70001
				l9.60001-3.70001l6,15.5L157,280.74997l6.3-2.39999l0,0l6.3-2.39999l-6-5.79999l-6-15.5l9.60001-3.70001
				c1.2,1.10001,3,1.5,4.60001,0.89999c2.3-0.89999,3.39999-3.39999,2.60001-5.70001l0,0c-0.7-2.29999-3.2-3.5-5.39999-2.70001
				C168.70001,243.45001,168.60001,243.54999,168.50002,243.54999z"/>
			<path class="st49" d="M98.10001,108.15L98.10001,108.15l57.2,117.39999c-2.10001,4.39999-3.3,9.10001-3.5,14l4.2,11
				l9.89999-3.79999c0.39999-1.39999,1.39999-2.60001,2.8-3.10001c2.3-0.89999,4.8,0.29999,5.7,2.60001
				c0.89999,2.29999-0.3,4.79999-2.60001,5.70001c-1.60001,0.60001-3.39999,0.29999-4.60001-0.89999l-9.60001,3.70001l6,15.5
				l6,5.79999l-6.3,2.39999l0,0L98.10001,108.15z"/>
			<path class="st74" d="M162.10001,254.95001l-1,5.70001l4,5.60001l-6.3,6.5l-9.2-5l1.2-10.5L162.10001,254.95001z"/>
			
				<linearGradient id="SVGID_54_" gradientUnits="userSpaceOnUse" x1="68.76411" y1="-436.96692" x2="163.75793" y2="-436.96692" gradientTransform="matrix(1 0 0 1 0 599.79572)">
				<stop  offset="0" style="stop-color:#F23719"/>
				<stop  offset="1" style="stop-color:#EF5C1B"/>
			</linearGradient>
			<path class="st75" d="M156.8,201.14999c0,0,2.60001,11.29999,2.60001,19S166.3,231.25,163.00002,238.44998
				s-2.60001,13-7.7,17.20001s-8.5,1.10001-14-7.5s-14.8-6-19-15.60001s-1.39999-16.79999-5.3-24.20001
				c-3.89999-7.39999-15.7-12.69998-15.5-18.19998c0.10001-5.39999,1.3-10.60001-4.3-18.30002
				c-5.7-7.69998-4.60001-12.89999-5.60001-22.60001s-11.2-14.60001-12-25.3l-0.7-10.8c0,0,3.3,13,12.7,14.99999
				c9.3,2-8-14.3-12.7-34.3s-10-25.7-10-25.7s10.2,15,16.3,17.7s17.10001,9.3,17.10001,16.3s-1.3-12.7-6.3-18.5
				c0,0,11.7,10.89999,15,11.89999s11.3,12.8,11.3,20.10001s6.60001,8.60001,8.3,16.89999c1.7,8.30002,3,24.60001,4.39999,20
				c1.3-4.69998,1.3-9.89999,0.3-14.39999c0,0,4.2,7.70001,5.89999,20.10001c1.7,12.40002-1.39999,13.60001,3.10001,19.70001
				C151.50002,186.25,155.3,187.14999,156.8,201.14999z"/>
		</g>
	</g>
</g>
</svg>
