<?xml version="1.0" encoding="utf-8"?>
<!-- Generator: Adobe Illustrator 20.1.0, SVG Export Plug-In . SVG Version: 6.00 Build 0)  -->
<svg version="1.1" id="Layer_1" xmlns="http://www.w3.org/2000/svg" xmlns:xlink="http://www.w3.org/1999/xlink" x="0px" y="0px"
	 viewBox="0 0 709 488" style="enable-background:new 0 0 709 488;" xml:space="preserve">
<style type="text/css">
	.st0{opacity:0.4;fill:url(#SVGID_1_);enable-background:new    ;}
	.st1{clip-path:url(#SVGID_3_);}
	.st2{opacity:0.8;fill:url(#SVGID_4_);enable-background:new    ;}
	.st3{opacity:0.5;fill:url(#SVGID_5_);enable-background:new    ;}
	.st4{opacity:0.8;fill:url(#SVGID_6_);enable-background:new    ;}
	.st5{opacity:0.5;fill:url(#SVGID_7_);enable-background:new    ;}
	.st6{fill:url(#SVGID_8_);}
	.st7{fill:url(#SVGID_9_);}
	.st8{fill:url(#SVGID_10_);}
	.st9{fill:url(#SVGID_11_);}
	.st10{fill:url(#SVGID_12_);}
	.st11{fill:url(#SVGID_13_);}
	.st12{opacity:0.3;fill:#D6EDEC;enable-background:new    ;}
	.st13{fill:url(#SVGID_14_);}
	.st14{opacity:0.3;}
	.st15{fill:url(#SVGID_15_);}
	.st16{fill:url(#SVGID_16_);}
	.st17{opacity:0.8;}
	.st18{fill:url(#SVGID_17_);}
	.st19{fill:url(#SVGID_18_);}
	.st20{fill:#545652;}
	.st21{fill:#3C3D3B;}
	.st22{fill:#424441;}
	.st23{opacity:0.8;fill:url(#SVGID_19_);enable-background:new    ;}
	.st24{opacity:0.5;fill:url(#SVGID_20_);enable-background:new    ;}
	.st25{opacity:5.000000e-02;fill:#161514;enable-background:new    ;}
	.st26{fill:url(#SVGID_21_);}
	.st27{fill:#3E86DD;}
	.st28{fill:#3875CE;}
	.st29{fill:url(#SVGID_22_);}
	.st30{fill:url(#SVGID_23_);}
	.st31{fill:url(#SVGID_24_);}
	.st32{opacity:0.7;fill:url(#SVGID_25_);enable-background:new    ;}
	.st33{opacity:0.2;fill:url(#SVGID_26_);enable-background:new    ;}
	.st34{opacity:0.7;fill:url(#SVGID_27_);enable-background:new    ;}
	.st35{fill:url(#SVGID_28_);}
	.st36{fill:url(#SVGID_29_);}
	.st37{fill:url(#SVGID_30_);}
	.st38{fill:url(#SVGID_31_);}
	.st39{fill:url(#SVGID_32_);}
	.st40{fill:#936024;}
	.st41{fill:url(#SVGID_33_);}
	.st42{fill:#020202;}
	.st43{fill:url(#SVGID_34_);}
	.st44{fill:url(#SVGID_35_);}
	.st45{opacity:0.8;fill:#DD9F22;enable-background:new    ;}
	.st46{opacity:0.5;fill:url(#SVGID_36_);enable-background:new    ;}
	.st47{fill:url(#SVGID_37_);}
	.st48{fill:#979E92;}
	.st49{fill:#AEB2AB;}
	.st50{fill:#CECEC4;}
	.st51{fill:url(#SVGID_38_);}
	.st52{fill:url(#SVGID_39_);}
	.st53{fill:url(#SVGID_40_);}
	.st54{fill:url(#SVGID_41_);}
	.st55{fill:#EA754B;}
	.st56{fill:url(#SVGID_42_);}
	.st57{fill:url(#SVGID_43_);}
	.st58{fill:#EF6F3C;}
	.st59{fill:url(#SVGID_44_);}
	.st60{fill:url(#SVGID_45_);}
	.st61{fill:url(#SVGID_46_);}
	.st62{fill:url(#SVGID_47_);}
	.st63{fill:#5F6D6C;}
	.st64{fill:url(#SVGID_48_);}
	.st65{opacity:0.3;fill:#C5EAE7;enable-background:new    ;}
	.st66{opacity:0.1;fill:#8E340C;enable-background:new    ;}
	.st67{fill:#D89E4A;}
	.st68{opacity:0.8;fill:url(#SVGID_49_);enable-background:new    ;}
	.st69{fill:url(#SVGID_50_);}
	.st70{fill:url(#SVGID_51_);}
	.st71{fill:url(#SVGID_52_);}
	.st72{opacity:0.6;fill:#8917C6;enable-background:new    ;}
	.st73{opacity:0.7;fill:url(#SVGID_53_);enable-background:new    ;}
	.st74{fill:#DA9D63;}
	.st75{opacity:0.2;fill:url(#SVGID_54_);enable-background:new    ;}
</style>
<title>Asset 1</title>
<g>
	
		<linearGradient id="SVGID_1_" gradientUnits="userSpaceOnUse" x1="354.5" y1="135.7957" x2="354.5" y2="623.7957" gradientTransform="matrix(1 0 0 -1 0 623.7957)">
		<stop  offset="0" style="stop-color:#48CCBF"/>
		<stop  offset="0.12" style="stop-color:#45C0B6"/>
		<stop  offset="0.34" style="stop-color:#3FA0A0"/>
		<stop  offset="0.64" style="stop-color:#346D7B"/>
		<stop  offset="0.99" style="stop-color:#252649"/>
		<stop  offset="1" style="stop-color:#242447"/>
	</linearGradient>
	<rect class="st0" width="709" height="488"/>
	<g>
		<g>
			<g>
				<g>
					<g>
						<defs>
							<rect id="SVGID_2_" x="473.7" y="204.3" width="45.1" height="83.6"/>
						</defs>
						<clipPath id="SVGID_3_">
							<use xlink:href="#SVGID_2_"  style="overflow:visible;"/>
						</clipPath>
						<g class="st1">
							
								<linearGradient id="SVGID_4_" gradientUnits="userSpaceOnUse" x1="444" y1="662.1957" x2="547.6" y2="662.1957" gradientTransform="matrix(1 0 0 -1 0 967.7957)">
								<stop  offset="0" style="stop-color:#8D685B"/>
								<stop  offset="1" style="stop-color:#7E6647"/>
							</linearGradient>
							<path class="st2" d="M506.1,218.5v9.6h14.3c4.8,0,9.2,2.7,11.3,7l15.9,39.3l-11.2,36.9l1.2,10l-8.8,4.8l-6.1-6.3l3.8-5.4
								l-0.9-5.5l5.2-32.7l-7.8-17.1l-2.7,53.4l-6.6,80.2h-14.1v-80h-7.5v79.6H478l-6.6-79.6l-2.7-53.7l-7.9,17.2l5.2,32.7l-0.9,5.5
								l3.8,5.5l-6.1,6.3l-8.8-4.8l1.2-10l-11.2-37l15.9-39.3c2.1-4.3,6.5-7,11.3-7h14.4v-9.6"/>
							
								<linearGradient id="SVGID_5_" gradientUnits="userSpaceOnUse" x1="495.8" y1="3083.0957" x2="495.8" y2="3257.2957" gradientTransform="matrix(1 0 0 -1 0 3475.7957)">
								<stop  offset="0" style="stop-color:#8D685B"/>
								<stop  offset="1" style="stop-color:#7E6647"/>
							</linearGradient>
							<path class="st3" d="M506.1,218.5v9.6h14.3c4.8,0,9.2,2.7,11.3,7l15.9,39.3l-11.2,36.9l1.2,10l-8.8,4.8l-6.1-6.3l3.8-5.4
								l-0.9-5.5l5.2-32.7l-7.8-17.1l-2.7,53.4l-6.6,80.2h-14.1v-80h-7.5v79.6H478l-6.6-79.6l-2.7-53.7l-7.9,17.2l5.2,32.7l-0.9,5.5
								l3.8,5.5l-6.1,6.3l-8.8-4.8l1.2-10l-11.2-37l15.9-39.3c2.1-4.3,6.5-7,11.3-7h14.4v-9.6"/>
						</g>
					</g>
				</g>
			</g>
			<g>
				
					<linearGradient id="SVGID_6_" gradientUnits="userSpaceOnUse" x1="416.2419" y1="680.1457" x2="432.3419" y2="680.1457" gradientTransform="matrix(1 0 0 -1 0 967.7957)">
					<stop  offset="0" style="stop-color:#8D685B"/>
					<stop  offset="1" style="stop-color:#7E6647"/>
				</linearGradient>
				<path class="st4" d="M416.3,288l4.8-8.9l9.9,1.1l1.4,8.6l-6.2,2.3l-2.4,5.1"/>
				
					<linearGradient id="SVGID_7_" gradientUnits="userSpaceOnUse" x1="4215.814" y1="573.1428" x2="4215.814" y2="590.3216" gradientTransform="matrix(-0.82 -0.57 -0.57 0.82 4214.1577 2211.5938)">
					<stop  offset="0" style="stop-color:#8D685B"/>
					<stop  offset="1" style="stop-color:#7E6647"/>
				</linearGradient>
				<path class="st5" d="M416.3,288l4.8-8.9l9.9,1.1l1.4,8.6l-6.2,2.3l-2.4,5.1L416.3,288z"/>
			</g>
			
				<linearGradient id="SVGID_8_" gradientUnits="userSpaceOnUse" x1="3333.6719" y1="659.5957" x2="3333.6719" y2="579.3957" gradientTransform="matrix(-1 0 0 -1 3846.6719 967.7957)">
				<stop  offset="0" style="stop-color:#16222A"/>
				<stop  offset="1" style="stop-color:#3A6073"/>
			</linearGradient>
			<polygon class="st6" points="501.2,347.5 501.2,308.2 522,308.2 517.9,349 524.8,388.4 510.7,388.4 			"/>
			
				<linearGradient id="SVGID_9_" gradientUnits="userSpaceOnUse" x1="3369.4219" y1="659.5957" x2="3369.4219" y2="579.3957" gradientTransform="matrix(-1 0 0 -1 3846.6719 967.7957)">
				<stop  offset="0" style="stop-color:#16222A"/>
				<stop  offset="1" style="stop-color:#3A6073"/>
			</linearGradient>
			<polygon class="st7" points="461.7,343.1 472.1,308.2 492.8,308.2 478,344.3 476.8,388.4 462.7,388.4 			"/>
			
				<linearGradient id="SVGID_10_" gradientUnits="userSpaceOnUse" x1="3334.51" y1="712.9457" x2="3310.24" y2="712.9457" gradientTransform="matrix(-1 0 0 -1 3846.6719 967.7957)">
				<stop  offset="0" style="stop-color:#16222A"/>
				<stop  offset="1" style="stop-color:#3A6073"/>
			</linearGradient>
			<path class="st8" d="M512.2,227.7h4c12.9,0.2,14.1,9.9,16.6,22.4l3.7,29.1l-14.4,2.8L512.2,227.7z"/>
			
				<linearGradient id="SVGID_11_" gradientUnits="userSpaceOnUse" x1="3682.8333" y1="404.9504" x2="3682.8333" y2="469.8097" gradientTransform="matrix(-0.99 -0.12 0.12 -1.03 4048.0359 1151.1399)">
				<stop  offset="0" style="stop-color:#16222A"/>
				<stop  offset="1" style="stop-color:#3A6073"/>
			</linearGradient>
			<path class="st9" d="M459.8,269.1l1.8-20.7c1.2-10,3.6-20.1,12-20.8l7.6,0.9l-6,53.1H475l0.1,0.1l-43.8,8.5l-2.5-11.2
				L459.8,269.1z"/>
			
				<linearGradient id="SVGID_12_" gradientUnits="userSpaceOnUse" x1="3349.3718" y1="-4246.3838" x2="3349.3718" y2="-4263.2031" gradientTransform="matrix(-1 0 0 1 3846.6719 4549.6499)">
				<stop  offset="0" style="stop-color:#16222A"/>
				<stop  offset="1" style="stop-color:#3A6073"/>
			</linearGradient>
			<polygon class="st10" points="522.2,303.2 522.8,286.5 471.8,286.5 472.4,303.3 			"/>
			
				<linearGradient id="SVGID_13_" gradientUnits="userSpaceOnUse" x1="470.4" y1="708.5457" x2="520.9" y2="708.5457" gradientTransform="matrix(1 0 0 -1 0 967.7957)">
				<stop  offset="0" style="stop-color:#83A4D4"/>
				<stop  offset="0.99" style="stop-color:#B6FBFF"/>
			</linearGradient>
			<path class="st11" d="M495.5,237.7c-2.7-0.4-11.5-2.4-11.5-10.5h-10c0,0,1.8,12.9-3.6,31.5l1.1,32.6l24.1-3l24.3,2.8l1-32.4
				c-5.5-18.6-3.6-31.5-3.6-31.5h-10c0,8.1-8.8,10.1-11.5,10.5L495.5,237.7L495.5,237.7z"/>
			<path class="st12" d="M495.6,288.3l24.2,3.1l1-32.7c-5.5-18.6-3.6-31.2-3.6-31.2h-10c0,8.1-8.8,10-11.5,10.5h-0.2
				C495.4,237.9,495.8,288.3,495.6,288.3z"/>
			
				<linearGradient id="SVGID_14_" gradientUnits="userSpaceOnUse" x1="466" y1="652.9957" x2="524.3" y2="652.9957" gradientTransform="matrix(1 0 0 -1 0 967.7957)">
				<stop  offset="0" style="stop-color:#83A4D4"/>
				<stop  offset="0.99" style="stop-color:#B6FBFF"/>
			</linearGradient>
			<polygon class="st13" points="466,327.2 496.9,327.2 524.3,327.2 522.3,302.4 497.2,302.4 497.1,302.4 472.1,302.4 			"/>
			<g class="st14">
				
					<linearGradient id="SVGID_15_" gradientUnits="userSpaceOnUse" x1="3337.7219" y1="-4222.4233" x2="3337.7219" y2="-4247.0234" gradientTransform="matrix(-1 0 0 1 3846.6719 4549.6499)">
					<stop  offset="0" style="stop-color:#48CCBF"/>
					<stop  offset="0.12" style="stop-color:#45C0B6"/>
					<stop  offset="0.34" style="stop-color:#3FA0A0"/>
					<stop  offset="0.64" style="stop-color:#346D7B"/>
					<stop  offset="0.99" style="stop-color:#252649"/>
					<stop  offset="1" style="stop-color:#242447"/>
				</linearGradient>
				<polygon class="st15" points="522.3,302.6 524.3,327.1 495.5,327.2 493.6,302.8 				"/>
				
					<linearGradient id="SVGID_16_" gradientUnits="userSpaceOnUse" x1="3384.7417" y1="-4210.3027" x2="3384.7417" y2="-4234.8418" gradientTransform="matrix(-1 -9.424522e-03 -9.424522e-03 1 3824.1968 4569.2788)">
					<stop  offset="0" style="stop-color:#48CCBF"/>
					<stop  offset="0.12" style="stop-color:#45C0B6"/>
					<stop  offset="0.34" style="stop-color:#3FA0A0"/>
					<stop  offset="0.64" style="stop-color:#346D7B"/>
					<stop  offset="0.99" style="stop-color:#252649"/>
					<stop  offset="1" style="stop-color:#242447"/>
				</linearGradient>
				<polygon class="st16" points="472,302.6 464.9,327 488.1,327 493.6,302.8 				"/>
			</g>
			<g class="st17">
				
					<linearGradient id="SVGID_17_" gradientUnits="userSpaceOnUse" x1="2950.6177" y1="-4370.4741" x2="2933.5002" y2="-4370.4741" gradientTransform="matrix(-1.08 0.18 0.16 0.99 4400.0933 4141.583)">
					<stop  offset="0" style="stop-color:#83A4D4"/>
					<stop  offset="0.99" style="stop-color:#B6FBFF"/>
				</linearGradient>
				<polygon class="st18" points="508.6,359.3 518.8,352.2 518.7,341.6 503.8,335.2 500.2,344.6 502.7,354.9 				"/>
				<polygon class="st12" points="504.2,335.1 500.6,344.3 502.9,354.4 508.9,358.6 				"/>
			</g>
			<g class="st17">
				
					<linearGradient id="SVGID_18_" gradientUnits="userSpaceOnUse" x1="3243.8306" y1="-4231.7363" x2="3226.5837" y2="-4231.7363" gradientTransform="matrix(-1.09 2.000000e-02 2.000000e-02 1 4087.6968 4512.8535)">
					<stop  offset="0" style="stop-color:#83A4D4"/>
					<stop  offset="0.99" style="stop-color:#B6FBFF"/>
				</linearGradient>
				<polygon class="st19" points="467,358.3 478.2,352.7 479.5,342.1 466.9,333.7 460.7,342.4 461.7,353.1 				"/>
				<polygon class="st12" points="466.9,333.7 460.7,342.4 461.5,353.1 467,358.3 				"/>
			</g>
			<path class="st20" d="M512.6,362.3l-8.9-2.8l8.2,32.7l13.8-0.1c-0.5-5.8-4.8-32.4-4.8-32.4L512.6,362.3z"/>
			<polygon class="st21" points="503.7,359.6 511.3,392.1 518.4,392.1 512.6,362.2 			"/>
			<path class="st21" d="M459.8,361c0,0,2.7,27.6,2.8,32.6l13.8,0.1l1.9-32.7l-8.9,2.8L459.8,361z"/>
			<polygon class="st20" points="469.5,363.9 469.9,395.7 477.6,395.7 478.4,361.1 			"/>
			<path class="st22" d="M528.3,396.3c0-8.8-6.3-9.2-9-9.2c-2.3,0-10.4,0-10.4,9.2H528.3z"/>
			<path class="st22" d="M477.7,396.3c0-9.2-8.5-8.8-10.8-8.8c-2.7,0-8.1-0.1-8.1,8.7L477.7,396.3z"/>
			
				<linearGradient id="SVGID_19_" gradientUnits="userSpaceOnUse" x1="492.6819" y1="655.0957" x2="508.7819" y2="655.0957" gradientTransform="matrix(1 0 0 -1 0 967.7957)">
				<stop  offset="0" style="stop-color:#8D685B"/>
				<stop  offset="1" style="stop-color:#7E6647"/>
			</linearGradient>
			<path class="st23" d="M508.8,312.2l-4.7,9l-9.9-1.1l-1.4-8.6l6.2-2.3l2.3-5"/>
			
				<linearGradient id="SVGID_20_" gradientUnits="userSpaceOnUse" x1="4168.4219" y1="2121.623" x2="4168.4219" y2="2138.7542" gradientTransform="matrix(-0.82 -0.57 0.57 -0.82 2707.804 4431.2563)">
				<stop  offset="0" style="stop-color:#8D685B"/>
				<stop  offset="1" style="stop-color:#7E6647"/>
			</linearGradient>
			<path class="st24" d="M508.8,312.2l-4.7,9l-9.9-1.1l-1.4-8.6l6.2-2.3l2.3-5L508.8,312.2z"/>
			<path class="st25" d="M506.6,225.9c0,0-6.9,4-20.5,0.4v-4.9h20.5V225.9z"/>
			
				<linearGradient id="SVGID_21_" gradientUnits="userSpaceOnUse" x1="3347.6719" y1="673.5457" x2="3310.2319" y2="673.5457" gradientTransform="matrix(-1 0 0 -1 3846.6719 967.7957)">
				<stop  offset="0" style="stop-color:#16222A"/>
				<stop  offset="1" style="stop-color:#3A6073"/>
			</linearGradient>
			<polygon class="st26" points="520.9,275.2 536.4,279.1 507.8,313.3 499,306.5 			"/>
			<polygon class="st27" points="489,249.9 493,255.5 488,255.5 485,256.4 			"/>
			<polygon class="st28" points="501.9,249.9 497.9,255.5 502.9,255.5 505.9,256.4 			"/>
			
				<linearGradient id="SVGID_22_" gradientUnits="userSpaceOnUse" x1="495.5" y1="-4294.2031" x2="495.5" y2="-4299.7832" gradientTransform="matrix(1 0 0 1 0 4549.6499)">
				<stop  offset="0" style="stop-color:#0077E9"/>
				<stop  offset="1" style="stop-color:#6146FF"/>
			</linearGradient>
			<polygon class="st29" points="502.9,255.5 501.9,249.9 501.9,249.9 501.9,249.9 495.4,249.9 489,249.9 489,249.9 489,249.9 
				488.1,255.5 			"/>
			
				<linearGradient id="SVGID_23_" gradientUnits="userSpaceOnUse" x1="488.1" y1="-4288.1997" x2="502.9" y2="-4288.1997" gradientTransform="matrix(1 0 0 1 0 4549.6499)">
				<stop  offset="0" style="stop-color:#0077E9"/>
				<stop  offset="1" style="stop-color:#6146FF"/>
			</linearGradient>
			<polygon class="st30" points="495.4,267.6 488.1,255.3 502.9,255.3 			"/>
			<polygon class="st28" points="488.1,255.3 485,256.4 495.4,267.6 			"/>
			<polygon class="st28" points="502.8,255.3 505.9,256.4 495.4,267.6 			"/>
			
				<linearGradient id="SVGID_24_" gradientUnits="userSpaceOnUse" x1="1366.196" y1="1876.6046" x2="1366.196" y2="1920.7947" gradientTransform="matrix(0.88 -0.48 -0.48 -0.88 106.3983 2521.6672)">
				<stop  offset="0" style="stop-color:#0077E9"/>
				<stop  offset="1" style="stop-color:#6146FF"/>
			</linearGradient>
			<polygon class="st31" points="404.4,213.3 385.4,208.3 382.3,199.1 384.1,181.3 390.9,170.3 401,176 413.8,190.3 415.3,202 			
				"/>
			
				<linearGradient id="SVGID_25_" gradientUnits="userSpaceOnUse" x1="1371.5958" y1="1923.6842" x2="1360.6415" y2="1898.1377" gradientTransform="matrix(0.88 -0.48 -0.48 -0.88 106.3983 2521.6672)">
				<stop  offset="0" style="stop-color:#0077A3"/>
				<stop  offset="1" style="stop-color:#A046FF"/>
			</linearGradient>
			<polygon class="st32" points="382.3,199.1 384.1,181.3 390.9,170.3 401,176 			"/>
			
				<linearGradient id="SVGID_26_" gradientUnits="userSpaceOnUse" x1="606.4702" y1="1036.3079" x2="638.6403" y2="1036.3079" gradientTransform="matrix(0.9952 -9.810399e-02 -9.810399e-02 -0.9952 -120.5313 1279.4999)">
				<stop  offset="0" style="stop-color:#EFD8CE"/>
				<stop  offset="1" style="stop-color:#A046FF"/>
			</linearGradient>
			<polygon class="st33" points="382.4,199.2 401,176.1 413.8,190.5 			"/>
			
				<linearGradient id="SVGID_27_" gradientUnits="userSpaceOnUse" x1="1384.3997" y1="1882.2671" x2="1355.0095" y2="1894.8771" gradientTransform="matrix(0.88 -0.48 -0.48 -0.88 106.3983 2521.6672)">
				<stop  offset="0" style="stop-color:#0077A3"/>
				<stop  offset="1" style="stop-color:#A046FF"/>
			</linearGradient>
			<polygon class="st34" points="413.8,190.5 404.4,213.3 385.6,208.1 382.5,199 			"/>
			
				<linearGradient id="SVGID_28_" gradientUnits="userSpaceOnUse" x1="947.3569" y1="1243.7065" x2="947.3569" y2="1452.9619" gradientTransform="matrix(0.9635 -0.2676 -0.2676 -0.9635 -126.0783 1848.045)">
				<stop  offset="0" style="stop-color:#83A4D4"/>
				<stop  offset="0.99" style="stop-color:#B6FBFF"/>
			</linearGradient>
			<polygon class="st35" points="417.1,199 406.7,206.2 397.9,194.6 396.3,209 383.7,208.3 394.9,216.1 401.1,214.3 451.8,396.8 
				456,395.6 405.4,213.1 411.6,211.5 			"/>
			
				<linearGradient id="SVGID_29_" gradientUnits="userSpaceOnUse" x1="417.8219" y1="677.4957" x2="432.6219" y2="677.4957" gradientTransform="matrix(1 0 0 -1 0 967.7957)">
				<stop  offset="0" style="stop-color:#8D685B"/>
				<stop  offset="1" style="stop-color:#7E6647"/>
			</linearGradient>
			<path class="st36" d="M432.6,291.7l-8.9,4.5l-5.9-6.5l4-5.3C421.2,284.4,432.6,291.7,432.6,291.7z"/>
			
				<linearGradient id="SVGID_30_" gradientUnits="userSpaceOnUse" x1="6065.3081" y1="-1832.5985" x2="6098.6406" y2="-1774.877" gradientTransform="matrix(-1 0 0 1 6576.9819 1976.72)">
				<stop  offset="0" style="stop-color:#16222A"/>
				<stop  offset="1" style="stop-color:#3A6073"/>
			</linearGradient>
			<path class="st37" d="M430.9,172.6c0-5.3,28.8-2.6,64.3-2.6s64.3-2.6,64.3,2.6S530.7,189,495.2,189S430.9,177.8,430.9,172.6z"/>
			
				<linearGradient id="SVGID_31_" gradientUnits="userSpaceOnUse" x1="3580.7717" y1="790.2957" x2="3580.7717" y2="762.9161" gradientTransform="matrix(-1 0 0 -1 4042.3718 967.7957)">
				<stop  offset="0" style="stop-color:#8D685B"/>
				<stop  offset="0.32" style="stop-color:#886755"/>
				<stop  offset="0.47" style="stop-color:#876754"/>
				<stop  offset="1" style="stop-color:#7E6647"/>
			</linearGradient>
			<path class="st38" d="M474,204.9c0,0-14.7,1.3-17.4-11.3s-7.4-16.1-7.4-16.1s15.2,1.3,18.2,13.9S474,204.9,474,204.9z"/>
			
				<linearGradient id="SVGID_32_" gradientUnits="userSpaceOnUse" x1="-2670.0898" y1="790.0957" x2="-2670.0898" y2="762.7161" gradientTransform="matrix(1 0 0 -1 3200.49 967.7957)">
				<stop  offset="0" style="stop-color:#8D685B"/>
				<stop  offset="0.32" style="stop-color:#886755"/>
				<stop  offset="0.47" style="stop-color:#876754"/>
				<stop  offset="1" style="stop-color:#7E6647"/>
			</linearGradient>
			<path class="st39" d="M518,205.1c0,0,14.7,1.3,17.4-11.3s7.4-16.1,7.4-16.1s-15.2,1.3-18.3,13.9S518,205.1,518,205.1z"/>
			<path class="st40" d="M527.2,186.5c0,17.1-13.9,37.2-30.9,37.2c-17.1,0-31-20.1-31-37.2s13.8-31,30.9-31
				C513.3,155.6,527.1,169.4,527.2,186.5L527.2,186.5L527.2,186.5z"/>
			
				<linearGradient id="SVGID_33_" gradientUnits="userSpaceOnUse" x1="496.25" y1="744.0957" x2="496.25" y2="812.2957" gradientTransform="matrix(1 0 0 -1 0 967.7957)">
				<stop  offset="0" style="stop-color:#8D685B"/>
				<stop  offset="0.32" style="stop-color:#886755"/>
				<stop  offset="0.47" style="stop-color:#876754"/>
				<stop  offset="1" style="stop-color:#7E6647"/>
			</linearGradient>
			<path class="st41" d="M527.2,186.5c0,17.1-13.9,37.2-30.9,37.2c-17.1,0-31-20.1-31-37.2s13.8-31,30.9-31
				C513.3,155.6,527.1,169.4,527.2,186.5L527.2,186.5L527.2,186.5z"/>
			<circle class="st42" cx="468.5" cy="176.3" r="5.8"/>
			<circle class="st42" cx="472.7" cy="181" r="3.5"/>
			<circle class="st42" cx="466.3" cy="189.9" r="3.5"/>
			<circle class="st42" cx="466.2" cy="183.5" r="5"/>
			<circle class="st42" cx="525.9" cy="181.6" r="4.1"/>
			<circle class="st42" cx="525.7" cy="186" r="2.9"/>
			<circle class="st42" cx="477" cy="174.9" r="4.6"/>
			<circle class="st42" cx="483.4" cy="173.9" r="4.6"/>
			
				<linearGradient id="SVGID_34_" gradientUnits="userSpaceOnUse" x1="483.2944" y1="861.6022" x2="521.4519" y2="795.5092" gradientTransform="matrix(1 0 0 -1 0 967.7957)">
				<stop  offset="0.31" style="stop-color:#16222A"/>
				<stop  offset="1" style="stop-color:#3A6073"/>
			</linearGradient>
			<path class="st43" d="M461,161.5c0,0,0-21.4,14.2-27.7c11.4-5,7.3-29.7,22.6-35.9s23.8-11.4,34.7-0.4c0,0,3.6,6.2-7.3,9.5
				s-9.2,7.6-7,12.4s8,16.4,4.8,23s8.9,11,9.5,21.9S461,161.5,461,161.5z"/>
			
				<linearGradient id="SVGID_35_" gradientUnits="userSpaceOnUse" x1="479.334" y1="766.3823" x2="512.6236" y2="824.0389" gradientTransform="matrix(1 0 0 -1 0 967.7957)">
				<stop  offset="0" style="stop-color:#16222A"/>
				<stop  offset="1" style="stop-color:#3A6073"/>
			</linearGradient>
			<path class="st44" d="M560.6,173.3c0,5.3-29.5,12.2-65.5,5.2c-34.9-6.8-64.2-0.6-64.2-5.8s28.8-16.4,64.3-16.4
				S560.6,168.1,560.6,173.3z"/>
		</g>
		<g>
			<path class="st45" d="M271.9,209.3v10h14.9c5,0,9.6,2.9,11.8,7.3l16.6,41l-11.6,38.6l1.2,10.5l-9.2,5l-6.4-6.5l4-5.6l-1-5.8
				l5.4-34.2l-8.2-17.9l-2.8,55.8l-6.9,83.9H265v-83.6h-7.8V391h-14.7l-6.9-83.2l-2.8-56.1l-8.3,18l5.4,34.1l-1,5.7l4,5.6l-6.4,6.5
				l-9.2-5l1.2-10.5L207,267.8l16.6-41c2.2-4.5,6.8-7.4,11.8-7.3h15v-10"/>
			
				<linearGradient id="SVGID_36_" gradientUnits="userSpaceOnUse" x1="261.1" y1="3084.3958" x2="261.1" y2="3266.4956" gradientTransform="matrix(1 0 0 -1 0 3475.7957)">
				<stop  offset="0" style="stop-color:#D99A60"/>
				<stop  offset="0.24" style="stop-color:#D48B57"/>
				<stop  offset="0.71" style="stop-color:#CD7247"/>
				<stop  offset="1" style="stop-color:#CA6941"/>
			</linearGradient>
			<path class="st46" d="M271.9,209.3v10h14.9c5,0,9.6,2.9,11.8,7.3l16.6,41l-11.6,38.6l1.2,10.5l-9.2,5l-6.4-6.5l4-5.6l-1-5.8
				l5.4-34.2l-8.2-17.9l-2.8,55.8l-6.9,83.9H265v-83.6h-7.8V391h-14.7l-6.9-83.2l-2.8-56.1l-8.3,18l5.4,34.1l-1,5.7l4,5.6l-6.4,6.5
				l-9.2-5l1.2-10.5L207,267.8l16.6-41c2.2-4.5,6.8-7.4,11.8-7.3h15v-10"/>
			
				<linearGradient id="SVGID_37_" gradientUnits="userSpaceOnUse" x1="261.15" y1="-4158.3501" x2="261.15" y2="-4268.25" gradientTransform="matrix(1 0 0 1 0 4549.6499)">
				<stop  offset="0" style="stop-color:#442072"/>
				<stop  offset="0.36" style="stop-color:#3B2166"/>
				<stop  offset="1" style="stop-color:#242447"/>
			</linearGradient>
			<polygon class="st47" points="234.3,281.4 235.6,307.8 242.6,391 257.3,391 257.3,307.8 265.1,307.8 265.1,391.3 279.9,391.3 
				286.8,307.5 288,281.4 			"/>
			<path class="st48" d="M239.4,359.8c0,0,2.7,28.8,2.9,34.1l14.4,0.1l2-34.1l-9.3,3L239.4,359.8z"/>
			<polygon class="st49" points="249.5,362.9 249.9,396.1 257.3,396.1 258.8,359.9 			"/>
			<path class="st50" d="M259.8,396.8c0-9.6-7.8-9.6-10.2-9.6c-2.8,0-10.7,0.4-10.7,9.6H259.8z"/>
			
				<linearGradient id="SVGID_38_" gradientUnits="userSpaceOnUse" x1="261.2" y1="-4254.5332" x2="261.2" y2="-4268.833" gradientTransform="matrix(1 0 0 1 0 4549.6499)">
				<stop  offset="0" style="stop-color:#442072"/>
				<stop  offset="2.000000e-02" style="stop-color:#42206F"/>
				<stop  offset="0.15" style="stop-color:#34225D"/>
				<stop  offset="0.31" style="stop-color:#2B2350"/>
				<stop  offset="0.53" style="stop-color:#262449"/>
				<stop  offset="1" style="stop-color:#242447"/>
			</linearGradient>
			<polygon class="st51" points="287.6,295.1 288.3,280.8 234.1,280.8 234.7,295 			"/>
			
				<linearGradient id="SVGID_39_" gradientUnits="userSpaceOnUse" x1="224.6" y1="-4244.1499" x2="224.6" y2="-4330.25" gradientTransform="matrix(1 0 0 1 0 4549.6499)">
				<stop  offset="0" style="stop-color:#442072"/>
				<stop  offset="2.000000e-02" style="stop-color:#42206F"/>
				<stop  offset="0.15" style="stop-color:#34225D"/>
				<stop  offset="0.31" style="stop-color:#2B2350"/>
				<stop  offset="0.53" style="stop-color:#262449"/>
				<stop  offset="1" style="stop-color:#242447"/>
			</linearGradient>
			<path class="st52" d="M232.8,251.7l-8.3,18l5.2,32.6l-11.3,3.2L207,267.9l16.6-41c2.2-4.5,5.1-7.5,13.2-7.5l5.4,18.2L232.8,251.7
				z"/>
			
				<linearGradient id="SVGID_40_" gradientUnits="userSpaceOnUse" x1="297.75" y1="-4244.25" x2="297.75" y2="-4330.25" gradientTransform="matrix(1 0 0 1 0 4549.6499)">
				<stop  offset="0" style="stop-color:#442072"/>
				<stop  offset="2.000000e-02" style="stop-color:#42206F"/>
				<stop  offset="0.15" style="stop-color:#34225D"/>
				<stop  offset="0.31" style="stop-color:#2B2350"/>
				<stop  offset="0.53" style="stop-color:#262449"/>
				<stop  offset="1" style="stop-color:#242447"/>
			</linearGradient>
			<path class="st53" d="M289.6,251.7l8.2,17.9l-5.2,32.6l11.3,3.2l11.4-37.5l-16.6-41c-2.2-4.5-5.1-7.5-13.2-7.5l-5.3,18.2
				L289.6,251.7z"/>
			
				<linearGradient id="SVGID_41_" gradientUnits="userSpaceOnUse" x1="261.45" y1="-4264.4336" x2="261.45" y2="-4331.4336" gradientTransform="matrix(1 0 0 1 0 4549.6499)">
				<stop  offset="0" style="stop-color:#48CCBF"/>
				<stop  offset="0.12" style="stop-color:#45C0B6"/>
				<stop  offset="0.34" style="stop-color:#3FA0A0"/>
				<stop  offset="0.64" style="stop-color:#346D7B"/>
				<stop  offset="0.99" style="stop-color:#252649"/>
				<stop  offset="1" style="stop-color:#242447"/>
			</linearGradient>
			<path class="st54" d="M261.3,229.2h-0.1c-3.1-0.4-13.1-2.4-13.1-11h-11.4c0,0,2.1,13.4-4.1,32.9l1.2,33.9l27.7-3l27.6,3.1
				l1.2-34.1c-6.2-19.5-4.1-32.9-4.1-32.9h-11.4c0,8.5-10,10.5-13.1,11L261.3,229.2L261.3,229.2z"/>
			<path class="st12" d="M261.4,282.1l27.6,3.1l1.2-34.3c-6.2-19.5-4.1-32.6-4.1-32.6h-11.4c0,8.5-10,10.5-13.1,11h-0.2
				C261.3,229.2,261.7,282.1,261.4,282.1z"/>
			<polygon class="st55" points="255,245.4 259.1,251.3 253.9,251.3 250.8,252.2 			"/>
			<polygon class="st55" points="268.4,245.4 264.2,251.3 269.5,251.3 272.6,252.2 			"/>
			
				<linearGradient id="SVGID_42_" gradientUnits="userSpaceOnUse" x1="261.75" y1="-4298.4497" x2="261.75" y2="-4304.29" gradientTransform="matrix(1 0 0 1 0 4549.6499)">
				<stop  offset="0" style="stop-color:#F23719"/>
				<stop  offset="1" style="stop-color:#EF5C1B"/>
			</linearGradient>
			<polygon class="st56" points="269.5,251.2 268.4,245.4 268.4,245.4 268.4,245.4 261.7,245.4 255,245.4 255,245.4 255,245.4 
				254,251.2 			"/>
			
				<linearGradient id="SVGID_43_" gradientUnits="userSpaceOnUse" x1="254.0219" y1="-4292.1499" x2="269.4919" y2="-4292.1499" gradientTransform="matrix(1 0 0 1 0 4549.6499)">
				<stop  offset="0" style="stop-color:#F23719"/>
				<stop  offset="1" style="stop-color:#EF5C1B"/>
			</linearGradient>
			<polygon class="st57" points="261.7,263.9 254,251.1 269.5,251.1 			"/>
			<polygon class="st58" points="254,251.1 250.8,252.2 261.7,263.9 			"/>
			<polygon class="st58" points="269.4,251.1 272.6,252.2 261.7,263.9 			"/>
			
				<linearGradient id="SVGID_44_" gradientUnits="userSpaceOnUse" x1="261.25" y1="-4228.6499" x2="261.25" y2="-4254.5498" gradientTransform="matrix(1 0 0 1 0 4549.6499)">
				<stop  offset="0" style="stop-color:#48CCBF"/>
				<stop  offset="0.37" style="stop-color:#4ACDC0"/>
				<stop  offset="0.57" style="stop-color:#52D0C4"/>
				<stop  offset="0.74" style="stop-color:#60D6CA"/>
				<stop  offset="0.88" style="stop-color:#74DED3"/>
				<stop  offset="1" style="stop-color:#8BE8DD"/>
			</linearGradient>
			<polygon class="st59" points="287.4,295.1 261.3,295.1 261.1,295.1 235,295.1 232.9,321 261.5,321 289.6,321 			"/>
			<g class="st14">
				
					<linearGradient id="SVGID_45_" gradientUnits="userSpaceOnUse" x1="247.1" y1="-4228.6499" x2="247.1" y2="-4254.5498" gradientTransform="matrix(1 0 0 1 0 4549.6499)">
					<stop  offset="0" style="stop-color:#48CCBF"/>
					<stop  offset="0.12" style="stop-color:#45C0B6"/>
					<stop  offset="0.34" style="stop-color:#3FA0A0"/>
					<stop  offset="0.64" style="stop-color:#346D7B"/>
					<stop  offset="0.99" style="stop-color:#252649"/>
					<stop  offset="1" style="stop-color:#242447"/>
				</linearGradient>
				<polygon class="st60" points="261.3,295.1 257.2,321 232.9,321 235,295.1 				"/>
				
					<linearGradient id="SVGID_46_" gradientUnits="userSpaceOnUse" x1="275.55" y1="-4228.6499" x2="275.55" y2="-4254.5498" gradientTransform="matrix(1 0 0 1 0 4549.6499)">
					<stop  offset="0" style="stop-color:#48CCBF"/>
					<stop  offset="0.12" style="stop-color:#45C0B6"/>
					<stop  offset="0.34" style="stop-color:#3FA0A0"/>
					<stop  offset="0.64" style="stop-color:#346D7B"/>
					<stop  offset="0.99" style="stop-color:#252649"/>
					<stop  offset="1" style="stop-color:#242447"/>
				</linearGradient>
				<polygon class="st61" points="261.3,295.1 265.4,321 289.8,321 287.6,295.1 				"/>
			</g>
			<g class="st17">
				
					<linearGradient id="SVGID_47_" gradientUnits="userSpaceOnUse" x1="258.6" y1="-4207" x2="236.55" y2="-4207" gradientTransform="matrix(1 0 0 1 0 4549.6499)">
					<stop  offset="0" style="stop-color:#48CCBF"/>
					<stop  offset="0.12" style="stop-color:#45C0B6"/>
					<stop  offset="0.34" style="stop-color:#3FA0A0"/>
					<stop  offset="0.64" style="stop-color:#346D7B"/>
					<stop  offset="0.99" style="stop-color:#252649"/>
					<stop  offset="1" style="stop-color:#242447"/>
				</linearGradient>
				<polygon class="st62" points="257.7,349.3 258.6,338.8 246.7,330.2 236.5,339 238.4,349.3 247.8,355.1 				"/>
				<polygon class="st12" points="247.8,355.2 257.7,349.3 258.6,338.8 246.7,330.2 				"/>
			</g>
			<g class="st17">
				<polygon class="st63" points="275.8,330.2 264,338.8 264.8,349.3 274.8,355.2 				"/>
				
					<linearGradient id="SVGID_48_" gradientUnits="userSpaceOnUse" x1="286.0419" y1="-4207" x2="263.9919" y2="-4207" gradientTransform="matrix(1 0 0 1 0 4549.6499)">
					<stop  offset="0" style="stop-color:#48CCBF"/>
					<stop  offset="0.12" style="stop-color:#45C0B6"/>
					<stop  offset="0.34" style="stop-color:#3FA0A0"/>
					<stop  offset="0.64" style="stop-color:#346D7B"/>
					<stop  offset="0.99" style="stop-color:#252649"/>
					<stop  offset="1" style="stop-color:#242447"/>
				</linearGradient>
				<polygon class="st64" points="264.8,349.3 264,338.8 275.8,330.2 286,339 284.1,349.3 274.7,355.1 				"/>
				<polygon class="st65" points="274.7,355.1 284.1,349.3 286,339 275.8,330.2 				"/>
			</g>
			<path class="st49" d="M273.1,362.9l-9.3-3l2,34.1l14.4-0.1c0.1-5.2,2.9-34.1,2.9-34.1L273.1,362.9z"/>
			<polygon class="st48" points="263.8,359.9 265.2,396.1 272.6,396.1 273.1,362.9 			"/>
			<path class="st50" d="M283.7,396.8c0-9.2-7.9-9.6-10.8-9.6c-2.4,0-10.2,0-10.2,9.6H283.7z"/>
			<path class="st66" d="M271.9,216c0,0-7.2,4.2-21.4,0.4v-5.1h21.4V216z"/>
			<path class="st67" d="M293.7,176.9c0,17.9-14.5,38.9-32.3,38.9S229,194.8,229,177c0-17.9,14.4-32.4,32.3-32.4
				S293.7,159,293.7,176.9L293.7,176.9z"/>
			
				<linearGradient id="SVGID_49_" gradientUnits="userSpaceOnUse" x1="262.2948" y1="753.2923" x2="262.2948" y2="824.4923" gradientTransform="matrix(1 -6.981316e-04 -6.981316e-04 -1 -0.3918 969.2754)">
				<stop  offset="0" style="stop-color:#D99A60"/>
				<stop  offset="0.24" style="stop-color:#D48B57"/>
				<stop  offset="0.71" style="stop-color:#CD7247"/>
				<stop  offset="1" style="stop-color:#CA6941"/>
			</linearGradient>
			<path class="st68" d="M293.7,176.9c0,17.9-14.5,38.9-32.3,38.9S229,194.8,229,177c0-17.9,14.4-32.4,32.3-32.4
				S293.7,159,293.7,176.9L293.7,176.9z"/>
			
				<linearGradient id="SVGID_50_" gradientUnits="userSpaceOnUse" x1="260.9" y1="-4340.1499" x2="260.9" y2="-4410.75" gradientTransform="matrix(1 0 0 1 0 4549.6499)">
				<stop  offset="0" style="stop-color:#442072"/>
				<stop  offset="2.000000e-02" style="stop-color:#42206F"/>
				<stop  offset="0.15" style="stop-color:#34225D"/>
				<stop  offset="0.31" style="stop-color:#2B2350"/>
				<stop  offset="0.53" style="stop-color:#262449"/>
				<stop  offset="1" style="stop-color:#242447"/>
			</linearGradient>
			<path class="st69" d="M299.9,165.6c0,7.1-3.3,27.7-5.2,34.2c-1.6,5.2-11.1,8.6-15.7,9.7v-16.2c20.9-6.5,4.6-34.3,0-27.8
				c-2.9,7.8-12.2,11.3-18.1,10.9c-6,0.4-15.2-3.1-18.1-10.9c-4.6-6.5-20.9,21.3,0,27.8v16.2c-4.5-1.1-14.1-4.5-15.7-9.7
				c-2-6.5-5.2-27.1-5.2-34.2c0,0,13.3-26.7,38.7-26.7C286.2,138.9,299.9,165.6,299.9,165.6z"/>
			
				<linearGradient id="SVGID_51_" gradientUnits="userSpaceOnUse" x1="296.1919" y1="-4391.8706" x2="319.6419" y2="-4391.8706" gradientTransform="matrix(1 0 0 1 0 4549.6499)">
				<stop  offset="0" style="stop-color:#F23719"/>
				<stop  offset="1" style="stop-color:#EF5C1B"/>
			</linearGradient>
			<path class="st70" d="M300.3,168.6C300.3,168.5,300.3,168.5,300.3,168.6c2.9-0.2,5.7-1.2,7.9-3.1c0.3-0.3,0.1-0.7-0.3-0.7
				c-1.6,0.3-3.3,0.4-4.9,0.3c8.7-0.4,15.1-6.8,16.2-8.8c0.3-0.4,0-0.7-0.3-0.6c-8.8,2.7-10.5,2.9-10.5,2.9
				c7-2.2,10.6-10.2,11.1-13.5c0.1-0.3-0.4-0.5-0.6-0.3c-6.7,9.5-18.1,15.1-21.8,16.9c-0.7,0.4-1.1,1.1-1.2,1.8l0.3,4.6v0.7
				c-0.3,2.1-0.5,2.4,0.7,1.7C298.6,169.7,300.3,168.5,300.3,168.6"/>
			
				<linearGradient id="SVGID_52_" gradientUnits="userSpaceOnUse" x1="3271.95" y1="-4390.9707" x2="3295.4099" y2="-4390.9707" gradientTransform="matrix(-1 0 0 1 3497.6218 4549.6499)">
				<stop  offset="0" style="stop-color:#F23719"/>
				<stop  offset="1" style="stop-color:#EF5C1B"/>
			</linearGradient>
			<path class="st71" d="M221.6,169.5C221.6,169.4,221.6,169.4,221.6,169.5c-2.9-0.2-5.7-1.2-7.9-3.1c-0.3-0.3-0.1-0.7,0.3-0.7
				c1.6,0.3,3.3,0.4,4.9,0.3c-8.7-0.4-15.1-6.8-16.2-8.8c-0.3-0.4,0-0.7,0.3-0.6c8.8,2.7,10.6,2.9,10.6,2.9
				c-7-2.2-10.6-10.2-11.1-13.5c-0.1-0.3,0.4-0.5,0.6-0.3c6.7,9.5,18.1,15.1,21.8,16.9c0.7,0.4,1.1,1.1,1.2,1.8l-0.3,4.6v0.7
				c0.3,2.1,0.5,2.4-0.7,1.7C223.3,170.6,221.7,169.4,221.6,169.5"/>
			<path class="st72" d="M224.1,264.7c2.1,7.4,6.9,11.1,3.6,18.3s-2.6,13-7.7,17.2c-5.2,4.2-8.5,1.1-14-7.5s-14.8-6-19-15.6
				s-1.4-16.8-5.3-24.2c-3.9-7.4-15.7-12.7-15.5-18.2c0.1-5.4,1.3-10.6-4.3-18.3c-5.7-7.7-4.6-12.9-5.6-22.6s-11.2-14.6-12-25.3
				l-0.7-10.8c0,0,3.3,13,12.7,15s-8-14.3-12.7-34.3s-10-25.7-10-25.7s10.2,15,16.3,17.7s17.1,9.3,17.1,16.3c0,0-1.3-12.7-6.3-18.5
				c0,0,11.7,10.9,15,11.9s11.3,12.8,11.3,20.1s6.6,8.6,8.3,16.9s3,24.6,4.4,20c1.3-4.7,1.3-9.9,0.3-14.4c0,0,4.2,7.7,5.9,20.1
				s-1.4,13.6,3.1,19.7c7,7,12,8,13,22C222,244.5,222.1,257.5,224.1,264.7z"/>
			
				<linearGradient id="SVGID_53_" gradientUnits="userSpaceOnUse" x1="136.9341" y1="416.4169" x2="231.9279" y2="416.4169" gradientTransform="matrix(1 0 0 -1 0 623.7957)">
				<stop  offset="0" style="stop-color:#F23719"/>
				<stop  offset="1" style="stop-color:#EF5C1B"/>
			</linearGradient>
			<path class="st73" d="M227.6,264.7c0,7.7,6.9,11.1,3.6,18.3s-2.6,13-7.7,17.2c-5.2,4.2-8.5,1.1-14-7.5s-14.8-6-19-15.6
				s-1.4-16.8-5.3-24.2c-3.9-7.4-15.7-12.7-15.5-18.2c0.1-5.4,1.3-10.6-4.3-18.3c-5.7-7.7-4.6-12.9-5.6-22.6s-11.2-14.6-12-25.3
				l-0.7-10.8c0,0,3.3,13,12.7,15s-8-14.3-12.7-34.3s-10-25.7-10-25.7s10.2,15,16.3,17.7s17.1,9.3,17.1,16.3c0,0-1.3-12.7-6.3-18.5
				c0,0,11.7,10.9,15,11.9s11.3,12.8,11.3,20.1s6.6,8.6,8.3,16.9s3,24.6,4.4,20c1.3-4.7,1.3-9.9,0.3-14.4c0,0,4.2,7.7,5.9,20.1
				s-1.4,13.6,3.1,19.7c8,7,13,8,14,22C224.7,255.1,227.6,264.7,227.6,264.7z"/>
			<path class="st48" d="M236.6,292.3c-1.4,0.5-2.4,1.7-2.8,3.1l-9.9,3.8l-4.2-10.9c0.2-4.9,1.4-9.6,3.5-14l-57-117.3l46.2,120.8
				l0,0L166.2,157L202,282.5c4.5,1.9,8.5,4.6,11.9,8.1l4.2,11l-9.9,3.8c-1.2-0.8-2.7-1-4.1-0.5c-2.3,0.9-3.4,3.4-2.5,5.7
				c0.9,2.3,3.4,3.4,5.7,2.5c1.6-0.6,2.7-2,2.8-3.7l9.6-3.7l6,15.5l-0.6,8.3l6.3-2.4l0,0l6.3-2.4l-6-5.8l-6-15.5l9.6-3.7
				c1.2,1.1,3,1.5,4.6,0.9c2.3-0.9,3.4-3.4,2.6-5.7l0,0c-0.7-2.3-3.2-3.5-5.4-2.7C236.8,292.2,236.7,292.3,236.6,292.3z"/>
			<path class="st49" d="M166.2,156.9L166.2,156.9l57.2,117.4c-2.1,4.4-3.3,9.1-3.5,14l4.2,11l9.9-3.8c0.4-1.4,1.4-2.6,2.8-3.1
				c2.3-0.9,4.8,0.3,5.7,2.6c0.9,2.3-0.3,4.8-2.6,5.7c-1.6,0.6-3.4,0.3-4.6-0.9l-9.6,3.7l6,15.5l6,5.8l-6.3,2.4l0,0L166.2,156.9z"/>
			<path class="st74" d="M230.2,303.7l-1,5.7l4,5.6l-6.3,6.5l-9.2-5l1.2-10.5L230.2,303.7z"/>
			
				<linearGradient id="SVGID_54_" gradientUnits="userSpaceOnUse" x1="136.8641" y1="412.2169" x2="231.8579" y2="412.2169" gradientTransform="matrix(1 0 0 -1 0 623.7957)">
				<stop  offset="0" style="stop-color:#F23719"/>
				<stop  offset="1" style="stop-color:#EF5C1B"/>
			</linearGradient>
			<path class="st75" d="M224.9,249.9c0,0,2.6,11.3,2.6,19s6.9,11.1,3.6,18.3s-2.6,13-7.7,17.2s-8.5,1.1-14-7.5s-14.8-6-19-15.6
				s-1.4-16.8-5.3-24.2c-3.9-7.4-15.7-12.7-15.5-18.2c0.1-5.4,1.3-10.6-4.3-18.3c-5.7-7.7-4.6-12.9-5.6-22.6s-11.2-14.6-12-25.3
				l-0.7-10.8c0,0,3.3,13,12.7,15c9.3,2-8-14.3-12.7-34.3s-10-25.7-10-25.7s10.2,15,16.3,17.7s17.1,9.3,17.1,16.3
				s-1.3-12.7-6.3-18.5c0,0,11.7,10.9,15,11.9s11.3,12.8,11.3,20.1s6.6,8.6,8.3,16.9c1.7,8.3,3,24.6,4.4,20
				c1.3-4.7,1.3-9.9,0.3-14.4c0,0,4.2,7.7,5.9,20.1s-1.4,13.6,3.1,19.7C219.6,235,223.4,235.9,224.9,249.9z"/>
		</g>
	</g>
</g>
</svg>
